<svg width="1021" height="284" viewBox="0 0 1021 284" fill="none" xmlns="http://www.w3.org/2000/svg">
<g opacity="0.7">
<g filter="url(#filter0_f_1129_3358)">
<path fill-rule="evenodd" clip-rule="evenodd" d="M481 43.719H290.656V193.081L385.757 244L480.859 193.081L481 193.081V43.719Z" fill="url(#paint0_linear_1129_3358)"/>
</g>
<g style="mix-blend-mode:soft-light">
<path fill-rule="evenodd" clip-rule="evenodd" d="M478.34 52C478.34 46.4772 473.863 42 468.34 42H298.047C292.524 42 288.047 46.4771 288.047 52V184.362C288.047 184.379 288.038 184.394 288.023 184.402C287.992 184.42 287.992 184.465 288.023 184.483C288.038 184.491 288.047 184.506 288.047 184.523V189.976C288.047 195.159 292.248 199.36 297.431 199.36H311.765C313.486 199.36 315.179 199.805 316.679 200.651L378.114 235.315C381.165 237.036 384.893 237.036 387.943 235.315L449.378 200.651C450.878 199.805 452.571 199.36 454.292 199.36H468.34C473.863 199.36 478.34 194.883 478.34 189.36V52Z" fill="url(#paint1_linear_1129_3358)"/>
</g>
</g>
<g opacity="0.7">
<g filter="url(#filter1_f_1129_3358)">
<path fill-rule="evenodd" clip-rule="evenodd" d="M731 42.719H540.656V192.081L635.757 243L730.859 192.081L731 192.081V42.719Z" fill="url(#paint2_linear_1129_3358)"/>
</g>
<g style="mix-blend-mode:soft-light">
<path fill-rule="evenodd" clip-rule="evenodd" d="M728.34 51C728.34 45.4772 723.863 41 718.34 41H548.047C542.524 41 538.047 45.4771 538.047 51V183.362C538.047 183.379 538.038 183.394 538.023 183.402C537.992 183.42 537.992 183.465 538.023 183.483C538.038 183.491 538.047 183.506 538.047 183.523V188.976C538.047 194.159 542.248 198.36 547.431 198.36H561.765C563.486 198.36 565.179 198.805 566.679 199.651L628.114 234.315C631.165 236.036 634.893 236.036 637.943 234.315L699.378 199.651C700.878 198.805 702.571 198.36 704.292 198.36H718.34C723.863 198.36 728.34 193.883 728.34 188.36V51Z" fill="url(#paint3_linear_1129_3358)"/>
</g>
</g>
<g opacity="0.7">
<g filter="url(#filter2_f_1129_3358)">
<path fill-rule="evenodd" clip-rule="evenodd" d="M981 40.719H790.656V190.081L885.757 241L980.859 190.081L981 190.081V40.719Z" fill="url(#paint4_linear_1129_3358)"/>
</g>
<g style="mix-blend-mode:soft-light">
<path fill-rule="evenodd" clip-rule="evenodd" d="M978.34 49C978.34 43.4772 973.863 39 968.34 39H798.047C792.524 39 788.047 43.4771 788.047 49V181.362C788.047 181.379 788.038 181.394 788.023 181.402C787.992 181.42 787.992 181.465 788.023 181.483C788.038 181.491 788.047 181.506 788.047 181.523V186.976C788.047 192.159 792.248 196.36 797.431 196.36H811.765C813.486 196.36 815.179 196.805 816.679 197.651L878.114 232.315C881.165 234.036 884.893 234.036 887.943 232.315L949.378 197.651C950.878 196.805 952.571 196.36 954.292 196.36H968.34C973.863 196.36 978.34 191.883 978.34 186.36V49Z" fill="url(#paint5_linear_1129_3358)"/>
</g>
</g>
<path d="M345.914 119.894C349.665 116.955 352.739 114.423 355.136 112.296C357.533 110.169 359.544 107.985 361.168 105.742C362.792 103.461 363.604 101.295 363.604 99.246C363.604 98.0087 363.314 97.042 362.734 96.346C362.193 95.65 361.381 95.302 360.298 95.302C359.177 95.302 358.307 95.7853 357.688 96.752C357.069 97.68 356.779 99.0527 356.818 100.87H345.798C345.914 97.4287 346.668 94.5867 348.06 92.344C349.452 90.0627 351.269 88.4 353.512 87.356C355.755 86.2733 358.249 85.732 360.994 85.732C365.75 85.732 369.288 86.9113 371.608 89.27C373.928 91.6287 375.088 94.6833 375.088 98.434C375.088 102.455 373.735 106.225 371.028 109.744C368.36 113.263 365.015 116.414 360.994 119.198H375.494V128.42H345.914V119.894ZM379.979 122.04V112.644L397.785 87.24H410.255V112.18H414.721V122.04H410.255V129H398.771V122.04H379.979ZM399.641 100.058L391.637 112.18H399.641V100.058Z" fill="white"/>
<path d="M603.388 98.782C603.117 97.4673 602.673 96.5007 602.054 95.882C601.435 95.2633 600.527 94.954 599.328 94.954C597.511 94.954 596.235 95.8047 595.5 97.506C594.804 99.2073 594.437 101.875 594.398 105.51C595.171 104.311 596.293 103.364 597.762 102.668C599.231 101.972 600.855 101.624 602.634 101.624C606.385 101.624 609.381 102.784 611.624 105.104C613.905 107.424 615.046 110.749 615.046 115.08C615.046 117.941 614.447 120.455 613.248 122.62C612.088 124.747 610.387 126.39 608.144 127.55C605.94 128.71 603.33 129.29 600.314 129.29C594.321 129.29 590.145 127.434 587.786 123.722C585.466 119.971 584.306 114.674 584.306 107.83C584.306 100.251 585.543 94.6833 588.018 91.126C590.493 87.5687 594.475 85.79 599.966 85.79C604.413 85.79 607.777 87.0467 610.058 89.56C612.378 92.0347 613.673 95.1087 613.944 98.782H603.388ZM599.85 110.44C598.497 110.44 597.375 110.827 596.486 111.6C595.635 112.373 595.21 113.475 595.21 114.906C595.21 116.414 595.616 117.574 596.428 118.386C597.24 119.198 598.4 119.604 599.908 119.604C601.3 119.604 602.383 119.217 603.156 118.444C603.968 117.632 604.374 116.491 604.374 115.022C604.374 113.591 603.968 112.47 603.156 111.658C602.383 110.846 601.281 110.44 599.85 110.44ZM620.078 107.192C620.078 100.541 621.432 95.302 624.138 91.474C626.845 87.646 631.098 85.732 636.898 85.732C642.698 85.732 646.952 87.646 649.658 91.474C652.404 95.302 653.776 100.541 653.776 107.192C653.776 113.92 652.423 119.198 649.716 123.026C647.01 126.854 642.737 128.768 636.898 128.768C631.06 128.768 626.787 126.854 624.08 123.026C621.412 119.198 620.078 113.92 620.078 107.192ZM642.524 107.192C642.524 103.712 642.157 101.063 641.422 99.246C640.688 97.39 639.18 96.462 636.898 96.462C634.617 96.462 633.109 97.39 632.374 99.246C631.64 101.063 631.272 103.712 631.272 107.192C631.272 110.749 631.62 113.456 632.316 115.312C633.051 117.129 634.578 118.038 636.898 118.038C639.218 118.038 640.726 117.129 641.422 115.312C642.157 113.456 642.524 110.749 642.524 107.192ZM687.836 114.152H678.498V123.78H667.594V114.152H658.198V103.886H667.594V94.2H678.498V103.886H687.836V114.152Z" fill="white"/>
<path d="M842.67 120.052C842.67 122.256 842.071 124.286 840.872 126.142C839.712 127.959 837.991 129.429 835.71 130.55C833.467 131.671 830.761 132.29 827.59 132.406V137.046H823.936V132.29C819.683 131.903 816.203 130.608 813.496 128.404C810.828 126.2 809.417 123.203 809.262 119.414H821.384C821.539 121.386 822.389 122.681 823.936 123.3V115.876C820.688 114.987 818.136 114.175 816.28 113.44C814.424 112.667 812.761 111.429 811.292 109.728C809.861 108.027 809.146 105.707 809.146 102.768C809.146 100.332 809.784 98.2247 811.06 96.446C812.375 94.6287 814.153 93.2367 816.396 92.27C818.639 91.2647 821.152 90.6847 823.936 90.53V85.832H827.59V90.53C831.882 90.8393 835.285 92.0767 837.798 94.242C840.35 96.4073 841.761 99.3847 842.032 103.174H829.794C829.639 101.395 828.905 100.216 827.59 99.636V107.002L829.04 107.466C831.824 108.239 834.125 109.051 835.942 109.902C837.798 110.714 839.383 111.951 840.698 113.614C842.013 115.238 842.67 117.384 842.67 120.052ZM821.268 102.246C821.268 103.638 822.157 104.779 823.936 105.668V99.288C822.157 99.5973 821.268 100.583 821.268 102.246ZM827.59 123.59C828.518 123.397 829.253 123.029 829.794 122.488C830.335 121.908 830.606 121.193 830.606 120.342C830.606 118.989 829.601 117.887 827.59 117.036V123.59ZM854.452 108.974C851.01 107.079 849.29 104.121 849.29 100.1C849.29 98.012 849.831 96.1173 850.914 94.416C852.035 92.676 853.717 91.3033 855.96 90.298C858.202 89.254 860.967 88.732 864.254 88.732C867.54 88.732 870.305 89.254 872.548 90.298C874.79 91.3033 876.453 92.676 877.536 94.416C878.657 96.1173 879.218 98.012 879.218 100.1C879.218 102.149 878.754 103.928 877.826 105.436C876.936 106.905 875.68 108.085 874.056 108.974C876.066 110.018 877.594 111.41 878.638 113.15C879.682 114.89 880.204 116.939 880.204 119.298C880.204 122.121 879.488 124.557 878.058 126.606C876.627 128.617 874.694 130.144 872.258 131.188C869.86 132.232 867.192 132.754 864.254 132.754C861.315 132.754 858.628 132.232 856.192 131.188C853.794 130.144 851.88 128.617 850.45 126.606C849.019 124.557 848.304 122.121 848.304 119.298C848.304 116.939 848.826 114.89 849.87 113.15C850.914 111.41 852.441 110.018 854.452 108.974ZM868.082 101.898C868.082 100.545 867.734 99.5007 867.038 98.766C866.342 97.9927 865.414 97.606 864.254 97.606C863.132 97.606 862.204 97.9927 861.47 98.766C860.774 99.5393 860.426 100.583 860.426 101.898C860.426 103.213 860.774 104.237 861.47 104.972C862.204 105.707 863.132 106.074 864.254 106.074C865.375 106.074 866.284 105.707 866.98 104.972C867.714 104.237 868.082 103.213 868.082 101.898ZM864.254 113.846C862.784 113.846 861.586 114.291 860.658 115.18C859.768 116.031 859.324 117.191 859.324 118.66C859.324 120.052 859.768 121.193 860.658 122.082C861.547 122.971 862.746 123.416 864.254 123.416C865.762 123.416 866.941 122.971 867.792 122.082C868.681 121.193 869.126 120.052 869.126 118.66C869.126 117.191 868.681 116.031 867.792 115.18C866.902 114.291 865.723 113.846 864.254 113.846ZM906.844 132L897.854 118.66V132H886.486V89.08H897.854V112.222L906.844 99.462H920.474L907.656 115.818L920.706 132H906.844ZM952.691 117.152H943.353V126.78H932.449V117.152H923.053V106.886H932.449V97.2H943.353V106.886H952.691V117.152Z" fill="white"/>
<g opacity="0.7">
<g filter="url(#filter3_f_1129_3358)">
<path fill-rule="evenodd" clip-rule="evenodd" d="M231 41.719H40.6555V191.081L135.757 242L230.859 191.081L231 191.081V41.719Z" fill="url(#paint6_linear_1129_3358)"/>
</g>
<g style="mix-blend-mode:soft-light">
<path fill-rule="evenodd" clip-rule="evenodd" d="M228.34 50C228.34 44.4772 223.863 40 218.34 40H48.0469C42.5241 40 38.0469 44.4771 38.0469 50V182.362C38.0469 182.379 38.038 182.394 38.0235 182.402C37.9922 182.42 37.9922 182.465 38.0235 182.483C38.038 182.491 38.0469 182.506 38.0469 182.523V187.976C38.0469 193.159 42.2484 197.36 47.4311 197.36H61.7646C63.4865 197.36 65.1792 197.805 66.6787 198.651L128.114 233.315C131.165 235.036 134.893 235.036 137.943 233.315L199.378 198.651C200.878 197.805 202.571 197.36 204.292 197.36H218.34C223.863 197.36 228.34 192.883 228.34 187.36V50Z" fill="url(#paint7_linear_1129_3358)"/>
</g>
</g>
<path d="M96.118 96.636H78.718V103.074C79.4527 102.301 80.458 101.682 81.734 101.218C83.01 100.754 84.4213 100.522 85.968 100.522C88.752 100.522 91.072 101.16 92.928 102.436C94.8227 103.712 96.2147 105.394 97.104 107.482C97.9933 109.57 98.438 111.851 98.438 114.326C98.438 118.889 97.1427 122.485 94.552 125.114C91.9613 127.705 88.3653 129 83.764 129C80.5547 129 77.7707 128.459 75.412 127.376C73.092 126.255 71.3133 124.708 70.076 122.736C68.8387 120.764 68.2007 118.502 68.162 115.95H79.24C79.356 116.839 79.7427 117.613 80.4 118.27C81.0573 118.927 82.024 119.256 83.3 119.256C84.6533 119.256 85.678 118.792 86.374 117.864C87.07 116.936 87.418 115.699 87.418 114.152C87.418 112.644 87.0507 111.503 86.316 110.73C85.5813 109.918 84.518 109.512 83.126 109.512C82.082 109.512 81.2313 109.783 80.574 110.324C79.9553 110.827 79.588 111.465 79.472 112.238H68.394V86.602H96.118V96.636ZM103.268 107.192C103.268 100.541 104.621 95.302 107.328 91.474C110.035 87.646 114.288 85.732 120.088 85.732C125.888 85.732 130.141 87.646 132.848 91.474C135.593 95.302 136.966 100.541 136.966 107.192C136.966 113.92 135.613 119.198 132.906 123.026C130.199 126.854 125.927 128.768 120.088 128.768C114.249 128.768 109.977 126.854 107.27 123.026C104.602 119.198 103.268 113.92 103.268 107.192ZM125.714 107.192C125.714 103.712 125.347 101.063 124.612 99.246C123.877 97.39 122.369 96.462 120.088 96.462C117.807 96.462 116.299 97.39 115.564 99.246C114.829 101.063 114.462 103.712 114.462 107.192C114.462 110.749 114.81 113.456 115.506 115.312C116.241 117.129 117.768 118.038 120.088 118.038C122.408 118.038 123.916 117.129 124.612 115.312C125.347 113.456 125.714 110.749 125.714 107.192ZM141.387 107.192C141.387 100.541 142.74 95.302 145.447 91.474C148.154 87.646 152.407 85.732 158.207 85.732C164.007 85.732 168.26 87.646 170.967 91.474C173.712 95.302 175.085 100.541 175.085 107.192C175.085 113.92 173.732 119.198 171.025 123.026C168.318 126.854 164.046 128.768 158.207 128.768C152.368 128.768 148.096 126.854 145.389 123.026C142.721 119.198 141.387 113.92 141.387 107.192ZM163.833 107.192C163.833 103.712 163.466 101.063 162.731 99.246C161.996 97.39 160.488 96.462 158.207 96.462C155.926 96.462 154.418 97.39 153.683 99.246C152.948 101.063 152.581 103.712 152.581 107.192C152.581 110.749 152.929 113.456 153.625 115.312C154.36 117.129 155.887 118.038 158.207 118.038C160.527 118.038 162.035 117.129 162.731 115.312C163.466 113.456 163.833 110.749 163.833 107.192ZM209.144 114.152H199.806V123.78H188.902V114.152H179.506V103.886H188.902V94.2H199.806V103.886H209.144V114.152Z" fill="white"/>
<g filter="url(#filter4_d_1129_3358)">
<path d="M97.552 161.248V178H94.192V170.872H87.016V178H83.656V161.248H87.016V168.136H94.192V161.248H97.552ZM99.9951 171.304C99.9951 169.96 100.259 168.768 100.787 167.728C101.331 166.688 102.059 165.888 102.971 165.328C103.899 164.768 104.931 164.488 106.067 164.488C107.059 164.488 107.923 164.688 108.659 165.088C109.411 165.488 110.011 165.992 110.459 166.6V164.704H113.843V178H110.459V176.056C110.027 176.68 109.427 177.2 108.659 177.616C107.907 178.016 107.035 178.216 106.043 178.216C104.923 178.216 103.899 177.928 102.971 177.352C102.059 176.776 101.331 175.968 100.787 174.928C100.259 173.872 99.9951 172.664 99.9951 171.304ZM110.459 171.352C110.459 170.536 110.299 169.84 109.979 169.264C109.659 168.672 109.227 168.224 108.683 167.92C108.139 167.6 107.555 167.44 106.931 167.44C106.307 167.44 105.731 167.592 105.203 167.896C104.675 168.2 104.243 168.648 103.907 169.24C103.587 169.816 103.427 170.504 103.427 171.304C103.427 172.104 103.587 172.808 103.907 173.416C104.243 174.008 104.675 174.464 105.203 174.784C105.747 175.104 106.323 175.264 106.931 175.264C107.555 175.264 108.139 175.112 108.683 174.808C109.227 174.488 109.659 174.04 109.979 173.464C110.299 172.872 110.459 172.168 110.459 171.352ZM116.261 171.352C116.261 169.976 116.541 168.776 117.101 167.752C117.661 166.712 118.437 165.912 119.429 165.352C120.421 164.776 121.557 164.488 122.837 164.488C124.485 164.488 125.845 164.904 126.917 165.736C128.005 166.552 128.733 167.704 129.101 169.192H125.477C125.285 168.616 124.957 168.168 124.493 167.848C124.045 167.512 123.485 167.344 122.813 167.344C121.853 167.344 121.093 167.696 120.533 168.4C119.973 169.088 119.693 170.072 119.693 171.352C119.693 172.616 119.973 173.6 120.533 174.304C121.093 174.992 121.853 175.336 122.813 175.336C124.173 175.336 125.061 174.728 125.477 173.512H129.101C128.733 174.952 128.005 176.096 126.917 176.944C125.829 177.792 124.469 178.216 122.837 178.216C121.557 178.216 120.421 177.936 119.429 177.376C118.437 176.8 117.661 176 117.101 174.976C116.541 173.936 116.261 172.728 116.261 171.352ZM139.434 178L134.922 172.336V178H131.562V160.24H134.922V170.344L139.386 164.704H143.754L137.898 171.376L143.802 178H139.434ZM157.938 171.064C157.938 171.544 157.906 171.976 157.842 172.36H148.122C148.202 173.32 148.538 174.072 149.13 174.616C149.722 175.16 150.45 175.432 151.314 175.432C152.562 175.432 153.45 174.896 153.978 173.824H157.602C157.218 175.104 156.482 176.16 155.394 176.992C154.306 177.808 152.97 178.216 151.386 178.216C150.106 178.216 148.954 177.936 147.93 177.376C146.922 176.8 146.13 175.992 145.554 174.952C144.994 173.912 144.714 172.712 144.714 171.352C144.714 169.976 144.994 168.768 145.554 167.728C146.114 166.688 146.898 165.888 147.906 165.328C148.914 164.768 150.074 164.488 151.386 164.488C152.65 164.488 153.778 164.76 154.77 165.304C155.778 165.848 156.554 166.624 157.098 167.632C157.658 168.624 157.938 169.768 157.938 171.064ZM154.458 170.104C154.442 169.24 154.13 168.552 153.522 168.04C152.914 167.512 152.17 167.248 151.29 167.248C150.458 167.248 149.754 167.504 149.178 168.016C148.618 168.512 148.274 169.208 148.146 170.104H154.458ZM163.75 166.768C164.182 166.064 164.742 165.512 165.43 165.112C166.134 164.712 166.934 164.512 167.83 164.512V168.04H166.942C165.886 168.04 165.086 168.288 164.542 168.784C164.014 169.28 163.75 170.144 163.75 171.376V178H160.39V164.704H163.75V166.768ZM175.182 178.216C174.094 178.216 173.118 178.024 172.254 177.64C171.39 177.24 170.702 176.704 170.19 176.032C169.694 175.36 169.422 174.616 169.374 173.8H172.758C172.822 174.312 173.07 174.736 173.502 175.072C173.95 175.408 174.502 175.576 175.158 175.576C175.798 175.576 176.294 175.448 176.646 175.192C177.014 174.936 177.198 174.608 177.198 174.208C177.198 173.776 176.974 173.456 176.526 173.248C176.094 173.024 175.398 172.784 174.438 172.528C173.446 172.288 172.63 172.04 171.99 171.784C171.366 171.528 170.822 171.136 170.358 170.608C169.91 170.08 169.686 169.368 169.686 168.472C169.686 167.736 169.894 167.064 170.31 166.456C170.742 165.848 171.35 165.368 172.134 165.016C172.934 164.664 173.87 164.488 174.942 164.488C176.526 164.488 177.79 164.888 178.734 165.688C179.678 166.472 180.198 167.536 180.294 168.88H177.078C177.03 168.352 176.806 167.936 176.406 167.632C176.022 167.312 175.502 167.152 174.846 167.152C174.238 167.152 173.766 167.264 173.43 167.488C173.11 167.712 172.95 168.024 172.95 168.424C172.95 168.872 173.174 169.216 173.622 169.456C174.07 169.68 174.766 169.912 175.71 170.152C176.67 170.392 177.462 170.64 178.086 170.896C178.71 171.152 179.246 171.552 179.694 172.096C180.158 172.624 180.398 173.328 180.414 174.208C180.414 174.976 180.198 175.664 179.766 176.272C179.35 176.88 178.742 177.36 177.942 177.712C177.158 178.048 176.238 178.216 175.182 178.216Z" fill="#FB98F5"/>
</g>
<g filter="url(#filter5_d_1129_3358)">
<path d="M360.552 161.248V178H357.192V170.872H350.016V178H346.656V161.248H350.016V168.136H357.192V161.248H360.552ZM369.763 178.216C368.483 178.216 367.331 177.936 366.307 177.376C365.283 176.8 364.475 175.992 363.883 174.952C363.307 173.912 363.019 172.712 363.019 171.352C363.019 169.992 363.315 168.792 363.907 167.752C364.515 166.712 365.339 165.912 366.379 165.352C367.419 164.776 368.579 164.488 369.859 164.488C371.139 164.488 372.299 164.776 373.339 165.352C374.379 165.912 375.195 166.712 375.787 167.752C376.395 168.792 376.699 169.992 376.699 171.352C376.699 172.712 376.387 173.912 375.763 174.952C375.155 175.992 374.323 176.8 373.267 177.376C372.227 177.936 371.059 178.216 369.763 178.216ZM369.763 175.288C370.371 175.288 370.939 175.144 371.467 174.856C372.011 174.552 372.443 174.104 372.763 173.512C373.083 172.92 373.243 172.2 373.243 171.352C373.243 170.088 372.907 169.12 372.235 168.448C371.579 167.76 370.771 167.416 369.811 167.416C368.851 167.416 368.043 167.76 367.387 168.448C366.747 169.12 366.427 170.088 366.427 171.352C366.427 172.616 366.739 173.592 367.363 174.28C368.003 174.952 368.803 175.288 369.763 175.288ZM391.716 164.704V178H388.332V176.32C387.9 176.896 387.332 177.352 386.628 177.688C385.94 178.008 385.188 178.168 384.372 178.168C383.332 178.168 382.412 177.952 381.612 177.52C380.812 177.072 380.18 176.424 379.716 175.576C379.268 174.712 379.044 173.688 379.044 172.504V164.704H382.404V172.024C382.404 173.08 382.668 173.896 383.196 174.472C383.724 175.032 384.444 175.312 385.356 175.312C386.284 175.312 387.012 175.032 387.54 174.472C388.068 173.896 388.332 173.08 388.332 172.024V164.704H391.716ZM398.391 166.768C398.823 166.064 399.383 165.512 400.071 165.112C400.775 164.712 401.575 164.512 402.471 164.512V168.04H401.583C400.527 168.04 399.727 168.288 399.183 168.784C398.655 169.28 398.391 170.144 398.391 171.376V178H395.031V164.704H398.391V166.768ZM409.822 178.216C408.734 178.216 407.758 178.024 406.894 177.64C406.03 177.24 405.342 176.704 404.83 176.032C404.334 175.36 404.062 174.616 404.014 173.8H407.398C407.462 174.312 407.71 174.736 408.142 175.072C408.59 175.408 409.142 175.576 409.798 175.576C410.438 175.576 410.934 175.448 411.286 175.192C411.654 174.936 411.838 174.608 411.838 174.208C411.838 173.776 411.614 173.456 411.166 173.248C410.734 173.024 410.038 172.784 409.078 172.528C408.086 172.288 407.27 172.04 406.63 171.784C406.006 171.528 405.462 171.136 404.998 170.608C404.55 170.08 404.326 169.368 404.326 168.472C404.326 167.736 404.534 167.064 404.95 166.456C405.382 165.848 405.99 165.368 406.774 165.016C407.574 164.664 408.51 164.488 409.582 164.488C411.166 164.488 412.43 164.888 413.374 165.688C414.318 166.472 414.838 167.536 414.934 168.88H411.718C411.67 168.352 411.446 167.936 411.046 167.632C410.662 167.312 410.142 167.152 409.486 167.152C408.878 167.152 408.406 167.264 408.07 167.488C407.75 167.712 407.59 168.024 407.59 168.424C407.59 168.872 407.814 169.216 408.262 169.456C408.71 169.68 409.406 169.912 410.35 170.152C411.31 170.392 412.102 170.64 412.726 170.896C413.35 171.152 413.886 171.552 414.334 172.096C414.798 172.624 415.038 173.328 415.054 174.208C415.054 174.976 414.838 175.664 414.406 176.272C413.99 176.88 413.382 177.36 412.582 177.712C411.798 178.048 410.878 178.216 409.822 178.216Z" fill="#FB98F5"/>
</g>
<g filter="url(#filter6_d_1129_3358)">
<path d="M596.872 166.432C596.872 167.328 596.656 168.168 596.224 168.952C595.808 169.736 595.144 170.368 594.232 170.848C593.336 171.328 592.2 171.568 590.824 171.568H588.016V178H584.656V161.248H590.824C592.12 161.248 593.224 161.472 594.136 161.92C595.048 162.368 595.728 162.984 596.176 163.768C596.64 164.552 596.872 165.44 596.872 166.432ZM590.68 168.856C591.608 168.856 592.296 168.648 592.744 168.232C593.192 167.8 593.416 167.2 593.416 166.432C593.416 164.8 592.504 163.984 590.68 163.984H588.016V168.856H590.68ZM602.618 166.768C603.05 166.064 603.61 165.512 604.298 165.112C605.002 164.712 605.802 164.512 606.698 164.512V168.04H605.81C604.754 168.04 603.954 168.288 603.41 168.784C602.882 169.28 602.618 170.144 602.618 171.376V178H599.258V164.704H602.618V166.768ZM614.865 178.216C613.585 178.216 612.433 177.936 611.409 177.376C610.385 176.8 609.577 175.992 608.985 174.952C608.409 173.912 608.121 172.712 608.121 171.352C608.121 169.992 608.417 168.792 609.009 167.752C609.617 166.712 610.441 165.912 611.481 165.352C612.521 164.776 613.681 164.488 614.961 164.488C616.241 164.488 617.401 164.776 618.441 165.352C619.481 165.912 620.297 166.712 620.889 167.752C621.497 168.792 621.801 169.992 621.801 171.352C621.801 172.712 621.489 173.912 620.865 174.952C620.257 175.992 619.425 176.8 618.369 177.376C617.329 177.936 616.161 178.216 614.865 178.216ZM614.865 175.288C615.473 175.288 616.041 175.144 616.569 174.856C617.113 174.552 617.545 174.104 617.865 173.512C618.185 172.92 618.345 172.2 618.345 171.352C618.345 170.088 618.009 169.12 617.337 168.448C616.681 167.76 615.873 167.416 614.913 167.416C613.953 167.416 613.145 167.76 612.489 168.448C611.849 169.12 611.529 170.088 611.529 171.352C611.529 172.616 611.841 173.592 612.465 174.28C613.105 174.952 613.905 175.288 614.865 175.288ZM625.969 163.12C625.361 163.12 624.857 162.936 624.457 162.568C624.073 162.184 623.881 161.712 623.881 161.152C623.881 160.592 624.073 160.128 624.457 159.76C624.857 159.376 625.361 159.184 625.969 159.184C626.561 159.184 627.049 159.376 627.433 159.76C627.817 160.128 628.009 160.592 628.009 161.152C628.009 161.712 627.817 162.184 627.433 162.568C627.049 162.936 626.561 163.12 625.969 163.12ZM627.625 180.184C627.625 181.656 627.257 182.712 626.521 183.352C625.801 184.008 624.761 184.336 623.401 184.336H621.913V181.48H622.873C623.385 181.48 623.745 181.376 623.953 181.168C624.161 180.976 624.265 180.656 624.265 180.208V164.704H627.625V180.184ZM643.305 171.064C643.305 171.544 643.273 171.976 643.209 172.36H633.489C633.569 173.32 633.905 174.072 634.497 174.616C635.089 175.16 635.817 175.432 636.681 175.432C637.929 175.432 638.817 174.896 639.345 173.824H642.969C642.585 175.104 641.849 176.16 640.761 176.992C639.673 177.808 638.337 178.216 636.753 178.216C635.473 178.216 634.321 177.936 633.297 177.376C632.289 176.8 631.497 175.992 630.921 174.952C630.361 173.912 630.081 172.712 630.081 171.352C630.081 169.976 630.361 168.768 630.921 167.728C631.481 166.688 632.265 165.888 633.273 165.328C634.281 164.768 635.441 164.488 636.753 164.488C638.017 164.488 639.145 164.76 640.137 165.304C641.145 165.848 641.921 166.624 642.465 167.632C643.025 168.624 643.305 169.768 643.305 171.064ZM639.825 170.104C639.809 169.24 639.497 168.552 638.889 168.04C638.281 167.512 637.537 167.248 636.657 167.248C635.825 167.248 635.121 167.504 634.545 168.016C633.985 168.512 633.641 169.208 633.513 170.104H639.825ZM644.894 171.352C644.894 169.976 645.174 168.776 645.734 167.752C646.294 166.712 647.07 165.912 648.062 165.352C649.054 164.776 650.19 164.488 651.47 164.488C653.118 164.488 654.478 164.904 655.55 165.736C656.638 166.552 657.366 167.704 657.734 169.192H654.11C653.918 168.616 653.59 168.168 653.126 167.848C652.678 167.512 652.118 167.344 651.446 167.344C650.486 167.344 649.726 167.696 649.166 168.4C648.606 169.088 648.326 170.072 648.326 171.352C648.326 172.616 648.606 173.6 649.166 174.304C649.726 174.992 650.486 175.336 651.446 175.336C652.806 175.336 653.694 174.728 654.11 173.512H657.734C657.366 174.952 656.638 176.096 655.55 176.944C654.462 177.792 653.102 178.216 651.47 178.216C650.19 178.216 649.054 177.936 648.062 177.376C647.07 176.8 646.294 176 645.734 174.976C645.174 173.936 644.894 172.728 644.894 171.352ZM664.107 167.464V173.896C664.107 174.344 664.211 174.672 664.419 174.88C664.643 175.072 665.011 175.168 665.523 175.168H667.083V178H664.971C662.139 178 660.723 176.624 660.723 173.872V167.464H659.139V164.704H660.723V161.416H664.107V164.704H667.083V167.464H664.107ZM674.588 178.216C673.5 178.216 672.524 178.024 671.66 177.64C670.796 177.24 670.108 176.704 669.596 176.032C669.1 175.36 668.828 174.616 668.78 173.8H672.164C672.228 174.312 672.476 174.736 672.908 175.072C673.356 175.408 673.908 175.576 674.564 175.576C675.204 175.576 675.7 175.448 676.052 175.192C676.42 174.936 676.604 174.608 676.604 174.208C676.604 173.776 676.38 173.456 675.932 173.248C675.5 173.024 674.804 172.784 673.844 172.528C672.852 172.288 672.036 172.04 671.396 171.784C670.772 171.528 670.228 171.136 669.764 170.608C669.316 170.08 669.092 169.368 669.092 168.472C669.092 167.736 669.3 167.064 669.716 166.456C670.148 165.848 670.756 165.368 671.54 165.016C672.34 164.664 673.276 164.488 674.348 164.488C675.932 164.488 677.196 164.888 678.14 165.688C679.084 166.472 679.604 167.536 679.7 168.88H676.484C676.436 168.352 676.212 167.936 675.812 167.632C675.428 167.312 674.908 167.152 674.252 167.152C673.644 167.152 673.172 167.264 672.836 167.488C672.516 167.712 672.356 168.024 672.356 168.424C672.356 168.872 672.58 169.216 673.028 169.456C673.476 169.68 674.172 169.912 675.116 170.152C676.076 170.392 676.868 170.64 677.492 170.896C678.116 171.152 678.652 171.552 679.1 172.096C679.564 172.624 679.804 173.328 679.82 174.208C679.82 174.976 679.604 175.664 679.172 176.272C678.756 176.88 678.148 177.36 677.348 177.712C676.564 178.048 675.644 178.216 674.588 178.216Z" fill="#FB98F5"/>
</g>
<g filter="url(#filter7_d_1129_3358)">
<path d="M859.872 169.432C859.872 170.328 859.656 171.168 859.224 171.952C858.808 172.736 858.144 173.368 857.232 173.848C856.336 174.328 855.2 174.568 853.824 174.568H851.016V181H847.656V164.248H853.824C855.12 164.248 856.224 164.472 857.136 164.92C858.048 165.368 858.728 165.984 859.176 166.768C859.64 167.552 859.872 168.44 859.872 169.432ZM853.68 171.856C854.608 171.856 855.296 171.648 855.744 171.232C856.192 170.8 856.416 170.2 856.416 169.432C856.416 167.8 855.504 166.984 853.68 166.984H851.016V171.856H853.68ZM865.618 169.768C866.05 169.064 866.61 168.512 867.298 168.112C868.002 167.712 868.802 167.512 869.698 167.512V171.04H868.81C867.754 171.04 866.954 171.288 866.41 171.784C865.882 172.28 865.618 173.144 865.618 174.376V181H862.258V167.704H865.618V169.768ZM873.665 166.12C873.073 166.12 872.577 165.936 872.177 165.568C871.793 165.184 871.601 164.712 871.601 164.152C871.601 163.592 871.793 163.128 872.177 162.76C872.577 162.376 873.073 162.184 873.665 162.184C874.257 162.184 874.745 162.376 875.129 162.76C875.529 163.128 875.729 163.592 875.729 164.152C875.729 164.712 875.529 165.184 875.129 165.568C874.745 165.936 874.257 166.12 873.665 166.12ZM875.321 167.704V181H871.961V167.704H875.321ZM881.712 178.24H887.64V181H877.896V178.288L883.704 170.464H877.92V167.704H887.568V170.416L881.712 178.24ZM902.602 174.064C902.602 174.544 902.57 174.976 902.506 175.36H892.786C892.866 176.32 893.202 177.072 893.794 177.616C894.386 178.16 895.114 178.432 895.978 178.432C897.226 178.432 898.114 177.896 898.642 176.824H902.266C901.882 178.104 901.146 179.16 900.058 179.992C898.97 180.808 897.634 181.216 896.05 181.216C894.77 181.216 893.618 180.936 892.594 180.376C891.586 179.8 890.794 178.992 890.218 177.952C889.658 176.912 889.378 175.712 889.378 174.352C889.378 172.976 889.658 171.768 890.218 170.728C890.778 169.688 891.562 168.888 892.57 168.328C893.578 167.768 894.738 167.488 896.05 167.488C897.314 167.488 898.442 167.76 899.434 168.304C900.442 168.848 901.218 169.624 901.762 170.632C902.322 171.624 902.602 172.768 902.602 174.064ZM899.122 173.104C899.106 172.24 898.794 171.552 898.186 171.04C897.578 170.512 896.834 170.248 895.954 170.248C895.122 170.248 894.418 170.504 893.842 171.016C893.282 171.512 892.938 172.208 892.81 173.104H899.122ZM910.142 181.216C909.054 181.216 908.078 181.024 907.214 180.64C906.35 180.24 905.662 179.704 905.15 179.032C904.654 178.36 904.382 177.616 904.334 176.8H907.718C907.782 177.312 908.03 177.736 908.462 178.072C908.91 178.408 909.462 178.576 910.118 178.576C910.758 178.576 911.254 178.448 911.606 178.192C911.974 177.936 912.158 177.608 912.158 177.208C912.158 176.776 911.934 176.456 911.486 176.248C911.054 176.024 910.358 175.784 909.398 175.528C908.406 175.288 907.59 175.04 906.95 174.784C906.326 174.528 905.782 174.136 905.318 173.608C904.87 173.08 904.646 172.368 904.646 171.472C904.646 170.736 904.854 170.064 905.27 169.456C905.702 168.848 906.31 168.368 907.094 168.016C907.894 167.664 908.83 167.488 909.902 167.488C911.486 167.488 912.75 167.888 913.694 168.688C914.638 169.472 915.158 170.536 915.254 171.88H912.038C911.99 171.352 911.766 170.936 911.366 170.632C910.982 170.312 910.462 170.152 909.806 170.152C909.198 170.152 908.726 170.264 908.39 170.488C908.07 170.712 907.91 171.024 907.91 171.424C907.91 171.872 908.134 172.216 908.582 172.456C909.03 172.68 909.726 172.912 910.67 173.152C911.63 173.392 912.422 173.64 913.046 173.896C913.67 174.152 914.206 174.552 914.654 175.096C915.118 175.624 915.358 176.328 915.374 177.208C915.374 177.976 915.158 178.664 914.726 179.272C914.31 179.88 913.702 180.36 912.902 180.712C912.118 181.048 911.198 181.216 910.142 181.216Z" fill="#FB98F5"/>
</g>
<defs>
<filter id="filter0_f_1129_3358" x="250.656" y="3.71899" width="270.344" height="280.281" filterUnits="userSpaceOnUse" color-interpolation-filters="sRGB">
<feFlood flood-opacity="0" result="BackgroundImageFix"/>
<feBlend mode="normal" in="SourceGraphic" in2="BackgroundImageFix" result="shape"/>
<feGaussianBlur stdDeviation="20" result="effect1_foregroundBlur_1129_3358"/>
</filter>
<filter id="filter1_f_1129_3358" x="500.656" y="2.71899" width="270.344" height="280.281" filterUnits="userSpaceOnUse" color-interpolation-filters="sRGB">
<feFlood flood-opacity="0" result="BackgroundImageFix"/>
<feBlend mode="normal" in="SourceGraphic" in2="BackgroundImageFix" result="shape"/>
<feGaussianBlur stdDeviation="20" result="effect1_foregroundBlur_1129_3358"/>
</filter>
<filter id="filter2_f_1129_3358" x="750.656" y="0.718994" width="270.344" height="280.281" filterUnits="userSpaceOnUse" color-interpolation-filters="sRGB">
<feFlood flood-opacity="0" result="BackgroundImageFix"/>
<feBlend mode="normal" in="SourceGraphic" in2="BackgroundImageFix" result="shape"/>
<feGaussianBlur stdDeviation="20" result="effect1_foregroundBlur_1129_3358"/>
</filter>
<filter id="filter3_f_1129_3358" x="0.655518" y="1.71899" width="270.344" height="280.281" filterUnits="userSpaceOnUse" color-interpolation-filters="sRGB">
<feFlood flood-opacity="0" result="BackgroundImageFix"/>
<feBlend mode="normal" in="SourceGraphic" in2="BackgroundImageFix" result="shape"/>
<feGaussianBlur stdDeviation="20" result="effect1_foregroundBlur_1129_3358"/>
</filter>
<filter id="filter4_d_1129_3358" x="79.656" y="160.24" width="104.758" height="25.9761" filterUnits="userSpaceOnUse" color-interpolation-filters="sRGB">
<feFlood flood-opacity="0" result="BackgroundImageFix"/>
<feColorMatrix in="SourceAlpha" type="matrix" values="0 0 0 0 0 0 0 0 0 0 0 0 0 0 0 0 0 0 127 0" result="hardAlpha"/>
<feOffset dy="4"/>
<feGaussianBlur stdDeviation="2"/>
<feComposite in2="hardAlpha" operator="out"/>
<feColorMatrix type="matrix" values="0 0 0 0 0.992157 0 0 0 0 0.337255 0 0 0 0 0.945098 0 0 0 0.42 0"/>
<feBlend mode="normal" in2="BackgroundImageFix" result="effect1_dropShadow_1129_3358"/>
<feBlend mode="normal" in="SourceGraphic" in2="effect1_dropShadow_1129_3358" result="shape"/>
</filter>
<filter id="filter5_d_1129_3358" x="342.656" y="161.248" width="76.3981" height="24.968" filterUnits="userSpaceOnUse" color-interpolation-filters="sRGB">
<feFlood flood-opacity="0" result="BackgroundImageFix"/>
<feColorMatrix in="SourceAlpha" type="matrix" values="0 0 0 0 0 0 0 0 0 0 0 0 0 0 0 0 0 0 127 0" result="hardAlpha"/>
<feOffset dy="4"/>
<feGaussianBlur stdDeviation="2"/>
<feComposite in2="hardAlpha" operator="out"/>
<feColorMatrix type="matrix" values="0 0 0 0 0.991667 0 0 0 0 0.338819 0 0 0 0 0.944662 0 0 0 0.42 0"/>
<feBlend mode="normal" in2="BackgroundImageFix" result="effect1_dropShadow_1129_3358"/>
<feBlend mode="normal" in="SourceGraphic" in2="effect1_dropShadow_1129_3358" result="shape"/>
</filter>
<filter id="filter6_d_1129_3358" x="580.656" y="159.184" width="103.164" height="33.1519" filterUnits="userSpaceOnUse" color-interpolation-filters="sRGB">
<feFlood flood-opacity="0" result="BackgroundImageFix"/>
<feColorMatrix in="SourceAlpha" type="matrix" values="0 0 0 0 0 0 0 0 0 0 0 0 0 0 0 0 0 0 127 0" result="hardAlpha"/>
<feOffset dy="4"/>
<feGaussianBlur stdDeviation="2"/>
<feComposite in2="hardAlpha" operator="out"/>
<feColorMatrix type="matrix" values="0 0 0 0 0.991667 0 0 0 0 0.338819 0 0 0 0 0.944662 0 0 0 0.42 0"/>
<feBlend mode="normal" in2="BackgroundImageFix" result="effect1_dropShadow_1129_3358"/>
<feBlend mode="normal" in="SourceGraphic" in2="effect1_dropShadow_1129_3358" result="shape"/>
</filter>
<filter id="filter7_d_1129_3358" x="843.656" y="162.184" width="75.7184" height="27.032" filterUnits="userSpaceOnUse" color-interpolation-filters="sRGB">
<feFlood flood-opacity="0" result="BackgroundImageFix"/>
<feColorMatrix in="SourceAlpha" type="matrix" values="0 0 0 0 0 0 0 0 0 0 0 0 0 0 0 0 0 0 127 0" result="hardAlpha"/>
<feOffset dy="4"/>
<feGaussianBlur stdDeviation="2"/>
<feComposite in2="hardAlpha" operator="out"/>
<feColorMatrix type="matrix" values="0 0 0 0 0.991667 0 0 0 0 0.338819 0 0 0 0 0.944662 0 0 0 0.42 0"/>
<feBlend mode="normal" in2="BackgroundImageFix" result="effect1_dropShadow_1129_3358"/>
<feBlend mode="normal" in="SourceGraphic" in2="effect1_dropShadow_1129_3358" result="shape"/>
</filter>
<linearGradient id="paint0_linear_1129_3358" x1="385.828" y1="43.719" x2="385.828" y2="244" gradientUnits="userSpaceOnUse">
<stop stop-color="#FB98F5" stop-opacity="0.58"/>
<stop offset="1" stop-color="#C4C4C4" stop-opacity="0.09"/>
</linearGradient>
<linearGradient id="paint1_linear_1129_3358" x1="383.101" y1="27.065" x2="383.101" y2="239.197" gradientUnits="userSpaceOnUse">
<stop stop-color="white" stop-opacity="0.73"/>
<stop offset="1" stop-color="#C4C4C4" stop-opacity="0"/>
</linearGradient>
<linearGradient id="paint2_linear_1129_3358" x1="635.828" y1="42.719" x2="635.828" y2="243" gradientUnits="userSpaceOnUse">
<stop stop-color="#FB98F5" stop-opacity="0.58"/>
<stop offset="1" stop-color="#C4C4C4" stop-opacity="0.09"/>
</linearGradient>
<linearGradient id="paint3_linear_1129_3358" x1="633.101" y1="26.065" x2="633.101" y2="238.197" gradientUnits="userSpaceOnUse">
<stop stop-color="white" stop-opacity="0.73"/>
<stop offset="1" stop-color="#C4C4C4" stop-opacity="0"/>
</linearGradient>
<linearGradient id="paint4_linear_1129_3358" x1="885.828" y1="40.719" x2="885.828" y2="241" gradientUnits="userSpaceOnUse">
<stop stop-color="#FB98F5" stop-opacity="0.58"/>
<stop offset="1" stop-color="#C4C4C4" stop-opacity="0.09"/>
</linearGradient>
<linearGradient id="paint5_linear_1129_3358" x1="883.101" y1="24.065" x2="883.101" y2="236.197" gradientUnits="userSpaceOnUse">
<stop stop-color="white" stop-opacity="0.73"/>
<stop offset="1" stop-color="#C4C4C4" stop-opacity="0"/>
</linearGradient>
<linearGradient id="paint6_linear_1129_3358" x1="135.828" y1="41.719" x2="135.828" y2="242" gradientUnits="userSpaceOnUse">
<stop stop-color="#FB98F5" stop-opacity="0.58"/>
<stop offset="1" stop-color="#C4C4C4" stop-opacity="0.09"/>
</linearGradient>
<linearGradient id="paint7_linear_1129_3358" x1="133.101" y1="25.065" x2="133.101" y2="237.197" gradientUnits="userSpaceOnUse">
<stop stop-color="white" stop-opacity="0.73"/>
<stop offset="1" stop-color="#C4C4C4" stop-opacity="0"/>
</linearGradient>
</defs>
</svg>
