<svg width="1196" height="221" viewBox="0 0 1196 221" fill="none" xmlns="http://www.w3.org/2000/svg">
<path d="M1196 109.501C1196 79.3489 1133.35 67.5446 1133.35 67.5446V151.457C1133.35 151.457 1196 139.653 1196 109.501Z" fill="#BBB4ED"/>
<rect width="83.9125" height="6.39247" rx="1" transform="matrix(0 -1 -1 0 899.389 152.09)" fill="#454674"/>
<path d="M978.58 201.069C980.319 201.589 982.195 201.091 983.469 199.772L1028.53 153.123C1030.58 150.999 1030.4 147.524 1028.14 145.636L996.295 119.023C994.282 117.34 991.342 117.544 989.569 119.49L934.273 180.167C931.762 182.923 932.967 187.428 936.499 188.484L978.58 201.069Z" fill="#BBB4ED"/>
<path d="M978.58 19.8759C980.319 19.356 982.195 19.8538 983.469 21.173L1028.52 67.8226C1030.58 69.9462 1030.4 73.4209 1028.14 75.3097L996.295 101.923C994.282 103.605 991.342 103.401 989.569 101.456L934.273 40.7784C931.762 38.0222 932.967 33.5174 936.499 32.461L978.58 19.8759Z" fill="#BBB4ED"/>
<path d="M1131.96 151.891C1132.8 151.638 1133.35 150.871 1133.35 149.993V69.0513C1133.35 68.1652 1132.79 67.3923 1131.94 67.147C1123.94 64.8402 1083.58 53.5037 1056 51.1681C1008.69 47.1615 937.405 64.4282 926.405 67.1894C925.522 67.4111 924.959 68.1927 924.959 69.1032V149.939C924.959 150.842 925.512 151.619 926.386 151.847C937.322 154.703 1008.65 172.677 1056 168.514C1083.64 166.085 1124.01 154.277 1131.96 151.891Z" fill="url(#paint0_diamond_814_6242)"/>
<rect width="52.4453" height="12.7849" transform="matrix(0 -1 -1 0 924.959 136.357)" fill="#454674"/>
<path d="M912.174 136.357V83.9121L899.389 70.8008V149.469L912.174 136.357Z" fill="#BBB4ED"/>
<ellipse rx="9.83349" ry="9.58871" transform="matrix(0 -1 -1 0 912.813 193.393)" fill="#6A6A6A"/>
<path d="M920.946 206.413C921.611 206.755 922.402 206.271 922.402 205.524V181.263C922.402 180.515 921.611 180.032 920.946 180.373L915.275 183.281C914.941 183.452 914.731 183.796 914.731 184.171V202.616C914.731 202.991 914.941 203.334 915.275 203.506L920.946 206.413Z" fill="#D8F1FF"/>
<path d="M1001.27 27.7663C1001.27 20.8762 922 4.47829 922 21.4377C922 25.8599 922 27.7664 922 34.095C922 51.0543 1001.27 34.6564 1001.27 27.7663Z" fill="#FF7E60"/>
<path d="M1002.27 193.766C1002.27 186.876 923 170.478 923 187.438C923 191.86 923 193.766 923 200.095C923 217.054 1002.27 200.656 1002.27 193.766Z" fill="#FF7E60"/>
<path opacity="0.5" d="M778.147 110.231C778.147 100.754 884.047 78.1981 884.047 101.526C884.047 107.609 884.047 110.231 884.047 118.936C884.047 142.265 778.147 119.709 778.147 110.231Z" fill="url(#paint1_linear_814_6242)"/>
<path opacity="0.5" d="M801.613 126.473C800.639 118.563 881.364 87.5508 883.762 107.02C884.387 112.097 884.657 114.286 885.552 121.551C887.951 141.02 802.588 134.383 801.613 126.473Z" fill="url(#paint2_linear_814_6242)"/>
<path opacity="0.6" d="M801.613 95.1482C800.639 103.058 881.364 134.07 883.762 114.601C884.387 109.524 884.657 107.335 885.552 100.07C887.951 80.6008 802.588 87.2383 801.613 95.1482Z" fill="url(#paint3_linear_814_6242)"/>
<ellipse rx="9.83349" ry="9.58871" transform="matrix(0 -1 -1 0 912.813 26.9517)" fill="#6A6A6A"/>
<path d="M920.946 39.972C921.611 40.3132 922.402 39.83 922.402 39.0822V14.8215C922.402 14.0737 921.611 13.5905 920.946 13.9317L915.275 16.8396C914.941 17.0107 914.731 17.3543 914.731 17.7294V36.1743C914.731 36.5494 914.941 36.893 915.275 37.0642L920.946 39.972Z" fill="#D8F1FF"/>
<path d="M843.135 110.157C843.135 113.766 884.047 122.355 884.047 113.472C884.047 111.155 884.047 110.156 884.047 106.842C884.047 97.958 843.135 106.547 843.135 110.157Z" fill="url(#paint4_linear_814_6242)"/>
<mask id="mask0_814_6242" style="mask-type:alpha" maskUnits="userSpaceOnUse" x="1133" y="67" width="63" height="85">
<path d="M1196 109.501C1196 79.3489 1133.35 67.5446 1133.35 67.5446V151.457C1133.35 151.457 1196 139.653 1196 109.501Z" fill="url(#paint5_linear_814_6242)"/>
</mask>
<g mask="url(#mask0_814_6242)">
<rect width="136.358" height="35.7979" transform="matrix(0 -1 -1 0 1151.25 171.125)" fill="#3A2685"/>
</g>
<ellipse cx="1074" cy="111.277" rx="35" ry="33" fill="#2E2F3A" fill-opacity="0.83"/>
<mask id="mask1_814_6242" style="mask-type:alpha" maskUnits="userSpaceOnUse" x="1038" y="73" width="73" height="72">
<path d="M1039.8 108.778C1039.8 89.8439 1055.18 74.5 1074.15 74.5C1093.12 74.5 1108.5 89.8439 1108.5 108.778C1108.5 127.713 1093.12 143.057 1074.15 143.057C1055.18 143.057 1039.8 127.713 1039.8 108.778Z" fill="#756F9B" stroke="#D8F1FF" stroke-width="3"/>
</mask>
<g mask="url(#mask1_814_6242)">
<g clip-path="url(#clip0_814_6242)">
<path d="M1058.36 160.679C1061.16 160.643 1063.34 154.694 1063.25 147.392C1063.15 140.09 1060.8 134.199 1058 134.234C1055.21 134.27 1053.02 140.219 1053.12 147.521C1053.22 154.824 1055.56 160.714 1058.36 160.679Z" fill="#E5E5E5"/>
<path opacity="0.35" d="M1103.44 109.821C1103.52 115.99 1101.26 121.717 1097.52 126.271C1092.34 128.642 1084.33 130.17 1075.23 130.286C1066.11 130.402 1058.2 128.864 1052.96 126.613C1049.13 122.166 1046.57 116.692 1046.49 110.547C1046.29 95.9091 1058.88 83.8804 1074.61 83.6799C1090.33 83.4793 1103.24 95.1829 1103.44 109.821Z" fill="white"/>
<path d="M1053.04 126.38C1053.04 126.38 1044.51 138.744 1050.74 142.748C1050.74 142.748 1052.19 143.588 1053.53 143.06C1059.22 140.82 1058.34 127.908 1058.34 127.908L1053.07 126.377L1053.04 126.38Z" fill="#E5E5E5"/>
<path d="M1092.91 160.239C1095.71 160.204 1097.9 154.255 1097.8 146.952C1097.7 139.65 1095.35 133.759 1092.56 133.795C1089.76 133.83 1087.57 139.779 1087.67 147.081C1087.77 154.384 1090.11 160.275 1092.91 160.239Z" fill="white"/>
<path d="M1097.4 126.187L1097.34 121.785C1097.29 117.73 1095.54 113.863 1092.48 111.034C1089.41 108.206 1085.29 106.647 1081.02 106.701L1068.81 106.857C1064.54 106.912 1060.46 108.575 1057.48 111.481C1054.49 114.386 1052.85 118.297 1052.9 122.352L1052.96 126.754C1058.21 128.947 1066.24 130.287 1075.23 130.173C1084.22 130.058 1092.21 128.51 1097.4 126.187Z" fill="#FFC05D"/>
<path d="M1075.23 130.173C1066.24 130.287 1058.21 128.944 1052.96 126.754L1053.19 144.098C1053.25 148.153 1055 152.02 1058.06 154.849C1061.12 157.677 1065.24 159.236 1069.52 159.181L1081.72 159.026C1085.99 158.971 1090.07 157.308 1093.06 154.402C1096.04 151.497 1097.69 147.586 1097.63 143.531L1097.4 126.187C1092.21 128.511 1084.22 130.058 1075.23 130.173Z" fill="white" stroke="#E5E5E5" stroke-width="2" stroke-linecap="round" stroke-linejoin="round"/>
<path d="M1071.68 121.299L1071.66 121.3C1071.66 121.298 1071.67 121.298 1071.68 121.299Z" fill="#FFE7A9"/>
<path d="M1081.11 129.887C1079.13 123.998 1075.94 121.256 1071.68 121.328C1067.64 121.397 1064.57 123.906 1062.77 129.34C1066.89 129.961 1071.06 130.24 1075.23 130.173C1077.25 130.147 1079.21 130.049 1081.11 129.887Z" fill="#FFE7A9"/>
<path d="M1082.51 122.808C1083.82 122.792 1084.87 121.537 1084.85 120.007C1084.83 118.477 1083.75 117.25 1082.43 117.266C1081.12 117.283 1080.07 118.537 1080.09 120.068C1080.11 121.598 1081.19 122.825 1082.51 122.808Z" fill="#820E0F"/>
<path d="M1078.62 117.112C1079.37 116.992 1079.86 116.271 1079.73 115.501C1079.59 114.732 1078.87 114.206 1078.13 114.326C1077.38 114.446 1076.89 115.167 1077.02 115.936C1077.16 116.705 1077.88 117.232 1078.62 117.112Z" fill="#FFE7A9"/>
<path d="M1067.21 116.362C1067.37 115.598 1066.9 114.862 1066.16 114.72C1065.42 114.577 1064.69 115.081 1064.52 115.846C1064.36 116.611 1064.83 117.346 1065.57 117.489C1066.31 117.631 1067.04 117.127 1067.21 116.362Z" fill="#FFE7A9"/>
<path d="M1059.8 126.074C1060.95 126.059 1061.88 125.389 1061.87 124.578C1061.86 123.767 1060.91 123.121 1059.76 123.136C1058.61 123.15 1057.69 123.82 1057.7 124.631C1057.71 125.443 1058.65 126.088 1059.8 126.074Z" fill="#FF7E60"/>
<path d="M1086.61 125.732C1087.76 125.717 1088.69 125.048 1088.68 124.236C1088.66 123.425 1087.72 122.779 1086.57 122.794C1085.42 122.808 1084.49 123.478 1084.51 124.289C1084.52 125.101 1085.46 125.747 1086.61 125.732Z" fill="#FF7E60"/>
<path d="M1070.92 107.247L1063.76 109.914L1056.58 112.58C1056.58 112.58 1055.38 102.248 1059.65 99.9843C1063.92 97.7201 1070.92 107.247 1070.92 107.247Z" fill="#FFC05D"/>
<path d="M1079.13 106.96L1086.32 109.581L1093.5 112.202C1093.5 112.202 1094.65 101.863 1090.38 99.6235C1086.1 97.3835 1079.13 106.96 1079.13 106.96Z" fill="#FFC05D"/>
<path d="M1067.02 106.766L1067.47 106.761C1066.11 105.111 1062.68 101.356 1060.4 102.566C1057.68 104.01 1058.23 110.293 1058.31 111.044C1059.31 109.737 1060.62 108.669 1062.13 107.927C1063.64 107.184 1065.32 106.787 1067.02 106.766Z" fill="#FFE7A9"/>
<path d="M1083.06 106.789L1082.61 106.795C1083.92 105.111 1087.25 101.27 1089.56 102.421C1092.32 103.796 1091.94 110.091 1091.88 110.843C1090.84 109.562 1089.51 108.528 1087.98 107.825C1086.44 107.121 1084.76 106.766 1083.06 106.789Z" fill="#FFE7A9"/>
<path d="M1063.2 123.055C1064.51 123.038 1065.56 121.784 1065.54 120.253C1065.52 118.723 1064.44 117.496 1063.12 117.513C1061.81 117.529 1060.76 118.784 1060.78 120.314C1060.8 121.845 1061.88 123.072 1063.2 123.055Z" fill="#820E0F"/>
<path d="M1071.84 123.049C1073.46 123.028 1074.75 122.191 1074.74 121.178C1074.73 120.165 1073.41 119.36 1071.79 119.381C1070.18 119.401 1068.88 120.239 1068.9 121.252C1068.91 122.265 1070.23 123.07 1071.84 123.049Z" fill="#820E0F"/>
<path d="M1071.84 123.039L1071.88 126.09" stroke="#820E0F" stroke-width="2" stroke-miterlimit="10" stroke-linecap="round"/>
<path d="M1076.65 123.26C1075.5 125.042 1073.8 126.179 1071.89 126.203C1069.97 126.228 1068.24 125.134 1067.05 123.383" stroke="#820E0F" stroke-width="2" stroke-miterlimit="10" stroke-linecap="round"/>
<path d="M1078 133.641L1066.35 133.79C1064.6 133.812 1063.2 135.176 1063.22 136.837L1063.36 147.096C1063.38 148.757 1064.82 150.086 1066.57 150.063L1078.22 149.915C1079.97 149.892 1081.37 148.528 1081.35 146.867L1081.21 136.608C1081.19 134.947 1079.75 133.619 1078 133.641Z" fill="#E5E5E5"/>
<path d="M1076.27 143.319L1072.99 145.52L1072.34 145.954L1071.69 145.536L1068.35 143.42C1067.87 143.115 1067.48 142.704 1067.2 142.223C1066.93 141.741 1066.78 141.204 1066.77 140.656C1066.76 139.627 1067.25 138.631 1068.26 138.109C1069.67 137.382 1071.34 137.948 1072.25 139.152C1073.12 137.926 1074.78 137.317 1076.21 138.007C1078.27 139.003 1078.3 141.957 1076.27 143.319Z" fill="#FF7E60"/>
<path d="M1104.52 120.648C1104.52 120.648 1105.94 121.174 1106.44 122.342C1108.57 127.288 1097.64 139.542 1097.64 139.542L1093.43 136.844C1093.43 136.836 1098.19 118.6 1104.52 120.648Z" fill="white"/>
</g>
<g clip-path="url(#clip1_814_6242)">
<path opacity="0.66" d="M1063.47 136.919L1053.41 137.047L1053.5 144.171L1063.57 144.043L1063.47 136.919Z" fill="#BABABA"/>
<path opacity="0.66" d="M1097.3 136.487L1081.15 136.693L1081.24 143.817L1097.39 143.611L1097.3 136.487Z" fill="#BABABA"/>
<path opacity="0.66" d="M1063.51 139.827L1053.45 139.955L1053.46 140.682L1063.52 140.554L1063.51 139.827Z" fill="#FF7E60"/>
<path opacity="0.66" d="M1097.34 139.396L1081.19 139.602L1081.2 140.329L1097.35 140.123L1097.34 139.396Z" fill="#FF7E60"/>
</g>
</g>
<rect opacity="0.4" x="1041.42" y="123.154" width="68.4238" height="11" rx="4" transform="rotate(-31.7159 1041.42 123.154)" fill="white" fill-opacity="0.5"/>
<rect width="59.2351" height="128.834" rx="10" transform="matrix(-1 0 0 1 735.687 53.4901)" fill="#3A2685"/>
<rect width="59.2351" height="128.834" rx="10" transform="matrix(-1 0 0 1 59.2352 4.92944)" fill="#3A2685"/>
<mask id="mask2_814_6242" style="mask-type:alpha" maskUnits="userSpaceOnUse" x="676" y="53" width="31" height="130">
<rect width="29.6177" height="128.834" rx="10" transform="matrix(-1 0 0 1 706.07 53.4901)" fill="#6D6DF4"/>
</mask>
<g mask="url(#mask2_814_6242)">
<mask id="mask3_814_6242" style="mask-type:alpha" maskUnits="userSpaceOnUse" x="614" y="53" width="93" height="130">
<rect width="91.2216" height="128.834" rx="10" transform="matrix(-1 0 0 1 706.07 53.4901)" fill="#6D6DF4"/>
</mask>
<g mask="url(#mask3_814_6242)">
<rect width="59.5053" height="154.34" rx="10" transform="matrix(0.903157 0.429311 -0.41186 0.911247 699.109 19.1132)" fill="#775BF1" fill-opacity="0.44"/>
</g>
</g>
<mask id="mask4_814_6242" style="mask-type:alpha" maskUnits="userSpaceOnUse" x="29" y="4" width="31" height="130">
<rect width="29.6177" height="128.834" rx="10" transform="matrix(1 0 0 -1 29.6176 133.764)" fill="#6D6DF4"/>
</mask>
<g mask="url(#mask4_814_6242)">
<mask id="mask5_814_6242" style="mask-type:alpha" maskUnits="userSpaceOnUse" x="29" y="4" width="92" height="130">
<rect width="91.2216" height="128.834" rx="10" transform="matrix(1 0 0 -1 29.6176 133.764)" fill="#6D6DF4"/>
</mask>
<g mask="url(#mask5_814_6242)">
<rect width="59.5053" height="154.34" rx="10" transform="matrix(-0.903157 -0.429311 0.41186 -0.911247 36.5781 168.141)" fill="#775BF1" fill-opacity="0.44"/>
</g>
</g>
<rect width="676.452" height="128.834" rx="10" transform="matrix(-1 0 0 1 706.07 29.2089)" fill="#775BF1" fill-opacity="0.37"/>
<line x1="2" y1="-2" x2="161.55" y2="-2" transform="matrix(-0.999675 -0.0254769 -0.0243061 0.999705 896.193 72.3535)" stroke="#AAABF7" stroke-width="4" stroke-linecap="round"/>
<line x1="2" y1="-2" x2="161.991" y2="-2" transform="matrix(-0.997003 0.077361 0.0738235 0.997271 896.193 152.092)" stroke="#AAABF7" stroke-width="4" stroke-linecap="round"/>
<path d="M88.5902 93.1C88.5902 108.566 99.9122 119.444 114.786 119.444C126.256 119.444 135.58 113.376 139.058 102.72H127.144C124.702 107.752 120.262 110.194 114.712 110.194C105.684 110.194 99.2462 103.534 99.2462 93.1C99.2462 82.592 105.684 76.006 114.712 76.006C120.262 76.006 124.702 78.448 127.144 83.406H139.058C135.58 72.824 126.256 66.682 114.786 66.682C99.9122 66.682 88.5902 77.634 88.5902 93.1ZM198.301 93.026C198.301 77.56 186.609 66.608 171.883 66.608C157.305 66.608 145.391 77.56 145.391 93.026C145.391 108.566 157.305 119.518 171.883 119.518C186.535 119.518 198.301 108.566 198.301 93.026ZM156.047 93.026C156.047 82.518 162.485 75.932 171.883 75.932C181.207 75.932 187.645 82.518 187.645 93.026C187.645 103.534 181.207 110.268 171.883 110.268C162.485 110.268 156.047 103.534 156.047 93.026ZM206.009 119H216.369V85.404L230.281 119H238.125L251.963 85.404V119H262.323V67.348H250.631L234.203 105.754L217.775 67.348H206.009V119ZM272.565 119H282.925V67.348H272.565V119ZM326.979 67.274V102.794L303.521 67.274H293.161V119H303.521V83.554L326.979 119H337.339V67.274H326.979ZM371.405 66.682C356.457 66.682 345.061 77.634 345.061 93.1C345.061 108.566 356.457 119.444 371.479 119.444C385.243 119.444 394.641 109.824 396.713 99.316V90.288H368.741V98.206H386.501C384.947 105.532 379.841 110.12 371.849 110.12C362.229 110.12 355.717 103.608 355.717 93.1C355.717 82.814 362.155 76.228 371.405 76.228C376.881 76.228 381.173 78.522 383.541 82.888H395.455C392.125 72.528 382.949 66.682 371.405 66.682ZM458.123 104.052C458.123 85.848 431.631 91.62 431.631 81.26C431.631 77.042 434.665 75.044 438.735 75.192C443.175 75.266 445.913 77.93 446.135 81.334H457.531C456.865 72.01 449.613 66.608 439.031 66.608C428.375 66.608 420.827 72.232 420.827 81.556C420.753 100.278 447.393 93.544 447.393 104.718C447.393 108.418 444.507 111.008 439.623 111.008C434.813 111.008 432.075 108.27 431.779 104.126H420.679C420.827 113.894 429.115 119.518 439.845 119.518C451.611 119.518 458.123 112.192 458.123 104.052ZM517.498 93.026C517.498 77.56 505.806 66.608 491.08 66.608C476.502 66.608 464.588 77.56 464.588 93.026C464.588 108.566 476.502 119.518 491.08 119.518C505.732 119.518 517.498 108.566 517.498 93.026ZM475.244 93.026C475.244 82.518 481.682 75.932 491.08 75.932C500.404 75.932 506.842 82.518 506.842 93.026C506.842 103.534 500.404 110.268 491.08 110.268C481.682 110.268 475.244 103.534 475.244 93.026ZM575.6 93.026C575.6 77.56 563.908 66.608 549.182 66.608C534.604 66.608 522.69 77.56 522.69 93.026C522.69 108.566 534.604 119.518 549.182 119.518C563.834 119.518 575.6 108.566 575.6 93.026ZM533.346 93.026C533.346 82.518 539.784 75.932 549.182 75.932C558.506 75.932 564.944 82.518 564.944 93.026C564.944 103.534 558.506 110.268 549.182 110.268C539.784 110.268 533.346 103.534 533.346 93.026ZM617.125 67.274V102.794L593.667 67.274H583.307V119H593.667V83.554L617.125 119H627.485V67.274H617.125ZM641.201 102.202H649.933L651.117 66.46H639.943L641.201 102.202ZM652.079 113.45C652.079 110.046 649.415 107.382 645.789 107.382C642.015 107.382 639.351 110.046 639.351 113.45C639.351 116.854 642.015 119.518 645.789 119.518C649.415 119.518 652.079 116.854 652.079 113.45Z" fill="white"/>
<ellipse rx="3.75307" ry="3.84888" transform="matrix(-1 0 0 1 731.934 64.3294)" fill="white"/>
<ellipse rx="3.75307" ry="3.84888" transform="matrix(-1 0 0 1 731.934 168.648)" fill="white"/>
<defs>
<radialGradient id="paint0_diamond_814_6242" cx="0" cy="0" r="1" gradientUnits="userSpaceOnUse" gradientTransform="translate(1133 110) rotate(-179.959) scale(208.042 190.269)">
<stop stop-color="#C842E5"/>
<stop offset="1" stop-color="#1B1565"/>
</radialGradient>
<linearGradient id="paint1_linear_814_6242" x1="778.147" y1="110.231" x2="884.047" y2="110.231" gradientUnits="userSpaceOnUse">
<stop stop-color="#451060"/>
<stop offset="1" stop-color="#A72848" stop-opacity="0"/>
</linearGradient>
<linearGradient id="paint2_linear_814_6242" x1="801.613" y1="126.473" x2="884.895" y2="116.213" gradientUnits="userSpaceOnUse">
<stop stop-color="#441061"/>
<stop offset="1" stop-color="#B32A46"/>
</linearGradient>
<linearGradient id="paint3_linear_814_6242" x1="801.613" y1="95.1482" x2="884.895" y2="105.408" gradientUnits="userSpaceOnUse">
<stop stop-color="#2E1930"/>
<stop offset="1" stop-color="#8E0084"/>
</linearGradient>
<linearGradient id="paint4_linear_814_6242" x1="843.135" y1="110.157" x2="880" y2="110" gradientUnits="userSpaceOnUse">
<stop stop-color="#581559"/>
<stop offset="1" stop-color="#B22947"/>
</linearGradient>
<linearGradient id="paint5_linear_814_6242" x1="1196" y1="109.501" x2="1133.35" y2="109.501" gradientUnits="userSpaceOnUse">
<stop stop-color="#8CC9FF"/>
<stop offset="1" stop-color="#D8F1FF" stop-opacity="0"/>
</linearGradient>
<clipPath id="clip0_814_6242">
<rect width="60.0502" height="78.9667" fill="white" transform="matrix(0.999919 -0.0127497 0.01339 0.99991 1046.13 84.043)"/>
</clipPath>
<clipPath id="clip1_814_6242">
<rect width="43.8943" height="7.12465" fill="white" transform="matrix(0.999919 -0.0127497 0.01339 0.99991 1053.41 137.047)"/>
</clipPath>
</defs>
</svg>
