<svg width="1440" height="978" viewBox="0 0 1440 978" fill="none" xmlns="http://www.w3.org/2000/svg">
<g clip-path="url(#clip0_842_8153)">
<rect width="1440" height="978" fill="#161036"/>
<g filter="url(#filter0_f_842_8153)">
<ellipse cx="1392.3" cy="277.433" rx="192" ry="232" transform="rotate(-28.4344 1392.3 277.433)" fill="#FD56F1" fill-opacity="0.42"/>
</g>
<g opacity="0.35" filter="url(#filter1_f_842_8153)">
<path fill-rule="evenodd" clip-rule="evenodd" d="M519.861 103.633C521.077 103.633 522.032 102.327 522.032 100.665C522.032 99.0035 521.077 97.8164 519.861 97.8164C518.646 97.8164 517.69 99.1222 517.69 100.665C517.69 102.327 518.646 103.633 519.861 103.633Z" fill="white"/>
<path fill-rule="evenodd" clip-rule="evenodd" d="M379.793 68.6132C381.008 68.6132 381.963 67.3074 381.963 65.6455C381.963 63.9835 381.008 62.6777 379.793 62.6777C378.577 62.6777 377.622 63.9835 377.622 65.6455C377.622 67.3074 378.664 68.6132 379.793 68.6132Z" fill="white"/>
<path fill-rule="evenodd" clip-rule="evenodd" d="M324.043 303.182C325.259 303.182 326.214 301.876 326.214 300.214C326.214 298.552 325.259 297.246 324.043 297.246C322.827 297.246 321.872 298.552 321.872 300.214C321.872 301.757 322.827 303.182 324.043 303.182Z" fill="white"/>
<path fill-rule="evenodd" clip-rule="evenodd" d="M443.618 600.904C444.833 600.904 445.789 599.598 445.789 597.936C445.789 596.275 444.833 594.969 443.618 594.969C442.402 594.969 441.447 596.275 441.447 597.936C441.447 599.598 442.489 600.904 443.618 600.904Z" fill="white"/>
<path fill-rule="evenodd" clip-rule="evenodd" d="M328.298 745.848C329.514 745.848 330.469 744.542 330.469 742.999C330.469 741.456 329.514 740.031 328.298 740.031C327.082 740.031 326.127 741.337 326.127 742.999C326.127 744.661 327.169 745.848 328.298 745.848Z" fill="white"/>
<path fill-rule="evenodd" clip-rule="evenodd" d="M373.366 757.599C374.582 757.599 375.537 756.293 375.537 754.632C375.537 752.97 374.582 751.664 373.366 751.664C372.151 751.664 371.196 752.97 371.196 754.632C371.196 756.175 372.151 757.599 373.366 757.599Z" fill="white"/>
<path fill-rule="evenodd" clip-rule="evenodd" d="M559.893 977.33C561.109 977.33 562.064 976.024 562.064 974.362C562.064 972.7 561.109 971.395 559.893 971.395C558.677 971.395 557.722 972.7 557.722 974.362C557.722 976.143 558.764 977.33 559.893 977.33Z" fill="white"/>
<path fill-rule="evenodd" clip-rule="evenodd" d="M118.152 789.77C119.367 789.77 120.323 788.464 120.323 786.802C120.323 785.14 119.367 783.834 118.152 783.834C116.936 783.834 115.981 785.14 115.981 786.802C116.068 788.464 117.023 789.77 118.152 789.77Z" fill="white"/>
<path fill-rule="evenodd" clip-rule="evenodd" d="M656.456 734.096C657.672 734.096 658.627 732.79 658.627 731.128C658.627 729.466 657.672 728.16 656.456 728.16C655.24 728.16 654.285 729.466 654.285 731.128C654.285 732.79 655.24 734.096 656.456 734.096Z" fill="white"/>
<path fill-rule="evenodd" clip-rule="evenodd" d="M855.835 857.197C857.05 857.197 858.005 855.891 858.005 854.229C858.005 852.568 857.05 851.262 855.835 851.262C854.619 851.262 853.664 852.568 853.664 854.229C853.664 855.891 854.706 857.197 855.835 857.197Z" fill="white"/>
<path fill-rule="evenodd" clip-rule="evenodd" d="M1042.45 616.81C1043.66 616.81 1044.62 615.505 1044.62 613.843C1044.62 612.181 1043.66 610.875 1042.45 610.875C1041.23 610.875 1040.28 612.181 1040.28 613.843C1040.28 615.505 1041.23 616.81 1042.45 616.81Z" fill="white"/>
<path fill-rule="evenodd" clip-rule="evenodd" d="M1179.65 385.211C1180.87 385.211 1181.82 383.905 1181.82 382.243C1181.82 380.581 1180.87 379.275 1179.65 379.275C1178.44 379.275 1177.48 380.581 1177.48 382.243C1177.48 383.905 1178.52 385.211 1179.65 385.211Z" fill="white"/>
<path fill-rule="evenodd" clip-rule="evenodd" d="M1145.35 273.861C1146.57 273.861 1147.52 272.555 1147.52 270.893C1147.52 269.232 1146.57 267.926 1145.35 267.926C1144.13 267.926 1143.18 269.232 1143.18 270.893C1143.18 272.555 1144.13 273.861 1145.35 273.861Z" fill="white"/>
<path fill-rule="evenodd" clip-rule="evenodd" d="M1242.35 213.321C1243.56 213.321 1244.52 212.015 1244.52 210.472C1244.52 208.81 1243.56 207.504 1242.35 207.504C1241.13 207.504 1240.26 208.81 1240.26 210.472C1240.18 212.015 1241.13 213.321 1242.35 213.321Z" fill="white"/>
<path fill-rule="evenodd" clip-rule="evenodd" d="M1310.51 206.433C1311.73 206.433 1312.69 205.128 1312.69 203.466C1312.69 201.804 1311.73 200.498 1310.51 200.498C1309.3 200.498 1308.34 201.804 1308.34 203.466C1308.34 205.128 1309.3 206.433 1310.51 206.433Z" fill="white"/>
<path fill-rule="evenodd" clip-rule="evenodd" d="M1224.55 158.951C1225.76 158.951 1226.72 157.645 1226.72 155.983C1226.72 154.321 1225.76 153.015 1224.55 153.015C1223.33 153.015 1222.37 154.321 1222.37 155.983C1222.37 157.764 1223.33 158.951 1224.55 158.951Z" fill="white"/>
<path fill-rule="evenodd" clip-rule="evenodd" d="M1096.03 18.8749C1097.24 18.8749 1098.2 17.5691 1098.2 15.9072C1098.2 14.2452 1097.24 12.9395 1096.03 12.9395C1094.81 12.9395 1093.86 14.2452 1093.86 15.9072C1093.86 17.4504 1094.81 18.8749 1096.03 18.8749Z" fill="white"/>
<path fill-rule="evenodd" clip-rule="evenodd" d="M1415.59 18.8749C1416.8 18.8749 1417.76 17.5691 1417.76 15.9072C1417.76 14.2452 1416.8 12.9395 1415.59 12.9395C1414.37 12.9395 1413.42 14.2452 1413.42 15.9072C1413.42 17.4504 1414.37 18.8749 1415.59 18.8749Z" fill="white"/>
<path fill-rule="evenodd" clip-rule="evenodd" d="M1406.99 244.541C1408.21 244.541 1409.16 243.235 1409.16 241.573C1409.16 239.911 1408.21 238.605 1406.99 238.605C1405.78 238.605 1404.82 239.911 1404.82 241.573C1404.82 243.235 1405.78 244.541 1406.99 244.541Z" fill="white"/>
<path fill-rule="evenodd" clip-rule="evenodd" d="M1299.75 531.816C1300.96 531.816 1301.92 530.511 1301.92 528.849C1301.92 527.187 1300.96 525.881 1299.75 525.881C1298.53 525.881 1297.58 527.187 1297.58 528.849C1297.58 530.511 1298.53 531.816 1299.75 531.816Z" fill="white"/>
<path fill-rule="evenodd" clip-rule="evenodd" d="M1396.22 657.885C1397.44 657.885 1398.39 656.579 1398.39 654.917C1398.39 653.255 1397.44 651.949 1396.22 651.949C1395.01 651.949 1394.05 653.255 1394.05 654.917C1394.05 656.579 1395.09 657.885 1396.22 657.885Z" fill="white"/>
<path fill-rule="evenodd" clip-rule="evenodd" d="M1344.82 865.981C1346.03 865.981 1346.99 864.675 1346.99 863.013C1346.99 861.351 1346.03 860.164 1344.82 860.164C1343.6 860.164 1342.64 861.47 1342.64 863.013C1342.64 864.675 1343.6 865.981 1344.82 865.981Z" fill="white"/>
<path fill-rule="evenodd" clip-rule="evenodd" d="M1068.15 848.412C1069.37 848.412 1070.32 847.106 1070.32 845.444C1070.32 843.782 1069.37 842.477 1068.15 842.477C1066.94 842.477 1065.98 843.782 1065.98 845.444C1065.98 847.106 1066.94 848.412 1068.15 848.412Z" fill="white"/>
<path fill-rule="evenodd" clip-rule="evenodd" d="M853.75 118.471C854.966 118.471 855.834 117.165 855.834 115.503C855.834 113.841 854.879 112.535 853.75 112.535C852.534 112.535 851.579 113.841 851.579 115.503C851.579 117.165 852.534 118.471 853.75 118.471Z" fill="white"/>
<path fill-rule="evenodd" clip-rule="evenodd" d="M77.4248 33.4765C78.6406 33.4765 79.5089 32.1707 79.5089 30.5087C79.5089 28.8468 78.5537 27.541 77.4248 27.541C76.2091 27.541 75.2539 28.8468 75.2539 30.5087C75.3407 32.1707 76.2091 33.4765 77.4248 33.4765Z" fill="white"/>
<path fill-rule="evenodd" clip-rule="evenodd" d="M89.7561 49.1462C91.7534 49.1462 93.3165 47.0095 93.3165 44.2792C93.3165 41.6676 91.7534 39.4121 89.7561 39.4121C87.8457 39.4121 86.1958 41.6676 86.1958 44.2792C86.1958 47.0095 87.8457 49.1462 89.7561 49.1462Z" fill="white"/>
<path fill-rule="evenodd" clip-rule="evenodd" d="M206.465 9.73412C208.376 9.73412 210.025 7.59736 210.025 4.86706C210.025 2.25547 208.376 0 206.465 0C204.468 0 202.905 2.25547 202.905 4.86706C202.905 7.59736 204.468 9.73412 206.465 9.73412Z" fill="white"/>
<path fill-rule="evenodd" clip-rule="evenodd" d="M249.363 65.4079C251.273 65.4079 252.923 63.1525 252.923 60.5409C252.923 57.8106 251.273 55.6738 249.363 55.6738C247.366 55.6738 245.803 57.8106 245.803 60.5409C245.803 63.2712 247.366 65.4079 249.363 65.4079Z" fill="white"/>
<path fill-rule="evenodd" clip-rule="evenodd" d="M520.556 37.6308C522.553 37.6308 524.116 35.3754 524.116 32.7638C524.116 30.0335 522.553 27.8967 520.556 27.8967C518.645 27.8967 516.995 30.1522 516.995 32.7638C516.995 35.3754 518.645 37.6308 520.556 37.6308Z" fill="white"/>
<path fill-rule="evenodd" clip-rule="evenodd" d="M195.003 420.586C196.913 420.586 198.563 418.449 198.563 415.719C198.563 413.107 196.913 410.852 195.003 410.852C193.005 410.852 191.442 413.107 191.442 415.719C191.442 418.449 193.005 420.586 195.003 420.586Z" fill="white"/>
<path fill-rule="evenodd" clip-rule="evenodd" d="M460.898 828.113C462.809 828.113 464.459 825.976 464.459 823.246C464.459 820.634 462.809 818.379 460.898 818.379C458.901 818.379 457.338 820.634 457.338 823.246C457.338 825.858 458.901 828.113 460.898 828.113Z" fill="white"/>
<path fill-rule="evenodd" clip-rule="evenodd" d="M999.551 537.869C1001.55 537.869 1003.11 535.613 1003.11 533.002C1003.11 530.272 1001.55 528.135 999.551 528.135C997.64 528.135 995.99 530.272 995.99 533.002C995.99 535.613 997.553 537.869 999.551 537.869Z" fill="white"/>
<path fill-rule="evenodd" clip-rule="evenodd" d="M1342.73 774.457C1344.73 774.457 1346.29 772.32 1346.29 769.59C1346.29 766.978 1344.73 764.723 1342.73 764.723C1340.82 764.723 1339.17 766.978 1339.17 769.59C1339.17 772.32 1340.82 774.457 1342.73 774.457Z" fill="white"/>
<path fill-rule="evenodd" clip-rule="evenodd" d="M775.944 236.23C777.941 236.23 779.504 233.975 779.504 231.363C779.504 228.633 777.941 226.496 775.944 226.496C774.034 226.496 772.384 228.633 772.384 231.363C772.384 234.093 773.947 236.23 775.944 236.23Z" fill="white"/>
<path fill-rule="evenodd" clip-rule="evenodd" d="M1337.95 50.3318C1339.87 50.3318 1341.52 48.0763 1341.52 45.4647C1341.52 42.7344 1339.87 40.5977 1337.95 40.5977C1336.04 40.5977 1334.39 42.7344 1334.39 45.4647C1334.39 48.0763 1336.04 50.3318 1337.95 50.3318Z" fill="white"/>
<path fill-rule="evenodd" clip-rule="evenodd" d="M551.73 500.714C552.512 500.714 553.206 499.764 553.206 498.696C553.206 497.627 552.512 496.678 551.73 496.678C550.949 496.678 550.254 497.627 550.254 498.696C550.254 499.883 550.949 500.714 551.73 500.714Z" fill="white"/>
<path fill-rule="evenodd" clip-rule="evenodd" d="M550.255 161.206C551.036 161.206 551.731 160.256 551.731 159.188C551.731 158.12 551.123 157.17 550.255 157.17C549.473 157.17 548.778 158.12 548.778 159.188C548.778 160.256 549.473 161.206 550.255 161.206Z" fill="white"/>
<path fill-rule="evenodd" clip-rule="evenodd" d="M800.085 47.958C800.866 47.958 801.561 47.0083 801.561 45.9399C801.561 44.8716 800.953 43.9219 800.085 43.9219C799.216 43.9219 798.608 44.7528 798.608 45.9399C798.608 47.127 799.303 47.958 800.085 47.958Z" fill="white"/>
<path fill-rule="evenodd" clip-rule="evenodd" d="M1104.62 323.482C1105.41 323.482 1106.1 322.532 1106.1 321.464C1106.1 320.395 1105.41 319.446 1104.62 319.446C1103.84 319.446 1103.15 320.395 1103.15 321.464C1103.15 322.651 1103.76 323.482 1104.62 323.482Z" fill="white"/>
<path fill-rule="evenodd" clip-rule="evenodd" d="M1321.2 323.482C1321.98 323.482 1322.67 322.532 1322.67 321.464C1322.67 320.395 1322.06 319.446 1321.2 319.446C1320.41 319.446 1319.72 320.395 1319.72 321.464C1319.72 322.651 1320.33 323.482 1321.2 323.482Z" fill="white"/>
<path fill-rule="evenodd" clip-rule="evenodd" d="M1374.77 584.403C1375.56 584.403 1376.25 583.572 1376.25 582.385C1376.25 581.198 1375.56 580.367 1374.77 580.367C1373.99 580.367 1373.3 581.317 1373.3 582.385C1373.3 583.454 1373.99 584.403 1374.77 584.403Z" fill="white"/>
<path fill-rule="evenodd" clip-rule="evenodd" d="M866.515 607.907C867.297 607.907 867.992 606.958 867.992 605.889C867.992 604.821 867.297 603.871 866.515 603.871C865.734 603.871 865.039 604.702 865.039 605.889C865.039 607.076 865.734 607.907 866.515 607.907Z" fill="white"/>
<path fill-rule="evenodd" clip-rule="evenodd" d="M950.227 836.54C951.009 836.54 951.703 835.59 951.703 834.522C951.703 833.454 951.009 832.504 950.227 832.504C949.446 832.504 948.751 833.454 948.751 834.522C948.751 835.59 949.359 836.54 950.227 836.54Z" fill="white"/>
<path fill-rule="evenodd" clip-rule="evenodd" d="M332.64 452.519C333.421 452.519 334.116 451.688 334.116 450.5C334.116 449.313 333.421 448.482 332.64 448.482C331.858 448.482 331.164 449.432 331.164 450.5C331.164 451.569 331.771 452.519 332.64 452.519Z" fill="white"/>
<path fill-rule="evenodd" clip-rule="evenodd" d="M184.583 223.173C185.364 223.173 186.059 222.223 186.059 221.155C186.059 220.086 185.364 219.137 184.583 219.137C183.801 219.137 183.106 220.086 183.106 221.155C183.106 222.342 183.801 223.173 184.583 223.173Z" fill="white"/>
<path fill-rule="evenodd" clip-rule="evenodd" d="M180.327 370.489C181.109 370.489 181.804 369.54 181.804 368.471C181.804 367.403 181.109 366.453 180.327 366.453C179.546 366.453 178.851 367.403 178.851 368.471C178.851 369.54 179.546 370.489 180.327 370.489Z" fill="white"/>
<path fill-rule="evenodd" clip-rule="evenodd" d="M98.8737 575.618C99.6552 575.618 100.35 574.668 100.35 573.6C100.35 572.532 99.6552 571.582 98.8737 571.582C98.0922 571.582 97.3975 572.413 97.3975 573.6C97.3975 574.787 98.0053 575.618 98.8737 575.618Z" fill="white"/>
<path fill-rule="evenodd" clip-rule="evenodd" d="M148.024 178.063C148.805 178.063 149.5 177.232 149.5 176.045C149.5 174.977 148.805 174.027 148.024 174.027C147.242 174.027 146.547 174.977 146.547 176.045C146.547 177.232 147.242 178.063 148.024 178.063Z" fill="white"/>
<path fill-rule="evenodd" clip-rule="evenodd" d="M283.316 352.921C284.098 352.921 284.792 351.971 284.792 350.903C284.792 349.835 284.184 348.885 283.316 348.885C282.535 348.885 281.84 349.835 281.84 350.903C281.753 351.971 282.448 352.921 283.316 352.921Z" fill="white"/>
<path fill-rule="evenodd" clip-rule="evenodd" d="M1118.08 734.808C1118.86 734.808 1119.56 733.858 1119.56 732.79C1119.56 731.721 1118.86 730.771 1118.08 730.771C1117.3 730.771 1116.61 731.602 1116.61 732.79C1116.61 733.977 1117.3 734.808 1118.08 734.808Z" fill="white"/>
</g>
<g opacity="0.3" filter="url(#filter2_f_842_8153)">
<g filter="url(#filter3_f_842_8153)">
<path d="M327.782 959.496C321.985 957.251 318.239 955.509 312.165 955.868C301.65 956.489 294.54 970.542 294.54 970.542C294.54 970.542 290.769 990.4 281.716 999.98C266.67 1015.9 247.432 1017.48 221.309 1020.07C186.666 1023.51 160.021 1022.57 130.319 1004.34C110.914 992.427 98.1713 982.618 93.2013 964.434C88.9136 948.747 104.629 941.607 102.164 925.852C99.109 906.322 94.9667 888.741 71.833 879.279C58.7451 873.926 49.7198 877.985 35.6913 875.433C26.4588 873.754 21.0904 868.576 12.2654 869.991C-4.18119 872.629 6.60132 890.015 4.55618 903.177C-0.827661 937.828 -25.3066 966.892 8.11355 994.147C18.9514 1002.99 28.4161 1004.6 41.0587 1011.75C55.461 1019.9 61.858 1026.58 77.156 1033.5C103.501 1045.42 121.314 1046.6 150.273 1050.49C177.788 1054.19 193.195 1052.57 220.657 1053.47C239.547 1054.1 250.158 1051.34 268.993 1054.75C293.823 1059.25 303.978 1072.73 328.558 1078.54C344.036 1082.2 377.228 1095.3 368.771 1084.19C365.049 1079.3 359.054 1079.13 354.533 1074.62C338.54 1058.69 354.387 1043.61 365.438 1027.68C371.744 1018.59 391.48 1017.94 386.634 1007.29C384.062 1001.64 378.603 1000.01 372.834 995.839C366.021 990.912 361.004 989.302 354.17 984.394C342.266 975.845 342.065 965.026 327.782 959.496Z" fill="url(#paint0_linear_842_8153)"/>
<path d="M531.5 969.853C519.955 973.663 507.869 969.169 500.326 976.83C494.436 982.811 499.856 989.598 495.751 996.526C487.31 1010.77 472.851 1014.55 452.945 1018.15C429.628 1022.36 411.46 1003.59 389.619 1010.54C379.451 1013.78 374.178 1016.95 367.506 1023.61C349.252 1041.83 347.497 1068.85 371.944 1086.63C391.057 1100.53 410.277 1092.73 434.894 1095.85C466.986 1099.92 486.027 1107.4 517.137 1104.15C529.109 1102.9 534.74 1099.24 546.87 1098.54C574.909 1096.94 590.523 1115.03 618.922 1115.28C648.604 1115.54 661.006 1103.56 689.079 1098.31C715.292 1093.41 747.995 1108.36 757.481 1088.89C768.686 1065.89 708.824 1065.3 691.321 1041.96C680.661 1027.74 687.094 1015.57 673.475 1002.83C661.629 991.754 651.076 987.171 633.974 982.853C615.422 978.169 603.474 989.426 585.805 982.469C571.375 976.786 572.367 959.871 556.912 958.695C544.872 957.778 542.065 966.367 531.5 969.853Z" fill="url(#paint1_linear_842_8153)"/>
<path d="M655.849 888.69C636.745 883.668 626.963 865.046 609.332 869.922C594.297 874.08 592.547 885.325 590.829 898.041C589.456 908.199 598.263 914.587 596.609 924.692C593.84 941.608 559.051 939.812 562.863 957.233C564.373 964.134 567.712 967.933 572.932 973.874L573.154 974.126C594.26 998.147 633.001 976.637 662.243 994.822C691.791 1013.2 682.875 1039.3 709.964 1059.94C745.059 1086.68 778.962 1104.4 823.104 1097.88C870.893 1090.82 887.635 1060.52 896.235 1023.02C904.227 988.158 904.094 957.479 869.146 930.278C844.538 911.125 821.358 910.38 788.973 903.407C761.275 897.443 745.256 898.054 717.233 894.988C693.264 892.366 679.282 894.85 655.849 888.69Z" fill="url(#paint2_linear_842_8153)"/>
<path d="M327.911 781.799C317.398 783.258 308.43 778.834 300.475 783.956C291.296 789.867 302.082 800.856 294.834 808.239C288.911 814.271 273.274 809.954 273.118 817.981C273.053 821.352 274.874 823.277 276.75 826.502C286.373 843.048 305.434 845.621 326.794 852.63C348.607 859.788 362.82 855.281 384.942 861.589C454.346 881.377 447.499 984.932 515.255 973.758C540.584 969.581 555.261 962.581 569.169 946.187C579.992 933.43 575.989 922.081 583.352 907.68C591.414 891.912 618.026 886.834 609.394 869.653C601.825 854.589 579.875 858.194 563.63 847.647C552.879 840.667 547.438 836.109 538.306 827.831C528.168 818.64 525.44 811.732 514.945 802.783L514.492 802.396C508.044 796.897 504.206 793.623 496.427 789.097C477.773 778.243 463.567 777.597 441.746 773.266C428.125 770.563 420.337 768.808 406.628 768.236C393.693 767.696 386.484 768.417 374.035 770.049C355.068 772.534 346.826 779.173 327.911 781.799Z" fill="url(#paint3_linear_842_8153)"/>
<path d="M84.7645 683.512C91.2305 669.474 87.7762 653.826 106.129 649.517C113.712 647.737 119.844 645.789 127.071 649.548C133.84 653.069 133.927 658.047 136.444 663.953C141.615 676.087 125.401 685.445 136.231 695.468C147.756 706.136 162.594 698.773 179.429 699.532C192.319 700.113 199.776 696.109 212.293 699.773C232.921 705.81 234.403 710.881 247.387 735.508C260.37 760.136 254.626 773.589 291.54 782.164C328.454 790.739 297.296 792.845 297.196 799.687C296.852 823.058 257.071 816.367 227.894 819.418C185.553 823.844 154.057 825.233 116.066 804.814C95.7788 793.911 84.0101 785.606 72.8511 768.614C52.0133 736.882 70.627 714.207 84.7645 683.512Z" fill="url(#paint4_linear_842_8153)"/>
<path d="M90.153 786.543C72.7577 776.288 69.232 763.256 49.6513 756.375C-2.88107 737.914 -26.491 841.842 25.0193 862.409C35.3738 866.543 42.5724 865.052 53.0594 868.922C77.1922 877.829 91.6306 888.203 102.12 907.334C114.023 929.043 88.7358 942.19 97.4353 964.541C119.999 1022.51 248.057 1037.74 289.835 993.027C301.555 980.484 292.149 964.517 307.984 955.157C339.214 936.698 358.002 998.237 399.241 1006.78C427.397 1012.62 448.831 1017.7 471.504 1006.51C488.547 998.094 499.475 989.254 499.571 972.649C499.693 951.462 470.954 945.362 454.457 926.907C436.16 906.439 436.758 887.92 411.286 872.802C392.825 861.845 378.152 862.913 357.274 855.705C327.422 845.399 311.701 837.476 282.112 826.586C268.139 821.443 260.891 816.563 246.202 813.694C220.246 808.623 207.103 821.77 180.932 819.29C143.466 815.74 121.762 805.177 90.153 786.543Z" fill="url(#paint5_linear_842_8153)"/>
</g>
<path d="M587.51 1114.24C564.998 1110.67 535.288 1127.49 529.593 1109.03C523.71 1089.97 562.595 1096.08 585.928 1096.81C605.665 1097.43 616.515 1110.86 635.682 1108.37C648.715 1106.68 652.48 1098.63 665.259 1096.19C672.965 1094.72 677.567 1094.22 685.671 1094.67C696.548 1095.29 702.187 1100.65 713.053 1101.03C733.023 1101.75 738.246 1085.06 758.076 1084.48C775.18 1083.98 784.247 1093.7 801.485 1094.56C819.102 1095.45 828.125 1090.99 845.128 1088.49C853.256 1087.3 857.538 1085.44 865.917 1085.36C880.562 1085.22 890.827 1086.18 902.982 1093.97C913.053 1100.42 918.101 1106.25 921.406 1116.17C925.611 1128.79 923.746 1138.5 914.073 1147.73C896.944 1164.08 871.302 1137.97 843.906 1137.69C833.284 1137.58 827.544 1140.07 816.899 1138.81C798.94 1136.69 790.939 1128.01 774.117 1121.48C756.648 1114.69 747.605 1104.27 729.081 1104.76C704.858 1105.4 707.806 1135.38 683.679 1136.58C669.519 1137.29 661.699 1131.48 647.615 1128.2C624.143 1122.75 611.278 1118.01 587.51 1114.24Z" fill="url(#paint6_linear_842_8153)"/>
<g filter="url(#filter5_f_842_8153)">
<path d="M903.368 958.988C894.502 951.192 888.166 933.094 879.663 939.832C872.858 945.225 882.223 952.576 883.958 960.735C886.4 972.22 889.46 978.602 890.504 990.124C891.894 1005.46 881.584 1013.86 887.135 1028.87C887.135 1028.87 888.845 1034.96 891.662 1038.17C898.812 1046.32 909.9 1041.26 921.047 1044.99C930.513 1048.16 935.023 1051.64 944.42 1054.97C961.521 1061.04 972.098 1061.4 989.833 1065.52C997.266 1067.25 1003.17 1073.59 1008.87 1069.94C1016.13 1065.3 999.515 1059.48 992.654 1053.38C981.626 1043.58 971.787 1041.17 961.248 1031.01C946.577 1016.88 946.733 1004.69 933.958 989.412C923.359 976.735 916.18 970.254 903.368 958.988Z" fill="url(#paint7_linear_842_8153)"/>
</g>
</g>
<g opacity="0.4" filter="url(#filter6_f_842_8153)">
<path d="M1474.91 1409.17C1474.91 1409.17 1227.94 1164.79 1107.97 1238.4C1026.81 1288.2 1009.96 1355.89 928.994 1351.43C860.944 1347.69 740.193 1266.3 684.692 1216.82C607.317 1147.84 551.573 1040.19 469.79 973.266C298.831 833.377 38.903 890.595 146.899 1092.74" stroke="url(#paint8_linear_842_8153)" stroke-width="0.5658" stroke-miterlimit="10"/>
<path d="M1474.17 1410.61C1474.17 1410.61 1230.43 1169.88 1109.53 1238.5C1027.87 1284.84 1008.76 1349.25 927.577 1344.62C912.195 1343.76 894.183 1339.02 874.873 1331.65C862.72 1327.02 850.089 1321.38 837.291 1315.02C781.008 1287.06 721.294 1244.88 686.604 1214.88C609.656 1148.43 553.682 1044.29 472.33 979C302.903 842.665 46.8106 895.257 145.035 1084.56" stroke="url(#paint9_linear_842_8153)" stroke-width="0.5658" stroke-miterlimit="10"/>
<path d="M1473.43 1412.06C1473.43 1412.06 1232.94 1174.97 1111.09 1238.6C1028.94 1281.49 1007.56 1342.61 926.162 1337.81C910.894 1336.93 893.079 1332.32 874.019 1325.2C862.016 1320.72 849.565 1315.29 836.982 1309.19C781.618 1282.38 722.974 1241.8 688.517 1212.94C612.007 1149.03 555.681 1048.47 474.874 984.732C306.743 852.119 54.7293 899.923 143.173 1076.38" stroke="url(#paint10_linear_842_8153)" stroke-width="0.5658" stroke-miterlimit="10"/>
<path d="M1472.68 1413.5C1472.68 1413.5 1235.45 1180.05 1112.64 1238.69C1030.02 1278.14 1006.35 1335.97 924.737 1330.99C909.571 1330.09 891.963 1325.62 873.154 1318.74C861.299 1314.42 849.038 1309.2 836.672 1303.37C782.23 1277.7 724.644 1238.72 690.424 1211C614.341 1149.61 557.743 1052.6 477.409 990.457C310.715 861.492 62.6396 904.582 141.304 1068.19" stroke="url(#paint11_linear_842_8153)" stroke-width="0.5658" stroke-miterlimit="10"/>
<path d="M1471.94 1414.95C1471.94 1414.95 1238 1185.15 1114.2 1238.79C1031.13 1274.79 1005.15 1329.33 923.318 1324.18C908.264 1323.27 890.847 1318.92 872.298 1312.29C860.594 1308.12 848.52 1303.12 836.368 1297.54C782.855 1273.04 726.375 1235.61 692.335 1209.06C616.793 1150.13 559.808 1056.75 479.951 996.186C314.703 870.871 70.5486 909.24 139.441 1060.01" stroke="url(#paint12_linear_842_8153)" stroke-width="0.5658" stroke-miterlimit="10"/>
<path d="M1471.19 1416.39C1471.19 1416.39 1240.56 1190.24 1115.74 1238.88C1032.23 1271.43 1003.93 1322.68 921.885 1317.36C906.933 1316.43 889.723 1312.22 871.424 1305.83C859.869 1301.81 847.984 1297.03 836.042 1291.71C783.45 1268.34 728.045 1232.51 694.233 1207.11C619.136 1150.69 561.872 1060.88 482.477 1001.91C318.687 880.242 78.4507 913.894 137.563 1051.81" stroke="url(#paint13_linear_842_8153)" stroke-width="0.5658" stroke-miterlimit="10"/>
<path d="M1470.46 1417.83C1470.46 1417.83 1243.16 1195.33 1117.3 1238.98C1033.36 1268.09 1002.72 1316.04 920.468 1310.55C905.629 1309.6 888.616 1305.52 870.567 1299.38C859.155 1295.51 847.465 1290.95 835.738 1285.89C784.074 1263.68 729.729 1229.42 696.144 1205.17C621.491 1151.26 563.955 1065.03 485.018 1007.64C322.707 889.629 86.359 918.556 135.688 1043.63" stroke="url(#paint14_linear_842_8153)" stroke-width="0.5658" stroke-miterlimit="10"/>
<path d="M1469.72 1419.28C1469.72 1419.28 1245.79 1200.44 1118.86 1239.08C1034.51 1264.76 1001.52 1309.4 919.052 1303.74C904.325 1302.77 887.511 1298.83 869.712 1292.92C858.449 1289.21 846.94 1284.86 835.436 1280.07C784.694 1259.01 731.415 1226.34 698.058 1203.23C623.84 1151.82 566.045 1069.18 487.561 1013.37C326.738 899.015 94.2768 923.221 133.826 1035.45" stroke="url(#paint15_linear_842_8153)" stroke-width="0.5658" stroke-miterlimit="10"/>
<path d="M1468.97 1420.72C1468.97 1420.72 1248.43 1205.55 1120.41 1239.18C1035.69 1261.43 1000.31 1302.76 917.626 1296.92C903.001 1295.94 886.395 1292.13 868.846 1286.47C857.734 1282.9 846.412 1278.77 835.117 1274.24C785.303 1254.33 733.074 1223.24 699.962 1201.29C626.177 1152.38 568.135 1073.32 490.095 1019.1C330.773 908.394 102.189 927.877 131.956 1027.26" stroke="url(#paint16_linear_842_8153)" stroke-width="0.5658" stroke-miterlimit="10"/>
<path d="M1468.23 1422.17C1468.23 1422.17 1251.13 1210.68 1121.97 1239.28C1036.89 1258.12 998.998 1295.97 916.206 1290.11C901.667 1289.09 885.285 1285.44 867.989 1280.02C857.025 1276.61 845.893 1272.69 834.812 1268.42C785.92 1249.66 734.758 1220.15 701.871 1199.35C628.511 1152.94 570.23 1077.47 492.633 1024.83C334.833 917.787 110.094 932.543 130.089 1019.08" stroke="url(#paint17_linear_842_8153)" stroke-width="0.5658" stroke-miterlimit="10"/>
<path d="M1467.48 1423.61C1467.48 1423.61 1253.85 1215.81 1123.51 1239.36C1038.11 1254.8 997.78 1289.3 914.775 1283.29C900.349 1282.24 884.155 1278.71 867.118 1273.55C856.293 1270.28 845.36 1266.6 834.496 1262.58C786.532 1244.98 736.42 1217.05 703.772 1197.39C630.835 1153.49 572.33 1081.6 495.165 1030.55C338.892 927.147 118.001 937.189 128.216 1010.88" stroke="url(#paint18_linear_842_8153)" stroke-width="0.5658" stroke-miterlimit="10"/>
<path d="M1466.75 1425.05C1466.75 1425.05 1256.63 1220.97 1125.07 1239.46C1039.37 1251.51 996.573 1282.66 913.357 1276.48C899.034 1275.42 883.049 1272.01 866.26 1267.1C855.586 1263.98 844.84 1260.52 834.183 1256.76C787.138 1240.3 738.082 1213.96 705.681 1195.46C633.158 1154.06 574.446 1085.76 497.702 1036.28C342.978 936.537 125.906 941.856 126.348 1002.7" stroke="url(#paint19_linear_842_8153)" stroke-width="0.5658" stroke-miterlimit="10"/>
<path d="M1466.01 1426.5C1466.01 1426.5 1259.45 1226.16 1126.63 1239.57C1040.66 1248.25 995.365 1276.01 911.94 1269.67C897.731 1268.59 881.934 1265.31 865.403 1260.65C854.878 1257.68 844.313 1254.41 833.879 1250.94C787.741 1235.57 739.756 1210.87 707.594 1193.52C635.484 1154.62 576.57 1089.9 500.246 1042.01C347.074 945.911 133.825 946.52 124.487 994.52" stroke="url(#paint20_linear_842_8153)" stroke-width="0.5658" stroke-miterlimit="10"/>
<path d="M1465.26 1427.94C1465.26 1427.94 1262.32 1231.36 1128.18 1239.66C1041.98 1244.99 994.15 1269.36 910.515 1262.85C896.408 1261.75 880.819 1258.61 864.538 1254.19C854.156 1251.37 843.785 1248.33 833.569 1245.11C788.353 1230.89 741.421 1207.78 709.498 1191.58C637.789 1155.18 578.686 1094.04 502.778 1047.74C351.182 955.282 141.732 951.183 122.615 986.335" stroke="url(#paint21_linear_842_8153)" stroke-width="0.5658" stroke-miterlimit="10"/>
<path d="M1464.52 1429.39C1464.52 1429.39 1265.24 1236.61 1129.74 1239.76C1043.34 1241.77 992.94 1262.72 909.097 1256.04C895.101 1254.93 879.711 1251.92 863.683 1247.74C853.449 1245.08 843.268 1242.24 833.258 1239.29C788.962 1226.21 743.075 1204.69 711.404 1189.63C640.104 1155.74 580.816 1098.17 505.315 1053.46C355.3 964.639 149.636 955.833 120.747 978.142" stroke="url(#paint22_linear_842_8153)" stroke-width="0.5658" stroke-miterlimit="10"/>
<path d="M1463.77 1430.83C1463.77 1430.83 1268.21 1241.89 1131.28 1239.85C1044.72 1238.56 991.726 1256.07 907.663 1249.22C893.772 1248.09 878.587 1245.21 862.809 1241.28C852.726 1238.77 842.724 1236.15 832.94 1233.46C789.565 1221.52 744.73 1201.59 713.308 1187.69C642.403 1156.3 582.947 1102.3 507.847 1059.19C359.42 973.992 157.544 960.496 118.866 969.951" stroke="url(#paint23_linear_842_8153)" stroke-width="0.5658" stroke-miterlimit="10"/>
<path d="M1463.03 1432.27C1463.03 1432.27 1271.25 1247.21 1132.84 1239.95C1046.15 1235.4 990.524 1249.43 906.246 1242.41C892.466 1241.26 877.479 1238.52 861.952 1234.83C852.009 1232.47 842.205 1230.07 832.635 1227.64C790.18 1216.85 746.398 1198.51 715.22 1185.75C644.719 1156.88 585.091 1106.44 510.39 1064.92C363.559 983.335 165.454 965.155 117.002 961.771" stroke="url(#paint24_linear_842_8153)" stroke-width="0.5658" stroke-miterlimit="10"/>
<path d="M1462.29 1433.72C1462.29 1433.72 1274.33 1252.6 1134.4 1240.05C1047.62 1232.27 989.315 1242.79 904.83 1235.6C891.153 1234.43 876.366 1231.82 861.096 1228.38C851.304 1226.16 841.687 1223.98 832.327 1221.81C790.794 1212.17 748.06 1195.43 717.126 1183.8C647.023 1157.46 587.231 1110.55 512.924 1070.65C367.706 992.665 173.366 969.811 115.131 953.583" stroke="url(#paint25_linear_842_8153)" stroke-width="0.5658" stroke-miterlimit="10"/>
<path d="M1461.55 1435.16C1461.55 1435.16 1277.46 1258.03 1135.95 1240.14C1049.11 1229.17 988.114 1236.15 903.405 1228.78C889.841 1227.6 875.25 1225.12 860.231 1221.92C850.588 1219.86 841.16 1217.9 832.014 1215.98C791.401 1207.5 749.718 1192.35 719.039 1181.86C649.343 1158.05 589.383 1114.67 515.467 1076.38C371.86 1001.98 181.284 974.475 113.27 945.399" stroke="url(#paint26_linear_842_8153)" stroke-width="0.5658" stroke-miterlimit="10"/>
<path d="M1460.81 1436.61C1460.81 1436.61 1280.65 1263.52 1137.51 1240.24C1050.64 1226.11 986.913 1229.51 901.987 1221.97C888.534 1220.78 874.14 1218.43 859.376 1215.47C849.884 1213.56 840.635 1211.81 831.704 1210.16C792.011 1202.82 751.384 1189.27 720.943 1179.92C651.651 1158.63 591.52 1118.78 517.999 1082.11C376.002 1011.29 189.184 979.134 111.397 937.214" stroke="url(#paint27_linear_842_8153)" stroke-width="0.5658" stroke-miterlimit="10"/>
<path d="M1460.06 1438.05C1460.06 1438.05 1283.86 1269.08 1139.06 1240.33C1052.18 1223.09 985.704 1222.87 900.554 1215.15C887.211 1213.94 873.017 1211.72 858.503 1209C849.159 1207.26 840.1 1205.72 831.386 1204.33C792.612 1198.14 753.042 1186.19 722.841 1177.97C653.959 1159.22 593.658 1122.87 520.526 1087.83C380.14 1020.56 197.086 983.788 109.519 929.02" stroke="url(#paint28_linear_842_8153)" stroke-width="0.5658" stroke-miterlimit="10"/>
<path d="M1459.32 1439.49C1459.32 1439.49 1287.11 1274.71 1140.62 1240.43C1053.75 1220.11 984.5 1216.24 899.136 1208.34C885.897 1207.11 871.909 1205.03 857.645 1202.55C848.444 1200.95 839.58 1199.64 831.081 1198.51C793.233 1193.48 754.713 1183.12 724.759 1176.04C656.302 1159.84 595.811 1126.97 523.075 1093.57C384.297 1029.84 205.002 988.455 107.663 920.844" stroke="url(#paint29_linear_842_8153)" stroke-width="0.5658" stroke-miterlimit="10"/>
<path d="M1458.58 1440.94C1458.58 1440.94 1290.38 1280.4 1142.17 1240.54C1055.33 1217.17 983.31 1209.62 897.719 1201.53C884.59 1200.29 870.802 1198.34 856.788 1196.1C847.735 1194.66 839.061 1193.56 830.771 1192.68C793.85 1188.81 756.387 1180.05 726.666 1174.09C658.625 1160.45 597.955 1131.04 525.61 1099.29C388.442 1039.09 212.912 993.114 105.793 912.655" stroke="url(#paint30_linear_842_8153)" stroke-width="0.5658" stroke-miterlimit="10"/>
<path d="M1457.84 1442.38C1457.84 1442.38 1293.66 1286.16 1143.73 1240.63C1056.91 1214.26 982.106 1202.98 896.293 1194.71C883.275 1193.46 869.684 1191.64 855.923 1189.65C847.018 1188.36 838.531 1187.47 830.458 1186.86C794.457 1184.13 758.058 1176.99 728.567 1172.15C660.957 1161.07 600.083 1135.11 528.142 1105.02C392.565 1048.32 220.819 997.778 103.92 904.471" stroke="url(#paint31_linear_842_8153)" stroke-width="0.5658" stroke-miterlimit="10"/>
<path d="M1457.1 1443.83C1457.1 1443.83 1296.93 1291.98 1145.29 1240.73C1058.49 1211.39 980.913 1196.35 894.878 1187.9C881.971 1186.63 868.586 1184.95 855.067 1183.19C846.314 1182.06 838.019 1181.4 830.156 1181.04C795.131 1179.53 759.737 1173.93 730.489 1170.22C663.319 1161.7 602.227 1139.17 530.692 1110.76C396.698 1057.53 228.737 1002.44 102.058 896.287" stroke="url(#paint32_linear_842_8153)" stroke-width="0.5658" stroke-miterlimit="10"/>
<path d="M1456.35 1445.27C1456.35 1445.27 1300.16 1297.85 1146.83 1240.82C1060.02 1208.53 979.797 1189.86 893.441 1181.08C880.656 1179.82 867.468 1178.27 854.194 1176.73C845.6 1175.77 837.483 1175.31 829.829 1175.2C795.724 1174.84 761.403 1170.85 732.377 1168.26C665.646 1162.31 604.333 1143.21 533.219 1116.48C400.796 1066.71 236.639 1007.1 100.18 888.093" stroke="url(#paint33_linear_842_8153)" stroke-width="0.5658" stroke-miterlimit="10"/>
<path d="M1455.61 1446.71C1455.61 1446.71 1303.36 1303.76 1148.39 1240.92C1061.56 1205.71 978.596 1183.22 892.024 1174.27C879.351 1172.99 866.361 1171.58 853.336 1170.28C844.885 1169.46 836.964 1169.23 829.524 1169.38C796.35 1170.18 763.09 1167.79 734.289 1166.32C668.013 1162.94 606.45 1147.24 535.759 1122.21C404.891 1075.87 244.547 1011.76 98.313 879.916" stroke="url(#paint34_linear_842_8153)" stroke-width="0.5658" stroke-miterlimit="10"/>
<path d="M1454.87 1448.16C1454.87 1448.16 1306.5 1309.71 1149.95 1241.02C1063.05 1202.89 977.395 1176.59 890.608 1167.46C878.039 1166.16 865.255 1164.88 852.481 1163.83C844.178 1163.17 836.447 1163.14 829.224 1163.56C796.969 1165.5 764.79 1164.74 736.203 1164.38C670.385 1163.57 608.563 1151.26 538.304 1127.94C408.969 1085.01 252.469 1016.42 96.4532 871.729" stroke="url(#paint35_linear_842_8153)" stroke-width="0.5658" stroke-miterlimit="10"/>
<path d="M1454.12 1449.6C1454.12 1449.6 1309.57 1315.67 1151.5 1241.11C1064.49 1200.07 976.186 1169.94 889.183 1160.64C876.724 1159.33 864.14 1158.18 851.616 1157.37C843.464 1156.86 835.919 1157.06 828.903 1157.73C797.571 1160.82 766.461 1161.67 738.107 1162.44C672.746 1164.2 610.655 1155.26 540.836 1133.67C413.008 1094.12 260.377 1021.08 94.5809 863.544" stroke="url(#paint36_linear_842_8153)" stroke-width="0.5658" stroke-miterlimit="10"/>
<path d="M1453.39 1451.05C1453.39 1451.05 1312.56 1321.64 1153.06 1241.21C1065.9 1197.26 974.987 1163.3 887.765 1153.83C875.41 1152.5 863.033 1151.49 850.758 1150.92C842.755 1150.57 835.392 1150.97 828.599 1151.91C798.194 1156.16 768.195 1158.67 740.017 1160.51C675.206 1164.94 612.727 1159.26 543.377 1139.4C417.034 1103.22 268.285 1025.74 92.7168 855.365" stroke="url(#paint37_linear_842_8153)" stroke-width="0.5658" stroke-miterlimit="10"/>
<path d="M1452.65 1452.5C1452.65 1452.5 1315.46 1327.61 1154.61 1241.31C1067.23 1194.43 973.778 1156.66 886.34 1147.01C874.097 1145.67 861.917 1144.79 849.895 1144.46C842.043 1144.26 834.867 1144.88 828.291 1146.08C798.808 1151.47 769.87 1155.58 741.926 1158.55C677.545 1165.52 614.794 1163.23 545.914 1145.12C421.032 1112.29 276.197 1030.4 90.8489 847.172" stroke="url(#paint38_linear_842_8153)" stroke-width="0.5658" stroke-miterlimit="10"/>
<path d="M1451.9 1453.94C1451.9 1453.94 1103.11 1139.74 849.038 1138.01C841.325 1137.96 834.347 1138.8 827.978 1140.26C614.57 1189.16 439.055 1190.76 88.9762 838.987" stroke="url(#paint39_linear_842_8153)" stroke-width="0.5658" stroke-miterlimit="10"/>
<path d="M1447.43 1453.79C1446.24 1452.07 1391.99 1403.02 1311.81 1343.57C1234.1 1285.95 1132.74 1218.78 1029.57 1175.1C966.081 1148.12 901.649 1130.01 842.407 1128.99C834.619 1128.86 827.555 1129.63 821.094 1131C758.396 1144.42 700.003 1155.42 640.021 1155.34C610.724 1155.22 580.995 1152.46 550.135 1146.12C469.769 1129.6 381.906 1089.13 274.31 1007.58C216.648 963.867 153.696 908.227 84.8697 839.465" stroke="url(#paint40_linear_842_8153)" stroke-width="0.5658" stroke-miterlimit="10"/>
<path d="M1442.97 1453.65C1440.59 1450.21 1386.56 1401.15 1307.8 1341.76C1229.77 1282.92 1128.91 1214.56 1025.38 1169.13C961.408 1141.06 895.907 1121.61 835.813 1119.98C827.947 1119.78 820.792 1120.46 814.248 1121.75C750.876 1134.37 693.061 1146.32 633.812 1147.31C605.079 1147.79 575.84 1145.58 545.476 1139.93C466.428 1125.22 379.78 1087.29 271.974 1007.47C213.537 964.197 149.686 908.387 80.7999 839.959" stroke="url(#paint41_linear_842_8153)" stroke-width="0.5658" stroke-miterlimit="10"/>
<path d="M1438.49 1453.5C1434.94 1448.35 1381.14 1399.27 1303.77 1339.95C1225.42 1279.86 1125.04 1210.23 1021.17 1163.15C956.701 1133.93 890.152 1113.21 829.189 1110.96C821.246 1110.69 814.009 1111.28 807.372 1112.49C743.338 1124.32 686.019 1137.12 627.568 1139.26C599.361 1140.29 570.64 1138.68 540.787 1133.73C463.057 1120.83 377.582 1085.43 269.608 1007.35C210.376 964.514 145.646 908.536 76.7008 840.443" stroke="url(#paint42_linear_842_8153)" stroke-width="0.5658" stroke-miterlimit="10"/>
<path d="M1434.02 1453.36C1429.29 1446.49 1375.72 1397.36 1299.75 1338.12C1221.08 1276.79 1121.17 1205.89 1016.96 1157.17C952 1126.79 884.394 1104.8 822.561 1101.94C814.54 1101.59 807.22 1102.11 800.491 1103.23C735.792 1114.26 678.977 1127.91 621.327 1131.21C593.646 1132.79 565.446 1131.78 536.104 1127.52C459.684 1116.42 375.364 1083.58 267.248 1007.22C207.202 964.817 141.61 908.682 72.6071 840.92" stroke="url(#paint43_linear_842_8153)" stroke-width="0.5658" stroke-miterlimit="10"/>
<path d="M1429.55 1453.21C1423.63 1444.63 1370.32 1395.43 1295.72 1336.31C1216.74 1273.7 1117.29 1201.55 1012.76 1151.19C947.29 1119.65 878.543 1096.27 815.951 1092.92C807.841 1092.49 800.441 1092.93 793.618 1093.97C728.248 1104.21 671.936 1118.7 615.086 1123.16C587.934 1125.29 560.249 1124.88 531.41 1121.31C456.308 1112.02 373.11 1081.72 264.878 1007.1C204.005 965.123 137.565 908.825 68.5032 841.398" stroke="url(#paint44_linear_842_8153)" stroke-width="0.5658" stroke-miterlimit="10"/>
<path d="M1425.09 1453.07C1417.98 1442.77 1364.92 1393.47 1291.71 1334.49C1212.41 1270.6 1113.43 1197.2 1008.57 1145.21C942.598 1112.51 872.789 1087.85 809.338 1083.9C801.15 1083.4 793.653 1083.75 786.752 1084.71C720.577 1094.01 664.906 1109.49 608.86 1115.11C582.24 1117.79 555.07 1117.98 526.742 1115.11C452.958 1107.63 370.844 1079.89 262.534 1006.98C200.821 965.441 133.546 908.976 64.425 841.884" stroke="url(#paint45_linear_842_8153)" stroke-width="0.5658" stroke-miterlimit="10"/>
<path d="M1420.62 1452.92C1412.33 1440.91 1359.54 1391.51 1287.69 1332.67C1208.07 1267.47 1109.54 1192.84 1004.36 1139.23C937.886 1105.35 867.026 1079.43 802.72 1074.88C794.446 1074.29 786.866 1074.56 779.881 1075.45C713.022 1083.93 657.863 1100.26 602.629 1107.06C576.53 1110.28 549.885 1111.08 522.058 1108.9C449.595 1103.23 368.543 1078.05 260.182 1006.86C197.609 965.751 129.52 909.124 60.3287 842.365" stroke="url(#paint46_linear_842_8153)" stroke-width="0.5658" stroke-miterlimit="10"/>
<path d="M1416.15 1452.77C1406.67 1439.04 1354.16 1389.53 1283.66 1330.85C1203.74 1264.34 1105.66 1188.46 1000.15 1133.25C933.173 1098.19 861.262 1071.02 796.097 1065.86C787.747 1065.2 780.081 1065.39 773.005 1066.19C705.471 1073.86 650.807 1091.04 596.386 1099.01C570.801 1102.76 544.685 1104.18 517.372 1102.69C446.227 1098.83 366.205 1076.22 257.819 1006.74C194.381 966.067 125.483 909.27 56.2324 842.846" stroke="url(#paint47_linear_842_8153)" stroke-width="0.5658" stroke-miterlimit="10"/>
<path d="M1411.68 1452.63C1401.02 1437.18 1348.81 1387.53 1279.64 1329.03C1199.41 1261.18 1101.77 1184.09 995.943 1127.27C928.462 1091.04 855.496 1062.6 789.476 1056.84C781.049 1056.11 773.294 1056.21 766.132 1056.93C697.913 1063.79 643.751 1081.8 590.152 1090.97C565.093 1095.25 539.506 1097.28 512.686 1096.49C442.851 1094.43 363.854 1074.41 255.456 1006.62C191.129 966.386 121.446 909.417 52.1358 843.328" stroke="url(#paint48_linear_842_8153)" stroke-width="0.5658" stroke-miterlimit="10"/>
<path d="M1407.22 1452.48C1395.37 1435.32 1343.46 1385.52 1275.63 1327.22C1195.11 1258.02 1097.9 1179.71 991.753 1121.29C923.762 1083.87 849.748 1054.19 782.874 1047.83C774.369 1047.02 766.53 1047.04 759.277 1047.68C690.388 1053.73 636.713 1072.56 583.93 1082.92C559.386 1087.74 534.328 1090.39 508.021 1090.28C439.504 1090.04 361.504 1072.61 253.115 1006.5C187.894 966.713 117.43 909.566 48.0607 843.811" stroke="url(#paint49_linear_842_8153)" stroke-width="0.5658" stroke-miterlimit="10"/>
<path d="M1402.75 1452.34C1389.71 1433.46 1338.13 1383.51 1271.6 1325.4C1190.8 1254.85 1094.01 1175.32 987.545 1115.31C919.046 1076.7 843.99 1045.78 776.251 1038.81C767.663 1037.93 759.738 1037.87 752.392 1038.42C682.826 1043.67 629.637 1063.32 577.684 1074.87C553.65 1080.22 529.128 1083.49 503.33 1084.08C436.131 1085.65 359.102 1070.83 250.748 1006.38C184.626 967.056 113.388 909.719 43.9597 844.299" stroke="url(#paint50_linear_842_8153)" stroke-width="0.5658" stroke-miterlimit="10"/>
<path d="M1398.28 1452.19C1384.05 1431.6 1332.82 1381.47 1267.57 1323.58C1186.51 1251.65 1090.12 1170.92 983.338 1109.33C914.335 1069.53 838.224 1037.37 769.633 1029.79C760.966 1028.83 752.959 1028.69 745.52 1029.16C675.285 1033.6 622.569 1054.06 571.445 1066.82C547.928 1072.69 523.936 1076.58 498.638 1077.87C432.76 1081.24 356.696 1069.05 248.38 1006.25C181.344 967.386 109.346 909.857 39.8552 844.775" stroke="url(#paint51_linear_842_8153)" stroke-width="0.5658" stroke-miterlimit="10"/>
<path d="M1393.81 1452.05C1378.41 1429.74 1327.52 1379.44 1263.56 1321.77C1182.25 1248.46 1086.25 1166.52 979.14 1103.35C909.632 1062.36 832.476 1028.96 763.02 1020.77C754.276 1019.74 746.177 1019.52 738.655 1019.9C667.749 1023.55 615.51 1044.81 565.217 1058.78C542.205 1065.17 518.752 1069.69 493.968 1071.67C429.408 1076.86 354.299 1067.31 246.031 1006.14C178.074 967.749 105.32 910.02 35.7724 845.27" stroke="url(#paint52_linear_842_8153)" stroke-width="0.5658" stroke-miterlimit="10"/>
<path d="M1389.34 1451.9C1372.76 1427.88 1322.23 1377.38 1259.54 1319.95C1178 1245.25 1082.37 1162.12 974.941 1097.37C904.924 1055.18 826.734 1020.56 756.407 1011.76C747.585 1010.65 739.405 1010.34 731.79 1010.65C660.213 1013.49 608.435 1035.54 558.984 1050.73C536.481 1057.65 513.565 1062.79 489.282 1065.47C426.032 1072.46 351.868 1065.57 243.668 1006.02C174.783 968.11 101.275 910.162 31.6762 845.752" stroke="url(#paint53_linear_842_8153)" stroke-width="0.5658" stroke-miterlimit="10"/>
<path d="M1384.87 1451.76C1367.1 1426.02 1316.96 1375.33 1255.51 1318.13C1173.77 1242.04 1078.49 1157.71 970.732 1091.39C900.214 1047.99 820.97 1012.16 749.786 1002.73C740.889 1001.56 732.615 1001.16 724.916 1001.39C652.677 1003.44 601.351 1026.27 552.75 1042.68C530.752 1050.11 508.375 1055.89 484.606 1059.26C422.674 1068.06 349.453 1063.85 241.316 1005.9C171.505 968.484 97.248 910.309 27.5898 846.233" stroke="url(#paint54_linear_842_8153)" stroke-width="0.5658" stroke-miterlimit="10"/>
<path d="M1380.4 1451.61C1361.45 1424.15 1311.7 1373.27 1251.49 1316.31C1169.56 1238.81 1074.62 1153.29 966.526 1085.41C895.508 1040.81 815.22 1003.75 743.166 993.716C734.19 992.465 725.833 991.991 718.033 992.126C645.131 993.382 594.252 1016.99 546.499 1034.63C524.996 1042.57 503.178 1048.99 479.909 1053.06C419.296 1063.67 347.005 1062.16 238.943 1005.78C168.2 968.869 93.2006 910.455 23.483 846.714" stroke="url(#paint55_linear_842_8153)" stroke-width="0.5658" stroke-miterlimit="10"/>
<path d="M1375.94 1451.47C1355.8 1422.3 1306.47 1371.21 1247.47 1314.49C1165.37 1235.58 1070.75 1148.87 962.327 1079.43C890.805 1033.62 809.475 995.356 736.553 984.7C727.5 983.377 719.059 982.822 711.167 982.87C637.6 983.335 587.152 1007.71 540.273 1026.59C519.275 1035.04 497.997 1042.1 475.234 1046.85C415.938 1059.27 344.58 1060.48 236.598 1005.66C164.926 969.272 89.1822 910.607 19.4052 847.201" stroke="url(#paint56_linear_842_8153)" stroke-width="0.5658" stroke-miterlimit="10"/>
<path d="M1371.47 1451.32C1350.14 1420.44 1301.25 1369.15 1243.45 1312.68C1161.22 1232.36 1066.88 1144.46 958.127 1073.46C886.109 1026.44 803.73 986.961 729.941 975.685C720.81 974.29 712.277 973.649 704.302 973.616C630.073 973.286 580.056 998.432 534.04 1018.54C513.53 1027.5 492.81 1035.2 470.556 1040.65C412.581 1054.88 342.158 1058.83 234.244 1005.54C161.643 969.693 85.1534 910.76 15.3146 847.692" stroke="url(#paint57_linear_842_8153)" stroke-width="0.5658" stroke-miterlimit="10"/>
<path d="M1367 1451.18C1344.48 1418.57 1296.04 1367.07 1239.42 1310.86C1157.08 1229.11 1063.01 1140.03 953.92 1067.47C881.407 1019.24 797.978 978.558 723.32 966.662C714.111 965.195 705.495 964.473 697.429 964.354C622.542 963.237 572.946 989.132 527.807 1010.49C507.793 1019.96 487.623 1028.3 465.872 1034.44C409.207 1050.47 339.728 1057.19 231.884 1005.42C158.354 970.117 81.1188 910.9 11.2206 848.167" stroke="url(#paint58_linear_842_8153)" stroke-width="0.5658" stroke-miterlimit="10"/>
<path d="M1362.53 1451.03C1338.83 1416.7 1290.86 1365 1235.4 1309.04C1152.97 1225.87 1059.15 1135.61 949.714 1061.49C876.709 1012.05 792.223 970.163 716.702 957.64C707.415 956.101 698.716 955.297 690.558 955.092C615.015 953.189 565.828 979.831 521.569 1002.44C502.043 1012.41 482.429 1021.39 461.189 1028.23C405.842 1046.07 337.307 1055.57 229.524 1005.29C155.067 970.562 77.0847 911.044 7.12712 848.646" stroke="url(#paint59_linear_842_8153)" stroke-width="0.5658" stroke-miterlimit="10"/>
<path d="M1358.07 1450.89C1333.19 1414.85 1285.69 1362.93 1231.38 1307.23C1148.9 1222.63 1055.29 1131.18 945.516 1055.51C872.02 1004.86 786.486 961.771 710.089 948.623C700.725 947.012 691.942 946.127 683.685 945.83C607.482 943.145 558.699 970.526 515.335 994.389C496.29 1004.87 477.242 1014.49 456.505 1022.02C402.477 1041.67 334.895 1053.98 227.164 1005.17C151.785 971.012 73.0478 911.19 3.03316 849.123" stroke="url(#paint60_linear_842_8153)" stroke-width="0.5658" stroke-miterlimit="10"/>
<path d="M1353.6 1450.74C1327.53 1412.99 1280.54 1360.86 1227.36 1305.41C1144.86 1219.39 1051.45 1126.75 941.307 1049.53C867.329 997.666 780.736 953.384 703.466 939.608C694.024 937.924 685.158 936.958 676.807 936.579C599.947 933.108 551.56 961.222 509.097 986.351C490.54 997.332 472.047 1007.6 451.822 1015.83C399.112 1037.29 332.486 1052.41 224.804 1005.06C148.511 971.504 69.0137 911.35 -1.06028 849.618" stroke="url(#paint61_linear_842_8153)" stroke-width="0.5658" stroke-miterlimit="10"/>
<path d="M1349.12 1450.59C1321.88 1411.12 1275.41 1358.79 1223.34 1303.59C1140.86 1216.14 1047.6 1122.32 937.1 1043.55C862.635 990.462 774.981 944.986 696.848 930.583C687.327 928.827 678.37 927.775 669.936 927.314C592.416 923.06 544.426 951.909 502.856 978.297C484.778 989.779 466.86 1000.7 447.138 1009.62C395.748 1032.89 330.091 1050.86 222.444 1004.93C145.246 971.998 64.9792 911.492 -5.16461 850.093" stroke="url(#paint62_linear_842_8153)" stroke-width="0.5658" stroke-miterlimit="10"/>
<path d="M1344.66 1450.45C1316.22 1409.26 1270.28 1356.72 1219.31 1301.77C1136.88 1212.9 1043.75 1117.89 932.894 1037.57C857.95 983.265 769.234 936.595 690.228 921.563C680.629 919.735 671.589 918.602 663.063 918.055C584.892 913.024 537.276 942.586 496.623 970.25C479.02 982.223 461.674 993.803 442.452 1003.42C392.373 1028.49 327.715 1049.33 220.082 1004.81C141.985 972.507 60.9427 911.639 -9.26051 850.575" stroke="url(#paint63_linear_842_8153)" stroke-width="0.5658" stroke-miterlimit="10"/>
<path d="M1340.19 1450.31C1310.57 1407.41 1265.19 1354.67 1215.29 1299.96C1132.94 1209.66 1039.91 1113.46 928.693 1031.59C853.271 976.07 763.565 928.343 683.612 912.55C673.947 910.668 664.812 909.435 656.195 908.803C577.372 902.994 530.129 933.274 490.387 962.205C473.257 974.673 456.482 986.908 437.774 997.215C389.013 1024.09 325.35 1047.82 217.727 1004.69C138.747 973.045 56.9134 911.789 -13.3491 851.059" stroke="url(#paint64_linear_842_8153)" stroke-width="0.5658" stroke-miterlimit="10"/>
<path d="M1335.72 1450.16C1304.91 1405.54 1260.11 1352.61 1211.26 1298.14C1129.04 1206.42 1036.08 1109.03 924.487 1025.61C848.588 968.87 757.815 919.94 676.994 903.527C667.251 901.573 658.044 900.277 649.324 899.54C569.938 893.081 522.963 923.942 484.156 954.156C467.498 967.118 451.298 980.006 433.091 991.008C385.647 1019.7 322.997 1046.33 215.367 1004.57C135.51 973.587 52.8793 911.933 -17.4427 851.538" stroke="url(#paint65_linear_842_8153)" stroke-width="0.5658" stroke-miterlimit="10"/>
<path d="M1331.25 1450.01C1299.26 1403.68 1255.04 1350.55 1207.25 1296.32C1125.18 1203.19 1032.26 1104.6 920.288 1019.63C843.923 961.673 752.062 911.537 670.381 894.51C660.561 892.484 651.262 891.102 642.451 890.278C562.392 883.023 515.794 914.61 477.915 946.101C461.727 959.562 446.1 973.102 428.407 984.797C382.282 1015.29 320.666 1044.85 213.007 1004.44C132.284 974.143 48.8447 912.074 -21.5367 852.014" stroke="url(#paint66_linear_842_8153)" stroke-width="0.5658" stroke-miterlimit="10"/>
<path d="M1326.79 1449.87C1293.61 1401.82 1249.99 1348.51 1203.23 1294.51C1121.37 1199.97 1028.43 1100.17 916.09 1013.65C839.257 954.48 746.312 903.134 663.771 885.493C653.873 883.394 644.493 881.928 635.586 881.025C554.864 872.975 508.626 905.282 471.69 938.061C455.966 952.012 440.922 966.209 423.737 978.603C378.93 1010.91 318.358 1043.41 210.669 1004.34C129.09 974.74 44.8316 912.237 -25.6091 852.512" stroke="url(#paint67_linear_842_8153)" stroke-width="0.5658" stroke-miterlimit="10"/>
<path d="M1322.32 1449.72C1287.96 1399.96 1244.96 1346.47 1199.2 1292.68C1117.58 1196.75 1024.7 1095.67 911.881 1007.67C834.644 947.237 740.556 894.735 657.148 876.474C647.171 874.303 637.708 872.756 628.71 871.767C547.315 862.92 501.444 895.953 465.446 930.01C450.186 944.451 435.724 959.305 419.042 972.391C375.548 1006.5 316.05 1041.96 208.298 1004.21C125.878 975.326 40.7864 912.377 -29.7162 852.99" stroke="url(#paint68_linear_842_8153)" stroke-width="0.5658" stroke-miterlimit="10"/>
<path d="M1317.85 1449.58C1282.31 1398.1 1239.94 1344.43 1195.18 1290.86C1113.84 1193.53 1020.84 1091.27 907.675 1001.69C829.947 940.058 734.799 886.326 650.528 867.454C640.476 865.207 630.919 863.577 621.837 862.507C539.777 852.869 494.157 886.545 459.213 921.963C444.37 936.862 430.543 952.413 414.365 966.19C372.189 1002.11 313.772 1040.55 205.944 1004.09C122.693 975.943 36.7557 912.532 -33.8039 853.477" stroke="url(#paint69_linear_842_8153)" stroke-width="0.5658" stroke-miterlimit="10"/>
<path d="M1313.38 1449.43C1276.65 1396.23 1234.94 1342.4 1191.16 1289.05C1110.16 1190.34 1016.99 1086.88 903.476 995.71C825.256 932.884 729.045 877.925 643.917 858.435C542.402 835.196 490.843 873.204 452.982 913.912C438.64 929.33 425.358 945.51 409.683 959.978C368.825 997.706 311.511 1039.14 203.586 1003.96C119.518 976.562 32.723 912.671 -37.8959 853.951" stroke="url(#paint70_linear_842_8153)" stroke-width="0.5658" stroke-miterlimit="10"/>
</g>
</g>
<defs>
<filter id="filter0_f_842_8153" x="690.517" y="-446.182" width="1403.58" height="1447.23" filterUnits="userSpaceOnUse" color-interpolation-filters="sRGB">
<feFlood flood-opacity="0" result="BackgroundImageFix"/>
<feBlend mode="normal" in="SourceGraphic" in2="BackgroundImageFix" result="shape"/>
<feGaussianBlur stdDeviation="250" result="effect1_foregroundBlur_842_8153"/>
</filter>
<filter id="filter1_f_842_8153" x="2" y="-5" width="1435" height="1092.74" filterUnits="userSpaceOnUse" color-interpolation-filters="sRGB">
<feFlood flood-opacity="0" result="BackgroundImageFix"/>
<feBlend mode="normal" in="SourceGraphic" in2="BackgroundImageFix" result="shape"/>
<feGaussianBlur stdDeviation="2.5" result="effect1_foregroundBlur_842_8153"/>
</filter>
<filter id="filter2_f_842_8153" x="-59.136" y="597.397" width="1119.8" height="605.716" filterUnits="userSpaceOnUse" color-interpolation-filters="sRGB">
<feFlood flood-opacity="0" result="BackgroundImageFix"/>
<feBlend mode="normal" in="SourceGraphic" in2="BackgroundImageFix" result="shape"/>
<feGaussianBlur stdDeviation="25" result="effect1_foregroundBlur_842_8153"/>
</filter>
<filter id="filter3_f_842_8153" x="-79.136" y="577.397" width="1049.67" height="607.89" filterUnits="userSpaceOnUse" color-interpolation-filters="sRGB">
<feFlood flood-opacity="0" result="BackgroundImageFix"/>
<feBlend mode="normal" in="SourceGraphic" in2="BackgroundImageFix" result="shape"/>
<feGaussianBlur stdDeviation="35" result="effect1_foregroundBlur_842_8153"/>
</filter>
<filter id="filter5_f_842_8153" x="847.216" y="908.358" width="193.451" height="192.697" filterUnits="userSpaceOnUse" color-interpolation-filters="sRGB">
<feFlood flood-opacity="0" result="BackgroundImageFix"/>
<feBlend mode="normal" in="SourceGraphic" in2="BackgroundImageFix" result="shape"/>
<feGaussianBlur stdDeviation="15" result="effect1_foregroundBlur_842_8153"/>
</filter>
<filter id="filter6_f_842_8153" x="-68.0769" y="808.787" width="1573.18" height="675.355" filterUnits="userSpaceOnUse" color-interpolation-filters="sRGB">
<feFlood flood-opacity="0" result="BackgroundImageFix"/>
<feBlend mode="normal" in="SourceGraphic" in2="BackgroundImageFix" result="shape"/>
<feGaussianBlur stdDeviation="15" result="effect1_foregroundBlur_842_8153"/>
</filter>
<linearGradient id="paint0_linear_842_8153" x1="203.641" y1="909.382" x2="169.073" y2="1058.18" gradientUnits="userSpaceOnUse">
<stop stop-color="#8150EC" stop-opacity="0.67"/>
<stop offset="0.447917" stop-color="#E403DF" stop-opacity="0.48"/>
<stop offset="1" stop-color="#8051ED" stop-opacity="0.29"/>
</linearGradient>
<linearGradient id="paint1_linear_842_8153" x1="446.043" y1="952.845" x2="682.056" y2="1117.08" gradientUnits="userSpaceOnUse">
<stop stop-color="#8E0084" stop-opacity="0.58"/>
<stop offset="0.489583" stop-color="#C20BCC" stop-opacity="0.35"/>
<stop offset="1" stop-color="#572094" stop-opacity="0.51"/>
</linearGradient>
<linearGradient id="paint2_linear_842_8153" x1="751.43" y1="893.469" x2="708.151" y2="1079.78" gradientUnits="userSpaceOnUse">
<stop stop-color="#FD56F1" stop-opacity="0.26"/>
<stop offset="1" stop-color="#C20BCC" stop-opacity="0.37"/>
</linearGradient>
<linearGradient id="paint3_linear_842_8153" x1="348.77" y1="778.966" x2="515.394" y2="1038.28" gradientUnits="userSpaceOnUse">
<stop stop-color="#E403DF" stop-opacity="0.22"/>
<stop offset="1" stop-color="#8052ED" stop-opacity="0.38"/>
</linearGradient>
<linearGradient id="paint4_linear_842_8153" x1="208.482" y1="667.822" x2="172.37" y2="823.271" gradientUnits="userSpaceOnUse">
<stop stop-color="#8F0085" stop-opacity="0.51"/>
<stop offset="1" stop-color="#7E53ED" stop-opacity="0.15"/>
</linearGradient>
<linearGradient id="paint5_linear_842_8153" x1="2.10607" y1="777.464" x2="449.753" y2="1119.1" gradientUnits="userSpaceOnUse">
<stop stop-color="#8250EC" stop-opacity="0.23"/>
<stop offset="0.307292" stop-color="#C20BCC" stop-opacity="0.35"/>
<stop offset="0.588542" stop-color="#FD56F1" stop-opacity="0.37"/>
<stop offset="0.901042" stop-color="#8F0086" stop-opacity="0.4"/>
</linearGradient>
<linearGradient id="paint6_linear_842_8153" x1="891.316" y1="1088.13" x2="537.638" y2="1165.04" gradientUnits="userSpaceOnUse">
<stop stop-color="#582095" stop-opacity="0.51"/>
<stop offset="0.520833" stop-color="#8151EC" stop-opacity="0.4"/>
<stop offset="1" stop-color="#8150EC" stop-opacity="0.38"/>
</linearGradient>
<linearGradient id="paint7_linear_842_8153" x1="896.192" y1="941.397" x2="984.728" y2="1102.33" gradientUnits="userSpaceOnUse">
<stop stop-color="#8E0084" stop-opacity="0.22"/>
<stop offset="1" stop-color="#E403DF" stop-opacity="0.47"/>
</linearGradient>
<linearGradient id="paint8_linear_842_8153" x1="592.25" y1="926.575" x2="554.136" y2="1320.04" gradientUnits="userSpaceOnUse">
<stop stop-color="#1BA4E5" stop-opacity="0.5"/>
<stop offset="1" stop-color="#B40FE7"/>
</linearGradient>
<linearGradient id="paint9_linear_842_8153" x1="597.743" y1="933.29" x2="560.077" y2="1322.14" gradientUnits="userSpaceOnUse">
<stop stop-color="#1BA4E5" stop-opacity="0.5"/>
<stop offset="1" stop-color="#B40FE7"/>
</linearGradient>
<linearGradient id="paint10_linear_842_8153" x1="603.27" y1="940.055" x2="566.057" y2="1324.23" gradientUnits="userSpaceOnUse">
<stop stop-color="#1BA4E5" stop-opacity="0.5"/>
<stop offset="1" stop-color="#B40FE7"/>
</linearGradient>
<linearGradient id="paint11_linear_842_8153" x1="608.739" y1="946.733" x2="571.97" y2="1326.32" gradientUnits="userSpaceOnUse">
<stop stop-color="#1BA4E5" stop-opacity="0.5"/>
<stop offset="1" stop-color="#B40FE7"/>
</linearGradient>
<linearGradient id="paint12_linear_842_8153" x1="614.172" y1="953.36" x2="577.843" y2="1328.41" gradientUnits="userSpaceOnUse">
<stop stop-color="#1BA4E5" stop-opacity="0.5"/>
<stop offset="1" stop-color="#B40FE7"/>
</linearGradient>
<linearGradient id="paint13_linear_842_8153" x1="619.566" y1="959.926" x2="583.671" y2="1330.49" gradientUnits="userSpaceOnUse">
<stop stop-color="#1BA4E5" stop-opacity="0.5"/>
<stop offset="1" stop-color="#B40FE7"/>
</linearGradient>
<linearGradient id="paint14_linear_842_8153" x1="624.91" y1="966.418" x2="589.443" y2="1332.56" gradientUnits="userSpaceOnUse">
<stop stop-color="#1BA4E5" stop-opacity="0.5"/>
<stop offset="1" stop-color="#B40FE7"/>
</linearGradient>
<linearGradient id="paint15_linear_842_8153" x1="630.193" y1="972.821" x2="595.146" y2="1334.63" gradientUnits="userSpaceOnUse">
<stop stop-color="#1BA4E5" stop-opacity="0.5"/>
<stop offset="1" stop-color="#B40FE7"/>
</linearGradient>
<linearGradient id="paint16_linear_842_8153" x1="635.402" y1="979.113" x2="600.765" y2="1336.69" gradientUnits="userSpaceOnUse">
<stop stop-color="#1BA4E5" stop-opacity="0.5"/>
<stop offset="1" stop-color="#B40FE7"/>
</linearGradient>
<linearGradient id="paint17_linear_842_8153" x1="640.517" y1="985.264" x2="606.277" y2="1338.74" gradientUnits="userSpaceOnUse">
<stop stop-color="#1BA4E5" stop-opacity="0.5"/>
<stop offset="1" stop-color="#B40FE7"/>
</linearGradient>
<linearGradient id="paint18_linear_842_8153" x1="645.511" y1="991.234" x2="611.652" y2="1340.78" gradientUnits="userSpaceOnUse">
<stop stop-color="#1BA4E5" stop-opacity="0.5"/>
<stop offset="1" stop-color="#B40FE7"/>
</linearGradient>
<linearGradient id="paint19_linear_842_8153" x1="650.346" y1="996.967" x2="616.847" y2="1342.8" gradientUnits="userSpaceOnUse">
<stop stop-color="#1BA4E5" stop-opacity="0.5"/>
<stop offset="1" stop-color="#B40FE7"/>
</linearGradient>
<linearGradient id="paint20_linear_842_8153" x1="654.966" y1="1002.38" x2="621.797" y2="1344.79" gradientUnits="userSpaceOnUse">
<stop stop-color="#1BA4E5" stop-opacity="0.5"/>
<stop offset="1" stop-color="#B40FE7"/>
</linearGradient>
<linearGradient id="paint21_linear_842_8153" x1="659.274" y1="1007.32" x2="626.394" y2="1346.75" gradientUnits="userSpaceOnUse">
<stop stop-color="#1BA4E5" stop-opacity="0.5"/>
<stop offset="1" stop-color="#B40FE7"/>
</linearGradient>
<linearGradient id="paint22_linear_842_8153" x1="663.103" y1="1011.54" x2="630.448" y2="1348.66" gradientUnits="userSpaceOnUse">
<stop stop-color="#1BA4E5" stop-opacity="0.5"/>
<stop offset="1" stop-color="#B40FE7"/>
</linearGradient>
<linearGradient id="paint23_linear_842_8153" x1="666.099" y1="1014.52" x2="633.557" y2="1350.48" gradientUnits="userSpaceOnUse">
<stop stop-color="#1BA4E5" stop-opacity="0.5"/>
<stop offset="1" stop-color="#B40FE7"/>
</linearGradient>
<linearGradient id="paint24_linear_842_8153" x1="667.089" y1="1014.52" x2="634.391" y2="1352.08" gradientUnits="userSpaceOnUse">
<stop stop-color="#1BA4E5" stop-opacity="0.5"/>
<stop offset="1" stop-color="#B40FE7"/>
</linearGradient>
<linearGradient id="paint25_linear_842_8153" x1="662.583" y1="1006.43" x2="629.005" y2="1353.07" gradientUnits="userSpaceOnUse">
<stop stop-color="#1BA4E5" stop-opacity="0.5"/>
<stop offset="1" stop-color="#B40FE7"/>
</linearGradient>
<linearGradient id="paint26_linear_842_8153" x1="657.834" y1="997.979" x2="623.344" y2="1354.04" gradientUnits="userSpaceOnUse">
<stop stop-color="#1BA4E5" stop-opacity="0.5"/>
<stop offset="1" stop-color="#B40FE7"/>
</linearGradient>
<linearGradient id="paint27_linear_842_8153" x1="653.092" y1="989.531" x2="617.69" y2="1355.01" gradientUnits="userSpaceOnUse">
<stop stop-color="#1BA4E5" stop-opacity="0.5"/>
<stop offset="1" stop-color="#B40FE7"/>
</linearGradient>
<linearGradient id="paint28_linear_842_8153" x1="648.354" y1="981.083" x2="612.04" y2="1355.98" gradientUnits="userSpaceOnUse">
<stop stop-color="#1BA4E5" stop-opacity="0.5"/>
<stop offset="1" stop-color="#B40FE7"/>
</linearGradient>
<linearGradient id="paint29_linear_842_8153" x1="643.618" y1="972.632" x2="606.391" y2="1356.95" gradientUnits="userSpaceOnUse">
<stop stop-color="#1BA4E5" stop-opacity="0.5"/>
<stop offset="1" stop-color="#B40FE7"/>
</linearGradient>
<linearGradient id="paint30_linear_842_8153" x1="638.883" y1="964.181" x2="600.743" y2="1357.92" gradientUnits="userSpaceOnUse">
<stop stop-color="#1BA4E5" stop-opacity="0.5"/>
<stop offset="1" stop-color="#B40FE7"/>
</linearGradient>
<linearGradient id="paint31_linear_842_8153" x1="634.148" y1="955.728" x2="595.095" y2="1358.89" gradientUnits="userSpaceOnUse">
<stop stop-color="#1BA4E5" stop-opacity="0.5"/>
<stop offset="1" stop-color="#B40FE7"/>
</linearGradient>
<linearGradient id="paint32_linear_842_8153" x1="629.412" y1="947.273" x2="589.447" y2="1359.86" gradientUnits="userSpaceOnUse">
<stop stop-color="#1BA4E5" stop-opacity="0.5"/>
<stop offset="1" stop-color="#B40FE7"/>
</linearGradient>
<linearGradient id="paint33_linear_842_8153" x1="624.676" y1="938.816" x2="583.798" y2="1360.83" gradientUnits="userSpaceOnUse">
<stop stop-color="#1BA4E5" stop-opacity="0.5"/>
<stop offset="1" stop-color="#B40FE7"/>
</linearGradient>
<linearGradient id="paint34_linear_842_8153" x1="619.94" y1="930.357" x2="578.148" y2="1361.79" gradientUnits="userSpaceOnUse">
<stop stop-color="#1BA4E5" stop-opacity="0.5"/>
<stop offset="1" stop-color="#B40FE7"/>
</linearGradient>
<linearGradient id="paint35_linear_842_8153" x1="615.203" y1="921.9" x2="572.498" y2="1362.77" gradientUnits="userSpaceOnUse">
<stop stop-color="#1BA4E5" stop-opacity="0.5"/>
<stop offset="1" stop-color="#B40FE7"/>
</linearGradient>
<linearGradient id="paint36_linear_842_8153" x1="610.467" y1="913.44" x2="566.848" y2="1363.74" gradientUnits="userSpaceOnUse">
<stop stop-color="#1BA4E5" stop-opacity="0.5"/>
<stop offset="1" stop-color="#B40FE7"/>
</linearGradient>
<linearGradient id="paint37_linear_842_8153" x1="605.73" y1="904.981" x2="561.198" y2="1364.71" gradientUnits="userSpaceOnUse">
<stop stop-color="#1BA4E5" stop-opacity="0.5"/>
<stop offset="1" stop-color="#B40FE7"/>
</linearGradient>
<linearGradient id="paint38_linear_842_8153" x1="600.993" y1="896.52" x2="555.547" y2="1365.68" gradientUnits="userSpaceOnUse">
<stop stop-color="#1BA4E5" stop-opacity="0.5"/>
<stop offset="1" stop-color="#B40FE7"/>
</linearGradient>
<linearGradient id="paint39_linear_842_8153" x1="596.255" y1="888.059" x2="549.896" y2="1366.65" gradientUnits="userSpaceOnUse">
<stop stop-color="#1BA4E5" stop-opacity="0.5"/>
<stop offset="1" stop-color="#B40FE7"/>
</linearGradient>
<linearGradient id="paint40_linear_842_8153" x1="592.198" y1="888.544" x2="545.903" y2="1366.47" gradientUnits="userSpaceOnUse">
<stop stop-color="#1BA4E5" stop-opacity="0.5"/>
<stop offset="1" stop-color="#B40FE7"/>
</linearGradient>
<linearGradient id="paint41_linear_842_8153" x1="588.13" y1="889.029" x2="541.893" y2="1366.37" gradientUnits="userSpaceOnUse">
<stop stop-color="#1BA4E5" stop-opacity="0.5"/>
<stop offset="1" stop-color="#B40FE7"/>
</linearGradient>
<linearGradient id="paint42_linear_842_8153" x1="584.062" y1="889.513" x2="537.881" y2="1366.26" gradientUnits="userSpaceOnUse">
<stop stop-color="#1BA4E5" stop-opacity="0.5"/>
<stop offset="1" stop-color="#B40FE7"/>
</linearGradient>
<linearGradient id="paint43_linear_842_8153" x1="579.995" y1="889.997" x2="533.871" y2="1366.16" gradientUnits="userSpaceOnUse">
<stop stop-color="#1BA4E5" stop-opacity="0.5"/>
<stop offset="1" stop-color="#B40FE7"/>
</linearGradient>
<linearGradient id="paint44_linear_842_8153" x1="575.928" y1="890.483" x2="529.86" y2="1366.06" gradientUnits="userSpaceOnUse">
<stop stop-color="#1BA4E5" stop-opacity="0.5"/>
<stop offset="1" stop-color="#B40FE7"/>
</linearGradient>
<linearGradient id="paint45_linear_842_8153" x1="571.86" y1="890.966" x2="525.849" y2="1365.96" gradientUnits="userSpaceOnUse">
<stop stop-color="#1BA4E5" stop-opacity="0.5"/>
<stop offset="1" stop-color="#B40FE7"/>
</linearGradient>
<linearGradient id="paint46_linear_842_8153" x1="567.792" y1="891.45" x2="521.838" y2="1365.86" gradientUnits="userSpaceOnUse">
<stop stop-color="#1BA4E5" stop-opacity="0.5"/>
<stop offset="1" stop-color="#B40FE7"/>
</linearGradient>
<linearGradient id="paint47_linear_842_8153" x1="563.724" y1="891.934" x2="517.827" y2="1365.76" gradientUnits="userSpaceOnUse">
<stop stop-color="#1BA4E5" stop-opacity="0.5"/>
<stop offset="1" stop-color="#B40FE7"/>
</linearGradient>
<linearGradient id="paint48_linear_842_8153" x1="559.657" y1="892.42" x2="513.816" y2="1365.66" gradientUnits="userSpaceOnUse">
<stop stop-color="#1BA4E5" stop-opacity="0.5"/>
<stop offset="1" stop-color="#B40FE7"/>
</linearGradient>
<linearGradient id="paint49_linear_842_8153" x1="555.589" y1="892.903" x2="509.805" y2="1365.56" gradientUnits="userSpaceOnUse">
<stop stop-color="#1BA4E5" stop-opacity="0.5"/>
<stop offset="1" stop-color="#B40FE7"/>
</linearGradient>
<linearGradient id="paint50_linear_842_8153" x1="551.522" y1="893.388" x2="505.794" y2="1365.46" gradientUnits="userSpaceOnUse">
<stop stop-color="#1BA4E5" stop-opacity="0.5"/>
<stop offset="1" stop-color="#B40FE7"/>
</linearGradient>
<linearGradient id="paint51_linear_842_8153" x1="547.454" y1="893.872" x2="501.783" y2="1365.36" gradientUnits="userSpaceOnUse">
<stop stop-color="#1BA4E5" stop-opacity="0.5"/>
<stop offset="1" stop-color="#B40FE7"/>
</linearGradient>
<linearGradient id="paint52_linear_842_8153" x1="543.387" y1="894.356" x2="497.772" y2="1365.25" gradientUnits="userSpaceOnUse">
<stop stop-color="#1BA4E5" stop-opacity="0.5"/>
<stop offset="1" stop-color="#B40FE7"/>
</linearGradient>
<linearGradient id="paint53_linear_842_8153" x1="539.319" y1="894.841" x2="493.762" y2="1365.15" gradientUnits="userSpaceOnUse">
<stop stop-color="#1BA4E5" stop-opacity="0.5"/>
<stop offset="1" stop-color="#B40FE7"/>
</linearGradient>
<linearGradient id="paint54_linear_842_8153" x1="535.251" y1="895.324" x2="489.75" y2="1365.05" gradientUnits="userSpaceOnUse">
<stop stop-color="#1BA4E5" stop-opacity="0.5"/>
<stop offset="1" stop-color="#B40FE7"/>
</linearGradient>
<linearGradient id="paint55_linear_842_8153" x1="531.183" y1="895.81" x2="485.739" y2="1364.95" gradientUnits="userSpaceOnUse">
<stop stop-color="#1BA4E5" stop-opacity="0.5"/>
<stop offset="1" stop-color="#B40FE7"/>
</linearGradient>
<linearGradient id="paint56_linear_842_8153" x1="527.116" y1="896.294" x2="481.729" y2="1364.85" gradientUnits="userSpaceOnUse">
<stop stop-color="#1BA4E5" stop-opacity="0.5"/>
<stop offset="1" stop-color="#B40FE7"/>
</linearGradient>
<linearGradient id="paint57_linear_842_8153" x1="523.049" y1="896.779" x2="477.718" y2="1364.75" gradientUnits="userSpaceOnUse">
<stop stop-color="#1BA4E5" stop-opacity="0.5"/>
<stop offset="1" stop-color="#B40FE7"/>
</linearGradient>
<linearGradient id="paint58_linear_842_8153" x1="518.981" y1="897.261" x2="473.707" y2="1364.65" gradientUnits="userSpaceOnUse">
<stop stop-color="#1BA4E5" stop-opacity="0.5"/>
<stop offset="1" stop-color="#B40FE7"/>
</linearGradient>
<linearGradient id="paint59_linear_842_8153" x1="514.914" y1="897.747" x2="469.696" y2="1364.55" gradientUnits="userSpaceOnUse">
<stop stop-color="#1BA4E5" stop-opacity="0.5"/>
<stop offset="1" stop-color="#B40FE7"/>
</linearGradient>
<linearGradient id="paint60_linear_842_8153" x1="510.846" y1="898.23" x2="465.685" y2="1364.45" gradientUnits="userSpaceOnUse">
<stop stop-color="#1BA4E5" stop-opacity="0.5"/>
<stop offset="1" stop-color="#B40FE7"/>
</linearGradient>
<linearGradient id="paint61_linear_842_8153" x1="506.778" y1="898.716" x2="461.674" y2="1364.35" gradientUnits="userSpaceOnUse">
<stop stop-color="#1BA4E5" stop-opacity="0.5"/>
<stop offset="1" stop-color="#B40FE7"/>
</linearGradient>
<linearGradient id="paint62_linear_842_8153" x1="502.71" y1="899.2" x2="457.663" y2="1364.25" gradientUnits="userSpaceOnUse">
<stop stop-color="#1BA4E5" stop-opacity="0.5"/>
<stop offset="1" stop-color="#B40FE7"/>
</linearGradient>
<linearGradient id="paint63_linear_842_8153" x1="498.643" y1="899.685" x2="453.653" y2="1364.15" gradientUnits="userSpaceOnUse">
<stop stop-color="#1BA4E5" stop-opacity="0.5"/>
<stop offset="1" stop-color="#B40FE7"/>
</linearGradient>
<linearGradient id="paint64_linear_842_8153" x1="489.335" y1="892.392" x2="443.703" y2="1363.47" gradientUnits="userSpaceOnUse">
<stop stop-color="#1BA4E5" stop-opacity="0.5"/>
<stop offset="1" stop-color="#B40FE7"/>
</linearGradient>
<linearGradient id="paint65_linear_842_8153" x1="478.464" y1="882.785" x2="431.984" y2="1362.62" gradientUnits="userSpaceOnUse">
<stop stop-color="#1BA4E5" stop-opacity="0.5"/>
<stop offset="1" stop-color="#B40FE7"/>
</linearGradient>
<linearGradient id="paint66_linear_842_8153" x1="467.578" y1="873.152" x2="420.247" y2="1361.77" gradientUnits="userSpaceOnUse">
<stop stop-color="#1BA4E5" stop-opacity="0.5"/>
<stop offset="1" stop-color="#B40FE7"/>
</linearGradient>
<linearGradient id="paint67_linear_842_8153" x1="456.681" y1="863.506" x2="408.498" y2="1360.92" gradientUnits="userSpaceOnUse">
<stop stop-color="#1BA4E5" stop-opacity="0.5"/>
<stop offset="1" stop-color="#B40FE7"/>
</linearGradient>
<linearGradient id="paint68_linear_842_8153" x1="445.77" y1="853.838" x2="396.734" y2="1360.07" gradientUnits="userSpaceOnUse">
<stop stop-color="#1BA4E5" stop-opacity="0.5"/>
<stop offset="1" stop-color="#B40FE7"/>
</linearGradient>
<linearGradient id="paint69_linear_842_8153" x1="434.847" y1="844.151" x2="384.955" y2="1359.22" gradientUnits="userSpaceOnUse">
<stop stop-color="#1BA4E5" stop-opacity="0.5"/>
<stop offset="1" stop-color="#B40FE7"/>
</linearGradient>
<linearGradient id="paint70_linear_842_8153" x1="423.911" y1="834.446" x2="373.161" y2="1358.36" gradientUnits="userSpaceOnUse">
<stop stop-color="#1BA4E5" stop-opacity="0.5"/>
<stop offset="1" stop-color="#B40FE7"/>
</linearGradient>
<clipPath id="clip0_842_8153">
<rect width="1440" height="978" fill="white"/>
</clipPath>
</defs>
</svg>
