<svg width="1440" height="1157" viewBox="0 0 1440 1157" fill="none" xmlns="http://www.w3.org/2000/svg">
<g clip-path="url(#clip0_848_4062)">
<rect width="1440" height="1157" fill="#161036"/>
<path d="M-19.5 0H1434.5V2068H-19.5V0Z" fill="#0B081E"/>
<g opacity="0.4" filter="url(#filter0_f_848_4062)">
<path d="M-27.7759 -59.073C-27.7759 -59.073 90.6945 -222.143 188.211 -147.374C254.179 -96.7954 279.791 -40.373 334.354 -33.2545C380.213 -27.271 446.052 -76.5068 473.807 -108.796C512.502 -153.812 528.334 -232.649 570.476 -275.438C658.569 -364.881 848.594 -284.768 816.587 -137.168" stroke="url(#paint0_linear_848_4062)" stroke-width="0.5658" stroke-miterlimit="10"/>
<path d="M-26.972 -57.8084C-26.972 -57.8084 90.043 -218.389 187.162 -147.494C252.755 -99.6127 279.236 -45.5213 333.912 -38.5127C344.273 -37.1779 355.633 -38.5961 367.336 -41.9438C374.703 -44.0484 382.187 -46.8987 389.636 -50.3017C422.399 -65.2602 454.558 -91.1541 472.099 -110.594C511.026 -153.641 527.745 -229.642 569.933 -271.179C657.717 -357.979 844.154 -282.074 816.176 -143.465" stroke="url(#paint1_linear_848_4062)" stroke-width="0.5658" stroke-miterlimit="10"/>
<path d="M-26.1708 -56.5475C-26.1708 -56.5475 89.3793 -214.642 186.113 -147.615C251.323 -102.431 278.681 -50.67 333.468 -43.7747C343.748 -42.4682 355 -43.8054 366.583 -46.9914C373.878 -48.9944 381.284 -51.698 388.641 -54.9189C421.013 -69.0786 452.771 -93.8333 470.39 -112.392C509.544 -153.47 527.25 -226.555 569.387 -266.923C657.057 -350.915 839.708 -279.381 815.761 -149.766" stroke="url(#paint2_linear_848_4062)" stroke-width="0.5658" stroke-miterlimit="10"/>
<path d="M-25.3644 -55.2899C-25.3644 -55.2899 88.7114 -210.902 185.069 -147.739C249.888 -105.255 278.131 -55.8222 333.031 -49.0368C343.237 -47.7585 354.376 -49.0148 365.838 -52.0391C373.064 -53.9371 380.384 -56.4941 387.646 -59.5363C419.625 -72.9004 450.991 -96.5159 468.683 -114.196C508.072 -153.305 526.703 -223.512 568.846 -262.67C656.292 -343.933 835.267 -276.692 815.353 -156.071" stroke="url(#paint3_linear_848_4062)" stroke-width="0.5658" stroke-miterlimit="10"/>
<path d="M-24.5598 -54.0257C-24.5598 -54.0257 88.0238 -207.152 184.021 -147.86C248.438 -108.074 277.576 -60.9715 332.59 -54.2961C342.718 -53.0429 353.751 -54.2245 365.086 -57.0873C372.24 -58.8838 379.477 -61.2909 386.647 -64.151C418.231 -76.7131 449.163 -99.2262 466.976 -115.995C506.505 -153.205 526.154 -220.463 568.302 -258.415C655.516 -336.948 830.826 -274.002 814.94 -162.373" stroke="url(#paint4_linear_848_4062)" stroke-width="0.5658" stroke-miterlimit="10"/>
<path d="M-23.7536 -52.7674C-23.7536 -52.7674 87.3218 -203.413 182.982 -147.988C246.986 -110.903 277.033 -66.1332 332.158 -59.5613C342.211 -58.3363 353.131 -59.4371 364.345 -62.1381C371.43 -63.8297 378.582 -66.0902 385.662 -68.7747C416.852 -80.5411 447.379 -101.922 465.274 -117.802C505.02 -153.067 525.605 -217.423 567.766 -254.165C654.742 -329.968 826.39 -271.315 814.537 -168.681" stroke="url(#paint5_linear_848_4062)" stroke-width="0.5658" stroke-miterlimit="10"/>
<path d="M-22.9515 -51.5067C-22.9515 -51.5067 86.6019 -199.671 181.934 -148.109C245.518 -113.719 276.478 -71.2832 331.717 -64.8212C341.69 -63.6246 352.503 -64.6442 363.596 -67.1836C370.614 -68.7766 377.679 -70.8841 384.666 -73.3865C415.461 -84.3509 445.59 -104.609 463.569 -119.598C503.532 -152.917 525.048 -214.367 567.224 -249.906C653.948 -322.98 821.952 -268.623 814.134 -174.98" stroke="url(#paint6_linear_848_4062)" stroke-width="0.5658" stroke-miterlimit="10"/>
<path d="M-22.148 -50.2423C-22.148 -50.2423 85.8585 -195.923 180.885 -148.23C244.034 -116.536 275.924 -76.4329 331.273 -70.0842C341.167 -68.9126 351.871 -69.8546 362.844 -72.2322C369.792 -73.7203 376.776 -75.6842 383.666 -78.0015C414.068 -88.1702 443.797 -107.298 461.858 -121.4C502.044 -152.772 524.483 -211.321 566.68 -245.65C653.145 -315.995 817.508 -265.93 813.723 -181.283" stroke="url(#paint7_linear_848_4062)" stroke-width="0.5658" stroke-miterlimit="10"/>
<path d="M-21.3412 -48.9842C-21.3412 -48.9842 85.1051 -192.182 179.842 -148.355C242.539 -119.354 275.375 -81.5861 330.838 -75.3473C340.658 -74.2039 351.248 -75.065 362.1 -77.2808C368.977 -78.6673 375.878 -80.4814 382.678 -82.623C412.685 -91.9895 442.022 -109.994 460.156 -123.202C500.566 -152.628 523.92 -208.275 566.142 -241.397C652.339 -309.017 813.066 -263.244 813.317 -187.589" stroke="url(#paint8_linear_848_4062)" stroke-width="0.5658" stroke-miterlimit="10"/>
<path d="M-20.5368 -47.7213C-20.5368 -47.7213 84.322 -188.427 178.797 -148.474C241.028 -122.158 274.867 -86.847 330.4 -80.6059C340.152 -79.51 350.623 -80.2709 361.352 -82.3283C368.159 -83.6098 374.975 -85.2773 381.682 -87.2368C411.296 -95.8076 440.233 -112.683 458.452 -124.999C499.092 -152.478 523.355 -205.224 565.603 -237.135C651.519 -302.03 808.632 -260.549 812.912 -193.887" stroke="url(#paint9_linear_848_4062)" stroke-width="0.5658" stroke-miterlimit="10"/>
<path d="M-19.7304 -46.4631C-19.7304 -46.4631 83.5189 -184.671 177.756 -148.606C239.504 -124.97 274.32 -92.0169 329.967 -85.876C339.638 -84.8085 350.003 -85.5045 360.61 -87.384C367.349 -88.5768 374.079 -90.0814 380.691 -91.8622C409.91 -99.6308 438.455 -115.383 456.749 -126.811C497.62 -152.343 522.782 -202.192 565.065 -232.892C650.694 -295.069 804.193 -257.869 812.507 -200.204" stroke="url(#paint10_linear_848_4062)" stroke-width="0.5658" stroke-miterlimit="10"/>
<path d="M-18.928 -45.2025C-18.928 -45.2025 82.6849 -180.904 176.708 -148.728C237.96 -127.765 273.769 -97.175 329.528 -91.1375C339.125 -90.0982 349.374 -90.7166 359.863 -92.431C366.53 -93.5222 373.177 -94.8768 379.701 -96.4786C408.529 -103.448 436.681 -118.07 455.046 -128.608C496.154 -152.193 522.205 -199.14 564.529 -228.63C649.858 -288.088 799.761 -255.174 812.104 -206.502" stroke="url(#paint11_linear_848_4062)" stroke-width="0.5658" stroke-miterlimit="10"/>
<path d="M-18.1242 -43.9388C-18.1242 -43.9388 81.8281 -177.121 175.663 -148.848C236.398 -130.548 273.22 -102.33 329.088 -96.3997C338.604 -95.3888 348.751 -95.9292 359.115 -97.4787C365.713 -98.465 372.276 -99.6892 378.707 -101.093C407.139 -107.315 434.899 -120.759 453.34 -130.408C494.685 -152.046 521.62 -196.1 563.987 -224.375C649.011 -281.122 795.319 -252.483 811.696 -212.808" stroke="url(#paint12_linear_848_4062)" stroke-width="0.5658" stroke-miterlimit="10"/>
<path d="M-17.3178 -42.6824C-17.3178 -42.6824 80.945 -173.331 174.62 -148.975C234.822 -133.325 272.674 -107.494 328.654 -101.666C338.096 -100.684 348.129 -101.143 358.372 -102.531C364.903 -103.419 371.379 -104.49 377.715 -105.714C405.754 -111.141 433.123 -123.451 451.639 -132.213C493.231 -151.9 521.04 -193.063 563.453 -220.121C648.157 -274.159 790.885 -249.792 811.296 -219.115" stroke="url(#paint13_linear_848_4062)" stroke-width="0.5658" stroke-miterlimit="10"/>
<path d="M-16.5125 -41.4186C-16.5125 -41.4186 80.0302 -169.511 173.574 -149.098C233.222 -136.081 272.127 -112.65 328.217 -106.929C337.58 -105.972 347.504 -106.353 357.624 -107.583C364.086 -108.365 370.476 -109.29 376.724 -110.336C404.372 -114.963 431.355 -126.143 449.937 -134.02C491.772 -151.753 520.45 -190.032 562.916 -215.872C647.294 -267.209 786.452 -247.11 810.894 -225.429" stroke="url(#paint14_linear_848_4062)" stroke-width="0.5658" stroke-miterlimit="10"/>
<path d="M-15.706 -40.1607C-15.706 -40.1607 79.0884 -165.672 172.536 -149.227C231.613 -138.83 271.581 -117.812 327.787 -112.198C337.074 -111.272 346.887 -111.57 356.886 -112.637C363.276 -113.318 369.589 -114.096 375.737 -114.96C402.992 -118.791 429.586 -128.835 448.237 -135.824C490.323 -151.6 519.859 -187 562.383 -211.616C646.428 -260.261 782.019 -244.418 810.5 -231.739" stroke="url(#paint15_linear_848_4062)" stroke-width="0.5658" stroke-miterlimit="10"/>
<path d="M-14.9041 -38.9004C-14.9041 -38.9004 78.1135 -161.805 171.488 -149.351C229.978 -141.551 271.029 -122.967 327.349 -117.462C336.558 -116.561 346.261 -116.781 356.139 -117.687C362.465 -118.266 368.687 -118.894 374.743 -119.576C401.608 -122.608 427.811 -131.518 446.532 -137.625C488.865 -151.44 519.259 -183.973 561.843 -207.361C645.548 -253.324 777.583 -241.73 810.097 -238.044" stroke="url(#paint16_linear_848_4062)" stroke-width="0.5658" stroke-miterlimit="10"/>
<path d="M-14.0988 -37.636C-14.0988 -37.636 77.1168 -157.897 170.442 -149.474C228.322 -144.247 270.482 -128.124 326.909 -122.73C336.043 -121.857 345.638 -121.999 355.391 -122.739C361.645 -123.217 367.785 -123.695 373.75 -124.201C400.221 -126.437 426.038 -134.207 444.83 -139.433C487.416 -151.28 518.659 -180.954 561.309 -203.108C644.658 -246.4 773.145 -239.045 809.697 -244.355" stroke="url(#paint17_linear_848_4062)" stroke-width="0.5658" stroke-miterlimit="10"/>
<path d="M-13.2927 -36.3784C-13.2927 -36.3784 76.1 -153.959 169.399 -149.601C226.657 -146.927 269.929 -133.278 326.474 -127.997C335.528 -127.153 345.016 -127.213 354.648 -127.792C360.833 -128.165 366.888 -128.496 372.761 -128.82C398.841 -130.256 424.269 -136.89 443.125 -141.234C485.958 -151.111 518.051 -177.936 560.768 -198.852C643.762 -239.481 768.704 -236.354 809.291 -250.664" stroke="url(#paint18_linear_848_4062)" stroke-width="0.5658" stroke-miterlimit="10"/>
<path d="M-12.4906 -35.1175C-12.4906 -35.1175 75.0561 -149.977 168.351 -149.724C224.978 -149.572 269.377 -138.433 326.036 -133.262C335.012 -132.443 344.392 -132.422 353.899 -132.846C360.012 -133.117 365.988 -133.301 371.769 -133.443C397.458 -134.08 422.496 -139.57 441.424 -143.039C484.508 -150.941 517.45 -174.928 560.235 -194.595C642.871 -232.575 764.274 -233.665 808.893 -256.973" stroke="url(#paint19_linear_848_4062)" stroke-width="0.5658" stroke-miterlimit="10"/>
<path d="M-11.6816 -33.8551C-11.6816 -33.8551 74.0081 -145.945 167.313 -149.853C223.296 -152.194 268.829 -143.59 325.607 -138.532C334.504 -137.738 343.775 -137.64 353.161 -137.902C359.205 -138.067 365.096 -138.105 370.782 -138.068C396.08 -137.905 420.727 -142.252 439.725 -144.849C483.057 -150.77 516.845 -171.931 559.704 -190.344C641.976 -225.691 759.841 -230.978 808.496 -263.288" stroke="url(#paint20_linear_848_4062)" stroke-width="0.5658" stroke-miterlimit="10"/>
<path d="M-10.8794 -32.5933C-10.8794 -32.5933 72.9446 -141.861 166.265 -149.976C221.601 -154.787 268.279 -148.742 325.168 -143.797C333.991 -143.031 343.149 -142.852 352.414 -142.952C358.391 -143.019 364.194 -142.904 369.788 -142.684C394.693 -141.715 418.952 -144.925 438.018 -146.644C481.589 -150.578 516.232 -168.928 559.161 -186.079C641.069 -218.803 755.402 -228.282 808.089 -269.591" stroke="url(#paint21_linear_848_4062)" stroke-width="0.5658" stroke-miterlimit="10"/>
<path d="M-10.0749 -31.329C-10.0749 -31.329 71.8832 -137.729 165.22 -150.096C219.912 -157.345 267.722 -153.885 324.729 -149.063C333.473 -148.322 342.522 -148.065 351.667 -148.003C357.573 -147.965 363.292 -147.703 368.795 -147.308C393.305 -145.537 417.173 -147.602 436.313 -148.452C480.131 -150.399 515.619 -165.941 558.624 -181.825C640.162 -211.942 750.962 -225.592 807.686 -275.905" stroke="url(#paint22_linear_848_4062)" stroke-width="0.5658" stroke-miterlimit="10"/>
<path d="M-9.26797 -30.0716C-9.26797 -30.0716 70.8313 -133.548 164.176 -150.223C218.227 -159.881 267.172 -159.038 324.294 -154.332C332.96 -153.616 341.901 -153.278 350.923 -153.058C356.76 -152.915 362.396 -152.503 367.804 -151.929C391.923 -149.358 415.396 -150.277 434.613 -150.254C478.668 -150.207 515.013 -162.961 558.088 -177.568C639.264 -205.092 746.523 -222.9 807.284 -282.215" stroke="url(#paint23_linear_848_4062)" stroke-width="0.5658" stroke-miterlimit="10"/>
<path d="M-8.46536 -28.8132C-8.46536 -28.8132 69.7979 -129.317 163.125 -150.352C216.546 -162.393 266.613 -164.194 323.851 -159.604C332.438 -158.913 341.266 -158.494 350.171 -158.115C355.937 -157.871 361.488 -157.302 366.805 -156.552C390.508 -153.133 413.613 -152.95 432.897 -152.059C477.186 -150.014 514.395 -159.989 557.539 -173.309C638.355 -198.258 742.076 -220.209 806.873 -288.528" stroke="url(#paint24_linear_848_4062)" stroke-width="0.5658" stroke-miterlimit="10"/>
<path d="M-7.65655 -27.5561C-7.65655 -27.5561 68.7981 -125.04 162.086 -150.481C214.9 -164.885 266.029 -169.247 323.42 -164.877C331.925 -164.199 340.646 -163.698 349.429 -163.177C355.121 -162.815 360.591 -162.112 365.818 -161.186C389.13 -156.968 411.835 -155.634 431.2 -153.874C475.721 -149.832 513.794 -157.038 557.002 -169.06C637.46 -191.446 737.634 -217.525 806.467 -294.847" stroke="url(#paint25_linear_848_4062)" stroke-width="0.5658" stroke-miterlimit="10"/>
<path d="M-6.85395 -26.3003C-6.85395 -26.3003 67.8322 -120.726 161.036 -150.609C213.259 -167.352 265.473 -174.408 322.977 -170.148C331.401 -169.498 340.015 -168.917 348.677 -168.233C354.303 -167.772 359.685 -166.916 364.819 -165.808C387.733 -160.79 410.045 -158.307 429.489 -155.68C474.234 -149.635 513.185 -154.087 556.456 -164.803C636.563 -184.645 733.188 -214.835 806.056 -301.155" stroke="url(#paint26_linear_848_4062)" stroke-width="0.5658" stroke-miterlimit="10"/>
<path d="M-6.04879 -25.042C-6.04879 -25.042 66.9136 -116.376 159.986 -150.737C211.648 -169.806 264.917 -179.57 322.531 -175.423C330.881 -174.801 339.381 -174.139 347.923 -173.294C353.478 -172.728 358.775 -171.725 363.815 -170.438C386.337 -164.62 408.245 -160.984 427.774 -157.491C472.74 -149.445 512.574 -151.147 555.905 -160.552C635.671 -177.863 728.728 -212.153 805.636 -307.473" stroke="url(#paint27_linear_848_4062)" stroke-width="0.5658" stroke-miterlimit="10"/>
<path d="M-5.24251 -23.7912C-5.24251 -23.7912 66.0431 -112.006 158.939 -150.869C210.07 -172.259 264.363 -184.736 322.091 -180.699C330.362 -180.102 338.752 -179.362 347.173 -178.355C352.657 -177.687 357.871 -176.534 362.822 -175.068C384.951 -168.454 406.461 -163.664 426.064 -159.302C471.252 -149.256 511.971 -148.22 555.36 -156.299C634.797 -171.098 724.278 -209.464 805.222 -313.788" stroke="url(#paint28_linear_848_4062)" stroke-width="0.5658" stroke-miterlimit="10"/>
<path d="M-4.4397 -22.5399C-4.4397 -22.5399 65.2306 -107.623 157.888 -151C208.52 -174.704 263.803 -189.904 321.646 -185.974C329.843 -185.405 338.119 -184.584 346.419 -183.415C351.833 -182.642 356.966 -181.346 361.821 -179.694C383.553 -172.277 404.647 -166.305 424.352 -161.109C469.719 -148.993 511.382 -145.294 554.811 -152.045C633.929 -164.343 719.826 -206.777 804.802 -320.102" stroke="url(#paint29_linear_848_4062)" stroke-width="0.5658" stroke-miterlimit="10"/>
<path d="M-3.63417 -21.285C-3.63417 -21.285 64.4805 -103.228 156.841 -151.133C207.013 -177.154 263.249 -195.071 321.204 -191.251C329.32 -190.711 337.49 -189.809 345.666 -188.481C351.009 -187.607 356.059 -186.16 360.818 -184.33C382.157 -176.116 402.854 -169.007 422.636 -162.929C468.234 -148.844 510.788 -142.391 554.259 -147.8C633.073 -157.608 715.368 -204.097 804.38 -326.425" stroke="url(#paint30_linear_848_4062)" stroke-width="0.5658" stroke-miterlimit="10"/>
<path d="M-2.82565 -20.0377C-2.82565 -20.0377 171.041 -225.717 344.911 -193.541C350.189 -192.565 355.149 -190.969 359.82 -188.959C516.333 -121.585 637.026 -97.1184 803.962 -332.742" stroke="url(#paint31_linear_848_4062)" stroke-width="0.5658" stroke-miterlimit="10"/>
<path d="M0.211629 -19.5676C0.667239 -20.7873 27.6749 -52.9246 70.2983 -89.9642C111.613 -125.872 167.15 -166.305 228.825 -187.669C266.752 -200.902 307.17 -206.907 347.585 -199.896C352.898 -198.971 357.902 -197.425 362.617 -195.473C408.403 -176.438 450.733 -159.912 491.85 -152.048C511.916 -148.273 531.728 -146.56 551.572 -147.564C603.25 -150.183 655.088 -171.006 711.918 -222.14C742.373 -249.546 773.975 -285.812 806.878 -331.817" stroke="url(#paint32_linear_848_4062)" stroke-width="0.5658" stroke-miterlimit="10"/>
<path d="M3.24575 -19.0937C4.15942 -21.53 31.0125 -53.7042 72.6749 -90.8867C113.953 -127.73 168.906 -169.182 230.46 -191.903C268.491 -205.944 309.365 -212.88 350.237 -206.245C355.588 -205.367 360.636 -203.878 365.392 -201.98C411.474 -183.495 453.603 -166.289 494.441 -157.665C514.244 -153.485 533.835 -151.393 553.482 -151.913C604.632 -153.256 656.166 -172.202 713.499 -221.921C744.576 -248.873 776.76 -285.156 809.773 -330.885" stroke="url(#paint33_linear_848_4062)" stroke-width="0.5658" stroke-miterlimit="10"/>
<path d="M6.28703 -18.6197C7.6563 -22.2757 34.3451 -54.5003 75.0632 -91.812C116.301 -129.605 170.664 -172.135 232.106 -196.139C270.239 -211.038 311.568 -218.849 352.906 -212.596C358.297 -211.765 363.382 -210.334 368.185 -208.489C414.556 -190.554 456.523 -172.727 497.051 -163.291C516.608 -158.739 535.968 -156.235 555.41 -156.264C606.032 -156.331 657.288 -173.4 715.097 -221.705C746.81 -248.201 779.562 -284.503 812.685 -329.956" stroke="url(#paint34_linear_848_4062)" stroke-width="0.5658" stroke-miterlimit="10"/>
<path d="M9.32605 -18.1493C11.1465 -23.0219 37.6631 -55.3165 77.4491 -92.7409C118.645 -131.495 172.419 -175.102 233.75 -200.379C271.982 -216.138 313.771 -224.828 355.578 -218.953C361.006 -218.17 366.132 -216.793 370.98 -215.005C417.642 -197.616 459.439 -179.178 499.658 -168.92C518.969 -163.996 538.096 -161.084 557.332 -160.622C607.43 -159.416 658.423 -174.597 716.69 -221.495C749.05 -247.54 782.36 -283.854 815.591 -329.033" stroke="url(#paint35_linear_848_4062)" stroke-width="0.5658" stroke-miterlimit="10"/>
<path d="M12.3657 -17.6793C14.6418 -23.7717 40.9738 -56.1527 79.8354 -93.67C120.985 -133.4 174.179 -178.072 235.394 -204.619C273.73 -221.241 316.013 -230.89 358.238 -225.308C363.709 -224.585 368.876 -223.252 373.771 -221.518C420.725 -204.682 462.355 -185.629 502.266 -174.549C521.327 -169.256 540.227 -165.929 559.261 -164.981C608.831 -162.498 659.584 -175.787 718.289 -221.285C751.306 -246.875 785.163 -283.207 818.504 -328.11" stroke="url(#paint36_linear_848_4062)" stroke-width="0.5658" stroke-miterlimit="10"/>
<path d="M15.4018 -17.2071C18.1359 -24.5158 44.273 -57.0064 82.2138 -94.5937C123.313 -135.315 175.931 -181.047 237.029 -208.853C275.466 -226.342 318.211 -236.876 360.901 -231.659C366.411 -230.984 371.624 -229.715 376.557 -228.028C423.868 -211.841 465.262 -192.084 504.864 -180.173C523.675 -174.514 542.346 -170.772 561.174 -169.333C610.217 -165.575 660.757 -176.961 719.873 -221.07C753.556 -246.2 787.95 -282.555 821.402 -327.182" stroke="url(#paint37_linear_848_4062)" stroke-width="0.5658" stroke-miterlimit="10"/>
<path d="M18.4424 -16.7378C21.632 -25.2662 47.5625 -57.8732 84.6012 -95.5233C125.641 -137.246 177.693 -184.034 238.674 -213.092C277.214 -231.455 320.417 -242.861 363.567 -238.017C369.118 -237.393 374.372 -236.177 379.346 -234.545C426.956 -218.919 468.176 -198.548 507.465 -185.803C526.031 -179.778 544.468 -175.621 563.097 -173.692C611.609 -168.661 661.953 -178.131 721.461 -220.857C755.823 -245.529 790.742 -281.906 824.31 -326.256" stroke="url(#paint38_linear_848_4062)" stroke-width="0.5658" stroke-miterlimit="10"/>
<path d="M21.4831 -16.2678C25.1283 -26.0157 50.8422 -58.7523 86.9884 -96.452C127.967 -139.189 179.45 -187.026 240.32 -217.328C278.961 -236.567 322.622 -248.845 366.236 -244.367C371.824 -243.793 377.121 -242.628 382.139 -241.053C430.044 -225.987 471.098 -205.007 510.075 -191.428C528.398 -185.044 546.6 -180.462 565.021 -178.046C613.005 -171.739 663.177 -179.29 723.055 -220.644C758.102 -244.849 793.539 -281.256 827.217 -325.329" stroke="url(#paint39_linear_848_4062)" stroke-width="0.5658" stroke-miterlimit="10"/>
<path d="M24.5248 -15.799C28.6256 -26.7665 54.1064 -59.6462 89.3767 -97.382C130.281 -141.149 181.208 -190.019 241.966 -221.568C280.707 -241.683 324.83 -254.827 368.904 -250.721C374.53 -250.195 379.869 -249.09 384.93 -247.566C433.134 -233.062 474.018 -211.481 512.678 -197.054C530.752 -190.311 548.72 -185.305 566.946 -182.401C614.406 -174.822 664.413 -180.433 724.649 -220.431C760.397 -244.167 796.337 -280.607 830.125 -324.403" stroke="url(#paint40_linear_848_4062)" stroke-width="0.5658" stroke-miterlimit="10"/>
<path d="M27.5618 -15.3264C32.1205 -27.5101 57.3602 -60.5526 91.7557 -98.3048C132.579 -143.113 182.961 -193.018 243.602 -225.8C282.445 -246.799 327.027 -260.804 371.56 -257.071C377.225 -256.592 382.604 -255.542 387.71 -254.074C436.207 -240.123 476.926 -217.95 515.274 -202.68C533.105 -195.578 550.839 -190.147 568.856 -186.756C615.788 -177.901 665.651 -181.562 726.229 -220.218C762.682 -243.478 799.12 -279.957 833.018 -323.477" stroke="url(#paint41_linear_848_4062)" stroke-width="0.5658" stroke-miterlimit="10"/>
<path d="M30.6062 -14.8539C35.6204 -28.2571 60.6029 -61.466 94.1466 -99.2308C134.881 -145.09 184.718 -196.02 245.249 -230.035C284.193 -251.92 329.231 -266.782 374.231 -263.42C379.936 -262.996 385.357 -261.996 390.51 -260.582C439.302 -247.191 479.859 -224.422 517.886 -208.302C535.477 -200.846 552.971 -194.988 570.785 -191.103C617.189 -180.973 666.927 -182.677 727.828 -219.998C764.993 -242.772 801.922 -279.3 835.93 -322.543" stroke="url(#paint42_linear_848_4062)" stroke-width="0.5658" stroke-miterlimit="10"/>
<path d="M33.6481 -14.3849C39.1178 -29.0076 63.8333 -62.3962 96.535 -100.16C137.164 -147.083 186.475 -199.032 246.894 -234.274C285.935 -257.048 331.439 -272.762 376.896 -269.776C382.639 -269.4 388.101 -268.454 393.298 -267.097C442.383 -254.258 482.782 -230.908 520.49 -213.933C537.837 -206.122 555.096 -199.839 572.711 -195.464C618.585 -184.061 668.207 -183.785 729.424 -219.792C767.311 -242.075 804.721 -278.656 838.841 -321.62" stroke="url(#paint43_linear_848_4062)" stroke-width="0.5658" stroke-miterlimit="10"/>
<path d="M36.686 -13.9127C42.6093 -29.7483 67.048 -63.33 98.9194 -101.086C139.432 -149.08 188.223 -202.047 248.535 -238.509C287.674 -262.173 333.636 -278.739 379.559 -276.126C385.341 -275.796 390.847 -274.908 396.085 -273.605C445.463 -261.319 485.701 -237.389 523.091 -219.552C540.199 -211.394 557.22 -204.674 574.626 -199.812C619.972 -187.133 669.488 -184.864 731.011 -219.569C769.627 -241.352 807.513 -277.993 841.741 -320.683" stroke="url(#paint44_linear_848_4062)" stroke-width="0.5658" stroke-miterlimit="10"/>
<path d="M39.7289 -13.444C46.1076 -30.499 70.2576 -64.2803 101.304 -102.013C141.685 -151.087 189.972 -205.062 250.176 -242.745C289.414 -267.304 335.832 -284.71 382.223 -282.475C388.043 -282.193 393.587 -281.362 398.872 -280.113C448.542 -268.38 488.629 -243.877 525.694 -225.177C542.561 -216.666 559.344 -209.519 576.551 -204.166C621.372 -190.215 670.793 -185.939 732.605 -219.356C771.957 -240.63 810.314 -277.346 844.647 -319.757" stroke="url(#paint45_linear_848_4062)" stroke-width="0.5658" stroke-miterlimit="10"/>
<path d="M42.7719 -12.9751C49.606 -31.2494 73.4515 -65.2344 103.694 -102.942C143.922 -153.108 191.723 -208.084 251.825 -246.979C291.155 -272.435 338.041 -290.68 384.891 -288.827C390.747 -288.596 396.338 -287.818 401.663 -286.623C451.622 -275.44 491.562 -250.368 528.297 -230.801C544.926 -221.945 561.47 -214.36 578.469 -208.52C622.762 -193.293 672.093 -186.995 734.192 -219.143C774.281 -239.897 813.104 -276.697 847.547 -318.83" stroke="url(#paint46_linear_848_4062)" stroke-width="0.5658" stroke-miterlimit="10"/>
<path d="M45.8148 -12.5056C53.1044 -31.9992 76.6359 -66.1912 106.083 -103.87C146.148 -155.135 193.468 -211.111 253.471 -251.216C292.893 -277.568 340.241 -296.652 387.559 -295.178C393.453 -294.994 399.085 -294.27 404.461 -293.132C454.708 -282.499 494.502 -256.864 530.911 -236.428C547.305 -227.228 563.6 -219.202 580.399 -212.872C624.165 -196.37 673.418 -188.033 735.792 -218.928C776.626 -239.153 815.907 -276.045 850.459 -317.902" stroke="url(#paint47_linear_848_4062)" stroke-width="0.5658" stroke-miterlimit="10"/>
<path d="M48.8533 -12.0342C56.6007 -32.7436 79.8016 -67.1562 108.468 -104.797C148.352 -157.173 195.207 -214.139 255.112 -255.451C294.629 -282.705 342.438 -302.619 390.222 -301.526C396.155 -301.39 401.827 -300.721 407.248 -299.64C457.786 -289.553 497.443 -263.36 533.509 -242.049C549.665 -232.503 565.721 -224.04 582.316 -217.227C625.554 -199.449 674.732 -189.059 737.374 -218.713C778.953 -238.398 818.692 -275.393 853.354 -316.973" stroke="url(#paint48_linear_848_4062)" stroke-width="0.5658" stroke-miterlimit="10"/>
<path d="M51.8992 -11.5614C60.102 -33.4901 82.961 -68.1202 110.856 -105.719C150.538 -159.207 196.948 -217.163 256.756 -259.682C296.361 -287.838 344.637 -308.585 392.886 -307.874C398.857 -307.785 404.573 -307.172 410.035 -306.145C460.861 -296.608 500.382 -269.859 536.112 -247.673C552.037 -237.786 567.844 -228.883 584.236 -221.576C626.943 -202.526 676.049 -190.062 738.963 -218.495C781.289 -237.629 821.483 -274.739 856.258 -316.039" stroke="url(#paint49_linear_848_4062)" stroke-width="0.5658" stroke-miterlimit="10"/>
<path d="M54.9428 -11.0938C63.6009 -34.2416 86.1108 -69.0992 113.246 -106.649C152.711 -161.262 198.687 -220.202 258.402 -263.92C298.094 -292.978 346.839 -314.554 395.554 -314.225C401.563 -314.184 407.32 -313.626 412.826 -312.656C463.938 -303.662 503.326 -276.368 538.715 -253.297C554.406 -243.067 569.967 -233.728 586.158 -225.933C628.341 -205.611 677.374 -191.055 740.554 -218.286C783.631 -236.855 824.277 -274.092 859.161 -315.116" stroke="url(#paint50_linear_848_4062)" stroke-width="0.5658" stroke-miterlimit="10"/>
<path d="M57.986 -10.625C67.0995 -34.9919 89.242 -70.0743 115.635 -107.578C154.862 -163.318 200.421 -223.236 260.048 -268.157C299.825 -298.121 349.044 -320.52 398.219 -320.579C404.267 -320.586 410.064 -320.081 415.614 -319.168C467.013 -310.717 506.275 -282.88 541.319 -258.927C556.78 -248.357 572.095 -238.574 588.079 -230.289C629.734 -208.692 678.698 -192.032 742.145 -218.076C785.975 -236.066 827.07 -273.445 862.064 -314.192" stroke="url(#paint51_linear_848_4062)" stroke-width="0.5658" stroke-miterlimit="10"/>
<path d="M61.0252 -10.1539C70.5921 -35.7333 92.3644 -71.0537 118.021 -108.505C156.983 -165.377 202.153 -226.274 261.69 -272.391C301.55 -303.264 351.237 -326.482 400.883 -326.927C406.969 -326.981 412.806 -326.53 418.406 -325.677C470.093 -317.766 509.231 -289.391 543.922 -264.55C559.158 -253.644 574.218 -243.417 590.001 -234.646C631.128 -211.773 680.02 -192.993 743.736 -217.867C788.318 -235.272 829.866 -272.796 864.967 -313.269" stroke="url(#paint52_linear_848_4062)" stroke-width="0.5658" stroke-miterlimit="10"/>
<path d="M64.0691 -9.68467C74.0913 -36.4831 95.4735 -72.0322 120.407 -109.43C159.087 -167.443 203.878 -229.31 263.339 -276.624C303.277 -308.403 353.441 -332.44 403.554 -333.273C409.677 -333.374 415.555 -332.977 421.202 -332.179C473.176 -324.811 512.194 -295.901 546.529 -270.166C561.535 -258.919 576.349 -248.249 591.926 -238.988C632.524 -214.84 681.346 -193.93 745.33 -217.643C790.662 -234.447 832.662 -272.135 867.873 -312.331" stroke="url(#paint53_linear_848_4062)" stroke-width="0.5658" stroke-miterlimit="10"/>
<path d="M67.1124 -9.21679C77.5899 -37.2342 98.5725 -73.0155 122.796 -110.36C161.167 -169.514 205.601 -232.352 264.985 -280.861C305.003 -313.552 355.645 -338.405 406.219 -339.626C412.381 -339.776 418.303 -339.436 423.99 -338.691C476.253 -331.863 515.151 -302.419 549.136 -275.792C563.916 -264.209 578.471 -253.093 593.847 -243.344C633.915 -217.924 682.665 -194.859 746.92 -217.433C793.001 -233.62 835.454 -271.489 870.782 -311.408" stroke="url(#paint54_linear_848_4062)" stroke-width="0.5658" stroke-miterlimit="10"/>
<path d="M70.156 -8.7487C81.0912 -37.9816 101.663 -74.0021 125.186 -111.289C163.228 -171.591 207.325 -235.399 266.631 -285.098C306.725 -318.698 357.846 -344.367 408.887 -345.976C415.087 -346.173 421.05 -345.887 426.781 -345.199C479.328 -338.908 518.117 -308.942 551.738 -281.415C566.295 -269.501 580.594 -257.935 595.771 -247.696C635.315 -221.005 683.976 -195.771 748.513 -217.22C795.341 -232.784 838.25 -270.839 873.687 -310.481" stroke="url(#paint55_linear_848_4062)" stroke-width="0.5658" stroke-miterlimit="10"/>
<path d="M73.1982 -8.27439C84.5887 -38.7262 104.736 -74.9764 127.575 -112.212C165.261 -173.663 209.044 -238.437 268.276 -289.328C308.443 -323.841 360.023 -350.226 411.553 -352.319C417.788 -352.551 423.794 -352.332 429.571 -351.701C482.402 -345.947 521.084 -315.455 554.344 -287.035C568.679 -274.787 582.723 -262.772 597.691 -252.046C636.707 -224.079 685.283 -196.671 750.102 -217.004C797.671 -231.925 841.041 -270.186 876.588 -309.552" stroke="url(#paint56_linear_848_4062)" stroke-width="0.5658" stroke-miterlimit="10"/>
<path d="M76.2417 -7.8057C88.0875 -39.4763 107.803 -75.9564 129.965 -113.141C167.273 -175.745 210.758 -241.48 269.922 -293.564C310.162 -328.989 362.222 -356.196 414.218 -358.671C420.491 -358.951 426.534 -358.772 432.359 -358.212C485.44 -352.904 524.059 -321.984 556.943 -292.66C571.058 -280.078 584.843 -267.617 599.612 -256.401C638.1 -227.159 686.586 -197.557 751.693 -216.794C800 -231.065 843.834 -269.539 879.491 -308.628" stroke="url(#paint57_linear_848_4062)" stroke-width="0.5658" stroke-miterlimit="10"/>
<path d="M79.2852 -7.338C91.5862 -40.2274 110.857 -76.9379 132.351 -114.067C169.255 -177.822 212.467 -244.522 271.564 -297.798C311.87 -334.135 364.425 -362.164 416.882 -365.018C423.193 -365.345 429.281 -365.224 435.15 -364.72C488.526 -359.961 527.037 -328.51 559.55 -298.286C573.446 -285.367 586.973 -272.459 601.533 -260.756C639.493 -230.24 687.876 -198.435 753.283 -216.585C802.326 -230.194 846.627 -268.892 882.393 -307.705" stroke="url(#paint58_linear_848_4062)" stroke-width="0.5658" stroke-miterlimit="10"/>
<path d="M82.3248 -6.86618C95.0834 -40.9709 113.903 -77.912 134.737 -114.993C171.208 -179.902 214.174 -247.565 273.206 -302.03C313.579 -339.28 366.625 -368.134 419.543 -371.366C425.893 -371.741 432.018 -371.677 437.937 -371.223C491.601 -367.015 530.014 -335.034 562.148 -303.904C575.827 -290.654 589.092 -277.297 603.449 -265.101C640.881 -233.31 689.159 -199.285 754.864 -216.361C804.638 -229.296 849.409 -268.233 885.285 -306.769" stroke="url(#paint59_linear_848_4062)" stroke-width="0.5658" stroke-miterlimit="10"/>
<path d="M85.3689 -6.39904C98.5784 -41.7194 116.935 -78.888 137.127 -115.923C173.14 -181.984 215.804 -250.678 274.855 -306.263C315.242 -344.47 368.83 -374.098 422.213 -377.713C428.601 -378.134 434.767 -378.124 440.73 -377.728C494.69 -374.069 533.001 -341.556 564.758 -309.526C578.22 -295.946 591.222 -282.14 605.377 -269.457C642.283 -236.397 690.442 -200.137 756.461 -216.152C806.96 -228.403 852.209 -267.587 888.197 -305.843" stroke="url(#paint60_linear_848_4062)" stroke-width="0.5658" stroke-miterlimit="10"/>
<path d="M88.4119 -5.93099C102.077 -42.4699 119.962 -79.8601 139.517 -116.852C175.044 -184.065 217.547 -253.691 276.501 -310.499C316.976 -349.598 371.034 -380.071 424.881 -384.061C431.304 -384.533 437.517 -384.577 443.521 -384.235C497.771 -381.122 536.043 -348.128 567.359 -315.148C580.631 -301.256 593.342 -286.975 607.296 -273.805C643.674 -239.47 691.709 -200.973 758.05 -215.936C809.269 -227.489 855.001 -266.93 891.097 -304.913" stroke="url(#paint61_linear_848_4062)" stroke-width="0.5658" stroke-miterlimit="10"/>
<path d="M91.4557 -5.46311C105.575 -43.2206 122.978 -80.8292 141.903 -117.778C176.915 -186.139 219.28 -256.699 278.144 -314.732C318.706 -354.723 373.237 -386.038 427.542 -390.41C492.301 -395.62 535.545 -358.373 569.959 -320.773C582.995 -306.531 595.463 -291.82 609.215 -278.163C645.065 -242.554 692.965 -201.806 759.638 -215.73C811.572 -226.576 857.792 -266.287 893.997 -303.994" stroke="url(#paint62_linear_848_4062)" stroke-width="0.5658" stroke-miterlimit="10"/>
</g>
<g opacity="0.35" filter="url(#filter1_f_848_4062)">
<path fill-rule="evenodd" clip-rule="evenodd" d="M186.948 18.36C187.64 18.36 188.184 17.6301 188.184 16.7675C188.184 15.905 187.64 15.1088 186.948 15.1088C186.255 15.1088 185.711 15.8386 185.711 16.7675C185.711 17.6964 186.305 18.36 186.948 18.36Z" fill="white"/>
<path fill-rule="evenodd" clip-rule="evenodd" d="M212.611 24.9281C213.304 24.9281 213.848 24.1983 213.848 23.2694C213.848 22.3405 213.304 21.6106 212.611 21.6106C211.919 21.6106 211.375 22.3405 211.375 23.2694C211.375 24.1319 211.919 24.9281 212.611 24.9281Z" fill="white"/>
<path fill-rule="evenodd" clip-rule="evenodd" d="M318.828 147.744C319.52 147.744 320.064 147.014 320.064 146.085C320.064 145.156 319.52 144.426 318.828 144.426C318.136 144.426 317.592 145.156 317.592 146.085C317.592 147.08 318.185 147.744 318.828 147.744Z" fill="white"/>
<path fill-rule="evenodd" clip-rule="evenodd" d="M285.895 177.27C286.587 177.27 287.131 176.54 287.131 175.611C287.131 174.682 286.587 174.018 285.895 174.018C285.203 174.018 284.659 174.748 284.659 175.611C284.659 176.54 285.203 177.27 285.895 177.27Z" fill="white"/>
<path fill-rule="evenodd" clip-rule="evenodd" d="M67.2808 42.9093C67.9731 42.9093 68.517 42.1795 68.517 41.2506C68.517 40.3217 67.9731 39.5918 67.2808 39.5918C66.5885 39.5918 66.0446 40.3217 66.0446 41.2506C66.094 42.1795 66.6379 42.9093 67.2808 42.9093Z" fill="white"/>
<path fill-rule="evenodd" clip-rule="evenodd" d="M373.815 11.7912C374.507 11.7912 375.051 11.0613 375.051 10.1324C375.051 9.20349 374.507 8.47363 373.815 8.47363C373.123 8.47363 372.579 9.20349 372.579 10.1324C372.579 11.0613 373.123 11.7912 373.815 11.7912Z" fill="white"/>
<path fill-rule="evenodd" clip-rule="evenodd" d="M487.35 80.5971C488.043 80.5971 488.586 79.8672 488.586 78.9383C488.586 78.0094 488.043 77.2795 487.35 77.2795C486.658 77.2795 486.114 78.0094 486.114 78.9383C486.114 79.8672 486.707 80.5971 487.35 80.5971Z" fill="white"/>
<path fill-rule="evenodd" clip-rule="evenodd" d="M765.798 85.5067C766.49 85.5067 767.034 84.7768 767.034 83.8479C767.034 82.919 766.49 82.2555 765.798 82.2555C765.105 82.2555 764.562 82.9853 764.562 83.8479C764.562 84.7768 765.105 85.5067 765.798 85.5067Z" fill="white"/>
<path fill-rule="evenodd" clip-rule="evenodd" d="M608.253 75.6868C608.945 75.6868 609.489 74.9569 609.489 74.028C609.489 73.0991 608.945 72.3693 608.253 72.3693C607.561 72.3693 607.017 73.0991 607.017 74.028C607.017 74.9569 607.561 75.6868 608.253 75.6868Z" fill="white"/>
<path fill-rule="evenodd" clip-rule="evenodd" d="M543.524 155.971C544.217 155.971 544.761 155.241 544.761 154.312C544.761 153.383 544.217 152.653 543.524 152.653C542.832 152.653 542.288 153.383 542.288 154.312C542.338 155.241 542.882 155.971 543.524 155.971Z" fill="white"/>
<path fill-rule="evenodd" clip-rule="evenodd" d="M262.456 64.3409C263.544 64.3409 264.483 63.1466 264.483 61.6205C264.483 60.1608 263.544 58.9001 262.456 58.9001C261.319 58.9001 260.428 60.1608 260.428 61.6205C260.428 63.0802 261.319 64.3409 262.456 64.3409Z" fill="white"/>
<path fill-rule="evenodd" clip-rule="evenodd" d="M6.01349 169.174C7.15082 169.174 8.0409 167.914 8.0409 166.454C8.0409 164.994 7.15082 163.734 6.01349 163.734C4.92561 163.734 3.98608 164.994 3.98608 166.454C3.98608 167.98 4.92561 169.174 6.01349 169.174Z" fill="white"/>
<path fill-rule="evenodd" clip-rule="evenodd" d="M474.939 190.473C476.076 190.473 476.966 189.279 476.966 187.753C476.966 186.293 476.076 185.032 474.939 185.032C473.851 185.032 472.911 186.293 472.911 187.753C472.911 189.279 473.801 190.473 474.939 190.473Z" fill="white"/>
<path fill-rule="evenodd" clip-rule="evenodd" d="M764.611 34.3504C765.748 34.3504 766.638 33.1561 766.638 31.6301C766.638 30.1704 765.748 28.9097 764.611 28.9097C763.523 28.9097 762.583 30.1704 762.583 31.6301C762.583 33.1561 763.523 34.3504 764.611 34.3504Z" fill="white"/>
<path fill-rule="evenodd" clip-rule="evenodd" d="M541.101 69.0511C541.546 69.0511 541.942 68.5203 541.942 67.9231C541.942 67.3259 541.546 66.7952 541.101 66.7952C540.656 66.7952 540.261 67.3259 540.261 67.9231C540.261 68.5203 540.607 69.0511 541.101 69.0511Z" fill="white"/>
<path fill-rule="evenodd" clip-rule="evenodd" d="M73.561 163.8C74.006 163.8 74.4016 163.269 74.4016 162.672C74.4016 162.075 74.006 161.544 73.561 161.544C73.1159 161.544 72.7203 162.075 72.7203 162.672C72.7203 163.269 73.0665 163.8 73.561 163.8Z" fill="white"/>
<path fill-rule="evenodd" clip-rule="evenodd" d="M246.781 206.663C247.226 206.663 247.621 206.132 247.621 205.535C247.621 204.938 247.275 204.407 246.781 204.407C246.336 204.407 245.94 204.938 245.94 205.535C245.94 206.199 246.336 206.663 246.781 206.663Z" fill="white"/>
<path fill-rule="evenodd" clip-rule="evenodd" d="M814.604 169.971C815.049 169.971 815.444 169.44 815.444 168.843C815.444 168.246 815.049 167.715 814.604 167.715C814.159 167.715 813.763 168.246 813.763 168.843C813.813 169.507 814.159 169.971 814.604 169.971Z" fill="white"/>
<path fill-rule="evenodd" clip-rule="evenodd" d="M636.686 12.189C637.131 12.189 637.527 11.6582 637.527 11.0611C637.527 10.4639 637.131 9.93311 636.686 9.93311C636.241 9.93311 635.846 10.3976 635.846 11.0611C635.846 11.7246 636.241 12.189 636.686 12.189Z" fill="white"/>
</g>
<g opacity="0.35" filter="url(#filter2_f_848_4062)">
<path fill-rule="evenodd" clip-rule="evenodd" d="M296.032 882.357C296.724 882.357 297.268 881.627 297.268 880.698C297.268 879.769 296.724 879.106 296.032 879.106C295.34 879.106 294.796 879.835 294.796 880.698C294.796 881.627 295.34 882.357 296.032 882.357Z" fill="white"/>
<path fill-rule="evenodd" clip-rule="evenodd" d="M216.271 862.784C216.963 862.784 217.507 862.054 217.507 861.125C217.507 860.196 216.963 859.466 216.271 859.466C215.578 859.466 215.034 860.196 215.034 861.125C215.034 862.054 215.628 862.784 216.271 862.784Z" fill="white"/>
<path fill-rule="evenodd" clip-rule="evenodd" d="M184.524 993.892C185.217 993.892 185.761 993.162 185.761 992.233C185.761 991.304 185.217 990.574 184.524 990.574C183.832 990.574 183.288 991.304 183.288 992.233C183.288 993.096 183.832 993.892 184.524 993.892Z" fill="white"/>
<path fill-rule="evenodd" clip-rule="evenodd" d="M252.616 1160.3C253.308 1160.3 253.852 1159.57 253.852 1158.64C253.852 1157.71 253.308 1156.98 252.616 1156.98C251.923 1156.98 251.379 1157.71 251.379 1158.64C251.379 1159.57 251.973 1160.3 252.616 1160.3Z" fill="white"/>
<path fill-rule="evenodd" clip-rule="evenodd" d="M671.746 1039.74C672.438 1039.74 672.982 1039.01 672.982 1038.08C672.982 1037.15 672.438 1036.42 671.746 1036.42C671.053 1036.42 670.509 1037.15 670.509 1038.08C670.509 1039.01 671.103 1039.74 671.746 1039.74Z" fill="white"/>
<path fill-rule="evenodd" clip-rule="evenodd" d="M652.213 977.504C652.906 977.504 653.45 976.774 653.45 975.845C653.45 974.916 652.906 974.186 652.213 974.186C651.521 974.186 650.977 974.916 650.977 975.845C650.977 976.774 651.521 977.504 652.213 977.504Z" fill="white"/>
<path fill-rule="evenodd" clip-rule="evenodd" d="M707.448 943.665C708.14 943.665 708.684 942.935 708.684 942.073C708.684 941.144 708.14 940.414 707.448 940.414C706.755 940.414 706.261 941.144 706.261 942.073C706.211 942.935 706.755 943.665 707.448 943.665Z" fill="white"/>
<path fill-rule="evenodd" clip-rule="evenodd" d="M746.265 939.816C746.957 939.816 747.501 939.086 747.501 938.157C747.501 937.228 746.957 936.498 746.265 936.498C745.573 936.498 745.029 937.228 745.029 938.157C745.029 939.086 745.573 939.816 746.265 939.816Z" fill="white"/>
<path fill-rule="evenodd" clip-rule="evenodd" d="M697.31 913.276C698.003 913.276 698.547 912.546 698.547 911.617C698.547 910.688 698.003 909.958 697.31 909.958C696.618 909.958 696.074 910.688 696.074 911.617C696.074 912.612 696.618 913.276 697.31 913.276Z" fill="white"/>
<path fill-rule="evenodd" clip-rule="evenodd" d="M624.126 834.982C624.818 834.982 625.362 834.252 625.362 833.324C625.362 832.395 624.818 831.665 624.126 831.665C623.434 831.665 622.89 832.395 622.89 833.324C622.89 834.186 623.434 834.982 624.126 834.982Z" fill="white"/>
<path fill-rule="evenodd" clip-rule="evenodd" d="M806.099 834.982C806.791 834.982 807.335 834.252 807.335 833.324C807.335 832.395 806.791 831.665 806.099 831.665C805.406 831.665 804.862 832.395 804.862 833.324C804.862 834.186 805.406 834.982 806.099 834.982Z" fill="white"/>
<path fill-rule="evenodd" clip-rule="evenodd" d="M801.203 961.115C801.895 961.115 802.439 960.386 802.439 959.457C802.439 958.528 801.895 957.798 801.203 957.798C800.511 957.798 799.967 958.528 799.967 959.457C799.967 960.386 800.511 961.115 801.203 961.115Z" fill="white"/>
<path fill-rule="evenodd" clip-rule="evenodd" d="M740.134 1121.68C740.826 1121.68 741.37 1120.95 741.37 1120.03C741.37 1119.1 740.826 1118.37 740.134 1118.37C739.441 1118.37 738.897 1119.1 738.897 1120.03C738.897 1120.95 739.441 1121.68 740.134 1121.68Z" fill="white"/>
<path fill-rule="evenodd" clip-rule="evenodd" d="M486.163 890.65C486.856 890.65 487.35 889.92 487.35 888.991C487.35 888.062 486.806 887.332 486.163 887.332C485.471 887.332 484.927 888.062 484.927 888.991C484.927 889.92 485.471 890.65 486.163 890.65Z" fill="white"/>
<path fill-rule="evenodd" clip-rule="evenodd" d="M44.0891 843.142C44.7814 843.142 45.2759 842.413 45.2759 841.484C45.2759 840.555 44.732 839.825 44.0891 839.825C43.3968 839.825 42.8529 840.555 42.8529 841.484C42.9024 842.413 43.3968 843.142 44.0891 843.142Z" fill="white"/>
<path fill-rule="evenodd" clip-rule="evenodd" d="M51.111 851.902C52.2484 851.902 53.1384 850.708 53.1384 849.182C53.1384 847.722 52.2484 846.461 51.111 846.461C50.0231 846.461 49.0836 847.722 49.0836 849.182C49.0836 850.708 50.0231 851.902 51.111 851.902Z" fill="white"/>
<path fill-rule="evenodd" clip-rule="evenodd" d="M117.57 829.873C118.658 829.873 119.598 828.679 119.598 827.153C119.598 825.693 118.658 824.432 117.57 824.432C116.433 824.432 115.543 825.693 115.543 827.153C115.543 828.679 116.433 829.873 117.57 829.873Z" fill="white"/>
<path fill-rule="evenodd" clip-rule="evenodd" d="M141.998 860.992C143.086 860.992 144.026 859.732 144.026 858.272C144.026 856.746 143.086 855.552 141.998 855.552C140.861 855.552 139.971 856.746 139.971 858.272C139.971 859.798 140.861 860.992 141.998 860.992Z" fill="white"/>
<path fill-rule="evenodd" clip-rule="evenodd" d="M296.427 845.466C297.565 845.466 298.455 844.205 298.455 842.745C298.455 841.219 297.565 840.025 296.427 840.025C295.34 840.025 294.4 841.285 294.4 842.745C294.4 844.205 295.34 845.466 296.427 845.466Z" fill="white"/>
<path fill-rule="evenodd" clip-rule="evenodd" d="M111.043 1059.51C112.131 1059.51 113.071 1058.32 113.071 1056.79C113.071 1055.33 112.131 1054.07 111.043 1054.07C109.906 1054.07 109.016 1055.33 109.016 1056.79C109.016 1058.32 109.906 1059.51 111.043 1059.51Z" fill="white"/>
<path fill-rule="evenodd" clip-rule="evenodd" d="M569.189 1125.07C570.326 1125.07 571.216 1123.81 571.216 1122.35C571.216 1120.82 570.326 1119.63 569.189 1119.63C568.101 1119.63 567.161 1120.82 567.161 1122.35C567.161 1123.81 568.051 1125.07 569.189 1125.07Z" fill="white"/>
<path fill-rule="evenodd" clip-rule="evenodd" d="M441.857 956.47C442.994 956.47 443.884 955.21 443.884 953.75C443.884 952.224 442.994 951.029 441.857 951.029C440.769 951.029 439.83 952.224 439.83 953.75C439.83 955.276 440.72 956.47 441.857 956.47Z" fill="white"/>
<path fill-rule="evenodd" clip-rule="evenodd" d="M761.891 852.565C762.979 852.565 763.918 851.304 763.918 849.844C763.918 848.318 762.979 847.124 761.891 847.124C760.803 847.124 759.864 848.318 759.864 849.844C759.864 851.304 760.803 852.565 761.891 852.565Z" fill="white"/>
<path fill-rule="evenodd" clip-rule="evenodd" d="M314.18 1104.3C314.625 1104.3 315.02 1103.77 315.02 1103.17C315.02 1102.57 314.625 1102.04 314.18 1102.04C313.735 1102.04 313.339 1102.57 313.339 1103.17C313.339 1103.84 313.735 1104.3 314.18 1104.3Z" fill="white"/>
<path fill-rule="evenodd" clip-rule="evenodd" d="M313.339 914.536C313.784 914.536 314.18 914.006 314.18 913.408C314.18 912.811 313.834 912.281 313.339 912.281C312.894 912.281 312.499 912.811 312.499 913.408C312.499 914.006 312.894 914.536 313.339 914.536Z" fill="white"/>
<path fill-rule="evenodd" clip-rule="evenodd" d="M455.604 851.238C456.049 851.238 456.445 850.707 456.445 850.11C456.445 849.513 456.098 848.982 455.604 848.982C455.109 848.982 454.763 849.446 454.763 850.11C454.763 850.773 455.159 851.238 455.604 851.238Z" fill="white"/>
<path fill-rule="evenodd" clip-rule="evenodd" d="M629.022 1005.24C629.467 1005.24 629.862 1004.71 629.862 1004.11C629.862 1003.51 629.467 1002.98 629.022 1002.98C628.577 1002.98 628.181 1003.51 628.181 1004.11C628.181 1004.77 628.527 1005.24 629.022 1005.24Z" fill="white"/>
<path fill-rule="evenodd" clip-rule="evenodd" d="M752.348 1005.24C752.793 1005.24 753.188 1004.71 753.188 1004.11C753.188 1003.51 752.842 1002.98 752.348 1002.98C751.902 1002.98 751.507 1003.51 751.507 1004.11C751.507 1004.77 751.853 1005.24 752.348 1005.24Z" fill="white"/>
<path fill-rule="evenodd" clip-rule="evenodd" d="M782.858 1151.08C783.303 1151.08 783.698 1150.61 783.698 1149.95C783.698 1149.29 783.303 1148.82 782.858 1148.82C782.413 1148.82 782.017 1149.35 782.017 1149.95C782.017 1150.55 782.413 1151.08 782.858 1151.08Z" fill="white"/>
<path fill-rule="evenodd" clip-rule="evenodd" d="M189.42 1077.36C189.865 1077.36 190.26 1076.9 190.26 1076.23C190.26 1075.57 189.865 1075.1 189.42 1075.1C188.975 1075.1 188.579 1075.64 188.579 1076.23C188.579 1076.83 188.925 1077.36 189.42 1077.36Z" fill="white"/>
<path fill-rule="evenodd" clip-rule="evenodd" d="M105.11 949.172C105.555 949.172 105.95 948.641 105.95 948.044C105.95 947.447 105.555 946.916 105.11 946.916C104.665 946.916 104.269 947.447 104.269 948.044C104.269 948.707 104.665 949.172 105.11 949.172Z" fill="white"/>
<path fill-rule="evenodd" clip-rule="evenodd" d="M102.686 1031.51C103.131 1031.51 103.527 1030.98 103.527 1030.38C103.527 1029.79 103.131 1029.26 102.686 1029.26C102.241 1029.26 101.846 1029.79 101.846 1030.38C101.846 1030.98 102.241 1031.51 102.686 1031.51Z" fill="white"/>
<path fill-rule="evenodd" clip-rule="evenodd" d="M56.303 1146.17C56.7481 1146.17 57.1437 1145.64 57.1437 1145.04C57.1437 1144.44 56.7481 1143.91 56.303 1143.91C55.858 1143.91 55.4624 1144.38 55.4624 1145.04C55.4624 1145.7 55.8085 1146.17 56.303 1146.17Z" fill="white"/>
<path fill-rule="evenodd" clip-rule="evenodd" d="M84.2912 923.959C84.7362 923.959 85.1318 923.494 85.1318 922.831C85.1318 922.233 84.7362 921.703 84.2912 921.703C83.8462 921.703 83.4506 922.233 83.4506 922.831C83.4506 923.494 83.8462 923.959 84.2912 923.959Z" fill="white"/>
<path fill-rule="evenodd" clip-rule="evenodd" d="M161.333 1021.69C161.778 1021.69 162.173 1021.16 162.173 1020.57C162.173 1019.97 161.827 1019.44 161.333 1019.44C160.888 1019.44 160.492 1019.97 160.492 1020.57C160.443 1021.16 160.838 1021.69 161.333 1021.69Z" fill="white"/>
</g>
<g opacity="0.35" filter="url(#filter3_f_848_4062)">
<path fill-rule="evenodd" clip-rule="evenodd" d="M300.588 239.579C301.28 239.579 301.824 238.849 301.824 237.92C301.824 236.991 301.28 236.328 300.588 236.328C299.895 236.328 299.351 237.058 299.351 237.92C299.351 238.849 299.895 239.579 300.588 239.579Z" fill="white"/>
<path fill-rule="evenodd" clip-rule="evenodd" d="M220.826 220.006C221.519 220.006 222.063 219.276 222.063 218.347C222.063 217.418 221.519 216.689 220.826 216.689C220.134 216.689 219.59 217.418 219.59 218.347C219.59 219.276 220.183 220.006 220.826 220.006Z" fill="white"/>
<path fill-rule="evenodd" clip-rule="evenodd" d="M189.08 351.114C189.772 351.114 190.316 350.384 190.316 349.455C190.316 348.526 189.772 347.797 189.08 347.797C188.388 347.797 187.844 348.526 187.844 349.455C187.844 350.318 188.388 351.114 189.08 351.114Z" fill="white"/>
<path fill-rule="evenodd" clip-rule="evenodd" d="M257.171 517.522C257.863 517.522 258.407 516.792 258.407 515.863C258.407 514.935 257.863 514.205 257.171 514.205C256.479 514.205 255.935 514.935 255.935 515.863C255.935 516.792 256.528 517.522 257.171 517.522Z" fill="white"/>
<path fill-rule="evenodd" clip-rule="evenodd" d="M191.503 598.537C192.195 598.537 192.739 597.807 192.739 596.944C192.739 596.082 192.195 595.286 191.503 595.286C190.811 595.286 190.267 596.015 190.267 596.944C190.267 597.873 190.86 598.537 191.503 598.537Z" fill="white"/>
<path fill-rule="evenodd" clip-rule="evenodd" d="M217.167 605.105C217.859 605.105 218.403 604.375 218.403 603.446C218.403 602.517 217.859 601.787 217.167 601.787C216.475 601.787 215.931 602.517 215.931 603.446C215.931 604.309 216.475 605.105 217.167 605.105Z" fill="white"/>
<path fill-rule="evenodd" clip-rule="evenodd" d="M323.384 727.921C324.076 727.921 324.62 727.191 324.62 726.262C324.62 725.333 324.076 724.603 323.384 724.603C322.691 724.603 322.147 725.333 322.147 726.262C322.147 727.257 322.741 727.921 323.384 727.921Z" fill="white"/>
<path fill-rule="evenodd" clip-rule="evenodd" d="M290.45 757.447C291.143 757.447 291.687 756.717 291.687 755.788C291.687 754.859 291.143 754.195 290.45 754.195C289.758 754.195 289.214 754.925 289.214 755.788C289.214 756.717 289.758 757.447 290.45 757.447Z" fill="white"/>
<path fill-rule="evenodd" clip-rule="evenodd" d="M71.8363 623.086C72.5286 623.086 73.0725 622.356 73.0725 621.427C73.0725 620.499 72.5286 619.769 71.8363 619.769C71.144 619.769 70.6001 620.499 70.6001 621.427C70.6495 622.356 71.1935 623.086 71.8363 623.086Z" fill="white"/>
<path fill-rule="evenodd" clip-rule="evenodd" d="M378.371 591.968C379.063 591.968 379.607 591.238 379.607 590.309C379.607 589.38 379.063 588.65 378.371 588.65C377.678 588.65 377.135 589.38 377.135 590.309C377.135 591.238 377.678 591.968 378.371 591.968Z" fill="white"/>
<path fill-rule="evenodd" clip-rule="evenodd" d="M491.906 660.774C492.598 660.774 493.142 660.044 493.142 659.115C493.142 658.186 492.598 657.456 491.906 657.456C491.213 657.456 490.669 658.186 490.669 659.115C490.669 660.044 491.263 660.774 491.906 660.774Z" fill="white"/>
<path fill-rule="evenodd" clip-rule="evenodd" d="M598.172 526.413C598.864 526.413 599.408 525.683 599.408 524.754C599.408 523.825 598.864 523.095 598.172 523.095C597.479 523.095 596.936 523.825 596.936 524.754C596.936 525.683 597.479 526.413 598.172 526.413Z" fill="white"/>
<path fill-rule="evenodd" clip-rule="evenodd" d="M676.301 396.963C676.993 396.963 677.537 396.233 677.537 395.305C677.537 394.376 676.993 393.646 676.301 393.646C675.609 393.646 675.065 394.376 675.065 395.305C675.065 396.233 675.658 396.963 676.301 396.963Z" fill="white"/>
<path fill-rule="evenodd" clip-rule="evenodd" d="M656.769 334.726C657.461 334.726 658.005 333.996 658.005 333.067C658.005 332.138 657.461 331.408 656.769 331.408C656.077 331.408 655.533 332.138 655.533 333.067C655.533 333.996 656.077 334.726 656.769 334.726Z" fill="white"/>
<path fill-rule="evenodd" clip-rule="evenodd" d="M712.003 300.887C712.695 300.887 713.239 300.158 713.239 299.295C713.239 298.366 712.695 297.636 712.003 297.636C711.311 297.636 710.816 298.366 710.816 299.295C710.767 300.158 711.311 300.887 712.003 300.887Z" fill="white"/>
<path fill-rule="evenodd" clip-rule="evenodd" d="M750.821 297.038C751.513 297.038 752.057 296.308 752.057 295.379C752.057 294.45 751.513 293.72 750.821 293.72C750.128 293.72 749.584 294.45 749.584 295.379C749.584 296.308 750.128 297.038 750.821 297.038Z" fill="white"/>
<path fill-rule="evenodd" clip-rule="evenodd" d="M701.866 270.498C702.558 270.498 703.102 269.768 703.102 268.839C703.102 267.911 702.558 267.181 701.866 267.181C701.174 267.181 700.63 267.911 700.63 268.839C700.63 269.835 701.174 270.498 701.866 270.498Z" fill="white"/>
<path fill-rule="evenodd" clip-rule="evenodd" d="M628.682 192.205C629.374 192.205 629.918 191.475 629.918 190.546C629.918 189.617 629.374 188.887 628.682 188.887C627.989 188.887 627.445 189.617 627.445 190.546C627.445 191.408 627.989 192.205 628.682 192.205Z" fill="white"/>
<path fill-rule="evenodd" clip-rule="evenodd" d="M810.654 192.205C811.346 192.205 811.89 191.475 811.89 190.546C811.89 189.617 811.346 188.887 810.654 188.887C809.962 188.887 809.418 189.617 809.418 190.546C809.418 191.408 809.962 192.205 810.654 192.205Z" fill="white"/>
<path fill-rule="evenodd" clip-rule="evenodd" d="M805.759 318.338C806.451 318.338 806.995 317.608 806.995 316.679C806.995 315.75 806.451 315.02 805.759 315.02C805.066 315.02 804.522 315.75 804.522 316.679C804.522 317.608 805.066 318.338 805.759 318.338Z" fill="white"/>
<path fill-rule="evenodd" clip-rule="evenodd" d="M744.689 478.907C745.381 478.907 745.925 478.177 745.925 477.248C745.925 476.319 745.381 475.589 744.689 475.589C743.997 475.589 743.453 476.319 743.453 477.248C743.453 478.177 743.997 478.907 744.689 478.907Z" fill="white"/>
<path fill-rule="evenodd" clip-rule="evenodd" d="M799.627 549.371C800.319 549.371 800.863 548.641 800.863 547.712C800.863 546.783 800.319 546.053 799.627 546.053C798.935 546.053 798.391 546.783 798.391 547.712C798.391 548.641 798.984 549.371 799.627 549.371Z" fill="white"/>
<path fill-rule="evenodd" clip-rule="evenodd" d="M770.353 665.683C771.045 665.683 771.589 664.954 771.589 664.025C771.589 663.096 771.045 662.432 770.353 662.432C769.661 662.432 769.117 663.162 769.117 664.025C769.117 664.954 769.661 665.683 770.353 665.683Z" fill="white"/>
<path fill-rule="evenodd" clip-rule="evenodd" d="M612.808 655.864C613.501 655.864 614.045 655.134 614.045 654.205C614.045 653.276 613.501 652.546 612.808 652.546C612.116 652.546 611.572 653.276 611.572 654.205C611.572 655.134 612.116 655.864 612.808 655.864Z" fill="white"/>
<path fill-rule="evenodd" clip-rule="evenodd" d="M548.08 736.147C548.772 736.147 549.316 735.418 549.316 734.489C549.316 733.56 548.772 732.83 548.08 732.83C547.388 732.83 546.844 733.56 546.844 734.489C546.893 735.418 547.437 736.147 548.08 736.147Z" fill="white"/>
<path fill-rule="evenodd" clip-rule="evenodd" d="M490.719 247.872C491.411 247.872 491.906 247.142 491.906 246.213C491.906 245.285 491.362 244.555 490.719 244.555C490.027 244.555 489.483 245.285 489.483 246.213C489.483 247.142 490.027 247.872 490.719 247.872Z" fill="white"/>
<path fill-rule="evenodd" clip-rule="evenodd" d="M48.6447 200.365C49.337 200.365 49.8314 199.635 49.8314 198.706C49.8314 197.777 49.2875 197.047 48.6447 197.047C47.9524 197.047 47.4084 197.777 47.4084 198.706C47.4579 199.635 47.9524 200.365 48.6447 200.365Z" fill="white"/>
<path fill-rule="evenodd" clip-rule="evenodd" d="M55.6666 209.124C56.8039 209.124 57.694 207.93 57.694 206.404C57.694 204.944 56.8039 203.683 55.6666 203.683C54.5787 203.683 53.6392 204.944 53.6392 206.404C53.6392 207.93 54.5787 209.124 55.6666 209.124Z" fill="white"/>
<path fill-rule="evenodd" clip-rule="evenodd" d="M122.126 187.095C123.214 187.095 124.153 185.901 124.153 184.375C124.153 182.915 123.214 181.655 122.126 181.655C120.989 181.655 120.099 182.915 120.099 184.375C120.099 185.901 120.989 187.095 122.126 187.095Z" fill="white"/>
<path fill-rule="evenodd" clip-rule="evenodd" d="M146.554 218.215C147.642 218.215 148.581 216.954 148.581 215.494C148.581 213.968 147.642 212.774 146.554 212.774C145.417 212.774 144.526 213.968 144.526 215.494C144.526 217.02 145.417 218.215 146.554 218.215Z" fill="white"/>
<path fill-rule="evenodd" clip-rule="evenodd" d="M300.983 202.688C302.12 202.688 303.01 201.427 303.01 199.967C303.01 198.441 302.12 197.247 300.983 197.247C299.895 197.247 298.956 198.508 298.956 199.967C298.956 201.427 299.895 202.688 300.983 202.688Z" fill="white"/>
<path fill-rule="evenodd" clip-rule="evenodd" d="M115.599 416.736C116.687 416.736 117.626 415.541 117.626 414.015C117.626 412.555 116.687 411.295 115.599 411.295C114.461 411.295 113.571 412.555 113.571 414.015C113.571 415.541 114.461 416.736 115.599 416.736Z" fill="white"/>
<path fill-rule="evenodd" clip-rule="evenodd" d="M267.011 644.518C268.099 644.518 269.039 643.323 269.039 641.797C269.039 640.338 268.099 639.077 267.011 639.077C265.874 639.077 264.984 640.338 264.984 641.797C264.984 643.257 265.874 644.518 267.011 644.518Z" fill="white"/>
<path fill-rule="evenodd" clip-rule="evenodd" d="M10.569 749.351C11.7064 749.351 12.5964 748.091 12.5964 746.631C12.5964 745.171 11.7064 743.911 10.569 743.911C9.48116 743.911 8.54163 745.171 8.54163 746.631C8.54163 748.157 9.48116 749.351 10.569 749.351Z" fill="white"/>
<path fill-rule="evenodd" clip-rule="evenodd" d="M479.494 770.65C480.632 770.65 481.522 769.456 481.522 767.929C481.522 766.47 480.632 765.209 479.494 765.209C478.406 765.209 477.467 766.47 477.467 767.929C477.467 769.456 478.357 770.65 479.494 770.65Z" fill="white"/>
<path fill-rule="evenodd" clip-rule="evenodd" d="M573.744 482.29C574.881 482.29 575.771 481.029 575.771 479.569C575.771 478.043 574.881 476.849 573.744 476.849C572.656 476.849 571.717 478.043 571.717 479.569C571.717 481.029 572.607 482.29 573.744 482.29Z" fill="white"/>
<path fill-rule="evenodd" clip-rule="evenodd" d="M769.166 614.527C770.304 614.527 771.194 613.333 771.194 611.807C771.194 610.347 770.304 609.087 769.166 609.087C768.078 609.087 767.139 610.347 767.139 611.807C767.139 613.333 768.078 614.527 769.166 614.527Z" fill="white"/>
<path fill-rule="evenodd" clip-rule="evenodd" d="M446.413 313.692C447.55 313.692 448.44 312.432 448.44 310.972C448.44 309.446 447.55 308.252 446.413 308.252C445.325 308.252 444.385 309.446 444.385 310.972C444.385 312.498 445.275 313.692 446.413 313.692Z" fill="white"/>
<path fill-rule="evenodd" clip-rule="evenodd" d="M766.447 209.787C767.534 209.787 768.474 208.526 768.474 207.066C768.474 205.54 767.534 204.346 766.447 204.346C765.359 204.346 764.419 205.54 764.419 207.066C764.419 208.526 765.359 209.787 766.447 209.787Z" fill="white"/>
<path fill-rule="evenodd" clip-rule="evenodd" d="M318.735 461.522C319.18 461.522 319.576 460.991 319.576 460.394C319.576 459.797 319.18 459.266 318.735 459.266C318.29 459.266 317.895 459.797 317.895 460.394C317.895 461.058 318.29 461.522 318.735 461.522Z" fill="white"/>
<path fill-rule="evenodd" clip-rule="evenodd" d="M317.895 271.759C318.34 271.759 318.736 271.228 318.736 270.631C318.736 270.033 318.389 269.503 317.895 269.503C317.45 269.503 317.054 270.033 317.054 270.631C317.054 271.228 317.45 271.759 317.895 271.759Z" fill="white"/>
<path fill-rule="evenodd" clip-rule="evenodd" d="M460.159 208.46C460.605 208.46 461 207.929 461 207.332C461 206.735 460.654 206.204 460.159 206.204C459.665 206.204 459.319 206.669 459.319 207.332C459.319 207.996 459.714 208.46 460.159 208.46Z" fill="white"/>
<path fill-rule="evenodd" clip-rule="evenodd" d="M633.577 362.461C634.022 362.461 634.418 361.93 634.418 361.333C634.418 360.735 634.022 360.205 633.577 360.205C633.132 360.205 632.737 360.735 632.737 361.333C632.737 361.996 633.083 362.461 633.577 362.461Z" fill="white"/>
<path fill-rule="evenodd" clip-rule="evenodd" d="M756.903 362.461C757.348 362.461 757.744 361.93 757.744 361.333C757.744 360.735 757.398 360.205 756.903 360.205C756.458 360.205 756.062 360.735 756.062 361.333C756.062 361.996 756.409 362.461 756.903 362.461Z" fill="white"/>
<path fill-rule="evenodd" clip-rule="evenodd" d="M787.413 508.299C787.858 508.299 788.254 507.835 788.254 507.171C788.254 506.508 787.858 506.043 787.413 506.043C786.968 506.043 786.573 506.574 786.573 507.171C786.573 507.769 786.968 508.299 787.413 508.299Z" fill="white"/>
<path fill-rule="evenodd" clip-rule="evenodd" d="M497.988 521.437C498.433 521.437 498.828 520.906 498.828 520.309C498.828 519.711 498.433 519.181 497.988 519.181C497.543 519.181 497.147 519.645 497.147 520.309C497.147 520.972 497.543 521.437 497.988 521.437Z" fill="white"/>
<path fill-rule="evenodd" clip-rule="evenodd" d="M545.657 649.228C546.102 649.228 546.498 648.697 546.498 648.1C546.498 647.503 546.102 646.972 545.657 646.972C545.212 646.972 544.816 647.503 544.816 648.1C544.816 648.697 545.163 649.228 545.657 649.228Z" fill="white"/>
<path fill-rule="evenodd" clip-rule="evenodd" d="M193.975 434.583C194.42 434.583 194.816 434.119 194.816 433.455C194.816 432.791 194.42 432.327 193.975 432.327C193.53 432.327 193.135 432.858 193.135 433.455C193.135 434.052 193.481 434.583 193.975 434.583Z" fill="white"/>
<path fill-rule="evenodd" clip-rule="evenodd" d="M109.665 306.394C110.11 306.394 110.506 305.863 110.506 305.266C110.506 304.669 110.11 304.138 109.665 304.138C109.22 304.138 108.824 304.669 108.824 305.266C108.824 305.93 109.22 306.394 109.665 306.394Z" fill="white"/>
<path fill-rule="evenodd" clip-rule="evenodd" d="M107.242 388.735C107.687 388.735 108.083 388.204 108.083 387.607C108.083 387.01 107.687 386.479 107.242 386.479C106.797 386.479 106.401 387.01 106.401 387.607C106.401 388.204 106.797 388.735 107.242 388.735Z" fill="white"/>
<path fill-rule="evenodd" clip-rule="evenodd" d="M60.8586 503.389C61.3036 503.389 61.6992 502.858 61.6992 502.261C61.6992 501.664 61.3036 501.133 60.8586 501.133C60.4135 501.133 60.0179 501.597 60.0179 502.261C60.0179 502.925 60.3641 503.389 60.8586 503.389Z" fill="white"/>
<path fill-rule="evenodd" clip-rule="evenodd" d="M88.8467 281.181C89.2918 281.181 89.6874 280.716 89.6874 280.053C89.6874 279.456 89.2918 278.925 88.8467 278.925C88.4017 278.925 88.0061 279.456 88.0061 280.053C88.0061 280.716 88.4017 281.181 88.8467 281.181Z" fill="white"/>
<path fill-rule="evenodd" clip-rule="evenodd" d="M165.888 378.915C166.333 378.915 166.729 378.385 166.729 377.787C166.729 377.19 166.383 376.659 165.888 376.659C165.443 376.659 165.048 377.19 165.048 377.787C164.998 378.385 165.394 378.915 165.888 378.915Z" fill="white"/>
<path fill-rule="evenodd" clip-rule="evenodd" d="M78.1165 743.976C78.5616 743.976 78.9571 743.446 78.9571 742.849C78.9571 742.251 78.5616 741.721 78.1165 741.721C77.6715 741.721 77.2759 742.251 77.2759 742.849C77.2759 743.446 77.622 743.976 78.1165 743.976Z" fill="white"/>
<path fill-rule="evenodd" clip-rule="evenodd" d="M251.336 786.84C251.781 786.84 252.177 786.309 252.177 785.712C252.177 785.115 251.831 784.584 251.336 784.584C250.891 784.584 250.495 785.115 250.495 785.712C250.495 786.376 250.891 786.84 251.336 786.84Z" fill="white"/>
<path fill-rule="evenodd" clip-rule="evenodd" d="M819.159 750.148C819.604 750.148 820 749.617 820 749.02C820 748.423 819.604 747.892 819.159 747.892C818.714 747.892 818.319 748.423 818.319 749.02C818.368 749.683 818.714 750.148 819.159 750.148Z" fill="white"/>
<path fill-rule="evenodd" clip-rule="evenodd" d="M641.242 592.366C641.687 592.366 642.083 591.835 642.083 591.238C642.083 590.641 641.687 590.11 641.242 590.11C640.797 590.11 640.401 590.574 640.401 591.238C640.401 591.901 640.797 592.366 641.242 592.366Z" fill="white"/>
</g>
</g>
<defs>
<filter id="filter0_f_848_4062" x="-58.0072" y="-421.18" width="982.212" height="445.815" filterUnits="userSpaceOnUse" color-interpolation-filters="sRGB">
<feFlood flood-opacity="0" result="BackgroundImageFix"/>
<feBlend mode="normal" in="SourceGraphic" in2="BackgroundImageFix" result="shape"/>
<feGaussianBlur stdDeviation="15" result="effect1_foregroundBlur_848_4062"/>
</filter>
<filter id="filter1_f_848_4062" x="-1.01392" y="-403.522" width="821.458" height="615.185" filterUnits="userSpaceOnUse" color-interpolation-filters="sRGB">
<feFlood flood-opacity="0" result="BackgroundImageFix"/>
<feBlend mode="normal" in="SourceGraphic" in2="BackgroundImageFix" result="shape"/>
<feGaussianBlur stdDeviation="2.5" result="effect1_foregroundBlur_848_4062"/>
</filter>
<filter id="filter2_f_848_4062" x="-1.01392" y="819.432" width="821.458" height="615.186" filterUnits="userSpaceOnUse" color-interpolation-filters="sRGB">
<feFlood flood-opacity="0" result="BackgroundImageFix"/>
<feBlend mode="normal" in="SourceGraphic" in2="BackgroundImageFix" result="shape"/>
<feGaussianBlur stdDeviation="2.5" result="effect1_foregroundBlur_848_4062"/>
</filter>
<filter id="filter3_f_848_4062" x="3.54163" y="176.655" width="821.459" height="615.185" filterUnits="userSpaceOnUse" color-interpolation-filters="sRGB">
<feFlood flood-opacity="0" result="BackgroundImageFix"/>
<feBlend mode="normal" in="SourceGraphic" in2="BackgroundImageFix" result="shape"/>
<feGaussianBlur stdDeviation="2.5" result="effect1_foregroundBlur_848_4062"/>
</filter>
<linearGradient id="paint0_linear_848_4062" x1="476.849" y1="-328.982" x2="451.561" y2="-19.8123" gradientUnits="userSpaceOnUse">
<stop stop-color="#1BA4E5" stop-opacity="0.5"/>
<stop offset="1" stop-color="#B40FE7"/>
</linearGradient>
<linearGradient id="paint1_linear_848_4062" x1="474.484" y1="-324.328" x2="449.493" y2="-18.7853" gradientUnits="userSpaceOnUse">
<stop stop-color="#1BA4E5" stop-opacity="0.5"/>
<stop offset="1" stop-color="#B40FE7"/>
</linearGradient>
<linearGradient id="paint2_linear_848_4062" x1="472.107" y1="-319.639" x2="447.415" y2="-17.7595" gradientUnits="userSpaceOnUse">
<stop stop-color="#1BA4E5" stop-opacity="0.5"/>
<stop offset="1" stop-color="#B40FE7"/>
</linearGradient>
<linearGradient id="paint3_linear_848_4062" x1="469.752" y1="-315.011" x2="445.354" y2="-16.7322" gradientUnits="userSpaceOnUse">
<stop stop-color="#1BA4E5" stop-opacity="0.5"/>
<stop offset="1" stop-color="#B40FE7"/>
</linearGradient>
<linearGradient id="paint4_linear_848_4062" x1="467.41" y1="-310.42" x2="443.304" y2="-15.7043" gradientUnits="userSpaceOnUse">
<stop stop-color="#1BA4E5" stop-opacity="0.5"/>
<stop offset="1" stop-color="#B40FE7"/>
</linearGradient>
<linearGradient id="paint5_linear_848_4062" x1="465.084" y1="-305.872" x2="441.265" y2="-14.6749" gradientUnits="userSpaceOnUse">
<stop stop-color="#1BA4E5" stop-opacity="0.5"/>
<stop offset="1" stop-color="#B40FE7"/>
</linearGradient>
<linearGradient id="paint6_linear_848_4062" x1="462.776" y1="-301.377" x2="439.24" y2="-13.6447" gradientUnits="userSpaceOnUse">
<stop stop-color="#1BA4E5" stop-opacity="0.5"/>
<stop offset="1" stop-color="#B40FE7"/>
</linearGradient>
<linearGradient id="paint7_linear_848_4062" x1="460.491" y1="-296.946" x2="437.233" y2="-12.6127" gradientUnits="userSpaceOnUse">
<stop stop-color="#1BA4E5" stop-opacity="0.5"/>
<stop offset="1" stop-color="#B40FE7"/>
</linearGradient>
<linearGradient id="paint8_linear_848_4062" x1="458.235" y1="-292.594" x2="435.248" y2="-11.5789" gradientUnits="userSpaceOnUse">
<stop stop-color="#1BA4E5" stop-opacity="0.5"/>
<stop offset="1" stop-color="#B40FE7"/>
</linearGradient>
<linearGradient id="paint9_linear_848_4062" x1="456.014" y1="-288.343" x2="433.289" y2="-10.5445" gradientUnits="userSpaceOnUse">
<stop stop-color="#1BA4E5" stop-opacity="0.5"/>
<stop offset="1" stop-color="#B40FE7"/>
</linearGradient>
<linearGradient id="paint10_linear_848_4062" x1="453.838" y1="-284.219" x2="431.366" y2="-9.50544" gradientUnits="userSpaceOnUse">
<stop stop-color="#1BA4E5" stop-opacity="0.5"/>
<stop offset="1" stop-color="#B40FE7"/>
</linearGradient>
<linearGradient id="paint11_linear_848_4062" x1="451.723" y1="-280.266" x2="429.489" y2="-8.46318" gradientUnits="userSpaceOnUse">
<stop stop-color="#1BA4E5" stop-opacity="0.5"/>
<stop offset="1" stop-color="#B40FE7"/>
</linearGradient>
<linearGradient id="paint12_linear_848_4062" x1="449.689" y1="-276.545" x2="427.673" y2="-7.41629" gradientUnits="userSpaceOnUse">
<stop stop-color="#1BA4E5" stop-opacity="0.5"/>
<stop offset="1" stop-color="#B40FE7"/>
</linearGradient>
<linearGradient id="paint13_linear_848_4062" x1="447.771" y1="-273.157" x2="425.946" y2="-6.36285" gradientUnits="userSpaceOnUse">
<stop stop-color="#1BA4E5" stop-opacity="0.5"/>
<stop offset="1" stop-color="#B40FE7"/>
</linearGradient>
<linearGradient id="paint14_linear_848_4062" x1="446.034" y1="-270.279" x2="424.356" y2="-5.29713" gradientUnits="userSpaceOnUse">
<stop stop-color="#1BA4E5" stop-opacity="0.5"/>
<stop offset="1" stop-color="#B40FE7"/>
</linearGradient>
<linearGradient id="paint15_linear_848_4062" x1="444.609" y1="-268.287" x2="423.004" y2="-4.21136" gradientUnits="userSpaceOnUse">
<stop stop-color="#1BA4E5" stop-opacity="0.5"/>
<stop offset="1" stop-color="#B40FE7"/>
</linearGradient>
<linearGradient id="paint16_linear_848_4062" x1="443.939" y1="-268.42" x2="422.231" y2="-3.07889" gradientUnits="userSpaceOnUse">
<stop stop-color="#1BA4E5" stop-opacity="0.5"/>
<stop offset="1" stop-color="#B40FE7"/>
</linearGradient>
<linearGradient id="paint17_linear_848_4062" x1="445.356" y1="-274.306" x2="423.062" y2="-1.81463" gradientUnits="userSpaceOnUse">
<stop stop-color="#1BA4E5" stop-opacity="0.5"/>
<stop offset="1" stop-color="#B40FE7"/>
</linearGradient>
<linearGradient id="paint18_linear_848_4062" x1="446.864" y1="-280.451" x2="423.962" y2="-0.544636" gradientUnits="userSpaceOnUse">
<stop stop-color="#1BA4E5" stop-opacity="0.5"/>
<stop offset="1" stop-color="#B40FE7"/>
</linearGradient>
<linearGradient id="paint19_linear_848_4062" x1="448.368" y1="-286.593" x2="424.86" y2="0.725102" gradientUnits="userSpaceOnUse">
<stop stop-color="#1BA4E5" stop-opacity="0.5"/>
<stop offset="1" stop-color="#B40FE7"/>
</linearGradient>
<linearGradient id="paint20_linear_848_4062" x1="449.87" y1="-292.736" x2="425.754" y2="1.99619" gradientUnits="userSpaceOnUse">
<stop stop-color="#1BA4E5" stop-opacity="0.5"/>
<stop offset="1" stop-color="#B40FE7"/>
</linearGradient>
<linearGradient id="paint21_linear_848_4062" x1="451.37" y1="-298.88" x2="426.646" y2="3.26651" gradientUnits="userSpaceOnUse">
<stop stop-color="#1BA4E5" stop-opacity="0.5"/>
<stop offset="1" stop-color="#B40FE7"/>
</linearGradient>
<linearGradient id="paint22_linear_848_4062" x1="452.868" y1="-305.028" x2="427.537" y2="4.53597" gradientUnits="userSpaceOnUse">
<stop stop-color="#1BA4E5" stop-opacity="0.5"/>
<stop offset="1" stop-color="#B40FE7"/>
</linearGradient>
<linearGradient id="paint23_linear_848_4062" x1="454.365" y1="-311.177" x2="428.426" y2="5.80489" gradientUnits="userSpaceOnUse">
<stop stop-color="#1BA4E5" stop-opacity="0.5"/>
<stop offset="1" stop-color="#B40FE7"/>
</linearGradient>
<linearGradient id="paint24_linear_848_4062" x1="455.86" y1="-317.329" x2="429.313" y2="7.07154" gradientUnits="userSpaceOnUse">
<stop stop-color="#1BA4E5" stop-opacity="0.5"/>
<stop offset="1" stop-color="#B40FE7"/>
</linearGradient>
<linearGradient id="paint25_linear_848_4062" x1="457.354" y1="-323.483" x2="430.199" y2="8.33669" gradientUnits="userSpaceOnUse">
<stop stop-color="#1BA4E5" stop-opacity="0.5"/>
<stop offset="1" stop-color="#B40FE7"/>
</linearGradient>
<linearGradient id="paint26_linear_848_4062" x1="458.847" y1="-329.638" x2="431.084" y2="9.60057" gradientUnits="userSpaceOnUse">
<stop stop-color="#1BA4E5" stop-opacity="0.5"/>
<stop offset="1" stop-color="#B40FE7"/>
</linearGradient>
<linearGradient id="paint27_linear_848_4062" x1="460.338" y1="-335.794" x2="431.968" y2="10.8635" gradientUnits="userSpaceOnUse">
<stop stop-color="#1BA4E5" stop-opacity="0.5"/>
<stop offset="1" stop-color="#B40FE7"/>
</linearGradient>
<linearGradient id="paint28_linear_848_4062" x1="461.828" y1="-341.951" x2="432.85" y2="12.1252" gradientUnits="userSpaceOnUse">
<stop stop-color="#1BA4E5" stop-opacity="0.5"/>
<stop offset="1" stop-color="#B40FE7"/>
</linearGradient>
<linearGradient id="paint29_linear_848_4062" x1="463.318" y1="-348.11" x2="433.732" y2="13.3845" gradientUnits="userSpaceOnUse">
<stop stop-color="#1BA4E5" stop-opacity="0.5"/>
<stop offset="1" stop-color="#B40FE7"/>
</linearGradient>
<linearGradient id="paint30_linear_848_4062" x1="464.806" y1="-354.269" x2="434.614" y2="14.6437" gradientUnits="userSpaceOnUse">
<stop stop-color="#1BA4E5" stop-opacity="0.5"/>
<stop offset="1" stop-color="#B40FE7"/>
</linearGradient>
<linearGradient id="paint31_linear_848_4062" x1="466.295" y1="-360.428" x2="435.495" y2="15.902" gradientUnits="userSpaceOnUse">
<stop stop-color="#1BA4E5" stop-opacity="0.5"/>
<stop offset="1" stop-color="#B40FE7"/>
</linearGradient>
<linearGradient id="paint32_linear_848_4062" x1="469.179" y1="-359.505" x2="438.423" y2="16.301" gradientUnits="userSpaceOnUse">
<stop stop-color="#1BA4E5" stop-opacity="0.5"/>
<stop offset="1" stop-color="#B40FE7"/>
</linearGradient>
<linearGradient id="paint33_linear_848_4062" x1="472.072" y1="-358.58" x2="441.353" y2="16.764" gradientUnits="userSpaceOnUse">
<stop stop-color="#1BA4E5" stop-opacity="0.5"/>
<stop offset="1" stop-color="#B40FE7"/>
</linearGradient>
<linearGradient id="paint34_linear_848_4062" x1="474.963" y1="-357.655" x2="444.283" y2="17.2269" gradientUnits="userSpaceOnUse">
<stop stop-color="#1BA4E5" stop-opacity="0.5"/>
<stop offset="1" stop-color="#B40FE7"/>
</linearGradient>
<linearGradient id="paint35_linear_848_4062" x1="477.855" y1="-356.73" x2="447.212" y2="17.6895" gradientUnits="userSpaceOnUse">
<stop stop-color="#1BA4E5" stop-opacity="0.5"/>
<stop offset="1" stop-color="#B40FE7"/>
</linearGradient>
<linearGradient id="paint36_linear_848_4062" x1="480.747" y1="-355.805" x2="450.143" y2="18.1514" gradientUnits="userSpaceOnUse">
<stop stop-color="#1BA4E5" stop-opacity="0.5"/>
<stop offset="1" stop-color="#B40FE7"/>
</linearGradient>
<linearGradient id="paint37_linear_848_4062" x1="483.639" y1="-354.88" x2="453.073" y2="18.6126" gradientUnits="userSpaceOnUse">
<stop stop-color="#1BA4E5" stop-opacity="0.5"/>
<stop offset="1" stop-color="#B40FE7"/>
</linearGradient>
<linearGradient id="paint38_linear_848_4062" x1="486.531" y1="-353.954" x2="456.003" y2="19.0737" gradientUnits="userSpaceOnUse">
<stop stop-color="#1BA4E5" stop-opacity="0.5"/>
<stop offset="1" stop-color="#B40FE7"/>
</linearGradient>
<linearGradient id="paint39_linear_848_4062" x1="489.422" y1="-353.028" x2="458.933" y2="19.5356" gradientUnits="userSpaceOnUse">
<stop stop-color="#1BA4E5" stop-opacity="0.5"/>
<stop offset="1" stop-color="#B40FE7"/>
</linearGradient>
<linearGradient id="paint40_linear_848_4062" x1="492.314" y1="-352.103" x2="461.863" y2="19.9962" gradientUnits="userSpaceOnUse">
<stop stop-color="#1BA4E5" stop-opacity="0.5"/>
<stop offset="1" stop-color="#B40FE7"/>
</linearGradient>
<linearGradient id="paint41_linear_848_4062" x1="495.205" y1="-351.176" x2="464.793" y2="20.4575" gradientUnits="userSpaceOnUse">
<stop stop-color="#1BA4E5" stop-opacity="0.5"/>
<stop offset="1" stop-color="#B40FE7"/>
</linearGradient>
<linearGradient id="paint42_linear_848_4062" x1="498.097" y1="-350.25" x2="467.723" y2="20.9182" gradientUnits="userSpaceOnUse">
<stop stop-color="#1BA4E5" stop-opacity="0.5"/>
<stop offset="1" stop-color="#B40FE7"/>
</linearGradient>
<linearGradient id="paint43_linear_848_4062" x1="500.988" y1="-349.324" x2="470.653" y2="21.379" gradientUnits="userSpaceOnUse">
<stop stop-color="#1BA4E5" stop-opacity="0.5"/>
<stop offset="1" stop-color="#B40FE7"/>
</linearGradient>
<linearGradient id="paint44_linear_848_4062" x1="503.88" y1="-348.397" x2="473.583" y2="21.8396" gradientUnits="userSpaceOnUse">
<stop stop-color="#1BA4E5" stop-opacity="0.5"/>
<stop offset="1" stop-color="#B40FE7"/>
</linearGradient>
<linearGradient id="paint45_linear_848_4062" x1="506.771" y1="-347.471" x2="476.513" y2="22.2999" gradientUnits="userSpaceOnUse">
<stop stop-color="#1BA4E5" stop-opacity="0.5"/>
<stop offset="1" stop-color="#B40FE7"/>
</linearGradient>
<linearGradient id="paint46_linear_848_4062" x1="509.663" y1="-346.544" x2="479.444" y2="22.7604" gradientUnits="userSpaceOnUse">
<stop stop-color="#1BA4E5" stop-opacity="0.5"/>
<stop offset="1" stop-color="#B40FE7"/>
</linearGradient>
<linearGradient id="paint47_linear_848_4062" x1="512.555" y1="-345.617" x2="482.374" y2="23.2215" gradientUnits="userSpaceOnUse">
<stop stop-color="#1BA4E5" stop-opacity="0.5"/>
<stop offset="1" stop-color="#B40FE7"/>
</linearGradient>
<linearGradient id="paint48_linear_848_4062" x1="515.446" y1="-344.691" x2="485.304" y2="23.6812" gradientUnits="userSpaceOnUse">
<stop stop-color="#1BA4E5" stop-opacity="0.5"/>
<stop offset="1" stop-color="#B40FE7"/>
</linearGradient>
<linearGradient id="paint49_linear_848_4062" x1="518.338" y1="-343.763" x2="488.234" y2="24.1421" gradientUnits="userSpaceOnUse">
<stop stop-color="#1BA4E5" stop-opacity="0.5"/>
<stop offset="1" stop-color="#B40FE7"/>
</linearGradient>
<linearGradient id="paint50_linear_848_4062" x1="521.229" y1="-342.838" x2="491.164" y2="24.6013" gradientUnits="userSpaceOnUse">
<stop stop-color="#1BA4E5" stop-opacity="0.5"/>
<stop offset="1" stop-color="#B40FE7"/>
</linearGradient>
<linearGradient id="paint51_linear_848_4062" x1="524.12" y1="-341.911" x2="494.094" y2="25.0616" gradientUnits="userSpaceOnUse">
<stop stop-color="#1BA4E5" stop-opacity="0.5"/>
<stop offset="1" stop-color="#B40FE7"/>
</linearGradient>
<linearGradient id="paint52_linear_848_4062" x1="527.012" y1="-340.985" x2="497.024" y2="25.521" gradientUnits="userSpaceOnUse">
<stop stop-color="#1BA4E5" stop-opacity="0.5"/>
<stop offset="1" stop-color="#B40FE7"/>
</linearGradient>
<linearGradient id="paint53_linear_848_4062" x1="529.903" y1="-340.057" x2="499.955" y2="25.9818" gradientUnits="userSpaceOnUse">
<stop stop-color="#1BA4E5" stop-opacity="0.5"/>
<stop offset="1" stop-color="#B40FE7"/>
</linearGradient>
<linearGradient id="paint54_linear_848_4062" x1="532.794" y1="-339.131" x2="502.884" y2="26.4411" gradientUnits="userSpaceOnUse">
<stop stop-color="#1BA4E5" stop-opacity="0.5"/>
<stop offset="1" stop-color="#B40FE7"/>
</linearGradient>
<linearGradient id="paint55_linear_848_4062" x1="535.686" y1="-338.205" x2="505.814" y2="26.9007" gradientUnits="userSpaceOnUse">
<stop stop-color="#1BA4E5" stop-opacity="0.5"/>
<stop offset="1" stop-color="#B40FE7"/>
</linearGradient>
<linearGradient id="paint56_linear_848_4062" x1="540.554" y1="-342.815" x2="510.258" y2="27.4838" gradientUnits="userSpaceOnUse">
<stop stop-color="#1BA4E5" stop-opacity="0.5"/>
<stop offset="1" stop-color="#B40FE7"/>
</linearGradient>
<linearGradient id="paint57_linear_848_4062" x1="546.011" y1="-349.074" x2="515.153" y2="28.1048" gradientUnits="userSpaceOnUse">
<stop stop-color="#1BA4E5" stop-opacity="0.5"/>
<stop offset="1" stop-color="#B40FE7"/>
</linearGradient>
<linearGradient id="paint58_linear_848_4062" x1="551.474" y1="-355.35" x2="520.052" y2="28.725" gradientUnits="userSpaceOnUse">
<stop stop-color="#1BA4E5" stop-opacity="0.5"/>
<stop offset="1" stop-color="#B40FE7"/>
</linearGradient>
<linearGradient id="paint59_linear_848_4062" x1="556.942" y1="-361.636" x2="524.955" y2="29.3467" gradientUnits="userSpaceOnUse">
<stop stop-color="#1BA4E5" stop-opacity="0.5"/>
<stop offset="1" stop-color="#B40FE7"/>
</linearGradient>
<linearGradient id="paint60_linear_848_4062" x1="562.414" y1="-367.937" x2="529.861" y2="29.9671" gradientUnits="userSpaceOnUse">
<stop stop-color="#1BA4E5" stop-opacity="0.5"/>
<stop offset="1" stop-color="#B40FE7"/>
</linearGradient>
<linearGradient id="paint61_linear_848_4062" x1="567.89" y1="-374.251" x2="534.771" y2="30.5885" gradientUnits="userSpaceOnUse">
<stop stop-color="#1BA4E5" stop-opacity="0.5"/>
<stop offset="1" stop-color="#B40FE7"/>
</linearGradient>
<linearGradient id="paint62_linear_848_4062" x1="573.372" y1="-380.579" x2="539.684" y2="31.2102" gradientUnits="userSpaceOnUse">
<stop stop-color="#1BA4E5" stop-opacity="0.5"/>
<stop offset="1" stop-color="#B40FE7"/>
</linearGradient>
<clipPath id="clip0_848_4062">
<rect width="820" height="1157" fill="white"/>
</clipPath>
</defs>
</svg>
