<svg width="128" height="34" viewBox="0 0 128 34" fill="none" xmlns="http://www.w3.org/2000/svg">
<g filter="url(#filter0_d_814_6456)">
<path d="M12.642 1.268C15.1353 1.268 17.3227 1.75533 19.204 2.73C21.108 3.70467 22.57 5.09867 23.59 6.912C24.6327 8.70267 25.154 10.788 25.154 13.168C25.154 15.548 24.6327 17.6333 23.59 19.424C22.57 21.192 21.108 22.5633 19.204 23.538C17.3227 24.5127 15.1353 25 12.642 25H4.346V1.268H12.642ZM12.472 20.954C14.9653 20.954 16.892 20.274 18.252 18.914C19.612 17.554 20.292 15.6387 20.292 13.168C20.292 10.6973 19.612 8.77067 18.252 7.388C16.892 5.98267 14.9653 5.28 12.472 5.28H9.106V20.954H12.472ZM33.4771 5.11V11.06H41.4671V14.834H33.4771V21.124H42.4871V25H28.7171V1.234H42.4871V5.11H33.4771ZM55.0068 25.238C53.3521 25.238 51.8561 24.9547 50.5188 24.388C49.2041 23.8213 48.1615 23.0053 47.3908 21.94C46.6201 20.8747 46.2235 19.6167 46.2008 18.166H51.3008C51.3688 19.1407 51.7088 19.9113 52.3208 20.478C52.9555 21.0447 53.8168 21.328 54.9048 21.328C56.0155 21.328 56.8881 21.0673 57.5228 20.546C58.1575 20.002 58.4748 19.2993 58.4748 18.438C58.4748 17.7353 58.2595 17.1573 57.8288 16.704C57.3981 16.2507 56.8541 15.8993 56.1968 15.65C55.5621 15.378 54.6781 15.0833 53.5448 14.766C52.0035 14.3127 50.7455 13.8707 49.7708 13.44C48.8188 12.9867 47.9915 12.318 47.2888 11.434C46.6088 10.5273 46.2688 9.326 46.2688 7.83C46.2688 6.42467 46.6201 5.20067 47.3228 4.158C48.0255 3.11533 49.0115 2.322 50.2808 1.778C51.5501 1.21133 53.0008 0.928 54.6328 0.928C57.0808 0.928 59.0641 1.52867 60.5828 2.73C62.1241 3.90867 62.9741 5.56333 63.1328 7.694H57.8968C57.8515 6.878 57.5001 6.20933 56.8428 5.688C56.2081 5.144 55.3581 4.872 54.2928 4.872C53.3635 4.872 52.6155 5.11 52.0488 5.586C51.5048 6.062 51.2328 6.75333 51.2328 7.66C51.2328 8.29467 51.4368 8.82733 51.8448 9.258C52.2755 9.666 52.7968 10.006 53.4088 10.278C54.0435 10.5273 54.9275 10.822 56.0608 11.162C57.6021 11.6153 58.8601 12.0687 59.8348 12.522C60.8095 12.9753 61.6481 13.6553 62.3508 14.562C63.0535 15.4687 63.4048 16.6587 63.4048 18.132C63.4048 19.4013 63.0761 20.58 62.4188 21.668C61.7615 22.756 60.7981 23.6287 59.5288 24.286C58.2595 24.9207 56.7521 25.238 55.0068 25.238ZM72.2915 1.268V25H67.5315V1.268H72.2915ZM93.5184 8.408C92.9744 7.41067 92.2264 6.65133 91.2744 6.13C90.3224 5.60867 89.2118 5.348 87.9424 5.348C86.5371 5.348 85.2904 5.66533 84.2024 6.3C83.1144 6.93467 82.2644 7.84133 81.6524 9.02C81.0404 10.1987 80.7344 11.5587 80.7344 13.1C80.7344 14.6867 81.0404 16.0693 81.6524 17.248C82.2871 18.4267 83.1598 19.3333 84.2704 19.968C85.3811 20.6027 86.6731 20.92 88.1464 20.92C89.9598 20.92 91.4444 20.444 92.6004 19.492C93.7564 18.5173 94.5158 17.1687 94.8784 15.446H86.7184V11.808H99.5704V15.956C99.2531 17.6107 98.5731 19.1407 97.5304 20.546C96.4878 21.9513 95.1391 23.0847 93.4844 23.946C91.8524 24.7847 90.0164 25.204 87.9764 25.204C85.6871 25.204 83.6131 24.694 81.7544 23.674C79.9184 22.6313 78.4678 21.192 77.4024 19.356C76.3598 17.52 75.8384 15.4347 75.8384 13.1C75.8384 10.7653 76.3598 8.68 77.4024 6.844C78.4678 4.98533 79.9184 3.546 81.7544 2.526C83.6131 1.48333 85.6758 0.961999 87.9424 0.961999C90.6171 0.961999 92.9404 1.61933 94.9124 2.934C96.8844 4.226 98.2444 6.05067 98.9924 8.408H93.5184ZM123.39 25H118.63L107.852 8.714V25H103.092V1.234H107.852L118.63 17.554V1.234H123.39V25Z" fill="white"/>
</g>
<defs>
<filter id="filter0_d_814_6456" x="0.346008" y="0.927979" width="127.044" height="32.3101" filterUnits="userSpaceOnUse" color-interpolation-filters="sRGB">
<feFlood flood-opacity="0" result="BackgroundImageFix"/>
<feColorMatrix in="SourceAlpha" type="matrix" values="0 0 0 0 0 0 0 0 0 0 0 0 0 0 0 0 0 0 127 0" result="hardAlpha"/>
<feOffset dy="4"/>
<feGaussianBlur stdDeviation="2"/>
<feComposite in2="hardAlpha" operator="out"/>
<feColorMatrix type="matrix" values="0 0 0 0 0.984314 0 0 0 0 0.596078 0 0 0 0 0.960784 0 0 0 0.69 0"/>
<feBlend mode="normal" in2="BackgroundImageFix" result="effect1_dropShadow_814_6456"/>
<feBlend mode="normal" in="SourceGraphic" in2="effect1_dropShadow_814_6456" result="shape"/>
</filter>
</defs>
</svg>
