<svg width="1440" height="2065" viewBox="0 0 1440 2065" fill="none" xmlns="http://www.w3.org/2000/svg">
<g clip-path="url(#clip0_1031_3359)">
<rect width="1440" height="2065" fill="#161036"/>
<g opacity="0.35" filter="url(#filter0_f_1031_3359)">
<path fill-rule="evenodd" clip-rule="evenodd" d="M443.618 7.90419C444.833 7.90419 445.789 6.59839 445.789 4.93647C445.789 3.27455 444.833 1.96875 443.618 1.96875C442.402 1.96875 441.447 3.27455 441.447 4.93647C441.447 6.59839 442.489 7.90419 443.618 7.90419Z" fill="white"/>
<path fill-rule="evenodd" clip-rule="evenodd" d="M328.298 152.848C329.514 152.848 330.469 151.542 330.469 149.999C330.469 148.456 329.514 147.031 328.298 147.031C327.082 147.031 326.127 148.337 326.127 149.999C326.127 151.661 327.169 152.848 328.298 152.848Z" fill="white"/>
<path fill-rule="evenodd" clip-rule="evenodd" d="M373.366 164.599C374.582 164.599 375.537 163.293 375.537 161.632C375.537 159.97 374.582 158.664 373.366 158.664C372.151 158.664 371.196 159.97 371.196 161.632C371.196 163.175 372.151 164.599 373.366 164.599Z" fill="white"/>
<path fill-rule="evenodd" clip-rule="evenodd" d="M559.893 384.33C561.109 384.33 562.064 383.024 562.064 381.362C562.064 379.7 561.109 378.395 559.893 378.395C558.677 378.395 557.722 379.7 557.722 381.362C557.722 383.143 558.764 384.33 559.893 384.33Z" fill="white"/>
<path fill-rule="evenodd" clip-rule="evenodd" d="M502.059 437.155C503.275 437.155 504.23 435.849 504.23 434.187C504.23 432.525 503.275 431.338 502.059 431.338C500.844 431.338 499.888 432.644 499.888 434.187C499.888 435.849 500.844 437.155 502.059 437.155Z" fill="white"/>
<path fill-rule="evenodd" clip-rule="evenodd" d="M118.152 196.77C119.367 196.77 120.323 195.464 120.323 193.802C120.323 192.14 119.367 190.834 118.152 190.834C116.936 190.834 115.981 192.14 115.981 193.802C116.068 195.464 117.023 196.77 118.152 196.77Z" fill="white"/>
<path fill-rule="evenodd" clip-rule="evenodd" d="M656.456 141.096C657.672 141.096 658.627 139.79 658.627 138.128C658.627 136.466 657.672 135.16 656.456 135.16C655.24 135.16 654.285 136.466 654.285 138.128C654.285 139.79 655.24 141.096 656.456 141.096Z" fill="white"/>
<path fill-rule="evenodd" clip-rule="evenodd" d="M855.835 264.197C857.05 264.197 858.005 262.891 858.005 261.229C858.005 259.568 857.05 258.262 855.835 258.262C854.619 258.262 853.664 259.568 853.664 261.229C853.664 262.891 854.706 264.197 855.835 264.197Z" fill="white"/>
<path fill-rule="evenodd" clip-rule="evenodd" d="M1042.45 23.8104C1043.66 23.8104 1044.62 22.5046 1044.62 20.8427C1044.62 19.1808 1043.66 17.875 1042.45 17.875C1041.23 17.875 1040.28 19.1808 1040.28 20.8427C1040.28 22.5046 1041.23 23.8104 1042.45 23.8104Z" fill="white"/>
<path fill-rule="evenodd" clip-rule="evenodd" d="M1396.22 64.8847C1397.44 64.8847 1398.39 63.5789 1398.39 61.9169C1398.39 60.255 1397.44 58.9492 1396.22 58.9492C1395.01 58.9492 1394.05 60.255 1394.05 61.9169C1394.05 63.5789 1395.09 64.8847 1396.22 64.8847Z" fill="white"/>
<path fill-rule="evenodd" clip-rule="evenodd" d="M1344.82 272.981C1346.03 272.981 1346.99 271.675 1346.99 270.013C1346.99 268.351 1346.03 267.164 1344.82 267.164C1343.6 267.164 1342.64 268.47 1342.64 270.013C1342.64 271.675 1343.6 272.981 1344.82 272.981Z" fill="white"/>
<path fill-rule="evenodd" clip-rule="evenodd" d="M1068.15 255.412C1069.37 255.412 1070.32 254.106 1070.32 252.444C1070.32 250.782 1069.37 249.477 1068.15 249.477C1066.94 249.477 1065.98 250.782 1065.98 252.444C1065.98 254.106 1066.94 255.412 1068.15 255.412Z" fill="white"/>
<path fill-rule="evenodd" clip-rule="evenodd" d="M954.482 399.049C955.698 399.049 956.653 397.743 956.653 396.081C956.653 394.419 955.698 393.113 954.482 393.113C953.266 393.113 952.311 394.419 952.311 396.081C952.398 397.743 953.353 399.049 954.482 399.049Z" fill="white"/>
<path fill-rule="evenodd" clip-rule="evenodd" d="M460.898 235.113C462.809 235.113 464.459 232.976 464.459 230.246C464.459 227.634 462.809 225.379 460.898 225.379C458.901 225.379 457.338 227.634 457.338 230.246C457.338 232.858 458.901 235.113 460.898 235.113Z" fill="white"/>
<path fill-rule="evenodd" clip-rule="evenodd" d="M10.5603 422.672C12.5576 422.672 14.1207 420.416 14.1207 417.805C14.1207 415.193 12.5576 412.938 10.5603 412.938C8.64991 412.938 7 415.193 7 417.805C7 420.535 8.64991 422.672 10.5603 422.672Z" fill="white"/>
<path fill-rule="evenodd" clip-rule="evenodd" d="M834.039 460.777C836.036 460.777 837.599 458.64 837.599 455.91C837.599 453.298 836.036 451.043 834.039 451.043C832.128 451.043 830.479 453.298 830.479 455.91C830.479 458.64 832.042 460.777 834.039 460.777Z" fill="white"/>
<path fill-rule="evenodd" clip-rule="evenodd" d="M1342.73 181.457C1344.73 181.457 1346.29 179.32 1346.29 176.59C1346.29 173.978 1344.73 171.723 1342.73 171.723C1340.82 171.723 1339.17 173.978 1339.17 176.59C1339.17 179.32 1340.82 181.457 1342.73 181.457Z" fill="white"/>
<path fill-rule="evenodd" clip-rule="evenodd" d="M866.515 14.9072C867.297 14.9072 867.992 13.9575 867.992 12.8892C867.992 11.8208 867.297 10.8711 866.515 10.8711C865.734 10.8711 865.039 11.7021 865.039 12.8892C865.039 14.0762 865.734 14.9072 866.515 14.9072Z" fill="white"/>
<path fill-rule="evenodd" clip-rule="evenodd" d="M950.227 243.54C951.009 243.54 951.703 242.59 951.703 241.522C951.703 240.454 951.009 239.504 950.227 239.504C949.446 239.504 948.751 240.454 948.751 241.522C948.751 242.59 949.359 243.54 950.227 243.54Z" fill="white"/>
<path fill-rule="evenodd" clip-rule="evenodd" d="M129.18 413.056C129.962 413.056 130.657 412.106 130.657 411.038C130.657 409.969 129.962 409.02 129.18 409.02C128.399 409.02 127.704 409.969 127.704 411.038C127.704 412.106 128.312 413.056 129.18 413.056Z" fill="white"/>
<path fill-rule="evenodd" clip-rule="evenodd" d="M433.371 489.743C434.152 489.743 434.847 488.793 434.847 487.725C434.847 486.657 434.239 485.707 433.371 485.707C432.589 485.707 431.895 486.657 431.895 487.725C431.895 488.912 432.589 489.743 433.371 489.743Z" fill="white"/>
<path fill-rule="evenodd" clip-rule="evenodd" d="M1430.52 424.097C1431.31 424.097 1432 423.147 1432 422.079C1432 421.01 1431.31 420.061 1430.52 420.061C1429.74 420.061 1429.05 421.01 1429.05 422.079C1429.13 423.266 1429.74 424.097 1430.52 424.097Z" fill="white"/>
<path fill-rule="evenodd" clip-rule="evenodd" d="M1118.08 141.808C1118.86 141.808 1119.56 140.858 1119.56 139.79C1119.56 138.721 1118.86 137.771 1118.08 137.771C1117.3 137.771 1116.61 138.602 1116.61 139.79C1116.61 140.977 1117.3 141.808 1118.08 141.808Z" fill="white"/>
</g>
<g opacity="0.35" filter="url(#filter1_f_1031_3359)">
<path fill-rule="evenodd" clip-rule="evenodd" d="M528.861 470.633C530.077 470.633 531.032 469.327 531.032 467.665C531.032 466.003 530.077 464.816 528.861 464.816C527.646 464.816 526.69 466.122 526.69 467.665C526.69 469.327 527.646 470.633 528.861 470.633Z" fill="white"/>
<path fill-rule="evenodd" clip-rule="evenodd" d="M388.793 435.615C390.008 435.615 390.963 434.309 390.963 432.647C390.963 430.985 390.008 429.68 388.793 429.68C387.577 429.68 386.622 430.985 386.622 432.647C386.622 434.309 387.664 435.615 388.793 435.615Z" fill="white"/>
<path fill-rule="evenodd" clip-rule="evenodd" d="M333.043 670.182C334.259 670.182 335.214 668.876 335.214 667.214C335.214 665.552 334.259 664.246 333.043 664.246C331.827 664.246 330.872 665.552 330.872 667.214C330.872 668.757 331.827 670.182 333.043 670.182Z" fill="white"/>
<path fill-rule="evenodd" clip-rule="evenodd" d="M452.618 967.904C453.833 967.904 454.789 966.598 454.789 964.936C454.789 963.275 453.833 961.969 452.618 961.969C451.402 961.969 450.447 963.275 450.447 964.936C450.447 966.598 451.489 967.904 452.618 967.904Z" fill="white"/>
<path fill-rule="evenodd" clip-rule="evenodd" d="M337.298 1112.85C338.514 1112.85 339.469 1111.54 339.469 1110C339.469 1108.46 338.514 1107.03 337.298 1107.03C336.082 1107.03 335.127 1108.34 335.127 1110C335.127 1111.66 336.169 1112.85 337.298 1112.85Z" fill="white"/>
<path fill-rule="evenodd" clip-rule="evenodd" d="M382.366 1124.6C383.582 1124.6 384.537 1123.29 384.537 1121.63C384.537 1119.97 383.582 1118.66 382.366 1118.66C381.151 1118.66 380.196 1119.97 380.196 1121.63C380.196 1123.17 381.151 1124.6 382.366 1124.6Z" fill="white"/>
<path fill-rule="evenodd" clip-rule="evenodd" d="M568.893 1344.33C570.109 1344.33 571.064 1343.02 571.064 1341.36C571.064 1339.7 570.109 1338.39 568.893 1338.39C567.677 1338.39 566.722 1339.7 566.722 1341.36C566.722 1343.14 567.764 1344.33 568.893 1344.33Z" fill="white"/>
<path fill-rule="evenodd" clip-rule="evenodd" d="M511.059 1397.15C512.275 1397.15 513.23 1395.85 513.23 1394.19C513.23 1392.53 512.275 1391.34 511.059 1391.34C509.844 1391.34 508.888 1392.64 508.888 1394.19C508.888 1395.85 509.844 1397.15 511.059 1397.15Z" fill="white"/>
<path fill-rule="evenodd" clip-rule="evenodd" d="M127.152 1156.77C128.367 1156.77 129.323 1155.46 129.323 1153.8C129.323 1152.14 128.367 1150.83 127.152 1150.83C125.936 1150.83 124.981 1152.14 124.981 1153.8C125.068 1155.46 126.023 1156.77 127.152 1156.77Z" fill="white"/>
<path fill-rule="evenodd" clip-rule="evenodd" d="M665.456 1101.1C666.672 1101.1 667.627 1099.79 667.627 1098.13C667.627 1096.47 666.672 1095.16 665.456 1095.16C664.24 1095.16 663.285 1096.47 663.285 1098.13C663.285 1099.79 664.24 1101.1 665.456 1101.1Z" fill="white"/>
<path fill-rule="evenodd" clip-rule="evenodd" d="M864.835 1224.2C866.05 1224.2 867.005 1222.89 867.005 1221.23C867.005 1219.57 866.05 1218.26 864.835 1218.26C863.619 1218.26 862.664 1219.57 862.664 1221.23C862.664 1222.89 863.706 1224.2 864.835 1224.2Z" fill="white"/>
<path fill-rule="evenodd" clip-rule="evenodd" d="M1051.45 983.81C1052.66 983.81 1053.62 982.505 1053.62 980.843C1053.62 979.181 1052.66 977.875 1051.45 977.875C1050.23 977.875 1049.28 979.181 1049.28 980.843C1049.28 982.505 1050.23 983.81 1051.45 983.81Z" fill="white"/>
<path fill-rule="evenodd" clip-rule="evenodd" d="M1188.65 752.211C1189.87 752.211 1190.82 750.905 1190.82 749.243C1190.82 747.581 1189.87 746.275 1188.65 746.275C1187.44 746.275 1186.48 747.581 1186.48 749.243C1186.48 750.905 1187.52 752.211 1188.65 752.211Z" fill="white"/>
<path fill-rule="evenodd" clip-rule="evenodd" d="M1154.35 640.861C1155.57 640.861 1156.52 639.555 1156.52 637.893C1156.52 636.232 1155.57 634.926 1154.35 634.926C1153.13 634.926 1152.18 636.232 1152.18 637.893C1152.18 639.555 1153.13 640.861 1154.35 640.861Z" fill="white"/>
<path fill-rule="evenodd" clip-rule="evenodd" d="M1251.35 580.321C1252.56 580.321 1253.52 579.015 1253.52 577.472C1253.52 575.81 1252.56 574.504 1251.35 574.504C1250.13 574.504 1249.26 575.81 1249.26 577.472C1249.18 579.015 1250.13 580.321 1251.35 580.321Z" fill="white"/>
<path fill-rule="evenodd" clip-rule="evenodd" d="M1319.51 573.433C1320.73 573.433 1321.69 572.128 1321.69 570.466C1321.69 568.804 1320.73 567.498 1319.51 567.498C1318.3 567.498 1317.34 568.804 1317.34 570.466C1317.34 572.128 1318.3 573.433 1319.51 573.433Z" fill="white"/>
<path fill-rule="evenodd" clip-rule="evenodd" d="M1233.55 525.951C1234.76 525.951 1235.72 524.645 1235.72 522.983C1235.72 521.321 1234.76 520.015 1233.55 520.015C1232.33 520.015 1231.37 521.321 1231.37 522.983C1231.37 524.764 1232.33 525.951 1233.55 525.951Z" fill="white"/>
<path fill-rule="evenodd" clip-rule="evenodd" d="M1105.03 385.875C1106.24 385.875 1107.2 384.569 1107.2 382.907C1107.2 381.245 1106.24 379.939 1105.03 379.939C1103.81 379.939 1102.86 381.245 1102.86 382.907C1102.86 384.45 1103.81 385.875 1105.03 385.875Z" fill="white"/>
<path fill-rule="evenodd" clip-rule="evenodd" d="M1424.59 385.875C1425.8 385.875 1426.76 384.569 1426.76 382.907C1426.76 381.245 1425.8 379.939 1424.59 379.939C1423.37 379.939 1422.42 381.245 1422.42 382.907C1422.42 384.45 1423.37 385.875 1424.59 385.875Z" fill="white"/>
<path fill-rule="evenodd" clip-rule="evenodd" d="M1415.99 611.541C1417.21 611.541 1418.16 610.235 1418.16 608.573C1418.16 606.911 1417.21 605.605 1415.99 605.605C1414.78 605.605 1413.82 606.911 1413.82 608.573C1413.82 610.235 1414.78 611.541 1415.99 611.541Z" fill="white"/>
<path fill-rule="evenodd" clip-rule="evenodd" d="M1308.75 898.816C1309.96 898.816 1310.92 897.511 1310.92 895.849C1310.92 894.187 1309.96 892.881 1308.75 892.881C1307.53 892.881 1306.58 894.187 1306.58 895.849C1306.58 897.511 1307.53 898.816 1308.75 898.816Z" fill="white"/>
<path fill-rule="evenodd" clip-rule="evenodd" d="M1405.22 1024.88C1406.44 1024.88 1407.39 1023.58 1407.39 1021.92C1407.39 1020.26 1406.44 1018.95 1405.22 1018.95C1404.01 1018.95 1403.05 1020.26 1403.05 1021.92C1403.05 1023.58 1404.09 1024.88 1405.22 1024.88Z" fill="white"/>
<path fill-rule="evenodd" clip-rule="evenodd" d="M1353.82 1232.98C1355.03 1232.98 1355.99 1231.67 1355.99 1230.01C1355.99 1228.35 1355.03 1227.16 1353.82 1227.16C1352.6 1227.16 1351.64 1228.47 1351.64 1230.01C1351.64 1231.67 1352.6 1232.98 1353.82 1232.98Z" fill="white"/>
<path fill-rule="evenodd" clip-rule="evenodd" d="M1077.15 1215.41C1078.37 1215.41 1079.32 1214.11 1079.32 1212.44C1079.32 1210.78 1078.37 1209.48 1077.15 1209.48C1075.94 1209.48 1074.98 1210.78 1074.98 1212.44C1074.98 1214.11 1075.94 1215.41 1077.15 1215.41Z" fill="white"/>
<path fill-rule="evenodd" clip-rule="evenodd" d="M963.482 1359.05C964.698 1359.05 965.653 1357.74 965.653 1356.08C965.653 1354.42 964.698 1353.11 963.482 1353.11C962.266 1353.11 961.311 1354.42 961.311 1356.08C961.398 1357.74 962.353 1359.05 963.482 1359.05Z" fill="white"/>
<path fill-rule="evenodd" clip-rule="evenodd" d="M862.75 485.471C863.966 485.471 864.834 484.165 864.834 482.503C864.834 480.841 863.879 479.535 862.75 479.535C861.534 479.535 860.579 480.841 860.579 482.503C860.579 484.165 861.534 485.471 862.75 485.471Z" fill="white"/>
<path fill-rule="evenodd" clip-rule="evenodd" d="M86.4248 400.475C87.6406 400.475 88.5089 399.169 88.5089 397.507C88.5089 395.845 87.5537 394.539 86.4248 394.539C85.2091 394.539 84.2539 395.845 84.2539 397.507C84.3407 399.169 85.2091 400.475 86.4248 400.475Z" fill="white"/>
<path fill-rule="evenodd" clip-rule="evenodd" d="M98.7561 416.146C100.753 416.146 102.316 414.009 102.316 411.279C102.316 408.668 100.753 406.412 98.7561 406.412C96.8457 406.412 95.1958 408.668 95.1958 411.279C95.1958 414.009 96.8457 416.146 98.7561 416.146Z" fill="white"/>
<path fill-rule="evenodd" clip-rule="evenodd" d="M215.465 376.734C217.376 376.734 219.025 374.597 219.025 371.867C219.025 369.255 217.376 367 215.465 367C213.468 367 211.905 369.255 211.905 371.867C211.905 374.597 213.468 376.734 215.465 376.734Z" fill="white"/>
<path fill-rule="evenodd" clip-rule="evenodd" d="M258.363 432.41C260.273 432.41 261.923 430.154 261.923 427.543C261.923 424.813 260.273 422.676 258.363 422.676C256.366 422.676 254.803 424.813 254.803 427.543C254.803 430.273 256.366 432.41 258.363 432.41Z" fill="white"/>
<path fill-rule="evenodd" clip-rule="evenodd" d="M529.555 404.631C531.553 404.631 533.116 402.375 533.116 399.764C533.116 397.033 531.553 394.896 529.555 394.896C527.645 394.896 525.995 397.152 525.995 399.764C525.995 402.375 527.645 404.631 529.555 404.631Z" fill="white"/>
<path fill-rule="evenodd" clip-rule="evenodd" d="M204.003 787.586C205.913 787.586 207.563 785.449 207.563 782.719C207.563 780.107 205.913 777.852 204.003 777.852C202.005 777.852 200.442 780.107 200.442 782.719C200.442 785.449 202.005 787.586 204.003 787.586Z" fill="white"/>
<path fill-rule="evenodd" clip-rule="evenodd" d="M469.898 1195.11C471.809 1195.11 473.459 1192.98 473.459 1190.25C473.459 1187.63 471.809 1185.38 469.898 1185.38C467.901 1185.38 466.338 1187.63 466.338 1190.25C466.338 1192.86 467.901 1195.11 469.898 1195.11Z" fill="white"/>
<path fill-rule="evenodd" clip-rule="evenodd" d="M19.5603 1382.67C21.5576 1382.67 23.1207 1380.42 23.1207 1377.8C23.1207 1375.19 21.5576 1372.94 19.5603 1372.94C17.6499 1372.94 16 1375.19 16 1377.8C16 1380.53 17.6499 1382.67 19.5603 1382.67Z" fill="white"/>
<path fill-rule="evenodd" clip-rule="evenodd" d="M843.039 1420.78C845.036 1420.78 846.599 1418.64 846.599 1415.91C846.599 1413.3 845.036 1411.04 843.039 1411.04C841.128 1411.04 839.479 1413.3 839.479 1415.91C839.479 1418.64 841.042 1420.78 843.039 1420.78Z" fill="white"/>
<path fill-rule="evenodd" clip-rule="evenodd" d="M1008.55 904.869C1010.55 904.869 1012.11 902.613 1012.11 900.002C1012.11 897.272 1010.55 895.135 1008.55 895.135C1006.64 895.135 1004.99 897.272 1004.99 900.002C1004.99 902.613 1006.55 904.869 1008.55 904.869Z" fill="white"/>
<path fill-rule="evenodd" clip-rule="evenodd" d="M1351.73 1141.46C1353.73 1141.46 1355.29 1139.32 1355.29 1136.59C1355.29 1133.98 1353.73 1131.72 1351.73 1131.72C1349.82 1131.72 1348.17 1133.98 1348.17 1136.59C1348.17 1139.32 1349.82 1141.46 1351.73 1141.46Z" fill="white"/>
<path fill-rule="evenodd" clip-rule="evenodd" d="M784.944 603.23C786.941 603.23 788.504 600.975 788.504 598.363C788.504 595.633 786.941 593.496 784.944 593.496C783.034 593.496 781.384 595.633 781.384 598.363C781.384 601.093 782.947 603.23 784.944 603.23Z" fill="white"/>
<path fill-rule="evenodd" clip-rule="evenodd" d="M1346.95 417.332C1348.87 417.332 1350.52 415.076 1350.52 412.465C1350.52 409.734 1348.87 407.598 1346.95 407.598C1345.04 407.598 1343.39 409.734 1343.39 412.465C1343.39 415.076 1345.04 417.332 1346.95 417.332Z" fill="white"/>
<path fill-rule="evenodd" clip-rule="evenodd" d="M560.73 867.714C561.512 867.714 562.206 866.764 562.206 865.696C562.206 864.627 561.512 863.678 560.73 863.678C559.949 863.678 559.254 864.627 559.254 865.696C559.254 866.883 559.949 867.714 560.73 867.714Z" fill="white"/>
<path fill-rule="evenodd" clip-rule="evenodd" d="M559.255 528.206C560.036 528.206 560.731 527.256 560.731 526.188C560.731 525.12 560.123 524.17 559.255 524.17C558.473 524.17 557.778 525.12 557.778 526.188C557.778 527.256 558.473 528.206 559.255 528.206Z" fill="white"/>
<path fill-rule="evenodd" clip-rule="evenodd" d="M809.085 414.958C809.867 414.958 810.561 414.008 810.561 412.94C810.561 411.872 809.954 410.922 809.085 410.922C808.217 410.922 807.609 411.753 807.609 412.94C807.609 414.127 808.304 414.958 809.085 414.958Z" fill="white"/>
<path fill-rule="evenodd" clip-rule="evenodd" d="M1113.62 690.482C1114.41 690.482 1115.1 689.532 1115.1 688.464C1115.1 687.395 1114.41 686.446 1113.62 686.446C1112.84 686.446 1112.15 687.395 1112.15 688.464C1112.15 689.651 1112.76 690.482 1113.62 690.482Z" fill="white"/>
<path fill-rule="evenodd" clip-rule="evenodd" d="M1330.2 690.482C1330.98 690.482 1331.67 689.532 1331.67 688.464C1331.67 687.395 1331.06 686.446 1330.2 686.446C1329.41 686.446 1328.72 687.395 1328.72 688.464C1328.72 689.651 1329.33 690.482 1330.2 690.482Z" fill="white"/>
<path fill-rule="evenodd" clip-rule="evenodd" d="M1383.77 951.403C1384.56 951.403 1385.25 950.572 1385.25 949.385C1385.25 948.198 1384.56 947.367 1383.77 947.367C1382.99 947.367 1382.3 948.317 1382.3 949.385C1382.3 950.454 1382.99 951.403 1383.77 951.403Z" fill="white"/>
<path fill-rule="evenodd" clip-rule="evenodd" d="M875.515 974.907C876.297 974.907 876.992 973.958 876.992 972.889C876.992 971.821 876.297 970.871 875.515 970.871C874.734 970.871 874.039 971.702 874.039 972.889C874.039 974.076 874.734 974.907 875.515 974.907Z" fill="white"/>
<path fill-rule="evenodd" clip-rule="evenodd" d="M959.227 1203.54C960.009 1203.54 960.703 1202.59 960.703 1201.52C960.703 1200.45 960.009 1199.5 959.227 1199.5C958.446 1199.5 957.751 1200.45 957.751 1201.52C957.751 1202.59 958.359 1203.54 959.227 1203.54Z" fill="white"/>
<path fill-rule="evenodd" clip-rule="evenodd" d="M341.64 819.517C342.421 819.517 343.116 818.686 343.116 817.499C343.116 816.311 342.421 815.48 341.64 815.48C340.858 815.48 340.164 816.43 340.164 817.499C340.164 818.567 340.771 819.517 341.64 819.517Z" fill="white"/>
<path fill-rule="evenodd" clip-rule="evenodd" d="M193.583 590.173C194.364 590.173 195.059 589.223 195.059 588.155C195.059 587.086 194.364 586.137 193.583 586.137C192.801 586.137 192.106 587.086 192.106 588.155C192.106 589.342 192.801 590.173 193.583 590.173Z" fill="white"/>
<path fill-rule="evenodd" clip-rule="evenodd" d="M189.327 737.489C190.109 737.489 190.804 736.54 190.804 735.471C190.804 734.403 190.109 733.453 189.327 733.453C188.546 733.453 187.851 734.403 187.851 735.471C187.851 736.54 188.546 737.489 189.327 737.489Z" fill="white"/>
<path fill-rule="evenodd" clip-rule="evenodd" d="M107.874 942.618C108.655 942.618 109.35 941.668 109.35 940.6C109.35 939.532 108.655 938.582 107.874 938.582C107.092 938.582 106.397 939.413 106.397 940.6C106.397 941.787 107.005 942.618 107.874 942.618Z" fill="white"/>
<path fill-rule="evenodd" clip-rule="evenodd" d="M157.024 545.063C157.805 545.063 158.5 544.232 158.5 543.045C158.5 541.977 157.805 541.027 157.024 541.027C156.242 541.027 155.547 541.977 155.547 543.045C155.547 544.232 156.242 545.063 157.024 545.063Z" fill="white"/>
<path fill-rule="evenodd" clip-rule="evenodd" d="M292.316 719.921C293.098 719.921 293.792 718.971 293.792 717.903C293.792 716.835 293.184 715.885 292.316 715.885C291.535 715.885 290.84 716.835 290.84 717.903C290.753 718.971 291.448 719.921 292.316 719.921Z" fill="white"/>
<path fill-rule="evenodd" clip-rule="evenodd" d="M138.18 1373.06C138.962 1373.06 139.657 1372.11 139.657 1371.04C139.657 1369.97 138.962 1369.02 138.18 1369.02C137.399 1369.02 136.704 1369.97 136.704 1371.04C136.704 1372.11 137.312 1373.06 138.18 1373.06Z" fill="white"/>
<path fill-rule="evenodd" clip-rule="evenodd" d="M442.371 1449.74C443.152 1449.74 443.847 1448.79 443.847 1447.73C443.847 1446.66 443.239 1445.71 442.371 1445.71C441.589 1445.71 440.895 1446.66 440.895 1447.73C440.895 1448.91 441.589 1449.74 442.371 1449.74Z" fill="white"/>
<path fill-rule="evenodd" clip-rule="evenodd" d="M1439.52 1384.1C1440.31 1384.1 1441 1383.15 1441 1382.08C1441 1381.01 1440.31 1380.06 1439.52 1380.06C1438.74 1380.06 1438.05 1381.01 1438.05 1382.08C1438.13 1383.27 1438.74 1384.1 1439.52 1384.1Z" fill="white"/>
<path fill-rule="evenodd" clip-rule="evenodd" d="M1127.08 1101.81C1127.86 1101.81 1128.56 1100.86 1128.56 1099.79C1128.56 1098.72 1127.86 1097.77 1127.08 1097.77C1126.3 1097.77 1125.61 1098.6 1125.61 1099.79C1125.61 1100.98 1126.3 1101.81 1127.08 1101.81Z" fill="white"/>
</g>
<g opacity="0.4" filter="url(#filter2_f_1031_3359)">
<path d="M1492.98 -494.415C1492.98 -494.415 1148.43 -539.102 1097.62 -407.836C1063.24 -319.039 1090.87 -254.985 1023.77 -209.454C967.379 -171.185 822.001 -162.739 747.869 -168.452C644.518 -176.418 534.932 -228.257 429.32 -231.917C208.554 -239.565 36.4917 -36.5104 244.914 58.8189" stroke="url(#paint0_linear_1031_3359)" stroke-width="0.5658" stroke-miterlimit="10"/>
<path d="M1493.26 -492.816C1493.26 -492.816 1153.5 -536.562 1098.92 -408.704C1062.06 -322.35 1085.9 -259.538 1018.52 -214.013C1005.76 -205.38 988.559 -198.233 968.737 -192.387C956.263 -188.704 942.797 -185.536 928.764 -182.838C867.051 -170.962 793.988 -168.321 748.215 -171.154C646.738 -177.366 539.092 -226.278 434.816 -228.897C217.423 -234.645 45.6075 -37.5957 238.473 53.4414" stroke="url(#paint1_linear_1031_3359)" stroke-width="0.5658" stroke-miterlimit="10"/>
<path d="M1493.55 -491.218C1493.55 -491.218 1158.57 -534.033 1100.22 -409.568C1060.88 -325.664 1080.92 -264.088 1013.26 -218.574C1000.58 -210.023 983.622 -202.889 964.146 -197.001C951.884 -193.289 938.69 -190.06 924.986 -187.283C864.701 -175.051 793.459 -171.785 748.562 -173.853C648.968 -178.316 543.216 -224.163 440.313 -225.879C226.207 -229.453 54.7333 -38.6834 232.032 48.0622" stroke="url(#paint2_linear_1031_3359)" stroke-width="0.5658" stroke-miterlimit="10"/>
<path d="M1493.83 -489.621C1493.83 -489.621 1163.65 -531.515 1101.51 -410.434C1059.7 -328.988 1075.93 -268.639 1008 -223.131C995.389 -214.658 978.674 -207.542 959.544 -201.611C947.495 -197.866 934.581 -194.582 921.207 -191.73C862.351 -179.145 792.919 -175.25 748.898 -176.558C651.178 -179.267 547.362 -222.124 445.799 -222.863C235.047 -224.405 63.8486 -39.7726 225.581 42.6815" stroke="url(#paint3_linear_1031_3359)" stroke-width="0.5658" stroke-miterlimit="10"/>
<path d="M1494.12 -488.02C1494.12 -488.02 1168.77 -529.003 1102.81 -411.3C1058.55 -332.318 1070.95 -273.19 1002.74 -227.689C990.213 -219.293 973.726 -212.194 954.952 -206.227C943.114 -202.452 930.482 -199.107 917.438 -196.176C860.019 -183.236 792.413 -178.771 749.244 -179.258C653.446 -180.338 551.517 -220.08 451.294 -219.846C243.905 -219.362 72.9633 -40.8609 219.14 37.3011" stroke="url(#paint4_linear_1031_3359)" stroke-width="0.5658" stroke-miterlimit="10"/>
<path d="M1494.4 -486.422C1494.4 -486.422 1173.89 -526.51 1104.09 -412.164C1057.39 -335.656 1065.94 -277.743 997.468 -232.245C985.009 -223.926 968.768 -216.845 950.341 -210.835C938.716 -207.027 926.364 -203.627 913.641 -200.621C857.65 -187.327 791.862 -182.247 749.57 -181.961C655.644 -181.319 555.663 -218.044 456.771 -216.827C252.753 -214.323 82.0696 -41.9481 212.68 31.9225" stroke="url(#paint5_linear_1031_3359)" stroke-width="0.5658" stroke-miterlimit="10"/>
<path d="M1494.69 -484.826C1494.69 -484.826 1179.04 -524.028 1105.39 -413.03C1056.27 -338.997 1060.97 -282.294 992.213 -236.802C979.834 -228.565 963.831 -221.497 945.75 -215.446C934.327 -211.608 922.266 -208.148 909.872 -205.063C855.319 -191.414 791.332 -185.721 749.917 -184.657C657.862 -182.292 559.838 -216.001 462.267 -213.806C261.64 -209.292 91.1856 -43.0319 206.23 26.5515" stroke="url(#paint6_linear_1031_3359)" stroke-width="0.5658" stroke-miterlimit="10"/>
<path d="M1494.98 -483.225C1494.98 -483.225 1184.23 -521.559 1106.69 -413.896C1055.17 -342.35 1055.99 -286.846 986.958 -241.365C974.659 -233.206 958.893 -226.155 941.158 -220.062C929.948 -216.19 918.158 -212.674 906.104 -209.511C852.979 -195.509 790.801 -189.201 750.263 -187.362C660.071 -183.27 564.012 -213.972 467.763 -210.79C270.535 -204.27 100.311 -44.1215 199.789 21.1705" stroke="url(#paint7_linear_1031_3359)" stroke-width="0.5658" stroke-miterlimit="10"/>
<path d="M1495.26 -481.629C1495.26 -481.629 1189.43 -519.103 1107.98 -414.762C1054.08 -345.712 1051 -291.397 981.692 -245.923C969.464 -237.841 953.944 -230.808 936.556 -224.673C925.558 -220.771 914.049 -217.196 902.315 -213.957C850.628 -199.599 790.241 -192.673 750.599 -190.063C662.269 -184.242 568.185 -211.944 473.248 -207.773C279.429 -199.258 109.425 -45.2152 193.337 15.7898" stroke="url(#paint8_linear_1031_3359)" stroke-width="0.5658" stroke-miterlimit="10"/>
<path d="M1495.55 -480.028C1495.55 -480.028 1194.68 -516.656 1109.29 -415.623C1053.03 -349.072 1045.84 -296.002 976.437 -250.476C964.25 -242.482 949.007 -235.456 931.965 -229.284C921.179 -225.348 909.951 -221.717 898.547 -218.4C848.287 -203.689 789.71 -196.148 750.946 -192.759C664.469 -185.205 572.369 -209.911 478.745 -204.747C288.352 -194.247 118.542 -46.2947 186.897 10.4181" stroke="url(#paint9_linear_1031_3359)" stroke-width="0.5658" stroke-miterlimit="10"/>
<path d="M1495.82 -478.43C1495.82 -478.43 1199.96 -514.224 1110.57 -416.492C1052 -352.451 1040.83 -300.564 971.162 -255.037C959.055 -247.125 944.029 -240.123 927.353 -233.897C916.76 -229.941 905.832 -226.241 894.758 -222.85C845.937 -207.782 789.15 -199.624 751.272 -195.467C666.648 -186.18 576.541 -207.9 484.221 -201.738C297.254 -189.262 127.647 -47.3913 180.436 5.02997" stroke="url(#paint10_linear_1031_3359)" stroke-width="0.5658" stroke-miterlimit="10"/>
<path d="M1496.11 -476.833C1496.11 -476.833 1205.3 -511.804 1111.87 -417.358C1051 -355.828 1035.84 -305.118 965.906 -259.594C953.87 -251.759 939.09 -244.78 922.762 -238.508C912.38 -234.521 901.733 -230.762 890.98 -227.291C843.587 -211.867 788.601 -203.087 751.618 -198.162C668.839 -187.138 580.743 -205.877 489.717 -198.712C306.194 -184.27 136.763 -48.4701 173.995 -0.341016" stroke="url(#paint11_linear_1031_3359)" stroke-width="0.5658" stroke-miterlimit="10"/>
</g>
<g filter="url(#filter3_f_1031_3359)">
<ellipse cx="1184.3" cy="1207.43" rx="192" ry="232" transform="rotate(-28.4344 1184.3 1207.43)" fill="#FD56F1" fill-opacity="0.42"/>
</g>
</g>
<defs>
<filter id="filter0_f_1031_3359" x="2" y="-598" width="1435" height="1092.74" filterUnits="userSpaceOnUse" color-interpolation-filters="sRGB">
<feFlood flood-opacity="0" result="BackgroundImageFix"/>
<feBlend mode="normal" in="SourceGraphic" in2="BackgroundImageFix" result="shape"/>
<feGaussianBlur stdDeviation="2.5" result="effect1_foregroundBlur_1031_3359"/>
</filter>
<filter id="filter1_f_1031_3359" x="11" y="362" width="1435" height="1092.74" filterUnits="userSpaceOnUse" color-interpolation-filters="sRGB">
<feFlood flood-opacity="0" result="BackgroundImageFix"/>
<feBlend mode="normal" in="SourceGraphic" in2="BackgroundImageFix" result="shape"/>
<feGaussianBlur stdDeviation="2.5" result="effect1_foregroundBlur_1031_3359"/>
</filter>
<filter id="filter2_f_1031_3359" x="-76.8147" y="-532.03" width="1608.65" height="621.107" filterUnits="userSpaceOnUse" color-interpolation-filters="sRGB">
<feFlood flood-opacity="0" result="BackgroundImageFix"/>
<feBlend mode="normal" in="SourceGraphic" in2="BackgroundImageFix" result="shape"/>
<feGaussianBlur stdDeviation="15" result="effect1_foregroundBlur_1031_3359"/>
</filter>
<filter id="filter3_f_1031_3359" x="482.517" y="483.818" width="1403.58" height="1447.23" filterUnits="userSpaceOnUse" color-interpolation-filters="sRGB">
<feFlood flood-opacity="0" result="BackgroundImageFix"/>
<feBlend mode="normal" in="SourceGraphic" in2="BackgroundImageFix" result="shape"/>
<feGaussianBlur stdDeviation="250" result="effect1_foregroundBlur_1031_3359"/>
</filter>
<linearGradient id="paint0_linear_1031_3359" x1="498.423" y1="-343.278" x2="706.591" y2="-7.21827" gradientUnits="userSpaceOnUse">
<stop stop-color="#1BA4E5" stop-opacity="0.5"/>
<stop offset="1" stop-color="#B40FE7"/>
</linearGradient>
<linearGradient id="paint1_linear_1031_3359" x1="506.862" y1="-341.268" x2="712.585" y2="-9.15655" gradientUnits="userSpaceOnUse">
<stop stop-color="#1BA4E5" stop-opacity="0.5"/>
<stop offset="1" stop-color="#B40FE7"/>
</linearGradient>
<linearGradient id="paint2_linear_1031_3359" x1="515.359" y1="-339.236" x2="718.611" y2="-11.1123" gradientUnits="userSpaceOnUse">
<stop stop-color="#1BA4E5" stop-opacity="0.5"/>
<stop offset="1" stop-color="#B40FE7"/>
</linearGradient>
<linearGradient id="paint3_linear_1031_3359" x1="523.756" y1="-337.239" x2="724.58" y2="-13.0353" gradientUnits="userSpaceOnUse">
<stop stop-color="#1BA4E5" stop-opacity="0.5"/>
<stop offset="1" stop-color="#B40FE7"/>
</linearGradient>
<linearGradient id="paint4_linear_1031_3359" x1="532.095" y1="-335.262" x2="730.516" y2="-14.9368" gradientUnits="userSpaceOnUse">
<stop stop-color="#1BA4E5" stop-opacity="0.5"/>
<stop offset="1" stop-color="#B40FE7"/>
</linearGradient>
<linearGradient id="paint5_linear_1031_3359" x1="540.364" y1="-333.307" x2="736.413" y2="-16.8134" gradientUnits="userSpaceOnUse">
<stop stop-color="#1BA4E5" stop-opacity="0.5"/>
<stop offset="1" stop-color="#B40FE7"/>
</linearGradient>
<linearGradient id="paint6_linear_1031_3359" x1="548.55" y1="-331.382" x2="742.261" y2="-18.6606" gradientUnits="userSpaceOnUse">
<stop stop-color="#1BA4E5" stop-opacity="0.5"/>
<stop offset="1" stop-color="#B40FE7"/>
</linearGradient>
<linearGradient id="paint7_linear_1031_3359" x1="556.634" y1="-329.492" x2="748.052" y2="-20.4724" gradientUnits="userSpaceOnUse">
<stop stop-color="#1BA4E5" stop-opacity="0.5"/>
<stop offset="1" stop-color="#B40FE7"/>
</linearGradient>
<linearGradient id="paint8_linear_1031_3359" x1="564.589" y1="-327.646" x2="753.769" y2="-22.2398" gradientUnits="userSpaceOnUse">
<stop stop-color="#1BA4E5" stop-opacity="0.5"/>
<stop offset="1" stop-color="#B40FE7"/>
</linearGradient>
<linearGradient id="paint9_linear_1031_3359" x1="572.386" y1="-325.853" x2="759.396" y2="-23.95" gradientUnits="userSpaceOnUse">
<stop stop-color="#1BA4E5" stop-opacity="0.5"/>
<stop offset="1" stop-color="#B40FE7"/>
</linearGradient>
<linearGradient id="paint10_linear_1031_3359" x1="579.977" y1="-324.131" x2="764.906" y2="-25.5878" gradientUnits="userSpaceOnUse">
<stop stop-color="#1BA4E5" stop-opacity="0.5"/>
<stop offset="1" stop-color="#B40FE7"/>
</linearGradient>
<linearGradient id="paint11_linear_1031_3359" x1="587.298" y1="-322.502" x2="770.262" y2="-27.1296" gradientUnits="userSpaceOnUse">
<stop stop-color="#1BA4E5" stop-opacity="0.5"/>
<stop offset="1" stop-color="#B40FE7"/>
</linearGradient>
<clipPath id="clip0_1031_3359">
<rect width="1440" height="2065" fill="white"/>
</clipPath>
</defs>
</svg>
