<svg width="271" height="281" viewBox="0 0 271 281" fill="none" xmlns="http://www.w3.org/2000/svg">
<g opacity="0.7">
<g filter="url(#filter0_f_814_6466)">
<path fill-rule="evenodd" clip-rule="evenodd" d="M231 40.719H40.6555V190.081L135.757 241L230.859 190.081L231 190.081V40.719Z" fill="url(#paint0_linear_814_6466)"/>
</g>
<g style="mix-blend-mode:soft-light">
<path fill-rule="evenodd" clip-rule="evenodd" d="M228.34 49C228.34 43.4772 223.863 39 218.34 39H48.0469C42.5241 39 38.0469 43.4771 38.0469 49V181.362C38.0469 181.379 38.038 181.394 38.0235 181.402C37.9922 181.42 37.9922 181.465 38.0235 181.483C38.038 181.491 38.0469 181.506 38.0469 181.523V186.976C38.0469 192.159 42.2484 196.36 47.4311 196.36H61.7646C63.4865 196.36 65.1792 196.805 66.6787 197.651L128.114 232.315C131.165 234.036 134.893 234.036 137.943 232.315L199.378 197.651C200.878 196.805 202.571 196.36 204.292 196.36H218.34C223.863 196.36 228.34 191.883 228.34 186.36V49Z" fill="url(#paint1_linear_814_6466)"/>
</g>
</g>
<defs>
<filter id="filter0_f_814_6466" x="0.655518" y="0.718994" width="270.344" height="280.281" filterUnits="userSpaceOnUse" color-interpolation-filters="sRGB">
<feFlood flood-opacity="0" result="BackgroundImageFix"/>
<feBlend mode="normal" in="SourceGraphic" in2="BackgroundImageFix" result="shape"/>
<feGaussianBlur stdDeviation="20" result="effect1_foregroundBlur_814_6466"/>
</filter>
<linearGradient id="paint0_linear_814_6466" x1="135.828" y1="40.719" x2="135.828" y2="241" gradientUnits="userSpaceOnUse">
<stop stop-color="#FB98F5" stop-opacity="0.58"/>
<stop offset="1" stop-color="#C4C4C4" stop-opacity="0.09"/>
</linearGradient>
<linearGradient id="paint1_linear_814_6466" x1="133.101" y1="24.065" x2="133.101" y2="236.197" gradientUnits="userSpaceOnUse">
<stop stop-color="white" stop-opacity="0.73"/>
<stop offset="1" stop-color="#C4C4C4" stop-opacity="0"/>
</linearGradient>
</defs>
</svg>
