<svg width="834" height="1003" viewBox="0 0 834 1003" fill="none" xmlns="http://www.w3.org/2000/svg">
<g clip-path="url(#clip0_1083_3381)">
<rect width="834" height="1003" fill="#161036"/>
<g opacity="0.35" filter="url(#filter0_f_1083_3381)">
<path fill-rule="evenodd" clip-rule="evenodd" d="M256.928 3.83868C257.633 3.83868 258.186 3.20443 258.186 2.39721C258.186 1.58999 257.633 0.95575 256.928 0.95575C256.224 0.95575 255.671 1.58999 255.671 2.39721C255.671 3.20443 256.275 3.83868 256.928 3.83868Z" fill="white"/>
<path fill-rule="evenodd" clip-rule="evenodd" d="M190.139 74.24C190.843 74.24 191.396 73.6057 191.396 72.8561C191.396 72.1066 190.843 71.4147 190.139 71.4147C189.435 71.4147 188.882 72.0489 188.882 72.8561C188.882 73.6634 189.485 74.24 190.139 74.24Z" fill="white"/>
<path fill-rule="evenodd" clip-rule="evenodd" d="M216.241 79.9477C216.945 79.9477 217.499 79.3135 217.499 78.5063C217.499 77.6991 216.945 77.0648 216.241 77.0648C215.537 77.0648 214.984 77.6991 214.984 78.5063C214.984 79.2558 215.537 79.9477 216.241 79.9477Z" fill="white"/>
<path fill-rule="evenodd" clip-rule="evenodd" d="M324.271 186.674C324.975 186.674 325.529 186.04 325.529 185.233C325.529 184.425 324.975 183.791 324.271 183.791C323.567 183.791 323.014 184.425 323.014 185.233C323.014 186.097 323.617 186.674 324.271 186.674Z" fill="white"/>
<path fill-rule="evenodd" clip-rule="evenodd" d="M290.776 212.332C291.48 212.332 292.033 211.698 292.033 210.89C292.033 210.083 291.48 209.507 290.776 209.507C290.072 209.507 289.519 210.141 289.519 210.89C289.519 211.698 290.072 212.332 290.776 212.332Z" fill="white"/>
<path fill-rule="evenodd" clip-rule="evenodd" d="M68.4295 95.5733C69.1336 95.5733 69.6868 94.9391 69.6868 94.1318C69.6868 93.3246 69.1336 92.6904 68.4295 92.6904C67.7253 92.6904 67.1721 93.3246 67.1721 94.1318C67.2224 94.9391 67.7756 95.5733 68.4295 95.5733Z" fill="white"/>
<path fill-rule="evenodd" clip-rule="evenodd" d="M380.197 68.5316C380.902 68.5316 381.455 67.8974 381.455 67.0901C381.455 66.2829 380.902 65.6487 380.197 65.6487C379.493 65.6487 378.94 66.2829 378.94 67.0901C378.94 67.8974 379.493 68.5316 380.197 68.5316Z" fill="white"/>
<path fill-rule="evenodd" clip-rule="evenodd" d="M495.671 128.324C496.375 128.324 496.928 127.69 496.928 126.882C496.928 126.075 496.375 125.441 495.671 125.441C494.967 125.441 494.413 126.075 494.413 126.882C494.413 127.69 495.017 128.324 495.671 128.324Z" fill="white"/>
<path fill-rule="evenodd" clip-rule="evenodd" d="M603.751 11.5646C604.455 11.5646 605.008 10.9303 605.008 10.1231C605.008 9.31588 604.455 8.68164 603.751 8.68164C603.047 8.68164 602.494 9.31588 602.494 10.1231C602.494 10.9303 603.047 11.5646 603.751 11.5646Z" fill="white"/>
<path fill-rule="evenodd" clip-rule="evenodd" d="M808.646 31.5149C809.35 31.5149 809.903 30.8806 809.903 30.0734C809.903 29.2662 809.35 28.632 808.646 28.632C807.941 28.632 807.388 29.2662 807.388 30.0734C807.388 30.8806 807.992 31.5149 808.646 31.5149Z" fill="white"/>
<path fill-rule="evenodd" clip-rule="evenodd" d="M778.872 132.59C779.576 132.59 780.129 131.956 780.129 131.149C780.129 130.341 779.576 129.765 778.872 129.765C778.168 129.765 777.615 130.399 777.615 131.149C777.615 131.956 778.168 132.59 778.872 132.59Z" fill="white"/>
<path fill-rule="evenodd" clip-rule="evenodd" d="M618.638 124.057C619.342 124.057 619.895 123.422 619.895 122.615C619.895 121.808 619.342 121.174 618.638 121.174C617.934 121.174 617.38 121.808 617.38 122.615C617.38 123.422 617.934 124.057 618.638 124.057Z" fill="white"/>
<path fill-rule="evenodd" clip-rule="evenodd" d="M552.804 193.823C553.508 193.823 554.061 193.189 554.061 192.382C554.061 191.574 553.508 190.94 552.804 190.94C552.1 190.94 551.547 191.574 551.547 192.382C551.597 193.189 552.15 193.823 552.804 193.823Z" fill="white"/>
<path fill-rule="evenodd" clip-rule="evenodd" d="M266.937 114.197C268.043 114.197 268.999 113.159 268.999 111.833C268.999 110.565 268.043 109.469 266.937 109.469C265.78 109.469 264.875 110.565 264.875 111.833C264.875 113.102 265.78 114.197 266.937 114.197Z" fill="white"/>
<path fill-rule="evenodd" clip-rule="evenodd" d="M6.1161 205.297C7.27285 205.297 8.17812 204.202 8.17812 202.933C8.17812 201.665 7.27285 200.569 6.1161 200.569C5.00965 200.569 4.05408 201.665 4.05408 202.933C4.05408 204.259 5.00965 205.297 6.1161 205.297Z" fill="white"/>
<path fill-rule="evenodd" clip-rule="evenodd" d="M483.047 223.805C484.204 223.805 485.109 222.768 485.109 221.442C485.109 220.173 484.204 219.077 483.047 219.077C481.941 219.077 480.985 220.173 480.985 221.442C480.985 222.768 481.891 223.805 483.047 223.805Z" fill="white"/>
<path fill-rule="evenodd" clip-rule="evenodd" d="M777.665 88.1356C778.822 88.1356 779.727 87.0978 779.727 85.7716C779.727 84.5032 778.822 83.4076 777.665 83.4076C776.559 83.4076 775.603 84.5032 775.603 85.7716C775.603 87.0978 776.559 88.1356 777.665 88.1356Z" fill="white"/>
<path fill-rule="evenodd" clip-rule="evenodd" d="M501.857 7.24013C502.309 7.24013 502.712 6.77885 502.712 6.25993C502.712 5.741 502.309 5.27972 501.857 5.27972C501.404 5.27972 501.002 5.68334 501.002 6.25993C501.002 6.83651 501.404 7.24013 501.857 7.24013Z" fill="white"/>
<path fill-rule="evenodd" clip-rule="evenodd" d="M550.34 118.29C550.792 118.29 551.195 117.829 551.195 117.31C551.195 116.791 550.792 116.33 550.34 116.33C549.887 116.33 549.485 116.791 549.485 117.31C549.485 117.829 549.837 118.29 550.34 118.29Z" fill="white"/>
<path fill-rule="evenodd" clip-rule="evenodd" d="M74.8169 200.627C75.2695 200.627 75.6719 200.165 75.6719 199.646C75.6719 199.127 75.2695 198.666 74.8169 198.666C74.3643 198.666 73.9619 199.127 73.9619 199.646C73.9619 200.165 74.314 200.627 74.8169 200.627Z" fill="white"/>
<path fill-rule="evenodd" clip-rule="evenodd" d="M250.994 237.875C251.446 237.875 251.849 237.413 251.849 236.895C251.849 236.376 251.497 235.914 250.994 235.914C250.541 235.914 250.139 236.376 250.139 236.895C250.139 237.471 250.541 237.875 250.994 237.875Z" fill="white"/>
<path fill-rule="evenodd" clip-rule="evenodd" d="M828.512 205.989C828.964 205.989 829.367 205.528 829.367 205.009C829.367 204.49 828.964 204.029 828.512 204.029C828.059 204.029 827.657 204.49 827.657 205.009C827.707 205.586 828.059 205.989 828.512 205.989Z" fill="white"/>
<path fill-rule="evenodd" clip-rule="evenodd" d="M647.556 68.8774C648.009 68.8774 648.411 68.4162 648.411 67.8973C648.411 67.3783 648.009 66.9171 647.556 66.9171C647.104 66.9171 646.701 67.3207 646.701 67.8973C646.701 68.4738 647.104 68.8774 647.556 68.8774Z" fill="white"/>
</g>
<g opacity="0.35" filter="url(#filter1_f_1083_3381)">
<path fill-rule="evenodd" clip-rule="evenodd" d="M306.299 228.593C307.003 228.593 307.556 227.959 307.556 227.152C307.556 226.345 307.003 225.768 306.299 225.768C305.595 225.768 305.042 226.402 305.042 227.152C305.042 227.959 305.595 228.593 306.299 228.593Z" fill="white"/>
<path fill-rule="evenodd" clip-rule="evenodd" d="M225.176 211.584C225.88 211.584 226.433 210.95 226.433 210.143C226.433 209.336 225.88 208.702 225.176 208.702C224.471 208.702 223.918 209.336 223.918 210.143C223.918 210.95 224.522 211.584 225.176 211.584Z" fill="white"/>
<path fill-rule="evenodd" clip-rule="evenodd" d="M192.887 325.517C193.591 325.517 194.145 324.883 194.145 324.075C194.145 323.268 193.591 322.634 192.887 322.634C192.183 322.634 191.63 323.268 191.63 324.075C191.63 324.825 192.183 325.517 192.887 325.517Z" fill="white"/>
<path fill-rule="evenodd" clip-rule="evenodd" d="M262.141 470.125C262.845 470.125 263.398 469.491 263.398 468.683C263.398 467.876 262.845 467.242 262.141 467.242C261.437 467.242 260.884 467.876 260.884 468.683C260.884 469.491 261.487 470.125 262.141 470.125Z" fill="white"/>
<path fill-rule="evenodd" clip-rule="evenodd" d="M195.352 540.526C196.056 540.526 196.609 539.892 196.609 539.142C196.609 538.393 196.056 537.701 195.352 537.701C194.647 537.701 194.094 538.335 194.094 539.142C194.094 539.95 194.698 540.526 195.352 540.526Z" fill="white"/>
<path fill-rule="evenodd" clip-rule="evenodd" d="M221.454 546.234C222.158 546.234 222.711 545.6 222.711 544.793C222.711 543.985 222.158 543.351 221.454 543.351C220.75 543.351 220.197 543.985 220.197 544.793C220.197 545.542 220.75 546.234 221.454 546.234Z" fill="white"/>
<path fill-rule="evenodd" clip-rule="evenodd" d="M329.484 652.96C330.188 652.96 330.741 652.326 330.741 651.519C330.741 650.712 330.188 650.077 329.484 650.077C328.78 650.077 328.227 650.712 328.227 651.519C328.227 652.384 328.83 652.96 329.484 652.96Z" fill="white"/>
<path fill-rule="evenodd" clip-rule="evenodd" d="M295.988 678.618C296.693 678.618 297.246 677.984 297.246 677.177C297.246 676.369 296.693 675.793 295.988 675.793C295.284 675.793 294.731 676.427 294.731 677.177C294.731 677.984 295.284 678.618 295.988 678.618Z" fill="white"/>
<path fill-rule="evenodd" clip-rule="evenodd" d="M73.642 561.86C74.3461 561.86 74.8993 561.225 74.8993 560.418C74.8993 559.611 74.3461 558.977 73.642 558.977C72.9379 558.977 72.3846 559.611 72.3846 560.418C72.4349 561.225 72.9882 561.86 73.642 561.86Z" fill="white"/>
<path fill-rule="evenodd" clip-rule="evenodd" d="M385.41 534.818C386.114 534.818 386.667 534.184 386.667 533.376C386.667 532.569 386.114 531.935 385.41 531.935C384.706 531.935 384.153 532.569 384.153 533.376C384.153 534.184 384.706 534.818 385.41 534.818Z" fill="white"/>
<path fill-rule="evenodd" clip-rule="evenodd" d="M500.883 594.61C501.587 594.61 502.141 593.976 502.141 593.169C502.141 592.361 501.587 591.727 500.883 591.727C500.179 591.727 499.626 592.361 499.626 593.169C499.626 593.976 500.229 594.61 500.883 594.61Z" fill="white"/>
<path fill-rule="evenodd" clip-rule="evenodd" d="M608.963 477.851C609.667 477.851 610.221 477.217 610.221 476.409C610.221 475.602 609.667 474.968 608.963 474.968C608.259 474.968 607.706 475.602 607.706 476.409C607.706 477.217 608.259 477.851 608.963 477.851Z" fill="white"/>
<path fill-rule="evenodd" clip-rule="evenodd" d="M688.427 365.36C689.131 365.36 689.684 364.725 689.684 363.918C689.684 363.111 689.131 362.477 688.427 362.477C687.723 362.477 687.17 363.111 687.17 363.918C687.17 364.725 687.773 365.36 688.427 365.36Z" fill="white"/>
<path fill-rule="evenodd" clip-rule="evenodd" d="M668.561 311.275C669.265 311.275 669.818 310.641 669.818 309.834C669.818 309.027 669.265 308.393 668.561 308.393C667.857 308.393 667.304 309.027 667.304 309.834C667.304 310.641 667.857 311.275 668.561 311.275Z" fill="white"/>
<path fill-rule="evenodd" clip-rule="evenodd" d="M724.739 281.87C725.443 281.87 725.996 281.236 725.996 280.486C725.996 279.679 725.443 279.045 724.739 279.045C724.034 279.045 723.531 279.679 723.531 280.486C723.481 281.236 724.034 281.87 724.739 281.87Z" fill="white"/>
<path fill-rule="evenodd" clip-rule="evenodd" d="M764.219 278.525C764.923 278.525 765.476 277.891 765.476 277.083C765.476 276.276 764.923 275.642 764.219 275.642C763.514 275.642 762.961 276.276 762.961 277.083C762.961 277.891 763.514 278.525 764.219 278.525Z" fill="white"/>
<path fill-rule="evenodd" clip-rule="evenodd" d="M714.428 255.462C715.132 255.462 715.686 254.828 715.686 254.02C715.686 253.213 715.132 252.579 714.428 252.579C713.724 252.579 713.171 253.213 713.171 254.02C713.171 254.885 713.724 255.462 714.428 255.462Z" fill="white"/>
<path fill-rule="evenodd" clip-rule="evenodd" d="M639.994 187.425C640.698 187.425 641.252 186.791 641.252 185.983C641.252 185.176 640.698 184.542 639.994 184.542C639.29 184.542 638.737 185.176 638.737 185.983C638.737 186.733 639.29 187.425 639.994 187.425Z" fill="white"/>
<path fill-rule="evenodd" clip-rule="evenodd" d="M825.074 187.425C825.778 187.425 826.331 186.791 826.331 185.983C826.331 185.176 825.778 184.542 825.074 184.542C824.37 184.542 823.816 185.176 823.816 185.983C823.816 186.733 824.37 187.425 825.074 187.425Z" fill="white"/>
<path fill-rule="evenodd" clip-rule="evenodd" d="M820.095 297.034C820.799 297.034 821.352 296.4 821.352 295.593C821.352 294.785 820.799 294.151 820.095 294.151C819.391 294.151 818.837 294.785 818.837 295.593C818.837 296.4 819.391 297.034 820.095 297.034Z" fill="white"/>
<path fill-rule="evenodd" clip-rule="evenodd" d="M757.982 436.568C758.687 436.568 759.24 435.934 759.24 435.126C759.24 434.319 758.687 433.685 757.982 433.685C757.278 433.685 756.725 434.319 756.725 435.126C756.725 435.934 757.278 436.568 757.982 436.568Z" fill="white"/>
<path fill-rule="evenodd" clip-rule="evenodd" d="M813.858 497.801C814.562 497.801 815.115 497.167 815.115 496.36C815.115 495.552 814.562 494.918 813.858 494.918C813.154 494.918 812.601 495.552 812.601 496.36C812.601 497.167 813.204 497.801 813.858 497.801Z" fill="white"/>
<path fill-rule="evenodd" clip-rule="evenodd" d="M784.085 598.876C784.789 598.876 785.342 598.242 785.342 597.435C785.342 596.628 784.789 596.051 784.085 596.051C783.381 596.051 782.827 596.685 782.827 597.435C782.827 598.242 783.381 598.876 784.085 598.876Z" fill="white"/>
<path fill-rule="evenodd" clip-rule="evenodd" d="M623.85 590.343C624.554 590.343 625.107 589.709 625.107 588.901C625.107 588.094 624.554 587.46 623.85 587.46C623.146 587.46 622.593 588.094 622.593 588.901C622.593 589.709 623.146 590.343 623.85 590.343Z" fill="white"/>
<path fill-rule="evenodd" clip-rule="evenodd" d="M558.017 660.109C558.721 660.109 559.274 659.475 559.274 658.668C559.274 657.861 558.721 657.226 558.017 657.226C557.313 657.226 556.759 657.861 556.759 658.668C556.81 659.475 557.363 660.109 558.017 660.109Z" fill="white"/>
<path fill-rule="evenodd" clip-rule="evenodd" d="M499.676 235.8C500.38 235.8 500.883 235.166 500.883 234.359C500.883 233.551 500.33 232.917 499.676 232.917C498.972 232.917 498.419 233.551 498.419 234.359C498.419 235.166 498.972 235.8 499.676 235.8Z" fill="white"/>
<path fill-rule="evenodd" clip-rule="evenodd" d="M50.0543 194.516C50.7584 194.516 51.2614 193.882 51.2614 193.075C51.2614 192.268 50.7081 191.633 50.0543 191.633C49.3502 191.633 48.797 192.268 48.797 193.075C48.8473 193.882 49.3502 194.516 50.0543 194.516Z" fill="white"/>
<path fill-rule="evenodd" clip-rule="evenodd" d="M57.1962 202.128C58.3529 202.128 59.2582 201.09 59.2582 199.764C59.2582 198.496 58.3529 197.4 57.1962 197.4C56.0897 197.4 55.1342 198.496 55.1342 199.764C55.1342 201.09 56.0897 202.128 57.1962 202.128Z" fill="white"/>
<path fill-rule="evenodd" clip-rule="evenodd" d="M124.79 182.985C125.897 182.985 126.852 181.947 126.852 180.621C126.852 179.352 125.897 178.257 124.79 178.257C123.633 178.257 122.728 179.352 122.728 180.621C122.728 181.947 123.633 182.985 124.79 182.985Z" fill="white"/>
<path fill-rule="evenodd" clip-rule="evenodd" d="M149.635 210.028C150.742 210.028 151.697 208.932 151.697 207.664C151.697 206.338 150.742 205.3 149.635 205.3C148.479 205.3 147.573 206.338 147.573 207.664C147.573 208.99 148.479 210.028 149.635 210.028Z" fill="white"/>
<path fill-rule="evenodd" clip-rule="evenodd" d="M306.701 196.535C307.858 196.535 308.763 195.439 308.763 194.171C308.763 192.845 307.858 191.807 306.701 191.807C305.594 191.807 304.639 192.902 304.639 194.171C304.639 195.439 305.594 196.535 306.701 196.535Z" fill="white"/>
<path fill-rule="evenodd" clip-rule="evenodd" d="M118.152 382.542C119.258 382.542 120.214 381.504 120.214 380.178C120.214 378.909 119.258 377.814 118.152 377.814C116.995 377.814 116.089 378.909 116.089 380.178C116.089 381.504 116.995 382.542 118.152 382.542Z" fill="white"/>
<path fill-rule="evenodd" clip-rule="evenodd" d="M272.149 580.483C273.256 580.483 274.211 579.446 274.211 578.119C274.211 576.851 273.256 575.755 272.149 575.755C270.993 575.755 270.087 576.851 270.087 578.119C270.087 579.388 270.993 580.483 272.149 580.483Z" fill="white"/>
<path fill-rule="evenodd" clip-rule="evenodd" d="M11.3286 671.583C12.4854 671.583 13.3906 670.488 13.3906 669.219C13.3906 667.951 12.4854 666.855 11.3286 666.855C10.2222 666.855 9.2666 667.951 9.2666 669.219C9.2666 670.546 10.2222 671.583 11.3286 671.583Z" fill="white"/>
<path fill-rule="evenodd" clip-rule="evenodd" d="M488.26 690.092C489.417 690.092 490.322 689.054 490.322 687.728C490.322 686.459 489.417 685.364 488.26 685.364C487.153 685.364 486.198 686.459 486.198 687.728C486.198 689.054 487.103 690.092 488.26 690.092Z" fill="white"/>
<path fill-rule="evenodd" clip-rule="evenodd" d="M584.119 439.508C585.276 439.508 586.181 438.412 586.181 437.144C586.181 435.818 585.276 434.78 584.119 434.78C583.012 434.78 582.057 435.818 582.057 437.144C582.057 438.412 582.962 439.508 584.119 439.508Z" fill="white"/>
<path fill-rule="evenodd" clip-rule="evenodd" d="M782.878 554.422C784.034 554.422 784.94 553.384 784.94 552.058C784.94 550.789 784.034 549.694 782.878 549.694C781.771 549.694 780.816 550.789 780.816 552.058C780.816 553.384 781.771 554.422 782.878 554.422Z" fill="white"/>
<path fill-rule="evenodd" clip-rule="evenodd" d="M454.613 292.998C455.77 292.998 456.675 291.902 456.675 290.634C456.675 289.307 455.77 288.27 454.613 288.27C453.507 288.27 452.551 289.307 452.551 290.634C452.551 291.96 453.457 292.998 454.613 292.998Z" fill="white"/>
<path fill-rule="evenodd" clip-rule="evenodd" d="M780.111 202.704C781.218 202.704 782.173 201.609 782.173 200.34C782.173 199.014 781.218 197.976 780.111 197.976C779.005 197.976 778.049 199.014 778.049 200.34C778.049 201.609 779.005 202.704 780.111 202.704Z" fill="white"/>
<path fill-rule="evenodd" clip-rule="evenodd" d="M324.756 421.461C325.209 421.461 325.611 421 325.611 420.481C325.611 419.962 325.209 419.501 324.756 419.501C324.303 419.501 323.901 419.962 323.901 420.481C323.901 421.057 324.303 421.461 324.756 421.461Z" fill="white"/>
<path fill-rule="evenodd" clip-rule="evenodd" d="M323.902 256.557C324.354 256.557 324.757 256.096 324.757 255.577C324.757 255.058 324.405 254.597 323.902 254.597C323.449 254.597 323.047 255.058 323.047 255.577C323.047 256.096 323.449 256.557 323.902 256.557Z" fill="white"/>
<path fill-rule="evenodd" clip-rule="evenodd" d="M468.595 201.551C469.048 201.551 469.45 201.09 469.45 200.571C469.45 200.052 469.098 199.591 468.595 199.591C468.092 199.591 467.74 199.994 467.74 200.571C467.74 201.147 468.142 201.551 468.595 201.551Z" fill="white"/>
<path fill-rule="evenodd" clip-rule="evenodd" d="M644.974 335.377C645.426 335.377 645.829 334.915 645.829 334.397C645.829 333.878 645.426 333.416 644.974 333.416C644.521 333.416 644.119 333.878 644.119 334.397C644.119 334.973 644.471 335.377 644.974 335.377Z" fill="white"/>
<path fill-rule="evenodd" clip-rule="evenodd" d="M770.405 335.377C770.858 335.377 771.26 334.915 771.26 334.397C771.26 333.878 770.908 333.416 770.405 333.416C769.952 333.416 769.55 333.878 769.55 334.397C769.55 334.973 769.902 335.377 770.405 335.377Z" fill="white"/>
<path fill-rule="evenodd" clip-rule="evenodd" d="M801.436 462.11C801.889 462.11 802.291 461.707 802.291 461.13C802.291 460.553 801.889 460.15 801.436 460.15C800.983 460.15 800.581 460.611 800.581 461.13C800.581 461.649 800.983 462.11 801.436 462.11Z" fill="white"/>
<path fill-rule="evenodd" clip-rule="evenodd" d="M507.069 473.526C507.522 473.526 507.924 473.065 507.924 472.546C507.924 472.027 507.522 471.566 507.069 471.566C506.617 471.566 506.214 471.97 506.214 472.546C506.214 473.123 506.617 473.526 507.069 473.526Z" fill="white"/>
<path fill-rule="evenodd" clip-rule="evenodd" d="M555.552 584.577C556.005 584.577 556.407 584.115 556.407 583.596C556.407 583.077 556.005 582.616 555.552 582.616C555.1 582.616 554.697 583.077 554.697 583.596C554.697 584.115 555.049 584.577 555.552 584.577Z" fill="white"/>
<path fill-rule="evenodd" clip-rule="evenodd" d="M197.866 398.051C198.319 398.051 198.721 397.647 198.721 397.071C198.721 396.494 198.319 396.09 197.866 396.09C197.414 396.09 197.011 396.552 197.011 397.071C197.011 397.59 197.363 398.051 197.866 398.051Z" fill="white"/>
<path fill-rule="evenodd" clip-rule="evenodd" d="M112.117 286.655C112.569 286.655 112.972 286.194 112.972 285.675C112.972 285.156 112.569 284.695 112.117 284.695C111.664 284.695 111.262 285.156 111.262 285.675C111.262 286.252 111.664 286.655 112.117 286.655Z" fill="white"/>
<path fill-rule="evenodd" clip-rule="evenodd" d="M109.652 358.209C110.105 358.209 110.507 357.748 110.507 357.229C110.507 356.71 110.105 356.249 109.652 356.249C109.199 356.249 108.797 356.71 108.797 357.229C108.797 357.748 109.199 358.209 109.652 358.209Z" fill="white"/>
<path fill-rule="evenodd" clip-rule="evenodd" d="M62.4768 457.843C62.9294 457.843 63.3318 457.382 63.3318 456.863C63.3318 456.344 62.9294 455.883 62.4768 455.883C62.0242 455.883 61.6218 456.286 61.6218 456.863C61.6218 457.439 61.9739 457.843 62.4768 457.843Z" fill="white"/>
<path fill-rule="evenodd" clip-rule="evenodd" d="M90.9429 264.745C91.3955 264.745 91.7979 264.341 91.7979 263.765C91.7979 263.246 91.3955 262.785 90.9429 262.785C90.4902 262.785 90.0879 263.246 90.0879 263.765C90.0879 264.341 90.4902 264.745 90.9429 264.745Z" fill="white"/>
<path fill-rule="evenodd" clip-rule="evenodd" d="M169.3 349.676C169.752 349.676 170.155 349.215 170.155 348.696C170.155 348.177 169.803 347.716 169.3 347.716C168.847 347.716 168.445 348.177 168.445 348.696C168.394 349.215 168.797 349.676 169.3 349.676Z" fill="white"/>
<path fill-rule="evenodd" clip-rule="evenodd" d="M80.0294 666.913C80.4821 666.913 80.8844 666.451 80.8844 665.933C80.8844 665.414 80.4821 664.952 80.0294 664.952C79.5768 664.952 79.1744 665.414 79.1744 665.933C79.1744 666.451 79.5265 666.913 80.0294 666.913Z" fill="white"/>
<path fill-rule="evenodd" clip-rule="evenodd" d="M256.206 704.161C256.659 704.161 257.061 703.7 257.061 703.181C257.061 702.662 256.709 702.201 256.206 702.201C255.754 702.201 255.351 702.662 255.351 703.181C255.351 703.757 255.754 704.161 256.206 704.161Z" fill="white"/>
<path fill-rule="evenodd" clip-rule="evenodd" d="M833.724 672.276C834.177 672.276 834.579 671.814 834.579 671.295C834.579 670.777 834.177 670.315 833.724 670.315C833.271 670.315 832.869 670.777 832.869 671.295C832.919 671.872 833.271 672.276 833.724 672.276Z" fill="white"/>
<path fill-rule="evenodd" clip-rule="evenodd" d="M652.769 535.164C653.222 535.164 653.624 534.702 653.624 534.183C653.624 533.665 653.222 533.203 652.769 533.203C652.316 533.203 651.914 533.607 651.914 534.183C651.914 534.76 652.316 535.164 652.769 535.164Z" fill="white"/>
</g>
<g opacity="0.4" filter="url(#filter2_f_1083_3381)">
<path d="M861.011 -239.889C861.011 -239.889 661.853 -264.126 633.608 -198.945C614.5 -154.852 630.963 -122.749 592.62 -100.42C560.394 -81.6531 476.584 -78.2634 433.766 -81.5324C374.071 -86.0903 310.42 -112.565 249.456 -114.988C122.019 -120.052 24.3994 -19.753 145.429 28.972" stroke="url(#paint0_linear_1083_3381)" stroke-width="0.5658" stroke-miterlimit="10"/>
<path d="M861.236 -239.111C861.236 -239.111 664.832 -262.86 634.383 -199.38C613.818 -156.507 628.084 -125.034 589.579 -102.703C582.286 -98.4688 572.421 -95.0005 561.031 -92.1957C553.863 -90.4292 546.119 -88.925 538.044 -87.6581C502.532 -82.0829 460.396 -81.1786 433.962 -82.8513C375.359 -86.525 312.848 -111.537 252.659 -113.434C127.175 -117.533 29.6431 -20.1967 141.669 26.3141" stroke="url(#paint1_linear_1083_3381)" stroke-width="0.5658" stroke-miterlimit="10"/>
<path d="M861.462 -238.334C861.462 -238.334 667.816 -261.599 635.157 -199.813C613.142 -158.162 625.205 -127.318 586.537 -104.987C579.29 -100.792 569.56 -97.3274 558.37 -94.4989C551.325 -92.716 543.737 -91.1794 535.852 -89.8708C501.165 -84.1076 460.082 -82.8813 434.158 -84.1678C376.652 -86.9594 315.255 -110.439 255.861 -111.878C132.285 -114.874 34.892 -20.6391 137.908 23.6569" stroke="url(#paint2_linear_1083_3381)" stroke-width="0.5658" stroke-miterlimit="10"/>
<path d="M861.681 -237.557C861.681 -237.557 670.8 -260.343 635.926 -200.247C612.464 -159.824 622.32 -129.603 583.489 -107.269C576.281 -103.11 566.693 -99.6525 555.703 -96.8001C548.78 -94.9986 541.354 -93.4321 533.66 -92.0841C499.797 -86.1349 459.761 -84.5838 434.347 -85.4862C377.933 -87.3926 317.674 -109.376 259.058 -110.321C137.424 -112.285 40.1345 -21.0798 134.139 21.0006" stroke="url(#paint3_linear_1083_3381)" stroke-width="0.5658" stroke-miterlimit="10"/>
<path d="M861.907 -236.778C861.907 -236.778 673.805 -259.09 636.7 -200.682C611.802 -161.488 619.439 -131.888 580.446 -109.551C573.283 -105.429 563.826 -101.977 553.04 -99.1034C546.239 -97.2854 538.976 -95.6868 531.472 -94.297C498.44 -88.1596 459.459 -86.313 434.542 -86.8012C379.246 -87.8837 320.097 -108.309 262.259 -108.76C142.574 -109.694 45.3763 -21.5175 130.374 18.3463" stroke="url(#paint4_linear_1083_3381)" stroke-width="0.5658" stroke-miterlimit="10"/>
<path d="M862.127 -236.001C862.127 -236.001 676.815 -257.846 637.463 -201.115C611.134 -163.157 616.541 -134.175 577.391 -111.832C570.268 -107.747 560.952 -104.301 550.365 -101.403C543.687 -99.5666 536.586 -97.938 529.267 -96.5083C497.059 -90.1844 459.131 -88.0196 434.724 -88.1164C380.519 -88.3282 322.515 -107.243 265.449 -107.196C147.719 -107.102 50.6126 -21.9516 126.597 15.6948" stroke="url(#paint5_linear_1083_3381)" stroke-width="0.5658" stroke-miterlimit="10"/>
<path d="M862.352 -235.223C862.352 -235.223 679.841 -256.608 638.236 -201.549C610.487 -164.827 613.659 -136.46 574.345 -114.114C567.268 -110.067 558.088 -106.625 547.701 -103.704C541.139 -101.85 534.206 -100.19 527.077 -98.718C495.701 -92.2054 458.814 -89.7236 434.918 -89.4266C381.803 -88.7669 324.949 -106.171 268.649 -105.627C152.884 -104.509 55.8539 -22.3808 122.824 13.0494" stroke="url(#paint6_linear_1083_3381)" stroke-width="0.5658" stroke-miterlimit="10"/>
<path d="M862.578 -234.444C862.578 -234.444 682.889 -255.375 639.01 -201.984C609.85 -166.503 610.776 -138.746 571.3 -116.398C564.267 -112.388 555.223 -108.952 545.036 -106.006C538.597 -104.134 531.82 -102.443 524.887 -100.93C494.336 -94.2299 458.495 -91.4289 435.11 -90.74C383.081 -89.2056 327.382 -105.102 271.849 -104.057C158.055 -101.917 61.0999 -22.809 119.055 10.4017" stroke="url(#paint7_linear_1083_3381)" stroke-width="0.5658" stroke-miterlimit="10"/>
<path d="M862.797 -233.666C862.797 -233.666 685.941 -254.149 639.777 -202.418C609.222 -168.184 607.886 -141.032 568.247 -118.679C561.253 -114.705 552.352 -111.275 542.364 -108.305C536.046 -106.416 529.432 -104.693 522.684 -103.14C492.963 -96.2508 458.159 -93.1296 435.296 -92.049C384.352 -89.6391 329.813 -104.03 275.042 -102.483C163.223 -99.3247 66.3385 -23.2351 115.277 7.75733" stroke="url(#paint8_linear_1083_3381)" stroke-width="0.5658" stroke-miterlimit="10"/>
<path d="M863.022 -232.886C863.022 -232.886 689.027 -252.926 640.549 -202.85C608.617 -169.864 604.893 -143.346 565.199 -120.957C558.228 -117.025 549.485 -113.596 539.696 -110.604C533.501 -108.696 527.049 -106.942 520.492 -105.347C491.596 -98.2703 457.839 -94.8292 435.487 -93.3537C385.623 -90.065 332.25 -102.952 278.241 -100.9C168.407 -96.7274 71.5775 -23.6496 111.503 5.1208" stroke="url(#paint9_linear_1083_3381)" stroke-width="0.5658" stroke-miterlimit="10"/>
<path d="M863.242 -232.107C863.242 -232.107 692.127 -251.711 641.31 -203.285C608.014 -171.553 601.99 -145.637 562.138 -123.238C555.212 -119.345 546.594 -115.925 537.016 -112.903C530.932 -110.982 524.653 -109.192 518.287 -107.556C490.221 -100.29 457.501 -96.5279 435.665 -94.6617C386.882 -90.4933 334.679 -101.88 281.426 -99.3202C173.578 -94.1365 76.8084 -24.0669 107.715 2.48039" stroke="url(#paint10_linear_1083_3381)" stroke-width="0.5658" stroke-miterlimit="10"/>
<path d="M863.467 -231.328C863.467 -231.328 695.261 -250.501 642.081 -203.719C607.439 -173.242 599.096 -147.924 559.087 -125.516C552.201 -121.66 543.724 -118.248 534.346 -115.198C528.384 -113.261 522.267 -111.438 516.086 -109.76C488.846 -102.303 457.168 -98.2176 435.854 -95.9607C388.145 -90.9089 337.124 -100.798 284.622 -97.7262C178.77 -91.5355 82.0446 -24.4695 103.936 -0.14691" stroke="url(#paint11_linear_1083_3381)" stroke-width="0.5658" stroke-miterlimit="10"/>
</g>
<g filter="url(#filter3_f_1083_3381)">
<ellipse cx="819.305" cy="740.433" rx="192" ry="232" transform="rotate(-28.4344 819.305 740.433)" fill="#FD56F1" fill-opacity="0.42"/>
</g>
</g>
<defs>
<filter id="filter0_f_1083_3381" x="-0.945923" y="-293.029" width="835.313" height="535.904" filterUnits="userSpaceOnUse" color-interpolation-filters="sRGB">
<feFlood flood-opacity="0" result="BackgroundImageFix"/>
<feBlend mode="normal" in="SourceGraphic" in2="BackgroundImageFix" result="shape"/>
<feGaussianBlur stdDeviation="2.5" result="effect1_foregroundBlur_1083_3381"/>
</filter>
<filter id="filter1_f_1083_3381" x="4.2666" y="173.257" width="835.312" height="535.904" filterUnits="userSpaceOnUse" color-interpolation-filters="sRGB">
<feFlood flood-opacity="0" result="BackgroundImageFix"/>
<feBlend mode="normal" in="SourceGraphic" in2="BackgroundImageFix" result="shape"/>
<feGaussianBlur stdDeviation="2.5" result="effect1_foregroundBlur_1083_3381"/>
</filter>
<filter id="filter2_f_1083_3381" x="-53.9031" y="-274.58" width="951.515" height="333.812" filterUnits="userSpaceOnUse" color-interpolation-filters="sRGB">
<feFlood flood-opacity="0" result="BackgroundImageFix"/>
<feBlend mode="normal" in="SourceGraphic" in2="BackgroundImageFix" result="shape"/>
<feGaussianBlur stdDeviation="15" result="effect1_foregroundBlur_1083_3381"/>
</filter>
<filter id="filter3_f_1083_3381" x="117.517" y="16.8181" width="1403.58" height="1447.23" filterUnits="userSpaceOnUse" color-interpolation-filters="sRGB">
<feFlood flood-opacity="0" result="BackgroundImageFix"/>
<feBlend mode="normal" in="SourceGraphic" in2="BackgroundImageFix" result="shape"/>
<feGaussianBlur stdDeviation="250" result="effect1_foregroundBlur_1083_3381"/>
</filter>
<linearGradient id="paint0_linear_1083_3381" x1="288.418" y1="-170.138" x2="385.242" y2="12.448" gradientUnits="userSpaceOnUse">
<stop stop-color="#1BA4E5" stop-opacity="0.5"/>
<stop offset="1" stop-color="#B40FE7"/>
</linearGradient>
<linearGradient id="paint1_linear_1083_3381" x1="293.314" y1="-169.088" x2="389.043" y2="11.3894" gradientUnits="userSpaceOnUse">
<stop stop-color="#1BA4E5" stop-opacity="0.5"/>
<stop offset="1" stop-color="#B40FE7"/>
</linearGradient>
<linearGradient id="paint2_linear_1083_3381" x1="298.242" y1="-168.026" x2="392.867" y2="10.3226" gradientUnits="userSpaceOnUse">
<stop stop-color="#1BA4E5" stop-opacity="0.5"/>
<stop offset="1" stop-color="#B40FE7"/>
</linearGradient>
<linearGradient id="paint3_linear_1083_3381" x1="303.113" y1="-166.98" x2="396.653" y2="9.2768" gradientUnits="userSpaceOnUse">
<stop stop-color="#1BA4E5" stop-opacity="0.5"/>
<stop offset="1" stop-color="#B40FE7"/>
</linearGradient>
<linearGradient id="paint4_linear_1083_3381" x1="307.949" y1="-165.942" x2="400.418" y2="8.2452" gradientUnits="userSpaceOnUse">
<stop stop-color="#1BA4E5" stop-opacity="0.5"/>
<stop offset="1" stop-color="#B40FE7"/>
</linearGradient>
<linearGradient id="paint5_linear_1083_3381" x1="312.746" y1="-164.915" x2="404.158" y2="7.23022" gradientUnits="userSpaceOnUse">
<stop stop-color="#1BA4E5" stop-opacity="0.5"/>
<stop offset="1" stop-color="#B40FE7"/>
</linearGradient>
<linearGradient id="paint6_linear_1083_3381" x1="317.493" y1="-163.901" x2="407.867" y2="6.23467" gradientUnits="userSpaceOnUse">
<stop stop-color="#1BA4E5" stop-opacity="0.5"/>
<stop offset="1" stop-color="#B40FE7"/>
</linearGradient>
<linearGradient id="paint7_linear_1083_3381" x1="322.181" y1="-162.904" x2="411.539" y2="5.26242" gradientUnits="userSpaceOnUse">
<stop stop-color="#1BA4E5" stop-opacity="0.5"/>
<stop offset="1" stop-color="#B40FE7"/>
</linearGradient>
<linearGradient id="paint8_linear_1083_3381" x1="326.794" y1="-161.927" x2="415.164" y2="4.31907" gradientUnits="userSpaceOnUse">
<stop stop-color="#1BA4E5" stop-opacity="0.5"/>
<stop offset="1" stop-color="#B40FE7"/>
</linearGradient>
<linearGradient id="paint9_linear_1083_3381" x1="331.315" y1="-160.976" x2="418.73" y2="3.41196" gradientUnits="userSpaceOnUse">
<stop stop-color="#1BA4E5" stop-opacity="0.5"/>
<stop offset="1" stop-color="#B40FE7"/>
</linearGradient>
<linearGradient id="paint10_linear_1083_3381" x1="335.715" y1="-160.058" x2="422.22" y2="2.55099" gradientUnits="userSpaceOnUse">
<stop stop-color="#1BA4E5" stop-opacity="0.5"/>
<stop offset="1" stop-color="#B40FE7"/>
</linearGradient>
<linearGradient id="paint11_linear_1083_3381" x1="339.958" y1="-159.185" x2="425.61" y2="1.74957" gradientUnits="userSpaceOnUse">
<stop stop-color="#1BA4E5" stop-opacity="0.5"/>
<stop offset="1" stop-color="#B40FE7"/>
</linearGradient>
<clipPath id="clip0_1083_3381">
<rect width="834" height="1003" fill="white"/>
</clipPath>
</defs>
</svg>
