<svg width="377" height="648" viewBox="0 0 377 648" fill="none" xmlns="http://www.w3.org/2000/svg">
<g clip-path="url(#clip0_308_4555)">
<path d="M153.828 26.7071C153.361 27.8829 151.811 107.603 151.811 107.603C151.811 107.603 177.59 91.907 204.986 93.5167C232.381 95.1264 258.563 104.383 270.243 105.592C281.923 106.8 292.399 106.796 307.306 98.3458C322.213 89.896 339.129 94.7251 345.574 99.5542C352.019 104.383 366.525 113.636 369.341 112.833C372.157 112.031 376.995 48.8416 376.995 47.2319C376.995 45.6222 358.87 21.4721 345.976 23.903C333.081 26.3338 313.751 33.9624 296.831 30.743C279.91 27.5236 253.327 1.34849 227.543 0.154043C201.759 -1.0404 163.094 4.57255 153.828 26.7071Z" fill="url(#paint0_linear_308_4555)"/>
<path d="M153.833 25.452L149.228 158.945" stroke="#B4E1FA" stroke-width="7" stroke-miterlimit="10" stroke-linecap="round"/>
<path d="M165.527 160.014C164.453 160.261 150.438 124.46 150.358 126.369" stroke="#B4E1FA" stroke-width="7" stroke-miterlimit="10"/>
<path d="M166.363 619.74C238.23 619.74 296.49 600.519 296.49 576.81C296.49 553.1 238.23 533.88 166.363 533.88C94.4961 533.88 36.2363 553.1 36.2363 576.81C36.2363 600.519 94.4961 619.74 166.363 619.74Z" stroke="url(#paint1_linear_308_4555)" stroke-width="20" stroke-miterlimit="10"/>
<path d="M277.524 426.132L244.576 533.879" stroke="#B4E1FA" stroke-width="3" stroke-miterlimit="10"/>
<path d="M244.571 453.493C244.571 453.959 277.337 548.941 277.337 548.941" stroke="#B4E1FA" stroke-width="3" stroke-miterlimit="10"/>
<path d="M223.046 465.745C223.046 467.434 119.32 533.865 119.32 533.865" stroke="#B4E1FA" stroke-width="3" stroke-miterlimit="10"/>
<path d="M119.324 468.512L223.555 533.879" stroke="#B4E1FA" stroke-width="3" stroke-miterlimit="10"/>
<path d="M54.1652 430.21C53.8477 433.635 98.8641 533.884 98.8641 533.884" stroke="#B4E1FA" stroke-width="3" stroke-miterlimit="10"/>
<path d="M96.954 459.292L54.3008 550.984" stroke="#B4E1FA" stroke-width="3" stroke-miterlimit="10"/>
<path d="M341.422 375.634C341.562 374.472 344.957 350.793 339.278 346.398C335.39 343.5 331.142 341.118 326.641 339.31C300.894 328.112 241.498 323.848 173.541 323.848C95.226 323.848 28.5911 331.094 10.5967 343.692C8.21019 345.357 2.19026 349.888 0.322163 354.423C-1.23303 358.221 3.25973 371.467 4.74486 375.638" fill="url(#paint2_linear_308_4555)"/>
<path d="M326.16 338.153C327.271 330.552 327.827 322.88 327.822 315.198C327.822 228.148 257.185 157.578 170.053 157.578C82.92 157.578 12.2827 228.134 12.2827 315.198C12.2822 323.77 12.974 332.328 14.3516 340.79C14.3516 340.79 56.4958 326.116 120.987 325.029C185.478 323.941 250.353 324.693 275.572 328.388C300.791 332.083 326.16 338.153 326.16 338.153Z" fill="url(#paint3_linear_308_4555)"/>
<path d="M285.711 359.929C255.457 356.168 214.349 353.863 169.072 353.863C119.567 353.863 75.0644 356.634 44.2642 361.034L46.0202 360.899C44.8386 368.336 41.4994 407.198 54.1651 430.223C66.6206 452.871 109.386 468.735 147.957 471.861V471.758L148.392 471.674C154.874 481.356 167.026 487.869 180.948 487.869C197.934 487.869 212.285 478.169 216.909 464.853L216.839 465.016L216.764 465.226C243.786 457.294 263.933 443.134 275.389 424.018C293.65 393.527 285.318 363.087 285.248 361.73C285.15 359.966 282.787 359.625 282.787 359.625" fill="url(#paint4_linear_308_4555)"/>
<path d="M172.757 399.248C265.544 399.248 340.764 388.673 340.764 375.629C340.764 362.585 265.544 352.011 172.757 352.011C79.9688 352.011 4.74951 362.585 4.74951 375.629C4.74951 388.673 79.9688 399.248 172.757 399.248Z" fill="url(#paint5_linear_308_4555)"/>
<path d="M299.39 642.056C299.138 645.359 294.323 648 288.42 648C282.349 648 277.436 645.2 277.436 641.78C277.436 641.556 277.458 641.333 277.501 641.113V426.127C277.501 426.127 287.024 393.723 286.944 392.907L302.968 390.369L299.39 642.056Z" fill="url(#paint6_linear_308_4555)"/>
<path d="M224.601 642.233C224.573 642.387 224.559 642.543 224.559 642.7C224.559 645.616 229.038 647.977 234.567 647.977C240.097 647.977 244.571 645.616 244.571 642.7V453.982C238.532 457.715 222.84 463.692 222.84 463.692L223.069 463.323C222.84 464.97 224.559 642.718 224.559 642.718" fill="url(#paint7_linear_308_4555)"/>
<path d="M27.0781 386.617V637.945C27.0781 642.107 33.0187 645.48 40.3463 645.48C47.1601 645.48 52.7784 642.56 53.5257 638.804C53.5257 638.804 55.2817 436.345 53.5257 429.216C53.1567 427.718 47.9447 415.606 46.7352 407.422C45.5256 399.238 44.797 390.816 44.797 390.816L27.0781 386.617Z" fill="url(#paint8_linear_308_4555)"/>
<path d="M97.8271 635.089V635.353C97.8271 635.353 96.8144 644.813 108.473 644.813C116.589 644.813 118.643 640.767 119.091 637.966V466.439C111.861 464.502 104.775 462.057 97.8832 459.12C95.1622 457.983 97.8832 636.867 97.8832 636.867L97.8271 635.089Z" fill="url(#paint9_linear_308_4555)"/>
<path d="M194.684 641.991C194.684 648.005 189.378 648.005 183.078 648.005C176.778 648.005 171.08 647.249 171.468 642V642.466C171.468 642.466 170.632 446.531 172.472 441.52C172.505 441.316 172.505 441.108 172.472 440.904C172.46 437.784 173.675 434.784 175.855 432.551C178.036 430.317 181.006 429.028 184.129 428.96C187.251 428.893 190.275 430.053 192.549 432.191C194.824 434.329 196.167 437.273 196.29 440.391C196.29 440.391 194.707 641.421 194.707 642.466" fill="url(#paint10_linear_308_4555)"/>
<path d="M44.9838 419.604C44.4281 420.537 44.9838 635.295 44.9838 635.295" stroke="white" stroke-width="6" stroke-linecap="round" stroke-linejoin="round"/>
<path d="M111.801 485.131C111.245 485.784 111.801 639.214 111.801 639.214" stroke="white" stroke-width="6" stroke-linecap="round" stroke-linejoin="round"/>
<path d="M189.317 446.111C188.766 446.932 189.317 639.214 189.317 639.214" stroke="white" stroke-width="6" stroke-linecap="round" stroke-linejoin="round"/>
<path d="M238.957 468.269C238.406 469.001 238.957 641.253 238.957 641.253" stroke="white" stroke-width="6" stroke-linecap="round" stroke-linejoin="round"/>
<path d="M294.552 405.28C293.996 406.27 294.552 639.205 294.552 639.205" stroke="white" stroke-width="6" stroke-linecap="round" stroke-linejoin="round"/>
<path d="M300.128 333.138C299.577 333.245 300.128 359.07 300.128 359.07" stroke="white" stroke-width="3" stroke-linecap="round" stroke-linejoin="round"/>
<path d="M277.585 329.741C277.029 329.849 277.585 355.487 277.585 355.487" stroke="white" stroke-width="4" stroke-linecap="round" stroke-linejoin="round"/>
<path d="M247.551 327.24C246.995 327.343 247.551 352.436 247.551 352.436" stroke="white" stroke-width="6" stroke-linecap="round" stroke-linejoin="round"/>
<path d="M213.603 326.363C213.052 326.471 213.603 351.703 213.603 351.703" stroke="white" stroke-width="6" stroke-linecap="round" stroke-linejoin="round"/>
<path d="M176.535 326.139C175.484 326.244 176.535 350.401 176.535 350.401" stroke="white" stroke-width="6" stroke-linecap="round" stroke-linejoin="round"/>
<path d="M319.472 336.656C319.22 336.768 319.472 363.615 319.472 363.615" stroke="white" stroke-width="2" stroke-linecap="round" stroke-linejoin="round"/>
<path d="M331.474 340.794C331.222 340.906 331.474 367.744 331.474 367.744" stroke="white" stroke-width="2" stroke-linecap="round" stroke-linejoin="round"/>
<path d="M339.302 345.596C339.05 345.708 339.302 372.55 339.302 372.55" stroke="white" stroke-linecap="round" stroke-linejoin="round"/>
<path d="M132.412 160.044C133.838 159.629 94.9808 177.84 69.6258 218.6C44.2707 259.36 30.8979 278.366 52.1865 293.19C73.4751 308.015 103.777 314.963 123.604 320.516C143.432 326.069 151.729 327.836 156.658 340.474C161.587 353.113 174.848 352.088 179.238 352.337C183.627 352.586 41.3955 358.363 22.3777 366.732C22.3777 366.732 6.21763 335.629 14.5089 286.842C22.8002 238.055 64.8141 182.007 132.412 160.044Z" fill="url(#paint11_linear_308_4555)"/>
<path d="M195.951 440.244C195.951 440.244 194.08 428.358 184.032 428.857C173.985 429.357 172.089 440.132 172.104 440.757C172.118 441.382 170.924 486.643 170.924 486.643C170.924 486.643 158.092 485.975 147.554 471.71C147.554 471.71 108.403 469.139 83.9747 455.139C59.5465 441.14 39.3581 433.846 45.4698 360.68C45.4698 360.68 153.436 343.82 284.412 357.838L286.752 387.871C284.314 388.002 279.433 383.135 272.105 385.571C264.776 388.007 263.157 397.349 255.014 403.224C246.872 409.099 239.571 409.505 235.486 415.189C231.4 420.873 228.976 430.206 227.348 437.122C225.719 444.037 222.462 458.032 218.395 461.173C214.329 464.313 209.298 469.372 195.933 440.262" fill="url(#paint12_linear_308_4555)"/>
<path d="M27.0781 386.617L44.7363 390.816C44.7363 390.816 45.0118 410.035 49.2664 419.632C53.521 429.23 53.2501 429.949 53.2501 430.616C53.2501 431.283 54.3009 486.811 54.3009 486.811C54.3009 486.811 40.407 494.276 36.2318 498.671C32.0566 503.066 27.0781 514.199 27.0781 514.199V386.617Z" fill="url(#paint13_linear_308_4555)"/>
<path d="M15.4116 340.603V366.732" stroke="#EDF0F1" stroke-width="6"/>
<path d="M28.4883 336.871V362.999" stroke="#EDF0F1" stroke-width="6"/>
<path d="M73.3228 328.939V356.467" stroke="#EDF0F1" stroke-width="6"/>
<path d="M47.1694 332.671L47.6446 359.733" stroke="#EDF0F1" stroke-width="6"/>
<path d="M87.8003 327.539L88.2673 355.067" stroke="#EDF0F1" stroke-width="6"/>
<path d="M116.289 326.139L116.764 353.201" stroke="#EDF0F1" stroke-width="6"/>
<path d="M150.381 324.74V352.268" stroke="#EDF0F1" stroke-width="6"/>
<path d="M221.984 44.2143V65.2648C221.968 66.181 222.252 67.0749 222.788 67.7955C223.323 68.516 224.079 69.019 224.925 69.2194C225.113 69.2475 225.29 69.329 225.437 69.4551C225.584 69.5812 225.695 69.7473 225.76 69.9354C226.344 71.6097 223.674 76.1481 222.297 77.3929C220.92 78.6376 215.11 81.2483 218.552 82.3388C221.994 83.4293 231.215 84.9384 236.284 83.5285C241.353 82.1185 247.664 77.3488 249.531 74.3746L250.209 73.2731C250.577 72.7177 251.075 72.2725 251.654 71.981C252.234 71.6894 252.875 71.5615 253.515 71.6097C258.782 71.9072 272.603 72.2707 279.727 68.4373C284.782 65.5456 289.341 61.7773 293.213 57.2897C293.819 56.6142 294.176 55.7322 294.22 54.8029C294.264 53.8737 293.992 52.9585 293.453 52.2225C290.319 47.9591 286.224 44.5924 281.542 42.4298C272.686 38.3321 262.172 37.7703 253.463 38.31C252.799 38.353 252.136 38.2057 251.545 37.8838C250.954 37.562 250.456 37.0775 250.104 36.4815C247.255 31.5827 242.727 28.032 237.463 26.5676C227.71 24.0781 215.256 27.2946 218.312 29.3324C221.368 31.3703 224.758 34.5758 225.301 36.6136C225.843 38.6515 225.989 39.9844 225.103 40.3038L224.863 40.3699C224.042 40.5737 223.312 41.0645 222.789 41.7624C222.266 42.4604 221.983 43.3245 221.984 44.2143Z" fill="url(#paint14_linear_308_4555)"/>
<path d="M255.403 62.8746C259.579 62.8746 262.965 59.2991 262.965 54.8884C262.965 50.4778 259.579 46.9022 255.403 46.9022C251.226 46.9022 247.841 50.4778 247.841 54.8884C247.841 59.2991 251.226 62.8746 255.403 62.8746Z" fill="white"/>
<path d="M182.139 55.2298C182.139 54.8883 191.13 43.9059 196.564 42.3528C201.999 40.7996 207.537 42.8264 209.081 44.9855C210.625 47.1445 212.815 51.3854 212.596 55.2298C212.377 59.0742 210.719 67.8315 201.258 68.206C191.798 68.5805 182.139 55.2298 182.139 55.2298Z" fill="#9AD9FA"/>
</g>
<defs>
<linearGradient id="paint0_linear_308_4555" x1="184.708" y1="122.711" x2="444.423" y2="14.0655" gradientUnits="userSpaceOnUse">
<stop stop-color="#E3F3FC"/>
<stop offset="0.473958" stop-color="white"/>
</linearGradient>
<linearGradient id="paint1_linear_308_4555" x1="166.363" y1="533.88" x2="166.363" y2="619.74" gradientUnits="userSpaceOnUse">
<stop stop-color="#BFE3F1"/>
<stop offset="1" stop-color="#D9F0F9"/>
</linearGradient>
<linearGradient id="paint2_linear_308_4555" x1="66.7843" y1="349.934" x2="309.636" y2="356.946" gradientUnits="userSpaceOnUse">
<stop stop-color="#BEE4F4"/>
<stop offset="1" stop-color="#EFFAFF"/>
</linearGradient>
<linearGradient id="paint3_linear_308_4555" x1="285.585" y1="220.692" x2="55.6106" y2="288.231" gradientUnits="userSpaceOnUse">
<stop offset="0.15625" stop-color="white"/>
<stop offset="1" stop-color="#D3EFFE"/>
</linearGradient>
<linearGradient id="paint4_linear_308_4555" x1="49.9713" y1="428.086" x2="270.872" y2="439.306" gradientUnits="userSpaceOnUse">
<stop offset="0.223958" stop-color="#8ACEF1"/>
<stop offset="0.956896" stop-color="#FEFFFF"/>
</linearGradient>
<linearGradient id="paint5_linear_308_4555" x1="160.656" y1="467.979" x2="166.017" y2="351.801" gradientUnits="userSpaceOnUse">
<stop offset="0.0304612" stop-color="#CDEAFA"/>
<stop offset="1" stop-color="#CEE8F4"/>
</linearGradient>
<linearGradient id="paint6_linear_308_4555" x1="315.708" y1="487.809" x2="267.372" y2="490.38" gradientUnits="userSpaceOnUse">
<stop offset="0.239583" stop-color="white"/>
<stop offset="1" stop-color="#CBE4EE"/>
</linearGradient>
<linearGradient id="paint7_linear_308_4555" x1="227.207" y1="574.36" x2="250.558" y2="575.061" gradientUnits="userSpaceOnUse">
<stop stop-color="#DBEDF4"/>
<stop offset="1" stop-color="#FCFEFF"/>
</linearGradient>
<linearGradient id="paint8_linear_308_4555" x1="73.5563" y1="558.496" x2="29.197" y2="544.241" gradientUnits="userSpaceOnUse">
<stop stop-color="#F3FBFF"/>
<stop offset="0.725006" stop-color="#DCF3FD"/>
</linearGradient>
<linearGradient id="paint9_linear_308_4555" x1="75.8913" y1="463.547" x2="133.568" y2="644.59" gradientUnits="userSpaceOnUse">
<stop stop-color="#BBDDED"/>
<stop offset="1" stop-color="white"/>
</linearGradient>
<linearGradient id="paint10_linear_308_4555" x1="227.908" y1="526.535" x2="168.606" y2="508.074" gradientUnits="userSpaceOnUse">
<stop stop-color="white"/>
<stop offset="1" stop-color="#DAECF3"/>
</linearGradient>
<linearGradient id="paint11_linear_308_4555" x1="-346.531" y1="274.349" x2="200.82" y2="263.13" gradientUnits="userSpaceOnUse">
<stop stop-color="#A0CEE6"/>
<stop offset="0.831831" stop-color="#CDEAFA"/>
</linearGradient>
<linearGradient id="paint12_linear_308_4555" x1="271.574" y1="373.497" x2="85.6067" y2="486.875" gradientUnits="userSpaceOnUse">
<stop offset="0.00516884" stop-color="#CDEAFA"/>
<stop offset="1" stop-color="#99C9E2"/>
</linearGradient>
<linearGradient id="paint13_linear_308_4555" x1="40.6895" y1="386.617" x2="40.6895" y2="514.199" gradientUnits="userSpaceOnUse">
<stop stop-color="#B5D9EA"/>
<stop offset="1" stop-color="#DEF4FD"/>
</linearGradient>
<linearGradient id="paint14_linear_308_4555" x1="265.343" y1="28.8478" x2="221.654" y2="84.9731" gradientUnits="userSpaceOnUse">
<stop stop-color="#9AD9FA"/>
</linearGradient>
<clipPath id="clip0_308_4555">
<rect width="377" height="648" fill="white"/>
</clipPath>
</defs>
</svg>
