<svg width="1338" height="300" viewBox="0 0 1338 300" fill="none" xmlns="http://www.w3.org/2000/svg">
<path d="M1335.2 79.6L1285.4 220H1242.6L1192.8 79.6H1229.2L1264 185.6L1299 79.6H1335.2Z" fill="white"/>
<path d="M55.1877 223.857C24.774 223.857 1.00707 208.749 0 180.144H36.6209C37.628 191.022 44.4761 196.259 54.144 196.259C64.2147 196.259 70.6234 191.223 70.6234 182.964C70.6234 156.776 -0.0732417 170.877 0.329588 120.699C0.40283 93.9257 22.357 79.0188 51.965 79.0188C82.7815 79.0188 103.527 94.3285 104.937 121.322H67.6754C67.0711 112.257 60.6259 106.818 51.3608 106.617C43.1211 106.415 36.8589 110.645 36.8589 119.509C36.8589 144.085 106.75 133.006 106.75 180.345C106.75 204.115 88.2197 223.857 55.1877 223.857Z" fill="white"/>
<path d="M215.917 197.467H163.146L154.724 222.446H118.634L169.793 81.0325H209.655L260.833 222.446H224.376L215.917 197.467ZM189.513 119.105L172.21 170.876H207.055L189.513 119.105Z" fill="white"/>
<path d="M341.6 79.4214C375.236 79.4214 400.614 98.3571 408.671 128.977H370.787C364.946 116.89 354.307 110.847 341.179 110.847C320.03 110.847 305.528 126.559 305.528 151.538C305.528 176.517 320.03 192.23 341.179 192.23C354.271 192.23 364.982 186.187 370.787 174.1H408.653C400.596 204.719 375.218 223.454 341.581 223.454C299.889 223.454 270.482 193.842 270.482 151.538C270.482 109.235 299.907 79.4214 341.6 79.4214Z" fill="white"/>
<path d="M517.838 164.229H464.261V222.446H429.819V81.0325H464.261V136.43H517.838V81.0325H552.28V222.446H517.838V164.229Z" fill="white"/>
<path d="M665.063 197.467H612.292L603.833 222.446H567.779L618.939 81.0325H658.819L709.978 222.446H673.522L665.063 197.467ZM638.677 119.105L621.356 170.876H656.2L638.677 119.105Z" fill="white"/>
<path d="M790.745 79.4214C824.382 79.4214 849.76 98.3571 857.816 128.977H819.95C814.109 116.89 803.471 110.847 790.342 110.847C769.194 110.847 754.692 126.559 754.692 151.538C754.692 176.517 769.194 192.23 790.342 192.23C803.434 192.23 814.146 186.187 819.95 174.1H857.844C849.787 204.719 824.409 223.454 790.773 223.454C749.08 223.454 719.673 193.842 719.673 151.538C719.673 109.235 749.052 79.4214 790.745 79.4214Z" fill="white"/>
<path d="M913.407 159.999V222.446H878.965V81.0325H913.407V143.114L960.538 81.0325H1001.02L946.237 150.329L1003 222.446H960.886L913.407 159.999Z" fill="white"/>
<path d="M1070.51 223.857C1040.1 223.857 1016.33 208.748 1015.32 180.143H1051.94C1052.95 191.021 1059.8 196.259 1069.47 196.259C1079.54 196.259 1085.95 191.223 1085.95 182.963C1085.95 156.776 1015.25 170.877 1015.65 120.699C1015.65 93.9069 1037.63 79 1067.21 79C1098.03 79 1118.78 94.3097 1120.19 121.303H1082.93C1082.32 112.238 1075.88 106.799 1066.61 106.598C1058.37 106.396 1052.11 110.627 1052.11 119.49C1052.11 144.066 1122 132.987 1122 180.326C1122.07 204.115 1103.54 223.857 1070.51 223.857Z" fill="white"/>
<path d="M652.905 212.1C652.9 214.702 652.14 217.247 650.717 219.425C649.261 221.408 647.645 223.267 645.883 224.983C643.766 226.821 641.55 228.542 639.245 230.138L638.962 230.33L638.705 230.138C636.494 228.541 634.373 226.823 632.352 224.992C630.658 223.264 629.106 221.402 627.71 219.425C626.344 217.225 625.618 214.689 625.613 212.1C625.592 208.556 626.935 205.141 629.364 202.561C631.793 199.982 635.122 198.436 638.659 198.246V198.246H639.035C642.691 198.307 646.181 199.786 648.769 202.37C651.356 204.955 652.839 208.443 652.905 212.1V212.1Z" fill="white"/>
<path d="M663.452 196.35C663.452 196.35 660.009 184.859 654.296 184.859C651.998 184.859 651.998 189.437 651.998 189.437H624.643C624.643 189.437 624.643 184.859 622.345 184.859C616.604 184.859 613.189 196.35 613.189 196.35C613.189 196.35 600.555 171.078 622.345 158.433C622.345 158.433 616.65 128.793 638.174 112.65L638.302 112.55L638.43 112.65C659.963 128.775 654.26 158.433 654.26 158.433C676.086 171.078 663.452 196.35 663.452 196.35Z" fill="#331755"/>
<path d="M638.301 163.158C643.059 163.158 646.916 159.3 646.916 154.542C646.916 149.783 643.059 145.925 638.301 145.925C633.543 145.925 629.686 149.783 629.686 154.542C629.686 159.3 633.543 163.158 638.301 163.158Z" fill="white"/>
</svg>
