<svg width="856" height="754" viewBox="0 0 856 754" fill="none" xmlns="http://www.w3.org/2000/svg">
<path fill-rule="evenodd" clip-rule="evenodd" d="M436.869 342.367L722.529 488.242L436.869 634.118L151.209 488.242L436.869 342.367Z" fill="white" fill-opacity="0.19"/>
<g filter="url(#filter0_f_46_3543)">
<path fill-rule="evenodd" clip-rule="evenodd" d="M428 342.135L756 498.067L428 653.998L100 498.067L428 342.135Z" fill="#FD56F1" fill-opacity="0.58"/>
</g>
<path fill-rule="evenodd" clip-rule="evenodd" d="M400.067 336.381L400.582 335.592L435.839 353.629L471.096 335.592L471.611 336.381L436.868 354.155L471.161 371.698L506.096 353.826L506.611 354.616L472.19 372.225L505.967 389.505L540.066 372.061L540.581 372.85L506.996 390.031L542.318 408.101L577.125 390.295L577.64 391.084L543.347 408.628L578.154 426.435L613.154 408.529L613.669 409.319L579.183 426.961L614.882 445.224L649.183 427.676L649.698 428.465L615.911 445.75L650.718 463.557L685.213 445.91L685.728 446.7L651.747 464.083L685.728 481.467L685.213 482.257L650.718 464.61L616.426 482.153L650.728 499.701L650.213 500.491L615.397 482.68L581.619 499.96L616.758 517.936L616.243 518.725L580.59 500.486L545.268 518.556L579.699 536.17L579.184 536.96L544.239 519.083L509.432 536.889L543.67 554.405L543.155 555.194L508.403 537.416L472.704 555.678L507.64 573.551L507.125 574.341L471.675 556.205L436.868 574.012L471.611 591.785L471.096 592.575L435.839 574.538L400.582 592.575L400.067 591.785L434.81 574.012L400.003 556.205L364.553 574.341L364.038 573.551L398.974 555.678L363.275 537.416L328.524 555.194L328.009 554.405L362.246 536.889L327.439 519.083L292.495 536.96L291.98 536.17L326.41 518.556L291.088 500.486L255.436 518.725L254.921 517.936L290.059 499.96L256.282 482.68L221.466 500.491L220.951 499.701L255.253 482.153L220.96 464.61L186.466 482.257L185.951 481.467L219.931 464.083L185.951 446.7L186.466 445.91L220.96 463.557L255.767 445.75L221.98 428.465L222.495 427.676L256.796 445.224L292.495 426.961L258.01 409.319L258.524 408.529L293.524 426.434L328.331 408.628L294.039 391.084L294.553 390.295L329.36 408.101L364.682 390.031L331.097 372.85L331.612 372.061L365.711 389.505L399.489 372.225L365.068 354.616L365.583 353.826L400.518 371.698L434.81 354.155L400.067 336.381ZM435.839 354.681L401.547 372.225L435.839 389.768L470.132 372.225L435.839 354.681ZM400.518 372.751L366.74 390.031L401.033 407.575L434.81 390.295L400.518 372.751ZM365.711 390.558L330.389 408.628L364.682 426.171L400.004 408.101L365.711 390.558ZM329.36 409.154L294.553 426.961L328.846 444.504L363.653 426.698L329.36 409.154ZM293.524 427.487L257.825 445.75L292.118 463.294L327.816 445.031L293.524 427.487ZM256.796 446.277L221.989 464.083L256.282 481.627L291.089 463.82L256.796 446.277ZM436.868 390.295L471.161 372.751L504.938 390.031L470.646 407.575L436.868 390.295ZM402.062 408.101L435.839 390.821L469.617 408.101L435.839 425.381L402.062 408.101ZM365.711 426.698L401.033 408.628L434.81 425.908L399.488 443.978L365.711 426.698ZM329.875 445.031L364.682 427.224L398.459 444.504L363.652 462.311L329.875 445.031ZM293.147 463.82L328.846 445.557L362.623 462.837L326.925 481.1L293.147 463.82ZM257.311 482.153L292.118 464.346L325.896 481.627L291.088 499.433L257.311 482.153ZM505.967 390.558L471.675 408.101L506.997 426.171L541.289 408.628L505.967 390.558ZM470.646 408.628L436.868 425.908L472.19 443.978L505.968 426.698L470.646 408.628ZM435.839 426.434L400.517 444.504L435.839 462.574L471.161 444.504L435.839 426.434ZM399.488 445.031L364.681 462.837L400.003 480.907L434.81 463.101L399.488 445.031ZM363.652 463.364L327.954 481.627L363.276 499.697L398.974 481.434L363.652 463.364ZM326.925 482.153L292.117 499.96L327.439 518.03L362.247 500.223L326.925 482.153ZM508.026 426.698L542.318 409.154L577.125 426.961L542.833 444.504L508.026 426.698ZM473.219 444.504L506.997 427.224L541.804 445.031L508.026 462.311L473.219 444.504ZM436.868 463.101L472.19 445.031L506.997 462.837L471.675 480.907L436.868 463.101ZM401.032 481.434L435.839 463.627L470.646 481.434L435.839 499.24L401.032 481.434ZM364.305 500.223L400.003 481.96L434.81 499.767L399.112 518.03L364.305 500.223ZM328.468 518.556L363.276 500.749L398.083 518.556L363.275 536.363L328.468 518.556ZM578.154 427.487L543.862 445.031L579.561 463.293L613.853 445.75L578.154 427.487ZM542.833 445.557L509.055 462.837L544.754 481.1L578.532 463.82L542.833 445.557ZM508.026 463.364L472.704 481.434L508.403 499.696L543.725 481.626L508.026 463.364ZM471.675 481.96L436.868 499.767L472.567 518.03L507.374 500.223L471.675 481.96ZM435.839 500.293L400.141 518.556L435.839 536.819L471.538 518.556L435.839 500.293ZM399.112 519.083L364.304 536.889L400.003 555.152L434.81 537.345L399.112 519.083ZM580.59 463.82L614.882 446.277L649.689 464.083L615.397 481.627L580.59 463.82ZM545.783 481.626L579.561 464.346L614.368 482.153L580.59 499.433L545.783 481.626ZM509.432 500.223L544.754 482.153L579.561 499.96L544.239 518.03L509.432 500.223ZM473.596 518.556L508.403 500.749L543.21 518.556L508.403 536.363L473.596 518.556ZM436.868 537.345L472.567 519.082L507.374 536.889L471.675 555.152L436.868 537.345ZM401.032 555.678L435.839 537.872L470.646 555.678L435.839 573.485L401.032 555.678Z" fill="#96CFFF" fill-opacity="0.45"/>
<path d="M151.797 463.627L436.354 317.773L720.912 463.627L436.354 609.48L151.797 463.627Z" stroke="#3364ED" stroke-width="0.540117" stroke-linecap="round"/>
<path fill-rule="evenodd" clip-rule="evenodd" d="M436.354 609.502L721.5 463.626V473.655L436.354 619.531V609.502Z" fill="url(#paint0_linear_46_3543)"/>
<path fill-rule="evenodd" clip-rule="evenodd" d="M151.209 462.715L436.354 608.59V618.619L151.209 472.744V462.715Z" fill="url(#paint1_linear_46_3543)"/>
<path d="M366.751 226.549L447.929 180.656L526.5 228.382L450.319 271.405L366.751 226.549Z" fill="url(#paint2_linear_46_3543)"/>
<path d="M398.656 191.947L398.956 230.113L449.434 256.639L499.202 230.215L499.171 188.027C478.054 149.527 410.16 160.727 398.656 191.947Z" fill="url(#paint3_linear_46_3543)"/>
<path d="M455.002 247.339C455.076 220.592 455.631 208.546 458.148 208.557C460.664 208.567 461.155 218.034 461.08 244.779" fill="#0B1347"/>
<path d="M467.15 240.922C467.225 214.176 467.78 202.129 470.296 202.141C472.812 202.152 473.303 211.617 473.228 238.362" fill="#0B1347"/>
<path d="M478.286 234.877C478.361 208.131 478.915 196.091 481.431 196.096C483.948 196.101 484.435 206.386 484.362 232.318" fill="#0B1347"/>
<path d="M489.428 229.638C489.503 202.893 490.057 190.852 492.573 190.857C495.09 190.863 495.58 200.335 495.504 227.08" fill="#0B1347"/>
<path d="M441.859 245.882C441.933 219.137 441.447 207.09 438.938 207.09C436.429 207.09 435.879 216.553 435.804 243.298" fill="#0B1347"/>
<path d="M429.402 239.48C429.478 212.734 428.991 200.688 426.481 200.688C423.972 200.688 423.421 210.15 423.347 236.896" fill="#0B1347"/>
<path d="M419.419 233.896C419.494 207.15 419.008 195.104 416.498 195.104C413.988 195.104 413.438 204.566 413.364 231.312" fill="#0B1347"/>
<path d="M408.31 227.726C408.384 200.981 407.897 188.934 405.389 188.934C402.88 188.934 402.329 198.396 402.253 225.142" fill="#0B1347"/>
<path d="M432.134 150.337L432.066 174.426L450.715 178.352L469.251 174.317C469.251 174.317 469.281 149.966 469.202 149.699C465.317 136.717 437.011 135.016 432.134 150.337Z" fill="url(#paint4_linear_46_3543)"/>
<path d="M449.215 178.07C449.255 163.884 448.998 157.495 447.664 157.492C446.331 157.489 446.04 163.182 446 177.368" fill="#0B1347"/>
<path d="M443.856 176.869C443.897 162.683 443.638 156.294 442.306 156.291C440.973 156.288 440.68 161.981 440.641 176.166" fill="#0B1347"/>
<path d="M437.935 175.577C437.976 161.392 437.717 155.003 436.385 155C435.052 154.997 434.76 160.69 434.72 174.875" fill="#0B1347"/>
<path d="M453.591 177.671C453.63 163.485 453.928 157.104 455.257 157.104C456.586 157.104 456.85 162.799 456.81 176.985" fill="#0B1347"/>
<path d="M458.951 176.497C458.991 162.311 459.288 155.924 460.617 155.93C461.946 155.936 462.209 161.625 462.17 175.811" fill="#0B1347"/>
<path d="M464.206 175.233C464.245 161.047 464.543 154.66 465.871 154.666C467.199 154.672 467.464 160.368 467.425 174.548" fill="#0B1347"/>
<path d="M449.767 129.588L449.754 134.246L451.681 134.251L451.695 129.593L449.767 129.588Z" fill="url(#paint5_linear_46_3543)"/>
<path d="M447.553 134.188L453.848 134.202L455.931 139.912L445.439 139.887L447.553 134.188Z" fill="url(#paint6_linear_46_3543)"/>
<path d="M399.105 230.216L449.546 256.79L499.201 230.216V223.801L449.659 249.459L399.105 222.885V230.216Z" fill="url(#paint7_linear_46_3543)"/>
<path d="M528.467 232.49L528.522 393.326L450.319 435.942V267.559L520.003 228.205C523.703 226.115 528.491 228.541 528.467 232.49Z" fill="url(#paint8_linear_46_3543)"/>
<path d="M371.313 226.157L451.007 268.599L450.656 436.348L365.74 389.965V229.047C365.74 226.455 368.847 224.843 371.313 226.157Z" fill="#0B1347"/>
<path d="M463.027 357.26C460.703 360.758 457.758 356.5 457.747 349.633L457.69 278.674C457.69 275.43 458.382 272.444 459.502 270.89L459.599 270.757C461.926 267.526 464.766 271.824 464.766 278.566L464.728 349.66C464.73 352.782 464.082 355.669 463.027 357.26Z" fill="#0B1347"/>
<path d="M474.551 349.012C472.227 352.51 469.283 348.252 469.277 341.385L469.22 270.426C469.22 267.182 469.912 264.196 471.032 262.642L471.128 262.509C473.456 259.278 476.296 263.576 476.296 270.318L476.258 341.412C476.257 344.534 475.61 347.421 474.551 349.012Z" fill="#0B1347"/>
<path d="M486.077 341.682C483.752 345.18 480.808 340.922 480.802 334.055L480.745 263.096C480.745 259.852 481.437 256.866 482.557 255.312L482.654 255.178C484.982 251.948 487.821 256.245 487.821 262.988L487.783 334.081C487.782 337.204 487.134 340.091 486.077 341.682Z" fill="#0B1347"/>
<path d="M497.604 335.268C495.28 338.765 492.335 334.507 492.324 327.641L492.267 256.682C492.267 253.438 492.959 250.451 494.079 248.898L494.175 248.764C496.503 245.534 499.343 249.831 499.343 256.574L499.305 327.667C499.314 330.79 498.661 333.677 497.604 335.268Z" fill="#0B1347"/>
<path d="M509.13 328.852C506.805 332.349 503.861 328.091 503.85 321.225L503.792 250.266C503.792 247.022 504.484 244.035 505.605 242.482L505.701 242.348C508.029 239.118 510.869 243.415 510.869 250.158L510.831 321.251C510.835 324.374 510.187 327.261 509.13 328.852Z" fill="#0B1347"/>
<path d="M520.659 323.354C518.334 326.851 515.39 322.593 515.384 315.727L515.327 244.768C515.327 241.524 516.019 238.537 517.139 236.984L517.236 236.85C519.563 233.62 522.403 237.917 522.403 244.66L522.365 315.753C522.362 318.876 521.714 321.763 520.659 323.354Z" fill="#0B1347"/>
<path d="M434.161 359.092C436.486 362.59 439.43 358.332 439.441 351.465L439.5 280.506C439.5 277.262 438.807 274.276 437.687 272.722L437.59 272.589C435.262 269.358 432.422 273.656 432.422 280.398L432.461 351.492C432.456 354.614 433.104 357.501 434.161 359.092Z" fill="url(#paint9_linear_46_3543)"/>
<path d="M422.635 350.846C424.959 354.344 427.903 350.086 427.915 343.219L427.973 272.26C427.973 269.016 427.28 266.03 426.16 264.476L426.063 264.343C423.735 261.112 420.896 265.41 420.896 272.152L420.934 343.246C420.929 346.368 421.573 349.255 422.635 350.846Z" fill="url(#paint10_linear_46_3543)"/>
<path d="M411.109 343.514C413.433 347.012 416.377 342.754 416.389 335.887L416.447 264.928C416.447 261.684 415.754 258.698 414.634 257.144L414.537 257.01C412.21 253.78 409.37 258.078 409.37 264.82L409.408 335.914C409.403 339.036 410.052 341.923 411.109 343.514Z" fill="url(#paint11_linear_46_3543)"/>
<path d="M399.583 337.1C401.907 340.598 404.852 336.34 404.863 329.473L404.921 258.514C404.921 255.27 404.228 252.284 403.108 250.73L403.011 250.596C400.684 247.366 397.844 251.663 397.844 258.406L397.882 329.499C397.877 332.622 398.526 335.509 399.583 337.1Z" fill="url(#paint12_linear_46_3543)"/>
<path d="M388.056 330.686C390.381 334.183 393.325 329.925 393.331 323.059L393.389 252.1C393.389 248.856 392.696 245.869 391.576 244.316L391.479 244.182C389.152 240.952 386.312 245.249 386.312 251.992L386.35 323.085C386.351 326.208 386.999 329.095 388.056 330.686Z" fill="url(#paint13_linear_46_3543)"/>
<path d="M376.531 325.188C378.855 328.685 381.799 324.427 381.811 317.561L381.869 246.602C381.869 243.358 381.176 240.371 380.056 238.818L379.959 238.684C377.631 235.454 374.792 239.751 374.792 246.494L374.83 317.587C374.825 320.71 375.473 323.597 376.531 325.188Z" fill="url(#paint14_linear_46_3543)"/>
<path d="M466.926 415.365L458.176 420.73L458.674 369.415L466.846 364.957L466.926 415.365Z" fill="#0B1347"/>
<path d="M480.226 407.305L472.497 411.783L471.952 362.285L480.123 357.826L480.226 407.305Z" fill="#0B1347"/>
<path d="M494.548 398.357L486.819 402.836L486.831 354.261L494.766 349.801L494.548 398.357Z" fill="#0B1347"/>
<path d="M509.19 390.332L501.461 394.811L501.473 346.237L509.408 341.775L509.19 390.332Z" fill="#0B1347"/>
<path d="M523.159 382.295L515.43 386.773L515.878 338.207L524.051 333.748L523.159 382.295Z" fill="#0B1347"/>
<path d="M450.656 436.348L528.522 395.158V379.58L450.669 421.732L450.656 436.348Z" fill="url(#paint15_linear_46_3543)"/>
<path d="M429.7 412.077L438.514 417.358L437.403 366.05L429.177 361.672L429.7 412.077Z" fill="url(#paint16_linear_46_3543)"/>
<path d="M416.304 404.15L424.087 408.552L424.042 359.051L415.816 354.674L416.304 404.15Z" fill="url(#paint17_linear_46_3543)"/>
<path d="M401.875 395.343L409.657 399.745L409.066 351.174L401.079 346.791L401.875 395.343Z" fill="url(#paint18_linear_46_3543)"/>
<path d="M387.139 387.462L394.92 391.864L394.33 343.293L386.342 338.91L387.139 387.462Z" fill="url(#paint19_linear_46_3543)"/>
<path d="M373.075 379.562L380.856 383.965L379.83 335.405L371.604 331.027L373.075 379.562Z" fill="url(#paint20_linear_46_3543)"/>
<g clip-path="url(#clip0_46_3543)">
<path d="M449.481 124.666L449.451 114.95C449.45 114.697 449.51 114.447 449.624 114.226C449.738 114.005 449.902 113.819 450.102 113.687C450.301 113.555 450.528 113.482 450.762 113.473C450.995 113.465 451.226 113.522 451.433 113.64L464.325 120.947C465.475 121.599 465.207 123.464 463.929 123.705L451.067 126.112C450.873 126.148 450.674 126.138 450.483 126.082C450.293 126.026 450.116 125.926 449.966 125.788C449.815 125.651 449.693 125.479 449.61 125.285C449.526 125.091 449.482 124.88 449.481 124.666Z" fill="url(#paint21_linear_46_3543)"/>
</g>
<path d="M453.838 128.536C453.842 126.982 452.456 125.719 450.741 125.715C449.026 125.711 447.632 126.967 447.628 128.522C447.623 130.076 449.01 131.339 450.724 131.343C452.439 131.347 453.833 130.091 453.838 128.536Z" fill="url(#paint22_linear_46_3543)"/>
<g opacity="0.8" clip-path="url(#clip1_46_3543)">
<path opacity="0.26" d="M301.043 248.346C332.548 248.346 358.087 224.513 358.087 195.112C358.087 165.712 332.548 141.879 301.043 141.879C269.539 141.879 244 165.712 244 195.112C244 224.513 269.539 248.346 301.043 248.346Z" fill="url(#paint23_linear_46_3543)"/>
<path opacity="0.26" d="M302.062 237.89C327.378 237.89 347.901 218.738 347.901 195.113C347.901 171.488 327.378 152.336 302.062 152.336C276.746 152.336 256.224 171.488 256.224 195.113C256.224 218.738 276.746 237.89 302.062 237.89Z" fill="url(#paint24_linear_46_3543)"/>
<path d="M301.043 224.582C318.483 224.582 332.621 211.388 332.621 195.113C332.621 178.838 318.483 165.645 301.043 165.645C283.604 165.645 269.466 178.838 269.466 195.113C269.466 211.388 283.604 224.582 301.043 224.582Z" fill="url(#paint25_linear_46_3543)"/>
</g>
<g clip-path="url(#clip2_46_3543)">
<path opacity="0.26" d="M484.5 84C509.629 84 530 65.196 530 42C530 18.804 509.629 0 484.5 0C459.371 0 439 18.804 439 42C439 65.196 459.371 84 484.5 84Z" fill="url(#paint26_linear_46_3543)"/>
<path opacity="0.26" d="M485.312 75.75C505.505 75.75 521.875 60.6396 521.875 42C521.875 23.3604 505.505 8.25 485.312 8.25C465.12 8.25 448.75 23.3604 448.75 42C448.75 60.6396 465.12 75.75 485.312 75.75Z" fill="url(#paint27_linear_46_3543)"/>
<path d="M484.5 65.25C498.411 65.25 509.688 54.8406 509.688 42C509.688 29.1594 498.411 18.75 484.5 18.75C470.589 18.75 459.312 29.1594 459.312 42C459.312 54.8406 470.589 65.25 484.5 65.25Z" fill="url(#paint28_linear_46_3543)"/>
</g>
<path fill-rule="evenodd" clip-rule="evenodd" d="M296.174 327.049L340.348 350.299V433.42L296.174 410.17V327.049Z" fill="url(#paint29_linear_46_3543)"/>
<path fill-rule="evenodd" clip-rule="evenodd" d="M300.015 334.825C300.015 334.398 300.464 334.12 300.846 334.31C301.042 334.407 301.166 334.607 301.166 334.825V411.918C301.166 412.345 300.717 412.623 300.334 412.433C300.138 412.336 300.015 412.136 300.015 411.918V334.825ZM304.496 337.032C304.496 336.605 304.945 336.327 305.328 336.517C305.523 336.614 305.647 336.814 305.647 337.032V414.125C305.647 414.552 305.198 414.83 304.815 414.64C304.62 414.543 304.496 414.343 304.496 414.125V337.032ZM308.978 339.241C308.978 338.814 309.427 338.536 309.81 338.726C310.005 338.823 310.129 339.023 310.129 339.241V416.334C310.129 416.761 309.68 417.039 309.297 416.849C309.102 416.752 308.978 416.552 308.978 416.334V339.241ZM313.459 341.45C313.459 341.023 313.908 340.745 314.29 340.935C314.486 341.032 314.61 341.232 314.61 341.45V418.543C314.61 418.97 314.161 419.248 313.778 419.058C313.582 418.961 313.459 418.761 313.459 418.543V341.45ZM317.94 343.657C317.94 343.23 318.39 342.952 318.772 343.142C318.968 343.239 319.092 343.439 319.092 343.657V420.75C319.092 421.177 318.642 421.455 318.26 421.265C318.064 421.168 317.94 420.968 317.94 420.75V343.657ZM322.422 345.866C322.422 345.439 322.871 345.161 323.254 345.351C323.449 345.448 323.573 345.648 323.573 345.866V422.959C323.573 423.386 323.124 423.664 322.741 423.474C322.546 423.377 322.422 423.177 322.422 422.959V345.866ZM326.904 348.075C326.904 347.648 327.353 347.37 327.735 347.56C327.931 347.657 328.055 347.857 328.055 348.075V425.168C328.055 425.595 327.606 425.873 327.223 425.683C327.027 425.586 326.904 425.386 326.904 425.168V348.075ZM331.384 350.282C331.384 349.855 331.833 349.577 332.216 349.767C332.412 349.864 332.535 350.064 332.535 350.282V427.375C332.535 427.802 332.086 428.08 331.704 427.89C331.508 427.793 331.384 427.593 331.384 427.375V350.282ZM335.866 352.491C335.866 352.064 336.316 351.786 336.698 351.976C336.894 352.073 337.018 352.273 337.018 352.491V429.584C337.018 430.011 336.568 430.289 336.186 430.099C335.99 430.002 335.866 429.802 335.866 429.584V352.491Z" fill="#2C2C8A"/>
<path fill-rule="evenodd" clip-rule="evenodd" d="M335.226 358.193C335.226 357.455 336.025 356.992 336.665 357.36C336.963 357.532 337.147 357.849 337.147 358.193V360.946C337.147 361.685 336.348 362.147 335.708 361.779C335.41 361.608 335.226 361.29 335.226 360.946V358.193Z" fill="#79DAFF"/>
<path fill-rule="evenodd" clip-rule="evenodd" d="M330.745 375.859C330.745 375.121 331.544 374.658 332.184 375.026C332.482 375.198 332.665 375.515 332.665 375.859V378.613C332.665 379.351 331.867 379.813 331.227 379.445C330.929 379.274 330.745 378.956 330.745 378.613V375.859Z" fill="#79DAFF"/>
<path fill-rule="evenodd" clip-rule="evenodd" d="M326.263 396.283L328.184 397.387V402.356L326.263 401.252V396.283Z" fill="#79DAFF"/>
<path fill-rule="evenodd" clip-rule="evenodd" d="M317.301 362.056C317.301 361.318 318.1 360.856 318.74 361.224C319.038 361.395 319.221 361.713 319.221 362.056V364.81C319.221 365.548 318.423 366.01 317.782 365.642C317.484 365.471 317.301 365.153 317.301 364.81V362.056Z" fill="#79DAFF"/>
<path fill-rule="evenodd" clip-rule="evenodd" d="M317.301 383.582C317.301 382.846 318.102 382.388 318.74 382.755C319.037 382.926 319.221 383.243 319.221 383.586C319.221 384.322 318.421 384.78 317.782 384.413C317.485 384.242 317.301 383.925 317.301 383.582Z" fill="#FD92AC"/>
<path fill-rule="evenodd" clip-rule="evenodd" d="M326.263 356.53C326.263 355.793 327.064 355.335 327.702 355.702C327.999 355.873 328.184 356.19 328.184 356.533C328.184 357.269 327.383 357.727 326.745 357.36C326.448 357.19 326.263 356.872 326.263 356.53Z" fill="#FD92AC"/>
<path fill-rule="evenodd" clip-rule="evenodd" d="M312.819 342.176C312.819 341.44 313.62 340.982 314.258 341.349C314.555 341.52 314.74 341.837 314.74 342.18C314.74 342.916 313.939 343.374 313.301 343.007C313.004 342.836 312.819 342.519 312.819 342.176Z" fill="#FD92AC"/>
<path fill-rule="evenodd" clip-rule="evenodd" d="M303.856 357.082C303.856 356.346 304.657 355.888 305.295 356.255C305.592 356.426 305.777 356.743 305.777 357.086C305.777 357.822 304.976 358.28 304.338 357.913C304.041 357.742 303.856 357.425 303.856 357.082Z" fill="#FD92AC"/>
<path fill-rule="evenodd" clip-rule="evenodd" d="M308.338 373.099C308.338 372.361 309.137 371.899 309.777 372.267C310.075 372.438 310.258 372.756 310.258 373.099V375.853C310.258 376.591 309.46 377.053 308.82 376.685C308.522 376.514 308.338 376.196 308.338 375.853V373.099Z" fill="#79DAFF"/>
<path fill-rule="evenodd" clip-rule="evenodd" d="M303.856 341.629C303.856 340.89 304.655 340.428 305.295 340.796C305.593 340.967 305.777 341.285 305.777 341.629V344.382C305.777 345.12 304.978 345.583 304.338 345.215C304.04 345.043 303.856 344.726 303.856 344.382V341.629Z" fill="#79DAFF"/>
<path fill-rule="evenodd" clip-rule="evenodd" d="M340.348 303.799L384.522 327.049L340.348 350.3L296.174 327.049L340.348 303.799Z" fill="url(#paint30_linear_46_3543)"/>
<path fill-rule="evenodd" clip-rule="evenodd" d="M384.522 327.049L340.348 350.299V433.42L384.522 410.17V327.049Z" fill="url(#paint31_linear_46_3543)"/>
<path fill-rule="evenodd" clip-rule="evenodd" d="M378.76 367.302C378.76 363.539 374.76 361.124 371.43 362.878L349.42 374.468C347.778 375.333 346.75 377.036 346.75 378.892V379.216C346.75 382.979 350.75 385.393 354.08 383.64L376.09 372.049C377.732 371.184 378.76 369.481 378.76 367.625V367.302ZM378.76 383.577C378.76 379.814 374.76 377.399 371.43 379.153L349.42 390.743C347.778 391.608 346.75 393.312 346.75 395.167V395.491C346.75 399.254 350.75 401.668 354.08 399.915L376.09 388.324C377.732 387.46 378.76 385.756 378.76 383.9V383.577ZM346.75 411.443C346.75 409.587 347.778 407.883 349.42 407.019L371.43 395.428C374.76 393.675 378.76 396.089 378.76 399.852V400.176C378.76 402.032 377.732 403.735 376.09 404.6L354.08 416.19C350.75 417.944 346.75 415.529 346.75 411.766V411.443Z" fill="white" fill-opacity="0.11"/>
<path fill-rule="evenodd" clip-rule="evenodd" d="M378.76 337.267C378.76 336.586 378.036 336.149 377.433 336.466L375.401 337.537C375.104 337.693 374.918 338.001 374.918 338.337C374.918 339.018 375.642 339.455 376.245 339.138L378.276 338.067C378.574 337.911 378.76 337.603 378.76 337.267Z" fill="#FD92AC"/>
<path fill-rule="evenodd" clip-rule="evenodd" d="M340.348 263.846H359.554V327.276L340.348 337.385V263.846ZM340.348 264.152H321.142V327.277L340.348 337.386V264.152Z" fill="url(#paint32_linear_46_3543)"/>
<path fill-rule="evenodd" clip-rule="evenodd" d="M340.348 317.168L359.554 327.277L340.348 337.386L321.142 327.277L340.348 317.168Z" fill="url(#paint33_linear_46_3543)"/>
<path fill-rule="evenodd" clip-rule="evenodd" d="M329.144 313.681C329.675 313.681 330.105 313.291 330.105 312.809C330.105 312.328 329.675 311.938 329.144 311.938C328.614 311.938 328.184 312.328 328.184 312.809C328.184 313.291 328.614 313.681 329.144 313.681Z" fill="#EFF7FF"/>
<path fill-rule="evenodd" clip-rule="evenodd" d="M350.591 307.868C350.945 307.868 351.231 307.608 351.231 307.287C351.231 306.966 350.945 306.705 350.591 306.705C350.237 306.705 349.951 306.966 349.951 307.287C349.951 307.608 350.237 307.868 350.591 307.868Z" fill="#EFF7FF"/>
<path fill-rule="evenodd" clip-rule="evenodd" d="M343.549 297.405C343.902 297.405 344.189 297.144 344.189 296.823C344.189 296.502 343.902 296.242 343.549 296.242C343.195 296.242 342.908 296.502 342.908 296.823C342.908 297.144 343.195 297.405 343.549 297.405Z" fill="#EFF7FF"/>
<path fill-rule="evenodd" clip-rule="evenodd" d="M332.025 303.799C332.379 303.799 332.665 303.539 332.665 303.218C332.665 302.897 332.379 302.637 332.025 302.637C331.672 302.637 331.385 302.897 331.385 303.218C331.385 303.539 331.672 303.799 332.025 303.799Z" fill="#EFF7FF"/>
<g filter="url(#filter1_f_46_3543)">
<path fill-rule="evenodd" clip-rule="evenodd" d="M277.734 288.546H323.087V457.1L277.725 483.96L232.363 457.1V289.361H277.725L277.734 288.546Z" fill="url(#paint34_linear_46_3543)"/>
</g>
<path d="M274.563 492.974L322.981 468.082L322.81 418.577L274.563 395.686L226.314 418.577V467.221L274.563 492.974Z" fill="url(#paint35_linear_46_3543)"/>
<path d="M274.563 492.974L322.981 468.082L322.81 418.577L274.563 395.686L226.314 418.577V467.221L274.563 492.974Z" fill="black" fill-opacity="0.2"/>
<path d="M226.314 418.577L274.563 395.686L322.81 418.577L274.563 441.469L226.314 418.577Z" fill="url(#paint36_linear_46_3543)"/>
<path d="M274.563 492.973V441.469L226.314 418.577V468.999L274.563 492.973Z" fill="#0B1347"/>
<path fill-rule="evenodd" clip-rule="evenodd" d="M266 444.804C266 444.434 266.314 444.159 266.645 444.236L266.859 444.285C266.987 444.321 267.099 444.396 267.177 444.499C267.255 444.602 267.294 444.726 267.289 444.853L267.271 484.02C267.271 484.388 266.956 484.663 266.626 484.587L266.412 484.539C266.283 484.503 266.171 484.427 266.094 484.324C266.016 484.221 265.976 484.096 265.982 483.969L266 444.804Z" fill="#431591" fill-opacity="0.66"/>
<path fill-rule="evenodd" clip-rule="evenodd" d="M260.47 441.387C260.47 441.027 260.783 440.759 261.114 440.833L261.329 440.881C261.456 440.914 261.567 440.987 261.645 441.087C261.723 441.188 261.763 441.31 261.759 441.435L261.742 479.619C261.742 479.978 261.426 480.246 261.092 480.173L260.877 480.125C260.751 480.091 260.64 480.018 260.563 479.917C260.486 479.816 260.447 479.694 260.453 479.57L260.47 441.387Z" fill="#431591" fill-opacity="0.66"/>
<path fill-rule="evenodd" clip-rule="evenodd" d="M254.936 440.193C254.933 440.116 254.949 440.039 254.982 439.969C255.015 439.898 255.064 439.835 255.126 439.785C255.188 439.735 255.261 439.698 255.339 439.678C255.418 439.658 255.5 439.655 255.58 439.669L255.795 439.715C255.919 439.743 256.029 439.81 256.107 439.906C256.185 440.001 256.227 440.119 256.225 440.239L256.209 476.355C256.211 476.433 256.195 476.51 256.161 476.58C256.128 476.651 256.078 476.714 256.016 476.764C255.953 476.814 255.88 476.851 255.801 476.87C255.722 476.89 255.639 476.893 255.559 476.878L255.344 476.833C255.221 476.805 255.112 476.737 255.035 476.642C254.957 476.546 254.917 476.428 254.92 476.308L254.936 440.193Z" fill="#431591" fill-opacity="0.66"/>
<path fill-rule="evenodd" clip-rule="evenodd" d="M249.407 437.403C249.404 437.326 249.42 437.25 249.453 437.179C249.486 437.108 249.535 437.046 249.597 436.995C249.659 436.945 249.731 436.909 249.81 436.889C249.889 436.869 249.971 436.866 250.051 436.881L250.266 436.925C250.39 436.953 250.5 437.02 250.578 437.116C250.656 437.211 250.697 437.329 250.696 437.449L250.679 473.565C250.681 473.643 250.665 473.72 250.632 473.791C250.598 473.861 250.549 473.924 250.486 473.975C250.424 474.025 250.351 474.061 250.272 474.081C250.193 474.101 250.11 474.104 250.03 474.089L249.815 474.043C249.692 474.015 249.583 473.947 249.506 473.851C249.428 473.756 249.388 473.639 249.391 473.518L249.407 437.403Z" fill="#431591" fill-opacity="0.66"/>
<path fill-rule="evenodd" clip-rule="evenodd" d="M243.873 434.517C243.87 434.44 243.886 434.363 243.919 434.292C243.952 434.222 244.001 434.159 244.063 434.109C244.125 434.058 244.198 434.022 244.276 434.002C244.355 433.982 244.437 433.98 244.517 433.994L244.732 434.039C244.856 434.067 244.966 434.134 245.044 434.229C245.122 434.324 245.164 434.442 245.162 434.563L245.146 470.679C245.148 470.756 245.132 470.833 245.099 470.904C245.065 470.975 245.016 471.038 244.953 471.088C244.891 471.139 244.817 471.175 244.738 471.195C244.659 471.214 244.576 471.217 244.496 471.202L244.281 471.157C244.158 471.128 244.049 471.06 243.972 470.965C243.895 470.869 243.854 470.752 243.857 470.632L243.873 434.517Z" fill="#431591" fill-opacity="0.66"/>
<path fill-rule="evenodd" clip-rule="evenodd" d="M238.344 432.162C238.341 432.085 238.357 432.008 238.39 431.937C238.423 431.867 238.472 431.804 238.534 431.754C238.595 431.703 238.668 431.667 238.747 431.647C238.826 431.627 238.908 431.624 238.988 431.638L239.203 431.683C239.327 431.711 239.436 431.778 239.515 431.873C239.593 431.969 239.634 432.086 239.632 432.207L239.616 468.324C239.619 468.401 239.602 468.478 239.569 468.548C239.536 468.618 239.487 468.681 239.425 468.731C239.364 468.781 239.291 468.818 239.212 468.838C239.134 468.858 239.052 468.861 238.972 468.847L238.757 468.802C238.633 468.774 238.523 468.707 238.445 468.611C238.367 468.516 238.325 468.398 238.327 468.277L238.344 432.162Z" fill="#431591" fill-opacity="0.66"/>
<path fill-rule="evenodd" clip-rule="evenodd" d="M232.811 429.591C232.808 429.514 232.824 429.437 232.857 429.367C232.89 429.296 232.939 429.233 233.001 429.183C233.063 429.133 233.136 429.097 233.214 429.077C233.293 429.057 233.375 429.054 233.455 429.068L233.67 429.113C233.794 429.141 233.904 429.208 233.982 429.303C234.06 429.399 234.102 429.516 234.1 429.637L234.084 465.753C234.086 465.83 234.07 465.907 234.037 465.977C234.004 466.048 233.955 466.111 233.893 466.161C233.831 466.211 233.758 466.247 233.68 466.267C233.601 466.287 233.519 466.29 233.439 466.276L233.224 466.231C233.1 466.203 232.99 466.136 232.912 466.04C232.834 465.945 232.792 465.827 232.795 465.706L232.811 429.591Z" fill="#431591" fill-opacity="0.66"/>
<path fill-rule="evenodd" clip-rule="evenodd" d="M226.314 418.577L274.563 441.469L274.648 449.736L226.314 425.968V418.577Z" fill="#11154A"/>
<path fill-rule="evenodd" clip-rule="evenodd" d="M226.314 460.745L274.648 484.594L274.54 492.93L226.314 469V460.745Z" fill="#0B1347"/>
<path fill-rule="evenodd" clip-rule="evenodd" d="M258.722 465.678C258.722 465.589 258.747 465.501 258.794 465.423C258.841 465.346 258.909 465.281 258.991 465.236C259.073 465.192 259.165 465.168 259.26 465.168C259.354 465.168 259.447 465.192 259.529 465.237L260.603 465.829C260.684 465.874 260.751 465.938 260.798 466.015C260.845 466.093 260.87 466.18 260.87 466.27V470.413C260.87 470.502 260.845 470.59 260.798 470.668C260.751 470.745 260.683 470.81 260.601 470.855C260.519 470.899 260.427 470.923 260.332 470.923C260.238 470.923 260.145 470.899 260.063 470.854L258.989 470.262C258.908 470.217 258.841 470.153 258.794 470.075C258.747 469.998 258.722 469.911 258.722 469.821V465.678Z" fill="#90D7FA"/>
<path fill-rule="evenodd" clip-rule="evenodd" d="M265.75 459.922C265.75 459.868 265.764 459.816 265.793 459.769C265.821 459.722 265.862 459.683 265.911 459.657C265.96 459.63 266.016 459.616 266.073 459.616C266.129 459.616 266.185 459.63 266.234 459.657L267.738 460.486C267.787 460.513 267.828 460.551 267.856 460.598C267.884 460.644 267.899 460.697 267.899 460.751V462.408C267.899 462.462 267.884 462.515 267.856 462.561C267.828 462.608 267.787 462.647 267.738 462.674C267.689 462.701 267.633 462.715 267.576 462.715C267.519 462.714 267.464 462.7 267.415 462.673L265.911 461.844C265.862 461.818 265.821 461.779 265.793 461.733C265.765 461.687 265.75 461.634 265.75 461.58V459.922Z" fill="#ED5FAB"/>
<path fill-rule="evenodd" clip-rule="evenodd" d="M253.703 444.04C253.703 443.987 253.718 443.934 253.747 443.887C253.775 443.841 253.816 443.802 253.865 443.775C253.914 443.749 253.97 443.735 254.027 443.735C254.083 443.735 254.139 443.749 254.188 443.776L255.691 444.604C255.74 444.631 255.781 444.669 255.809 444.716C255.838 444.763 255.853 444.815 255.853 444.869V446.527C255.853 446.581 255.838 446.634 255.809 446.68C255.781 446.727 255.74 446.765 255.691 446.792C255.642 446.819 255.586 446.833 255.529 446.833C255.473 446.833 255.417 446.818 255.368 446.791L253.864 445.964C253.815 445.937 253.775 445.898 253.746 445.852C253.718 445.805 253.703 445.752 253.703 445.699V444.04Z" fill="#ED5FAB"/>
<path fill-rule="evenodd" clip-rule="evenodd" d="M243.669 460.003C243.669 459.949 243.684 459.896 243.713 459.85C243.741 459.804 243.782 459.765 243.831 459.739C243.88 459.712 243.935 459.698 243.992 459.698C244.048 459.698 244.104 459.712 244.153 459.739L245.656 460.566C245.705 460.593 245.746 460.632 245.774 460.678C245.803 460.725 245.817 460.778 245.817 460.831V462.488C245.817 462.542 245.803 462.595 245.774 462.641C245.746 462.688 245.705 462.727 245.656 462.753C245.607 462.78 245.552 462.794 245.495 462.794C245.439 462.794 245.383 462.78 245.334 462.753L243.83 461.926C243.781 461.899 243.741 461.86 243.713 461.814C243.685 461.767 243.67 461.715 243.67 461.661L243.669 460.003Z" fill="#ED5FAB"/>
<path fill-rule="evenodd" clip-rule="evenodd" d="M232.821 437.175C232.821 437.121 232.836 437.068 232.864 437.022C232.893 436.976 232.933 436.937 232.982 436.91C233.031 436.884 233.087 436.87 233.143 436.87C233.2 436.87 233.255 436.884 233.304 436.911L234.808 437.738C234.857 437.765 234.898 437.804 234.926 437.85C234.954 437.897 234.969 437.949 234.969 438.003V439.66C234.969 439.714 234.954 439.767 234.926 439.813C234.898 439.86 234.857 439.898 234.808 439.925C234.759 439.952 234.703 439.966 234.647 439.966C234.59 439.966 234.535 439.952 234.486 439.925L232.982 439.098C232.933 439.071 232.893 439.032 232.865 438.986C232.836 438.939 232.822 438.886 232.822 438.833L232.821 437.175Z" fill="#ED5FAB"/>
<path fill-rule="evenodd" clip-rule="evenodd" d="M243.669 443.805C243.669 443.715 243.694 443.627 243.741 443.55C243.789 443.472 243.857 443.408 243.938 443.363C244.02 443.319 244.113 443.295 244.207 443.295C244.302 443.296 244.394 443.319 244.476 443.364L245.55 443.955C245.631 444 245.699 444.065 245.746 444.142C245.793 444.22 245.817 444.307 245.817 444.397V448.54C245.817 448.629 245.792 448.717 245.745 448.795C245.698 448.872 245.63 448.936 245.548 448.981C245.466 449.026 245.374 449.049 245.279 449.049C245.185 449.049 245.092 449.025 245.011 448.98L243.937 448.389C243.855 448.344 243.788 448.28 243.741 448.202C243.694 448.125 243.669 448.037 243.669 447.948V443.805Z" fill="#90D7FA"/>
<path fill-rule="evenodd" clip-rule="evenodd" d="M232.069 453.689C232.069 453.6 232.094 453.512 232.141 453.434C232.189 453.357 232.257 453.293 232.338 453.248C232.42 453.203 232.513 453.18 232.607 453.18C232.702 453.18 232.794 453.204 232.876 453.249L233.95 453.84C234.031 453.885 234.099 453.949 234.146 454.027C234.193 454.104 234.217 454.192 234.217 454.281V458.424C234.217 458.514 234.192 458.602 234.145 458.679C234.098 458.757 234.03 458.821 233.948 458.866C233.866 458.91 233.773 458.934 233.679 458.934C233.585 458.933 233.492 458.91 233.411 458.865L232.337 458.274C232.255 458.229 232.188 458.164 232.141 458.087C232.094 458.009 232.069 457.922 232.069 457.832V453.689Z" fill="#90D7FA"/>
<path fill-rule="evenodd" clip-rule="evenodd" d="M317.41 430.797C317.41 430.744 317.395 430.692 317.368 430.646C317.341 430.6 317.301 430.562 317.254 430.534C317.206 430.507 317.152 430.492 317.096 430.491C317.04 430.489 316.985 430.502 316.936 430.527L313.284 432.369C313.233 432.395 313.19 432.434 313.159 432.482C313.129 432.529 313.113 432.584 313.114 432.639V434.137C313.113 434.189 313.128 434.241 313.155 434.287C313.183 434.333 313.222 434.372 313.27 434.399C313.317 434.426 313.372 434.441 313.427 434.442C313.483 434.444 313.538 434.431 313.587 434.407L317.239 432.565C317.291 432.539 317.334 432.5 317.364 432.452C317.394 432.405 317.41 432.35 317.41 432.295V430.797Z" fill="#ED5FAB"/>
<g clip-path="url(#clip3_46_3543)">
<path d="M257.029 419.855C259.75 419.819 261.879 413.871 261.783 406.568C261.688 399.266 259.405 393.375 256.684 393.411C253.963 393.446 251.834 399.395 251.929 406.697C252.025 414 254.308 419.891 257.029 419.855Z" fill="#E5E5E5"/>
<path opacity="0.35" d="M300.891 368.997C300.971 375.167 298.771 380.893 295.134 385.448C290.092 387.818 282.298 389.346 273.446 389.462C264.566 389.578 256.874 388.04 251.773 385.79C248.046 381.342 245.556 375.868 245.476 369.724C245.285 355.085 257.535 343.057 272.838 342.856C288.141 342.656 300.7 354.359 300.891 368.997Z" fill="white"/>
<path d="M251.856 385.557C251.856 385.557 243.553 397.92 249.617 401.925C249.617 401.925 251.03 402.764 252.335 402.236C257.872 399.997 257.008 387.084 257.008 387.084L251.886 385.553L251.856 385.557Z" fill="#E5E5E5"/>
<path d="M290.649 419.415C293.37 419.38 295.499 413.431 295.403 406.129C295.308 398.826 293.025 392.935 290.304 392.971C287.583 393.006 285.454 398.955 285.549 406.258C285.645 413.56 287.928 419.451 290.649 419.415Z" fill="white"/>
<path d="M295.017 385.363L294.96 380.962C294.907 376.907 293.204 373.039 290.225 370.211C287.246 367.382 283.236 365.823 279.076 365.878L267.202 366.033C263.043 366.088 259.074 367.751 256.17 370.657C253.266 373.563 251.665 377.473 251.717 381.528L251.775 385.93C256.882 388.124 264.698 389.464 273.444 389.349C282.19 389.234 289.969 387.687 295.017 385.363Z" fill="#FFC05D"/>
<path d="M273.444 389.349C264.698 389.464 256.882 388.12 251.775 385.93L252.001 403.274C252.053 407.329 253.757 411.196 256.735 414.025C259.714 416.854 263.724 418.412 267.884 418.358L279.758 418.202C283.917 418.148 287.886 416.484 290.79 413.579C293.694 410.673 295.296 406.762 295.243 402.707L295.017 385.364C289.968 387.687 282.19 389.234 273.444 389.349Z" fill="white" stroke="#E5E5E5" stroke-width="2" stroke-linecap="round" stroke-linejoin="round"/>
<path d="M269.991 380.476L269.967 380.476C269.975 380.475 269.983 380.475 269.991 380.476Z" fill="#FFE7A9"/>
<path d="M279.164 389.063C277.238 383.174 274.135 380.432 269.992 380.505C266.064 380.573 263.076 383.082 261.319 388.516C265.328 389.137 269.385 389.416 273.444 389.349C275.406 389.324 277.319 389.225 279.164 389.063Z" fill="#FFE7A9"/>
<path d="M273.542 421.819C273.547 421.82 273.553 421.82 273.557 421.819C273.553 421.82 273.547 421.82 273.542 421.819Z" fill="#FFE7A9"/>
<path d="M280.527 381.985C281.807 381.968 282.829 380.714 282.809 379.183C282.789 377.653 281.735 376.426 280.454 376.443C279.174 376.46 278.152 377.714 278.172 379.244C278.192 380.775 279.246 382.002 280.527 381.985Z" fill="#820E0F"/>
<path d="M276.746 376.288C277.472 376.168 277.952 375.447 277.819 374.678C277.686 373.908 276.99 373.382 276.263 373.502C275.537 373.622 275.057 374.343 275.19 375.112C275.323 375.881 276.02 376.408 276.746 376.288Z" fill="#FFE7A9"/>
<path d="M265.639 375.539C265.799 374.774 265.343 374.038 264.622 373.896C263.9 373.753 263.186 374.257 263.026 375.022C262.866 375.787 263.322 376.522 264.044 376.665C264.765 376.808 265.48 376.303 265.639 375.539Z" fill="#FFE7A9"/>
<path d="M258.433 385.25C259.554 385.235 260.453 384.566 260.443 383.754C260.432 382.943 259.515 382.297 258.395 382.312C257.274 382.326 256.375 382.996 256.385 383.808C256.396 384.619 257.313 385.265 258.433 385.25Z" fill="#FF7E60"/>
<path d="M284.518 384.908C285.638 384.894 286.538 384.224 286.527 383.413C286.517 382.601 285.6 381.955 284.479 381.97C283.359 381.985 282.459 382.654 282.47 383.466C282.48 384.277 283.397 384.923 284.518 384.908Z" fill="#FF7E60"/>
<path d="M269.251 366.424L262.281 369.09L255.3 371.756C255.3 371.756 254.135 361.425 258.288 359.161C262.441 356.896 269.251 366.424 269.251 366.424Z" fill="#FFC05D"/>
<path d="M277.244 366.136L284.235 368.757L291.226 371.379C291.226 371.379 292.344 361.04 288.182 358.8C284.02 356.56 277.244 366.136 277.244 366.136Z" fill="#FFC05D"/>
<path d="M265.454 365.943L265.892 365.937C264.574 364.287 261.234 360.532 259.013 361.742C256.365 363.186 256.903 369.469 256.977 370.22C257.951 368.913 259.225 367.846 260.696 367.103C262.168 366.36 263.797 365.963 265.454 365.943Z" fill="#FFE7A9"/>
<path d="M281.061 365.966L280.622 365.971C281.897 364.287 285.138 360.446 287.39 361.598C290.074 362.972 289.701 369.267 289.646 370.019C288.638 368.738 287.337 367.705 285.847 367.001C284.356 366.297 282.718 365.943 281.061 365.966Z" fill="#FFE7A9"/>
<path d="M261.737 382.231C263.017 382.214 264.039 380.96 264.019 379.429C263.999 377.899 262.945 376.672 261.664 376.689C260.384 376.706 259.362 377.96 259.382 379.49C259.402 381.021 260.456 382.248 261.737 382.231Z" fill="#820E0F"/>
<path d="M270.15 382.225C271.72 382.205 272.982 381.367 272.969 380.354C272.955 379.341 271.672 378.536 270.102 378.557C268.532 378.578 267.27 379.415 267.283 380.428C267.297 381.441 268.58 382.246 270.15 382.225Z" fill="#820E0F"/>
<path d="M270.15 382.215L270.189 385.267" stroke="#820E0F" stroke-width="2" stroke-miterlimit="10" stroke-linecap="round"/>
<path d="M274.825 382.437C273.711 384.218 272.054 385.355 270.191 385.38C268.328 385.404 266.641 384.311 265.481 382.559" stroke="#820E0F" stroke-width="2" stroke-miterlimit="10" stroke-linecap="round"/>
<path d="M276.143 392.817L264.808 392.966C263.104 392.988 261.74 394.353 261.762 396.014L261.896 406.273C261.917 407.934 263.316 409.262 265.02 409.239L276.355 409.091C278.059 409.069 279.423 407.704 279.401 406.043L279.267 395.784C279.246 394.123 277.847 392.795 276.143 392.817Z" fill="#E5E5E5"/>
<path d="M274.452 402.495L271.264 404.696L270.635 405.13L269.996 404.713L266.75 402.596C266.284 402.291 265.9 401.88 265.633 401.399C265.365 400.918 265.221 400.38 265.212 399.832C265.199 398.803 265.681 397.808 266.666 397.285C268.035 396.558 269.664 397.125 270.546 398.328C271.396 397.102 273.011 396.493 274.399 397.184C276.4 398.179 276.43 401.133 274.452 402.495Z" fill="#FF7E60"/>
<path d="M301.948 379.824C301.948 379.824 303.328 380.35 303.816 381.518C305.887 386.464 295.245 398.718 295.245 398.718L291.156 396.021C291.155 396.013 295.788 377.777 301.948 379.824Z" fill="white"/>
</g>
<g clip-path="url(#clip4_46_3543)">
<path opacity="0.66" d="M262.006 396.095L252.212 396.223L252.305 403.347L262.099 403.219L262.006 396.095Z" fill="#BABABA"/>
<path opacity="0.66" d="M294.918 395.663L279.202 395.869L279.295 402.993L295.011 402.787L294.918 395.663Z" fill="#BABABA"/>
<path opacity="0.66" d="M262.044 399.003L252.25 399.131L252.259 399.858L262.053 399.73L262.044 399.003Z" fill="#FF7E60"/>
<path opacity="0.66" d="M294.956 398.572L279.24 398.778L279.249 399.505L294.965 399.299L294.956 398.572Z" fill="#FF7E60"/>
</g>
<path fill-rule="evenodd" clip-rule="evenodd" d="M500.746 350.012L549.821 374.64V443.117L500.746 418.489V350.012Z" fill="url(#paint37_linear_46_3543)"/>
<path fill-rule="evenodd" clip-rule="evenodd" d="M534.665 375.735C534.665 374.437 536.042 373.603 537.192 374.202C537.763 374.5 538.121 375.091 538.121 375.735V376.042C538.121 377.339 536.745 378.174 535.594 377.574C535.023 377.276 534.665 376.686 534.665 376.042V375.735Z" fill="url(#paint38_linear_46_3543)"/>
<path fill-rule="evenodd" clip-rule="evenodd" d="M541.293 378.686C541.293 377.388 542.67 376.554 543.82 377.154C544.391 377.451 544.749 378.042 544.749 378.686V378.993C544.749 380.29 543.373 381.125 542.222 380.525C541.652 380.227 541.293 379.637 541.293 378.993V378.686Z" fill="url(#paint39_linear_46_3543)"/>
<path fill-rule="evenodd" clip-rule="evenodd" d="M524.348 337.969L574.435 362.958L550.087 375.148L500.696 350.159L524.348 337.969Z" fill="url(#paint40_linear_46_3543)"/>
<path fill-rule="evenodd" clip-rule="evenodd" d="M574.011 363.227L549.82 375.24V443.117L574.011 431.103V363.227Z" fill="url(#paint41_linear_46_3543)"/>
<path fill-rule="evenodd" clip-rule="evenodd" d="M556.042 379.613C556.042 379.366 556.183 379.14 556.406 379.032L568.246 373.286C568.675 373.078 569.174 373.391 569.174 373.868C569.174 374.115 569.033 374.341 568.81 374.449L556.97 380.194C556.541 380.403 556.042 380.09 556.042 379.613Z" fill="white" fill-opacity="0.51"/>
<path fill-rule="evenodd" clip-rule="evenodd" d="M556.042 385.621C556.042 385.373 556.183 385.148 556.406 385.04L568.246 379.294C568.675 379.086 569.174 379.399 569.174 379.875C569.174 380.123 569.033 380.349 568.81 380.457L556.97 386.202C556.541 386.41 556.042 386.098 556.042 385.621Z" fill="white" fill-opacity="0.51"/>
<path fill-rule="evenodd" clip-rule="evenodd" d="M556.042 391.629C556.042 391.381 556.183 391.155 556.406 391.047L568.246 385.302C568.675 385.094 569.174 385.406 569.174 385.883C569.174 386.131 569.033 386.357 568.81 386.465L556.97 392.21C556.541 392.418 556.042 392.106 556.042 391.629Z" fill="white" fill-opacity="0.51"/>
<path fill-rule="evenodd" clip-rule="evenodd" d="M556.042 397.634C556.042 397.387 556.183 397.161 556.406 397.053L568.246 391.308C568.675 391.099 569.174 391.412 569.174 391.889C569.174 392.136 569.033 392.362 568.81 392.47L556.97 398.216C556.541 398.424 556.042 398.111 556.042 397.634Z" fill="white" fill-opacity="0.51"/>
<path fill-rule="evenodd" clip-rule="evenodd" d="M556.042 403.64C556.042 403.393 556.183 403.167 556.406 403.059L568.246 397.314C568.675 397.105 569.174 397.418 569.174 397.895C569.174 398.143 569.033 398.368 568.81 398.476L556.97 404.222C556.541 404.43 556.042 404.117 556.042 403.64Z" fill="white" fill-opacity="0.51"/>
<path fill-rule="evenodd" clip-rule="evenodd" d="M385.492 448.356L435.674 474.303V579.947L385.492 553.999V448.356Z" fill="#261C63"/>
<path fill-rule="evenodd" clip-rule="evenodd" d="M485.857 448.356L435.674 474.303V579.947L485.857 553.999V448.356Z" fill="url(#paint42_linear_46_3543)"/>
<path fill-rule="evenodd" clip-rule="evenodd" d="M485.857 448.356L435.674 474.303V579.947L485.857 553.999V448.356Z" fill="black" fill-opacity="0.2"/>
<path fill-rule="evenodd" clip-rule="evenodd" d="M435.674 422.409L485.857 448.356L435.674 474.304L385.491 448.356L435.674 422.409Z" fill="url(#paint43_linear_46_3543)"/>
<path fill-rule="evenodd" clip-rule="evenodd" d="M435.674 422.409L485.857 448.356L435.674 474.304L385.491 448.356L435.674 422.409Z" fill="black" fill-opacity="0.2"/>
<path fill-rule="evenodd" clip-rule="evenodd" d="M436.197 375.147H458.674V447.621L436.197 459.171V459.17L413.719 447.62V375.497H436.197V375.147Z" fill="url(#paint44_linear_46_3543)"/>
<path fill-rule="evenodd" clip-rule="evenodd" d="M436.197 436.309L458.675 447.859L436.197 459.409L413.719 447.859L436.197 436.309Z" fill="url(#paint45_linear_46_3543)"/>
<path fill-rule="evenodd" clip-rule="evenodd" d="M435.879 416.848L421.037 435.394L435.879 443.213V416.848Z" fill="url(#paint46_linear_46_3543)"/>
<path fill-rule="evenodd" clip-rule="evenodd" d="M435.675 416.848L450.516 435.394L435.675 443.213V416.848Z" fill="url(#paint47_linear_46_3543)"/>
<path fill-rule="evenodd" clip-rule="evenodd" d="M424.696 421.482C425.562 421.482 426.265 420.859 426.265 420.092C426.265 419.324 425.562 418.702 424.696 418.702C423.83 418.702 423.128 419.324 423.128 420.092C423.128 420.859 423.83 421.482 424.696 421.482Z" fill="#EFF7FF"/>
<path fill-rule="evenodd" clip-rule="evenodd" d="M446.128 414.067C446.705 414.067 447.173 413.652 447.173 413.14C447.173 412.628 446.705 412.213 446.128 412.213C445.55 412.213 445.082 412.628 445.082 413.14C445.082 413.652 445.55 414.067 446.128 414.067Z" fill="#EFF7FF"/>
<path fill-rule="evenodd" clip-rule="evenodd" d="M439.856 395.533C440.433 395.533 440.901 395.118 440.901 394.607C440.901 394.095 440.433 393.68 439.856 393.68C439.278 393.68 438.81 394.095 438.81 394.607C438.81 395.118 439.278 395.533 439.856 395.533Z" fill="#EFF7FF"/>
<path fill-rule="evenodd" clip-rule="evenodd" d="M429.401 405.727C429.978 405.727 430.446 405.312 430.446 404.8C430.446 404.289 429.978 403.874 429.401 403.874C428.823 403.874 428.355 404.289 428.355 404.8C428.355 405.312 428.823 405.727 429.401 405.727Z" fill="#EFF7FF"/>
<path d="M607 392C621.359 392 633 380.807 633 367C633 353.193 621.359 342 607 342C592.641 342 581 353.193 581 367C581 380.807 592.641 392 607 392Z" fill="url(#paint48_linear_46_3543)"/>
<path d="M569.857 328.476C581.376 328.476 590.714 319.639 590.714 308.738C590.714 297.837 581.376 289 569.857 289C558.338 289 549 297.837 549 308.738C549 319.639 558.338 328.476 569.857 328.476Z" fill="url(#paint49_linear_46_3543)"/>
<path d="M607 281C618.046 281 627 272.27 627 261.5C627 250.73 618.046 242 607 242C595.954 242 587 250.73 587 261.5C587 272.27 595.954 281 607 281Z" fill="url(#paint50_linear_46_3543)"/>
<path d="M591.781 511.442L647.182 483.927L646.987 429.205L591.781 403.902L536.573 429.205V482.975L591.781 511.442Z" fill="url(#paint51_linear_46_3543)"/>
<path d="M536.573 429.205L591.781 403.902L646.987 429.205L591.781 454.509L536.573 429.205Z" fill="url(#paint52_linear_46_3543)"/>
<path d="M591.781 511.441V454.509L536.573 429.205V484.941L591.781 511.441Z" fill="#0B1347"/>
<path fill-rule="evenodd" clip-rule="evenodd" d="M581.983 458.196C581.983 457.788 582.342 457.483 582.721 457.569L582.967 457.623C583.113 457.663 583.241 457.746 583.33 457.859C583.419 457.973 583.464 458.111 583.458 458.251L583.437 501.545C583.437 501.952 583.077 502.256 582.7 502.172L582.454 502.119C582.307 502.079 582.179 501.995 582.09 501.881C582.001 501.767 581.956 501.629 581.962 501.489L581.983 458.196Z" fill="#431591" fill-opacity="0.66"/>
<path fill-rule="evenodd" clip-rule="evenodd" d="M575.655 454.418C575.655 454.02 576.014 453.724 576.393 453.806L576.639 453.859C576.783 453.896 576.911 453.976 577 454.087C577.089 454.198 577.135 454.333 577.13 454.471L577.111 496.68C577.111 497.076 576.749 497.372 576.373 497.291L576.127 497.238C575.982 497.202 575.854 497.121 575.765 497.01C575.676 496.898 575.63 496.763 575.636 496.624L575.655 454.418Z" fill="#431591" fill-opacity="0.66"/>
<path fill-rule="evenodd" clip-rule="evenodd" d="M569.323 453.098C569.321 453.013 569.339 452.928 569.376 452.85C569.414 452.772 569.47 452.702 569.541 452.647C569.612 452.591 569.695 452.551 569.785 452.529C569.875 452.507 569.969 452.504 570.061 452.519L570.307 452.57C570.448 452.601 570.574 452.675 570.664 452.78C570.753 452.885 570.801 453.016 570.798 453.149L570.78 493.071C570.782 493.156 570.764 493.24 570.726 493.318C570.688 493.396 570.632 493.465 570.561 493.52C570.49 493.576 570.407 493.616 570.318 493.638C570.228 493.66 570.134 493.664 570.042 493.649L569.797 493.599C569.655 493.569 569.528 493.494 569.439 493.389C569.349 493.283 569.302 493.153 569.305 493.019L569.323 453.098Z" fill="#431591" fill-opacity="0.66"/>
<path fill-rule="evenodd" clip-rule="evenodd" d="M562.997 450.017C562.994 449.932 563.012 449.847 563.049 449.769C563.087 449.691 563.143 449.622 563.214 449.566C563.285 449.511 563.368 449.471 563.458 449.449C563.548 449.427 563.642 449.424 563.734 449.439L563.98 449.489C564.121 449.52 564.247 449.594 564.337 449.699C564.426 449.805 564.474 449.935 564.471 450.068L564.453 489.99C564.455 490.075 564.437 490.16 564.399 490.237C564.361 490.315 564.305 490.384 564.234 490.44C564.163 490.495 564.08 490.535 563.991 490.558C563.901 490.58 563.807 490.584 563.716 490.569L563.47 490.518C563.328 490.488 563.202 490.413 563.112 490.308C563.023 490.202 562.975 490.072 562.978 489.938L562.997 450.017Z" fill="#431591" fill-opacity="0.66"/>
<path fill-rule="evenodd" clip-rule="evenodd" d="M556.665 446.824C556.662 446.739 556.68 446.654 556.717 446.576C556.755 446.498 556.811 446.428 556.882 446.373C556.953 446.317 557.036 446.277 557.126 446.255C557.216 446.233 557.31 446.23 557.402 446.246L557.648 446.296C557.789 446.327 557.915 446.401 558.004 446.506C558.094 446.611 558.141 446.741 558.139 446.875L558.121 486.796C558.123 486.882 558.105 486.966 558.067 487.044C558.029 487.122 557.973 487.191 557.903 487.247C557.832 487.302 557.749 487.343 557.659 487.365C557.569 487.387 557.475 487.391 557.384 487.375L557.138 487.325C556.996 487.294 556.87 487.22 556.78 487.114C556.691 487.009 556.643 486.878 556.646 486.745L556.665 446.824Z" fill="#431591" fill-opacity="0.66"/>
<path fill-rule="evenodd" clip-rule="evenodd" d="M550.338 444.221C550.335 444.136 550.353 444.051 550.391 443.973C550.429 443.895 550.485 443.826 550.556 443.77C550.626 443.714 550.71 443.674 550.8 443.652C550.89 443.63 550.984 443.627 551.076 443.642L551.322 443.692C551.463 443.723 551.589 443.797 551.678 443.902C551.768 444.008 551.815 444.138 551.813 444.271L551.795 484.194C551.797 484.279 551.779 484.364 551.741 484.441C551.703 484.519 551.647 484.589 551.576 484.644C551.506 484.699 551.422 484.74 551.333 484.762C551.243 484.784 551.149 484.787 551.057 484.772L550.811 484.722C550.67 484.691 550.544 484.617 550.454 484.511C550.365 484.406 550.318 484.276 550.32 484.142L550.338 444.221Z" fill="#431591" fill-opacity="0.66"/>
<path fill-rule="evenodd" clip-rule="evenodd" d="M544.007 441.381C544.004 441.295 544.022 441.21 544.059 441.132C544.097 441.054 544.153 440.985 544.224 440.929C544.295 440.874 544.378 440.834 544.468 440.812C544.558 440.79 544.652 440.787 544.744 440.803L544.99 440.852C545.131 440.883 545.257 440.957 545.347 441.063C545.436 441.168 545.484 441.298 545.481 441.431L545.463 481.353C545.466 481.438 545.447 481.523 545.41 481.601C545.372 481.679 545.316 481.748 545.245 481.804C545.174 481.859 545.091 481.899 545.001 481.921C544.911 481.943 544.817 481.947 544.726 481.931L544.48 481.881C544.338 481.851 544.212 481.776 544.122 481.671C544.033 481.565 543.986 481.435 543.988 481.301L544.007 441.381Z" fill="#431591" fill-opacity="0.66"/>
<path fill-rule="evenodd" clip-rule="evenodd" d="M536.573 429.205L591.781 454.509L591.878 463.648L536.573 437.375V429.205Z" fill="#0B1347"/>
<path fill-rule="evenodd" clip-rule="evenodd" d="M536.573 475.814L591.878 502.176L591.755 511.391L536.573 484.94V475.814Z" fill="#0B1347"/>
<path fill-rule="evenodd" clip-rule="evenodd" d="M573.656 481.271C573.655 481.172 573.684 481.074 573.738 480.989C573.792 480.903 573.869 480.832 573.963 480.782C574.057 480.733 574.163 480.707 574.271 480.707C574.379 480.707 574.485 480.733 574.578 480.783L575.807 481.437C575.9 481.487 575.978 481.558 576.031 481.643C576.085 481.729 576.113 481.826 576.113 481.924V486.504C576.114 486.603 576.085 486.7 576.031 486.786C575.977 486.872 575.9 486.943 575.806 486.992C575.712 487.042 575.606 487.068 575.498 487.068C575.39 487.068 575.284 487.041 575.191 486.992L573.962 486.337C573.869 486.287 573.791 486.217 573.738 486.131C573.684 486.046 573.656 485.949 573.656 485.85V481.271Z" fill="#90D7FA"/>
<path fill-rule="evenodd" clip-rule="evenodd" d="M581.697 474.907C581.696 474.847 581.713 474.789 581.746 474.737C581.778 474.686 581.825 474.643 581.881 474.613C581.937 474.584 582.001 474.568 582.066 474.568C582.131 474.568 582.195 474.584 582.251 474.614L583.971 475.53C584.027 475.56 584.074 475.602 584.106 475.654C584.139 475.705 584.156 475.764 584.156 475.823V477.655C584.156 477.714 584.139 477.773 584.107 477.824C584.074 477.876 584.027 477.919 583.971 477.948C583.915 477.978 583.851 477.994 583.786 477.994C583.721 477.993 583.658 477.978 583.601 477.948L581.881 477.032C581.825 477.002 581.779 476.96 581.746 476.908C581.714 476.857 581.697 476.799 581.697 476.74V474.907Z" fill="#ED5FAB"/>
<path fill-rule="evenodd" clip-rule="evenodd" d="M567.913 457.353C567.913 457.294 567.93 457.235 567.963 457.184C567.995 457.133 568.042 457.09 568.098 457.06C568.154 457.031 568.218 457.015 568.283 457.015C568.347 457.016 568.411 457.031 568.467 457.061L570.188 457.976C570.244 458.006 570.29 458.048 570.323 458.1C570.355 458.151 570.372 458.21 570.372 458.269V460.102C570.372 460.161 570.355 460.22 570.322 460.271C570.29 460.323 570.243 460.365 570.187 460.395C570.131 460.424 570.067 460.44 570.002 460.44C569.937 460.44 569.874 460.424 569.818 460.394L568.097 459.479C568.041 459.449 567.995 459.407 567.962 459.355C567.93 459.304 567.913 459.245 567.913 459.186V457.353Z" fill="#ED5FAB"/>
<path fill-rule="evenodd" clip-rule="evenodd" d="M556.431 474.997C556.431 474.938 556.448 474.88 556.481 474.828C556.513 474.777 556.56 474.735 556.616 474.705C556.672 474.675 556.735 474.66 556.8 474.66C556.865 474.66 556.928 474.676 556.984 474.705L558.705 475.62C558.761 475.65 558.807 475.692 558.84 475.744C558.872 475.795 558.889 475.854 558.889 475.913V477.745C558.889 477.804 558.872 477.862 558.84 477.914C558.807 477.965 558.761 478.008 558.705 478.038C558.649 478.067 558.585 478.083 558.52 478.083C558.456 478.083 558.392 478.067 558.336 478.038L556.616 477.123C556.56 477.093 556.513 477.05 556.481 476.999C556.449 476.947 556.432 476.889 556.432 476.83L556.431 474.997Z" fill="#ED5FAB"/>
<path fill-rule="evenodd" clip-rule="evenodd" d="M544.019 449.763C544.019 449.703 544.036 449.645 544.069 449.594C544.101 449.543 544.148 449.5 544.204 449.471C544.26 449.441 544.323 449.425 544.388 449.426C544.452 449.426 544.516 449.441 544.572 449.471L546.292 450.386C546.349 450.415 546.395 450.458 546.427 450.509C546.46 450.561 546.477 450.619 546.477 450.679V452.51C546.477 452.57 546.46 452.628 546.427 452.679C546.395 452.731 546.349 452.774 546.293 452.803C546.236 452.833 546.173 452.849 546.108 452.849C546.043 452.849 545.98 452.833 545.924 452.803L544.203 451.888C544.147 451.859 544.101 451.816 544.069 451.764C544.037 451.713 544.02 451.655 544.02 451.596L544.019 449.763Z" fill="#ED5FAB"/>
<path fill-rule="evenodd" clip-rule="evenodd" d="M556.431 457.09C556.431 456.991 556.46 456.894 556.514 456.808C556.568 456.723 556.646 456.651 556.739 456.602C556.833 456.553 556.939 456.527 557.047 456.527C557.155 456.527 557.261 456.554 557.354 456.603L558.583 457.257C558.676 457.306 558.754 457.377 558.807 457.463C558.861 457.549 558.889 457.646 558.889 457.744V462.324C558.889 462.423 558.86 462.52 558.806 462.606C558.752 462.691 558.675 462.762 558.581 462.812C558.487 462.861 558.381 462.887 558.273 462.887C558.165 462.887 558.06 462.86 557.966 462.811L556.737 462.157C556.644 462.108 556.567 462.037 556.513 461.951C556.459 461.865 556.431 461.768 556.431 461.669V457.09Z" fill="#90D7FA"/>
<path fill-rule="evenodd" clip-rule="evenodd" d="M543.158 468.018C543.159 467.919 543.187 467.822 543.241 467.736C543.295 467.65 543.373 467.579 543.467 467.53C543.56 467.481 543.666 467.455 543.774 467.455C543.882 467.455 543.988 467.481 544.081 467.531L545.31 468.184C545.404 468.234 545.481 468.305 545.535 468.391C545.588 468.476 545.617 468.573 545.616 468.672V473.252C545.616 473.351 545.588 473.448 545.534 473.534C545.48 473.619 545.402 473.69 545.308 473.74C545.215 473.789 545.109 473.815 545.001 473.815C544.893 473.814 544.787 473.788 544.693 473.738L543.464 473.085C543.371 473.035 543.294 472.964 543.24 472.879C543.187 472.793 543.158 472.696 543.158 472.597V468.018Z" fill="#90D7FA"/>
<path fill-rule="evenodd" clip-rule="evenodd" d="M592.457 202L633.497 202V423L592.45 443L550 423.5V202H585.712H592.457Z" fill="url(#paint53_linear_46_3543)" fill-opacity="0.8"/>
<path fill-rule="evenodd" clip-rule="evenodd" d="M591.945 418.586L617.314 430.877L591.938 443.166L566.563 430.877L591.945 418.586Z" fill="url(#paint54_linear_46_3543)"/>
<path opacity="0.25" d="M648.233 87H545.865C528.819 87 515 100.165 515 116.404V179.354C515 195.593 528.819 208.758 545.865 208.758H648.233C665.279 208.758 679.098 195.593 679.098 179.354V116.404C679.098 100.165 665.279 87 648.233 87Z" fill="url(#paint55_linear_46_3543)"/>
<path opacity="0.25" d="M638.312 97.1582H553.343C539.078 97.1582 527.514 108.175 527.514 121.765V173.928C527.514 187.518 539.078 198.535 553.343 198.535H638.312C652.577 198.535 664.141 187.518 664.141 173.928V121.765C664.141 108.175 652.577 97.1582 638.312 97.1582Z" fill="url(#paint56_linear_46_3543)"/>
<path d="M629.302 109.059H562.028C552.057 109.059 543.975 116.759 543.975 126.257V171.079C543.975 180.578 552.057 188.278 562.028 188.278H629.302C639.272 188.278 647.354 180.578 647.354 171.079V126.257C647.354 116.759 639.272 109.059 629.302 109.059Z" fill="url(#paint57_linear_46_3543)"/>
<g style="mix-blend-mode:color-dodge" opacity="0.55">
<path d="M623.587 156.463C626.957 156.463 629.689 153.273 629.689 149.337C629.689 145.401 626.957 142.211 623.587 142.211C620.217 142.211 617.485 145.401 617.485 149.337C617.485 153.273 620.217 156.463 623.587 156.463Z" fill="url(#paint58_linear_46_3543)"/>
<path d="M613.832 141.69C615.747 141.406 617.037 139.569 616.713 137.586C616.389 135.604 614.574 134.227 612.659 134.511C610.744 134.795 609.454 136.632 609.778 138.615C610.102 140.597 611.917 141.974 613.832 141.69Z" fill="url(#paint59_linear_46_3543)"/>
<path d="M584.638 139.393C585.084 137.433 583.91 135.526 582.016 135.135C580.122 134.744 578.225 136.016 577.779 137.977C577.333 139.938 578.507 141.844 580.401 142.236C582.295 142.627 584.192 141.354 584.638 139.393Z" fill="url(#paint60_linear_46_3543)"/>
<path d="M565.349 164.116C568.297 164.116 570.686 162.424 570.686 160.338C570.686 158.252 568.297 156.561 565.349 156.561C562.401 156.561 560.011 158.252 560.011 160.338C560.011 162.424 562.401 164.116 565.349 164.116Z" fill="url(#paint61_linear_46_3543)"/>
<path d="M633.988 164.116C636.935 164.116 639.325 162.424 639.325 160.338C639.325 158.252 636.935 156.561 633.988 156.561C631.04 156.561 628.65 158.252 628.65 160.338C628.65 162.424 631.04 164.116 633.988 164.116Z" fill="url(#paint62_linear_46_3543)"/>
<path d="M574.144 156.463C577.514 156.463 580.246 153.273 580.246 149.337C580.246 145.401 577.514 142.211 574.144 142.211C570.774 142.211 568.042 145.401 568.042 149.337C568.042 153.273 570.774 156.463 574.144 156.463Z" fill="url(#paint63_linear_46_3543)"/>
<path d="M596.277 156.707V164.554" stroke="url(#paint64_linear_46_3543)" stroke-width="2" stroke-miterlimit="10"/>
<path d="M608.571 157.432C605.579 161.973 601.182 164.842 596.277 164.842C591.371 164.842 586.976 161.973 583.984 157.432" stroke="url(#paint65_linear_46_3543)" stroke-width="2" stroke-miterlimit="10" stroke-linecap="round"/>
<path d="M596.277 156.739C600.408 156.739 603.757 154.627 603.757 152.021C603.757 149.415 600.408 147.303 596.277 147.303C592.145 147.303 588.796 149.415 588.796 152.021C588.796 154.627 592.145 156.739 596.277 156.739Z" fill="url(#paint66_linear_46_3543)"/>
</g>
<path opacity="0.2" d="M629.223 109.209H561.948C551.978 109.209 543.896 116.909 543.896 126.407V171.23C543.896 180.728 551.978 188.428 561.948 188.428H629.223C639.193 188.428 647.275 180.728 647.275 171.23V126.407C647.275 116.909 639.193 109.209 629.223 109.209Z" fill="url(#paint67_linear_46_3543)"/>
<defs>
<filter id="filter0_f_46_3543" x="0" y="242.135" width="856" height="511.864" filterUnits="userSpaceOnUse" color-interpolation-filters="sRGB">
<feFlood flood-opacity="0" result="BackgroundImageFix"/>
<feBlend mode="normal" in="SourceGraphic" in2="BackgroundImageFix" result="shape"/>
<feGaussianBlur stdDeviation="50" result="effect1_foregroundBlur_46_3543"/>
</filter>
<filter id="filter1_f_46_3543" x="202.363" y="258.546" width="150.724" height="255.414" filterUnits="userSpaceOnUse" color-interpolation-filters="sRGB">
<feFlood flood-opacity="0" result="BackgroundImageFix"/>
<feBlend mode="normal" in="SourceGraphic" in2="BackgroundImageFix" result="shape"/>
<feGaussianBlur stdDeviation="15" result="effect1_foregroundBlur_46_3543"/>
</filter>
<linearGradient id="paint0_linear_46_3543" x1="568.854" y1="692.707" x2="705.495" y2="460.45" gradientUnits="userSpaceOnUse">
<stop stop-color="#775BF1"/>
<stop offset="1" stop-color="#D8D0F8"/>
</linearGradient>
<linearGradient id="paint1_linear_46_3543" x1="18.6739" y1="545.792" x2="155.295" y2="778.076" gradientUnits="userSpaceOnUse">
<stop stop-color="#775BF1"/>
<stop offset="1" stop-color="#D1C8F8"/>
</linearGradient>
<linearGradient id="paint2_linear_46_3543" x1="366.751" y1="226.03" x2="526.5" y2="226.03" gradientUnits="userSpaceOnUse">
<stop stop-color="#1C1667"/>
<stop offset="0.23" stop-color="#1B1464"/>
<stop offset="1" stop-color="#E349F9"/>
</linearGradient>
<linearGradient id="paint3_linear_46_3543" x1="382.973" y1="210.09" x2="531.676" y2="210.09" gradientUnits="userSpaceOnUse">
<stop stop-color="#1C1667"/>
<stop offset="0.18" stop-color="#1B1464"/>
<stop offset="0.27" stop-color="#26176C"/>
<stop offset="0.42" stop-color="#441F83"/>
<stop offset="0.62" stop-color="#752CA7"/>
<stop offset="0.86" stop-color="#B83DD9"/>
<stop offset="1" stop-color="#E349F9"/>
</linearGradient>
<linearGradient id="paint4_linear_46_3543" x1="418.65" y1="158.104" x2="481.025" y2="158.798" gradientUnits="userSpaceOnUse">
<stop stop-color="#1C1667"/>
<stop offset="0.18" stop-color="#1B1464"/>
<stop offset="0.27" stop-color="#26176C"/>
<stop offset="0.42" stop-color="#441F83"/>
<stop offset="0.62" stop-color="#752CA7"/>
<stop offset="0.86" stop-color="#B83DD9"/>
<stop offset="1" stop-color="#E349F9"/>
</linearGradient>
<linearGradient id="paint5_linear_46_3543" x1="452.316" y1="131.634" x2="448.94" y2="132.369" gradientUnits="userSpaceOnUse">
<stop stop-color="#E349F9"/>
<stop offset="0.03" stop-color="#DB47F3"/>
<stop offset="0.27" stop-color="#9836C2"/>
<stop offset="0.49" stop-color="#63289B"/>
<stop offset="0.68" stop-color="#3C1E7F"/>
<stop offset="0.83" stop-color="#25186D"/>
<stop offset="0.93" stop-color="#1C1667"/>
<stop offset="1" stop-color="#1B1464"/>
</linearGradient>
<linearGradient id="paint6_linear_46_3543" x1="457.088" y1="136.252" x2="445.018" y2="137.172" gradientUnits="userSpaceOnUse">
<stop stop-color="#E349F9"/>
<stop offset="0.03" stop-color="#DB47F3"/>
<stop offset="0.27" stop-color="#9836C2"/>
<stop offset="0.49" stop-color="#63289B"/>
<stop offset="0.68" stop-color="#3C1E7F"/>
<stop offset="0.83" stop-color="#25186D"/>
<stop offset="0.93" stop-color="#1C1667"/>
<stop offset="1" stop-color="#1B1464"/>
</linearGradient>
<linearGradient id="paint7_linear_46_3543" x1="399.105" y1="239.837" x2="499.201" y2="239.837" gradientUnits="userSpaceOnUse">
<stop stop-color="#1C1667"/>
<stop offset="0.18" stop-color="#1B1464"/>
<stop offset="0.27" stop-color="#26176C"/>
<stop offset="0.42" stop-color="#441F83"/>
<stop offset="0.62" stop-color="#752CA7"/>
<stop offset="0.86" stop-color="#B83DD9"/>
<stop offset="1" stop-color="#E349F9"/>
</linearGradient>
<linearGradient id="paint8_linear_46_3543" x1="411.687" y1="331.689" x2="565.616" y2="331.689" gradientUnits="userSpaceOnUse">
<stop offset="0.1" stop-color="#1C1667"/>
<stop offset="0.18" stop-color="#1B1464"/>
<stop offset="0.25" stop-color="#26176C"/>
<stop offset="0.37" stop-color="#441F83"/>
<stop offset="0.52" stop-color="#752CA7"/>
<stop offset="0.7" stop-color="#B83DD9"/>
<stop offset="0.81" stop-color="#E349F9"/>
</linearGradient>
<linearGradient id="paint9_linear_46_3543" x1="432.417" y1="315.917" x2="439.494" y2="315.917" gradientUnits="userSpaceOnUse">
<stop stop-color="#2E3192"/>
<stop offset="0.74" stop-color="#1C1667"/>
<stop offset="1" stop-color="#1B1464"/>
</linearGradient>
<linearGradient id="paint10_linear_46_3543" x1="420.89" y1="307.671" x2="427.967" y2="307.671" gradientUnits="userSpaceOnUse">
<stop stop-color="#2E3192"/>
<stop offset="0.74" stop-color="#1C1667"/>
<stop offset="1" stop-color="#1B1464"/>
</linearGradient>
<linearGradient id="paint11_linear_46_3543" x1="409.364" y1="300.339" x2="416.442" y2="300.339" gradientUnits="userSpaceOnUse">
<stop stop-color="#2E3192"/>
<stop offset="0.74" stop-color="#1C1667"/>
<stop offset="1" stop-color="#1B1464"/>
</linearGradient>
<linearGradient id="paint12_linear_46_3543" x1="397.838" y1="293.925" x2="404.916" y2="293.925" gradientUnits="userSpaceOnUse">
<stop stop-color="#2E3192"/>
<stop offset="0.74" stop-color="#1C1667"/>
<stop offset="1" stop-color="#1B1464"/>
</linearGradient>
<linearGradient id="paint13_linear_46_3543" x1="386.312" y1="287.511" x2="393.389" y2="287.511" gradientUnits="userSpaceOnUse">
<stop stop-color="#2E3192"/>
<stop offset="0.74" stop-color="#1C1667"/>
<stop offset="1" stop-color="#1B1464"/>
</linearGradient>
<linearGradient id="paint14_linear_46_3543" x1="374.786" y1="282.012" x2="381.863" y2="282.012" gradientUnits="userSpaceOnUse">
<stop stop-color="#2E3192"/>
<stop offset="0.74" stop-color="#1C1667"/>
<stop offset="1" stop-color="#1B1464"/>
</linearGradient>
<linearGradient id="paint15_linear_46_3543" x1="422.954" y1="410.086" x2="520.886" y2="406.288" gradientUnits="userSpaceOnUse">
<stop stop-color="#1C1667"/>
<stop offset="0.18" stop-color="#1B1464"/>
<stop offset="0.27" stop-color="#26176C"/>
<stop offset="0.42" stop-color="#441F83"/>
<stop offset="0.62" stop-color="#752CA7"/>
<stop offset="0.86" stop-color="#B83DD9"/>
<stop offset="1" stop-color="#E349F9"/>
</linearGradient>
<linearGradient id="paint16_linear_46_3543" x1="429.022" y1="389.633" x2="438.117" y2="389.356" gradientUnits="userSpaceOnUse">
<stop stop-color="#2E3192"/>
<stop offset="0.74" stop-color="#1C1667"/>
<stop offset="1" stop-color="#1B1464"/>
</linearGradient>
<linearGradient id="paint17_linear_46_3543" x1="415.626" y1="381.719" x2="424.727" y2="381.442" gradientUnits="userSpaceOnUse">
<stop stop-color="#2E3192"/>
<stop offset="0.74" stop-color="#1C1667"/>
<stop offset="1" stop-color="#1B1464"/>
</linearGradient>
<linearGradient id="paint18_linear_46_3543" x1="401.211" y1="373.37" x2="409.737" y2="373.111" gradientUnits="userSpaceOnUse">
<stop stop-color="#2E3192"/>
<stop offset="0.74" stop-color="#1C1667"/>
<stop offset="1" stop-color="#1B1464"/>
</linearGradient>
<linearGradient id="paint19_linear_46_3543" x1="386.474" y1="365.489" x2="395" y2="365.23" gradientUnits="userSpaceOnUse">
<stop stop-color="#2E3192"/>
<stop offset="0.74" stop-color="#1C1667"/>
<stop offset="1" stop-color="#1B1464"/>
</linearGradient>
<linearGradient id="paint20_linear_46_3543" x1="372.41" y1="357.59" x2="380.501" y2="357.344" gradientUnits="userSpaceOnUse">
<stop stop-color="#2E3192"/>
<stop offset="0.74" stop-color="#1C1667"/>
<stop offset="1" stop-color="#1B1464"/>
</linearGradient>
<linearGradient id="paint21_linear_46_3543" x1="444.969" y1="117.234" x2="472.316" y2="127.399" gradientUnits="userSpaceOnUse">
<stop stop-color="#1C1667"/>
<stop offset="0.23" stop-color="#1B1464"/>
<stop offset="1" stop-color="#E349F9"/>
</linearGradient>
<linearGradient id="paint22_linear_46_3543" x1="453.106" y1="127.721" x2="448.198" y2="129.753" gradientUnits="userSpaceOnUse">
<stop stop-color="#E349F9"/>
<stop offset="0.03" stop-color="#DB47F3"/>
<stop offset="0.27" stop-color="#9836C2"/>
<stop offset="0.49" stop-color="#63289B"/>
<stop offset="0.68" stop-color="#3C1E7F"/>
<stop offset="0.83" stop-color="#25186D"/>
<stop offset="0.93" stop-color="#1C1667"/>
<stop offset="1" stop-color="#1B1464"/>
</linearGradient>
<linearGradient id="paint23_linear_46_3543" x1="244" y1="195.112" x2="358.087" y2="195.112" gradientUnits="userSpaceOnUse">
<stop stop-color="#1C1667"/>
<stop offset="0.18" stop-color="#1B1464"/>
<stop offset="0.27" stop-color="#26176C"/>
<stop offset="0.42" stop-color="#441F83"/>
<stop offset="0.62" stop-color="#752CA7"/>
<stop offset="0.86" stop-color="#B83DD9"/>
<stop offset="1" stop-color="#E349F9"/>
</linearGradient>
<linearGradient id="paint24_linear_46_3543" x1="256.224" y1="195.113" x2="347.901" y2="195.113" gradientUnits="userSpaceOnUse">
<stop stop-color="#1C1667"/>
<stop offset="0.18" stop-color="#1B1464"/>
<stop offset="0.27" stop-color="#26176C"/>
<stop offset="0.42" stop-color="#441F83"/>
<stop offset="0.62" stop-color="#752CA7"/>
<stop offset="0.86" stop-color="#B83DD9"/>
<stop offset="1" stop-color="#E349F9"/>
</linearGradient>
<linearGradient id="paint25_linear_46_3543" x1="269.466" y1="195.113" x2="332.621" y2="195.113" gradientUnits="userSpaceOnUse">
<stop stop-color="#1C1667"/>
<stop offset="0.18" stop-color="#1B1464"/>
<stop offset="0.27" stop-color="#26176C"/>
<stop offset="0.42" stop-color="#441F83"/>
<stop offset="0.62" stop-color="#752CA7"/>
<stop offset="0.86" stop-color="#B83DD9"/>
<stop offset="1" stop-color="#E349F9"/>
</linearGradient>
<linearGradient id="paint26_linear_46_3543" x1="439" y1="42" x2="530" y2="42" gradientUnits="userSpaceOnUse">
<stop stop-color="#1C1667"/>
<stop offset="0.18" stop-color="#1B1464"/>
<stop offset="0.27" stop-color="#26176C"/>
<stop offset="0.42" stop-color="#441F83"/>
<stop offset="0.62" stop-color="#752CA7"/>
<stop offset="0.86" stop-color="#B83DD9"/>
<stop offset="1" stop-color="#E349F9"/>
</linearGradient>
<linearGradient id="paint27_linear_46_3543" x1="448.75" y1="42" x2="521.875" y2="42" gradientUnits="userSpaceOnUse">
<stop stop-color="#1C1667"/>
<stop offset="0.18" stop-color="#1B1464"/>
<stop offset="0.27" stop-color="#26176C"/>
<stop offset="0.42" stop-color="#441F83"/>
<stop offset="0.62" stop-color="#752CA7"/>
<stop offset="0.86" stop-color="#B83DD9"/>
<stop offset="1" stop-color="#E349F9"/>
</linearGradient>
<linearGradient id="paint28_linear_46_3543" x1="459.312" y1="42" x2="509.688" y2="42" gradientUnits="userSpaceOnUse">
<stop stop-color="#1C1667"/>
<stop offset="0.18" stop-color="#1B1464"/>
<stop offset="0.27" stop-color="#26176C"/>
<stop offset="0.42" stop-color="#441F83"/>
<stop offset="0.62" stop-color="#752CA7"/>
<stop offset="0.86" stop-color="#B83DD9"/>
<stop offset="1" stop-color="#E349F9"/>
</linearGradient>
<linearGradient id="paint29_linear_46_3543" x1="340" y1="354.14" x2="297.952" y2="412.364" gradientUnits="userSpaceOnUse">
<stop stop-color="#2B1870"/>
<stop offset="1" stop-color="#0B1347"/>
</linearGradient>
<linearGradient id="paint30_linear_46_3543" x1="384.522" y1="303.799" x2="296.174" y2="303.799" gradientUnits="userSpaceOnUse">
<stop stop-color="#DD47F5"/>
<stop offset="0.920755" stop-color="#1B1464"/>
</linearGradient>
<linearGradient id="paint31_linear_46_3543" x1="343.478" y1="400.299" x2="357.531" y2="335.176" gradientUnits="userSpaceOnUse">
<stop stop-color="#462186"/>
<stop offset="1" stop-color="#9A37C3"/>
</linearGradient>
<linearGradient id="paint32_linear_46_3543" x1="324.848" y1="278.037" x2="324.848" y2="337.385" gradientUnits="userSpaceOnUse">
<stop stop-color="#EA5B9D" stop-opacity="0"/>
<stop offset="0.916667" stop-color="#FE4690"/>
</linearGradient>
<linearGradient id="paint33_linear_46_3543" x1="321.142" y1="317.168" x2="321.142" y2="337.386" gradientUnits="userSpaceOnUse">
<stop stop-color="#FFBFD6" stop-opacity="0.87"/>
<stop offset="1" stop-color="#FC3B8B"/>
</linearGradient>
<linearGradient id="paint34_linear_46_3543" x1="277.737" y1="326.254" x2="277.737" y2="483.96" gradientUnits="userSpaceOnUse">
<stop stop-color="#C8538A" stop-opacity="0.01"/>
<stop offset="1" stop-color="#CF548B"/>
</linearGradient>
<linearGradient id="paint35_linear_46_3543" x1="354.206" y1="437.752" x2="217.31" y2="450.308" gradientUnits="userSpaceOnUse">
<stop stop-color="#E349F9"/>
<stop offset="0.03" stop-color="#DB47F3"/>
<stop offset="0.26" stop-color="#9836C2"/>
<stop offset="0.46" stop-color="#63289B"/>
<stop offset="0.64" stop-color="#3C1E7F"/>
<stop offset="0.79" stop-color="#25186D"/>
<stop offset="0.88" stop-color="#1C1667"/>
<stop offset="1" stop-color="#1B1464"/>
</linearGradient>
<linearGradient id="paint36_linear_46_3543" x1="194.864" y1="418.577" x2="335.204" y2="418.577" gradientUnits="userSpaceOnUse">
<stop offset="0.11" stop-color="#1C1667"/>
<stop offset="0.27" stop-color="#1B1464"/>
<stop offset="0.33" stop-color="#26176C"/>
<stop offset="0.45" stop-color="#441F83"/>
<stop offset="0.6" stop-color="#752CA7"/>
<stop offset="0.78" stop-color="#B83DD9"/>
<stop offset="0.89" stop-color="#E349F9"/>
</linearGradient>
<linearGradient id="paint37_linear_46_3543" x1="549.856" y1="381" x2="512.22" y2="413.9" gradientUnits="userSpaceOnUse">
<stop stop-color="#5F2D9F"/>
<stop offset="1" stop-color="#0B1347"/>
</linearGradient>
<linearGradient id="paint38_linear_46_3543" x1="534.665" y1="372.885" x2="534.665" y2="378.892" gradientUnits="userSpaceOnUse">
<stop stop-color="#73F7FB"/>
<stop offset="1" stop-color="white" stop-opacity="0.01"/>
</linearGradient>
<linearGradient id="paint39_linear_46_3543" x1="541.293" y1="375.836" x2="541.293" y2="381.843" gradientUnits="userSpaceOnUse">
<stop stop-color="#73F7FB"/>
<stop offset="1" stop-color="white" stop-opacity="0.01"/>
</linearGradient>
<linearGradient id="paint40_linear_46_3543" x1="500.696" y1="349.521" x2="570.909" y2="398.377" gradientUnits="userSpaceOnUse">
<stop stop-color="#311B6C"/>
<stop offset="1" stop-color="#CC43E8"/>
</linearGradient>
<linearGradient id="paint41_linear_46_3543" x1="600.858" y1="386.776" x2="550.554" y2="405.152" gradientUnits="userSpaceOnUse">
<stop stop-color="#CD43E8"/>
<stop offset="1" stop-color="#2E1971"/>
</linearGradient>
<linearGradient id="paint42_linear_46_3543" x1="522.883" y1="524.066" x2="388.436" y2="553.551" gradientUnits="userSpaceOnUse">
<stop stop-color="#E349F9"/>
<stop offset="0.03" stop-color="#DB47F3"/>
<stop offset="0.26" stop-color="#9836C2"/>
<stop offset="0.46" stop-color="#63289B"/>
<stop offset="0.64" stop-color="#3C1E7F"/>
<stop offset="0.79" stop-color="#25186D"/>
<stop offset="0.88" stop-color="#1C1667"/>
<stop offset="1" stop-color="#1B1464"/>
</linearGradient>
<linearGradient id="paint43_linear_46_3543" x1="474.883" y1="434.108" x2="368.439" y2="470.312" gradientUnits="userSpaceOnUse">
<stop stop-color="#E349F9"/>
<stop offset="0.03" stop-color="#DB47F3"/>
<stop offset="0.26" stop-color="#9836C2"/>
<stop offset="0.46" stop-color="#63289B"/>
<stop offset="0.64" stop-color="#3C1E7F"/>
<stop offset="0.79" stop-color="#25186D"/>
<stop offset="0.88" stop-color="#1C1667"/>
<stop offset="1" stop-color="#1B1464"/>
</linearGradient>
<linearGradient id="paint44_linear_46_3543" x1="418.057" y1="391.361" x2="418.057" y2="459.171" gradientUnits="userSpaceOnUse">
<stop stop-color="#D9498D" stop-opacity="0.01"/>
<stop offset="1" stop-color="#E1488E"/>
</linearGradient>
<linearGradient id="paint45_linear_46_3543" x1="413.719" y1="436.309" x2="413.719" y2="459.409" gradientUnits="userSpaceOnUse">
<stop stop-color="#FFC9E0" stop-opacity="0.67"/>
<stop offset="1" stop-color="#FB3B8F"/>
</linearGradient>
<linearGradient id="paint46_linear_46_3543" x1="428.625" y1="410.263" x2="413.585" y2="421.167" gradientUnits="userSpaceOnUse">
<stop stop-color="#F187AE"/>
<stop offset="1" stop-color="#BB69BE"/>
</linearGradient>
<linearGradient id="paint47_linear_46_3543" x1="442.929" y1="410.263" x2="457.968" y2="421.167" gradientUnits="userSpaceOnUse">
<stop stop-color="#FB9AB5"/>
<stop offset="1" stop-color="#A952D5"/>
</linearGradient>
<linearGradient id="paint48_linear_46_3543" x1="581" y1="367" x2="629.949" y2="367" gradientUnits="userSpaceOnUse">
<stop stop-color="#1C1667"/>
<stop offset="0.18" stop-color="#1B1464"/>
<stop offset="0.27" stop-color="#26176C"/>
<stop offset="0.42" stop-color="#441F83"/>
<stop offset="0.62" stop-color="#752CA7"/>
<stop offset="0.86" stop-color="#B83DD9"/>
<stop offset="1" stop-color="#E349F9"/>
</linearGradient>
<linearGradient id="paint49_linear_46_3543" x1="549" y1="308.738" x2="590.714" y2="308.738" gradientUnits="userSpaceOnUse">
<stop stop-color="#1C1667"/>
<stop offset="0.18" stop-color="#1B1464"/>
<stop offset="0.27" stop-color="#26176C"/>
<stop offset="0.42" stop-color="#441F83"/>
<stop offset="0.62" stop-color="#752CA7"/>
<stop offset="0.86" stop-color="#B83DD9"/>
<stop offset="1" stop-color="#E349F9"/>
</linearGradient>
<linearGradient id="paint50_linear_46_3543" x1="587" y1="261.5" x2="627" y2="261.5" gradientUnits="userSpaceOnUse">
<stop stop-color="#1C1667"/>
<stop offset="0.18" stop-color="#1B1464"/>
<stop offset="0.27" stop-color="#26176C"/>
<stop offset="0.42" stop-color="#441F83"/>
<stop offset="0.62" stop-color="#752CA7"/>
<stop offset="0.86" stop-color="#B83DD9"/>
<stop offset="1" stop-color="#E349F9"/>
</linearGradient>
<linearGradient id="paint51_linear_46_3543" x1="682.911" y1="450.401" x2="526.364" y2="465.264" gradientUnits="userSpaceOnUse">
<stop stop-color="#E349F9"/>
<stop offset="0.03" stop-color="#DB47F3"/>
<stop offset="0.26" stop-color="#9836C2"/>
<stop offset="0.46" stop-color="#63289B"/>
<stop offset="0.64" stop-color="#3C1E7F"/>
<stop offset="0.79" stop-color="#25186D"/>
<stop offset="0.88" stop-color="#1C1667"/>
<stop offset="1" stop-color="#1B1464"/>
</linearGradient>
<linearGradient id="paint52_linear_46_3543" x1="500.588" y1="429.205" x2="661.168" y2="429.205" gradientUnits="userSpaceOnUse">
<stop offset="0.11" stop-color="#1C1667"/>
<stop offset="0.27" stop-color="#1B1464"/>
<stop offset="0.33" stop-color="#26176C"/>
<stop offset="0.45" stop-color="#441F83"/>
<stop offset="0.6" stop-color="#752CA7"/>
<stop offset="0.78" stop-color="#B83DD9"/>
<stop offset="0.89" stop-color="#E349F9"/>
</linearGradient>
<linearGradient id="paint53_linear_46_3543" x1="558.056" y1="248.506" x2="558.056" y2="443" gradientUnits="userSpaceOnUse">
<stop stop-color="#EA5B9D" stop-opacity="0"/>
<stop offset="0.916667" stop-color="#FE4690"/>
</linearGradient>
<linearGradient id="paint54_linear_46_3543" x1="591.945" y1="418.586" x2="591.945" y2="443.166" gradientUnits="userSpaceOnUse">
<stop stop-color="#F6CADE" stop-opacity="0.67"/>
<stop offset="1" stop-color="#E64D8D"/>
</linearGradient>
<linearGradient id="paint55_linear_46_3543" x1="527.061" y1="92.0003" x2="661.393" y2="210.173" gradientUnits="userSpaceOnUse">
<stop stop-color="#1C1667"/>
<stop offset="0.18" stop-color="#1B1464"/>
<stop offset="0.27" stop-color="#26176C"/>
<stop offset="0.42" stop-color="#441F83"/>
<stop offset="0.62" stop-color="#752CA7"/>
<stop offset="0.86" stop-color="#B83DD9"/>
<stop offset="1" stop-color="#E349F9"/>
</linearGradient>
<linearGradient id="paint56_linear_46_3543" x1="537.596" y1="101.353" x2="649.363" y2="199.677" gradientUnits="userSpaceOnUse">
<stop stop-color="#1C1667"/>
<stop offset="0.18" stop-color="#1B1464"/>
<stop offset="0.27" stop-color="#26176C"/>
<stop offset="0.42" stop-color="#441F83"/>
<stop offset="0.62" stop-color="#752CA7"/>
<stop offset="0.86" stop-color="#B83DD9"/>
<stop offset="1" stop-color="#E349F9"/>
</linearGradient>
<linearGradient id="paint57_linear_46_3543" x1="550.487" y1="112.599" x2="637.199" y2="188.878" gradientUnits="userSpaceOnUse">
<stop stop-color="#1C1667"/>
<stop offset="0.18" stop-color="#1B1464"/>
<stop offset="0.27" stop-color="#26176C"/>
<stop offset="0.42" stop-color="#441F83"/>
<stop offset="0.62" stop-color="#752CA7"/>
<stop offset="0.86" stop-color="#B83DD9"/>
<stop offset="1" stop-color="#E349F9"/>
</linearGradient>
<linearGradient id="paint58_linear_46_3543" x1="617.485" y1="149.337" x2="629.687" y2="149.337" gradientUnits="userSpaceOnUse">
<stop stop-color="#FE7E61"/>
<stop offset="1" stop-color="#FEBF5C"/>
</linearGradient>
<linearGradient id="paint59_linear_46_3543" x1="609.726" y1="138.106" x2="616.758" y2="138.106" gradientUnits="userSpaceOnUse">
<stop stop-color="#FE7E61"/>
<stop offset="1" stop-color="#FEBF5C"/>
</linearGradient>
<linearGradient id="paint60_linear_46_3543" x1="577.681" y1="138.689" x2="584.727" y2="138.689" gradientUnits="userSpaceOnUse">
<stop stop-color="#FE7E61"/>
<stop offset="1" stop-color="#FEBF5C"/>
</linearGradient>
<linearGradient id="paint61_linear_46_3543" x1="560.009" y1="160.338" x2="570.686" y2="160.338" gradientUnits="userSpaceOnUse">
<stop stop-color="#FE7E61"/>
<stop offset="1" stop-color="#FEBF5C"/>
</linearGradient>
<linearGradient id="paint62_linear_46_3543" x1="628.648" y1="160.338" x2="639.325" y2="160.338" gradientUnits="userSpaceOnUse">
<stop stop-color="#FE7E61"/>
<stop offset="1" stop-color="#FEBF5C"/>
</linearGradient>
<linearGradient id="paint63_linear_46_3543" x1="568.042" y1="149.337" x2="580.246" y2="149.337" gradientUnits="userSpaceOnUse">
<stop stop-color="#FE7E61"/>
<stop offset="1" stop-color="#FEBF5C"/>
</linearGradient>
<linearGradient id="paint64_linear_46_3543" x1="nan" y1="nan" x2="nan" y2="nan" gradientUnits="userSpaceOnUse">
<stop stop-color="#FE7E61"/>
<stop offset="1" stop-color="#FEBF5C"/>
</linearGradient>
<linearGradient id="paint65_linear_46_3543" x1="583.565" y1="161.247" x2="608.99" y2="161.247" gradientUnits="userSpaceOnUse">
<stop stop-color="#FE7E61"/>
<stop offset="1" stop-color="#FEBF5C"/>
</linearGradient>
<linearGradient id="paint66_linear_46_3543" x1="588.796" y1="152.021" x2="603.757" y2="152.021" gradientUnits="userSpaceOnUse">
<stop stop-color="#FE7E61"/>
<stop offset="1" stop-color="#FEBF5C"/>
</linearGradient>
<linearGradient id="paint67_linear_46_3543" x1="544" y1="108.999" x2="636.927" y2="189.327" gradientUnits="userSpaceOnUse">
<stop stop-color="#1C1667"/>
<stop offset="0.18" stop-color="#1B1464"/>
<stop offset="0.27" stop-color="#26176C"/>
<stop offset="0.42" stop-color="#441F83"/>
<stop offset="0.62" stop-color="#752CA7"/>
<stop offset="0.86" stop-color="#B83DD9"/>
<stop offset="1" stop-color="#E349F9"/>
</linearGradient>
<clipPath id="clip0_46_3543">
<rect width="15.6005" height="12.6625" fill="white" transform="translate(449.451 113.471)"/>
</clipPath>
<clipPath id="clip1_46_3543">
<rect width="114.087" height="106.467" fill="white" transform="translate(244 141.879)"/>
</clipPath>
<clipPath id="clip2_46_3543">
<rect width="91" height="84" fill="white" transform="translate(439)"/>
</clipPath>
<clipPath id="clip3_46_3543">
<rect width="58.4294" height="78.9663" fill="white" transform="matrix(0.999914 -0.0131034 0.0130286 0.999915 245.131 343.219)"/>
</clipPath>
<clipPath id="clip4_46_3543">
<rect width="42.7096" height="7.12461" fill="white" transform="matrix(0.999914 -0.0131034 0.0130286 0.999915 252.212 396.223)"/>
</clipPath>
</defs>
</svg>
